<svg width="56" height="56" viewBox="0 0 56 56" fill="none" xmlns="http://www.w3.org/2000/svg">
<path d="M45.5 7H40.25V5.25C40.25 4.78587 40.0656 4.34075 39.7374 4.01256C39.4092 3.68437 38.9641 3.5 38.5 3.5C38.0359 3.5 37.5907 3.68437 37.2626 4.01256C36.9344 4.34075 36.75 4.78587 36.75 5.25V7H19.25V5.25C19.25 4.78587 19.0656 4.34075 18.7374 4.01256C18.4092 3.68437 17.9641 3.5 17.5 3.5C17.0359 3.5 16.5908 3.68437 16.2626 4.01256C15.9344 4.34075 15.75 4.78587 15.75 5.25V7H10.5C9.57174 7 8.6815 7.36875 8.02513 8.02513C7.36875 8.6815 7 9.57174 7 10.5V45.5C7 46.4283 7.36875 47.3185 8.02513 47.9749C8.6815 48.6312 9.57174 49 10.5 49H45.5C46.4283 49 47.3185 48.6312 47.9749 47.9749C48.6312 47.3185 49 46.4283 49 45.5V10.5C49 9.57174 48.6312 8.6815 47.9749 8.02513C47.3185 7.36875 46.4283 7 45.5 7ZM15.75 10.5V12.25C15.75 12.7141 15.9344 13.1592 16.2626 13.4874C16.5908 13.8156 17.0359 14 17.5 14C17.9641 14 18.4092 13.8156 18.7374 13.4874C19.0656 13.1592 19.25 12.7141 19.25 12.25V10.5H36.75V12.25C36.75 12.7141 36.9344 13.1592 37.2626 13.4874C37.5907 13.8156 38.0359 14 38.5 14C38.9641 14 39.4092 13.8156 39.7374 13.4874C40.0656 13.1592 40.25 12.7141 40.25 12.25V10.5H45.5V17.5H10.5V10.5H15.75ZM45.5 45.5H10.5V21H45.5V45.5ZM37.1131 26.7619C37.2758 26.9244 37.4049 27.1174 37.493 27.3299C37.581 27.5423 37.6264 27.77 37.6264 28C37.6264 28.23 37.581 28.4577 37.493 28.6701C37.4049 28.8826 37.2758 29.0756 37.1131 29.2381L26.6131 39.7381C26.4506 39.9008 26.2576 40.0299 26.0451 40.118C25.8327 40.206 25.605 40.2514 25.375 40.2514C25.145 40.2514 24.9173 40.206 24.7049 40.118C24.4924 40.0299 24.2994 39.9008 24.1369 39.7381L18.8869 34.4881C18.5585 34.1598 18.374 33.7144 18.374 33.25C18.374 32.7856 18.5585 32.3402 18.8869 32.0119C19.2152 31.6835 19.6606 31.499 20.125 31.499C20.5894 31.499 21.0348 31.6835 21.3631 32.0119L25.375 36.0259L34.6369 26.7619C34.7994 26.5992 34.9924 26.4701 35.2049 26.382C35.4173 26.294 35.645 26.2486 35.875 26.2486C36.105 26.2486 36.3327 26.294 36.5451 26.382C36.7576 26.4701 36.9506 26.5992 37.1131 26.7619Z" fill="#E77944"/>
</svg>
