<svg width="20" height="21" viewBox="0 0 20 21" fill="none" xmlns="http://www.w3.org/2000/svg">
<path d="M6.6665 2.37964V4.87964" stroke="#292D32" stroke-width="1.25" stroke-miterlimit="10" stroke-linecap="round" stroke-linejoin="round"/>
<path d="M13.3335 2.37964V4.87964" stroke="#292D32" stroke-width="1.25" stroke-miterlimit="10" stroke-linecap="round" stroke-linejoin="round"/>
<path d="M2.9165 8.28784H17.0832" stroke="#292D32" stroke-width="1.25" stroke-miterlimit="10" stroke-linecap="round" stroke-linejoin="round"/>
<path d="M18.3332 16.5462C18.3332 17.1712 18.1582 17.7629 17.8498 18.2629C17.2748 19.2296 16.2165 19.8796 14.9998 19.8796C14.1582 19.8796 13.3915 19.5712 12.8082 19.0462C12.5498 18.8296 12.3248 18.5629 12.1498 18.2629C11.8415 17.7629 11.6665 17.1712 11.6665 16.5462C11.6665 14.7046 13.1582 13.2129 14.9998 13.2129C15.9998 13.2129 16.8915 13.6545 17.4998 14.3462C18.0165 14.9379 18.3332 15.7046 18.3332 16.5462Z" stroke="#292D32" stroke-width="1.25" stroke-miterlimit="10" stroke-linecap="round" stroke-linejoin="round"/>
<path d="M13.6997 16.5462L14.5247 17.3712L16.2997 15.7295" stroke="#292D32" stroke-width="1.25" stroke-linecap="round" stroke-linejoin="round"/>
<path d="M17.5 7.79631V14.3463C16.8917 13.6546 16 13.213 15 13.213C13.1583 13.213 11.6667 14.7046 11.6667 16.5463C11.6667 17.1713 11.8417 17.763 12.15 18.263C12.325 18.563 12.55 18.8296 12.8083 19.0463H6.66667C3.75 19.0463 2.5 17.3796 2.5 14.8796V7.79631C2.5 5.29631 3.75 3.62964 6.66667 3.62964H13.3333C16.25 3.62964 17.5 5.29631 17.5 7.79631Z" stroke="#292D32" stroke-width="1.25" stroke-miterlimit="10" stroke-linecap="round" stroke-linejoin="round"/>
<path d="M9.99607 12.1296H10.0036" stroke="#292D32" stroke-width="1.66667" stroke-linecap="round" stroke-linejoin="round"/>
<path d="M6.91209 12.1296H6.91957" stroke="#292D32" stroke-width="1.66667" stroke-linecap="round" stroke-linejoin="round"/>
<path d="M6.91209 14.6296H6.91957" stroke="#292D32" stroke-width="1.66667" stroke-linecap="round" stroke-linejoin="round"/>
</svg>
