<svg width="20" height="20" viewBox="0 0 20 20" fill="none" xmlns="http://www.w3.org/2000/svg">
<path d="M6.6665 1.66675V4.16675" stroke="white" stroke-width="1.25" stroke-miterlimit="10" stroke-linecap="round" stroke-linejoin="round"/>
<path d="M13.3335 1.66675V4.16675" stroke="white" stroke-width="1.25" stroke-miterlimit="10" stroke-linecap="round" stroke-linejoin="round"/>
<path d="M2.9165 7.57495H17.0832" stroke="white" stroke-width="1.25" stroke-miterlimit="10" stroke-linecap="round" stroke-linejoin="round"/>
<path d="M18.3332 15.8333C18.3332 16.4583 18.1582 17.05 17.8498 17.55C17.2748 18.5167 16.2165 19.1667 14.9998 19.1667C14.1582 19.1667 13.3915 18.8583 12.8082 18.3333C12.5498 18.1167 12.3248 17.85 12.1498 17.55C11.8415 17.05 11.6665 16.4583 11.6665 15.8333C11.6665 13.9917 13.1582 12.5 14.9998 12.5C15.9998 12.5 16.8915 12.9417 17.4998 13.6333C18.0165 14.225 18.3332 14.9917 18.3332 15.8333Z" stroke="white" stroke-width="1.25" stroke-miterlimit="10" stroke-linecap="round" stroke-linejoin="round"/>
<path d="M13.6997 15.8333L14.5247 16.6583L16.2997 15.0166" stroke="white" stroke-width="1.25" stroke-linecap="round" stroke-linejoin="round"/>
<path d="M17.5 7.08341V13.6334C16.8917 12.9417 16 12.5001 15 12.5001C13.1583 12.5001 11.6667 13.9917 11.6667 15.8334C11.6667 16.4584 11.8417 17.0501 12.15 17.5501C12.325 17.8501 12.55 18.1167 12.8083 18.3334H6.66667C3.75 18.3334 2.5 16.6667 2.5 14.1667V7.08341C2.5 4.58341 3.75 2.91675 6.66667 2.91675H13.3333C16.25 2.91675 17.5 4.58341 17.5 7.08341Z" stroke="white" stroke-width="1.25" stroke-miterlimit="10" stroke-linecap="round" stroke-linejoin="round"/>
<path d="M9.99607 11.4165H10.0036" stroke="white" stroke-width="1.66667" stroke-linecap="round" stroke-linejoin="round"/>
<path d="M6.91209 11.4165H6.91957" stroke="white" stroke-width="1.66667" stroke-linecap="round" stroke-linejoin="round"/>
<path d="M6.91209 13.9165H6.91957" stroke="white" stroke-width="1.66667" stroke-linecap="round" stroke-linejoin="round"/>
</svg>
