<svg width="17" height="17" viewBox="0 0 17 17" fill="none" xmlns="http://www.w3.org/2000/svg">
<path d="M13.1665 2.25H11.6665V1.75C11.6665 1.61739 11.6138 1.49021 11.5201 1.39645C11.4263 1.30268 11.2991 1.25 11.1665 1.25C11.0339 1.25 10.9067 1.30268 10.813 1.39645C10.7192 1.49021 10.6665 1.61739 10.6665 1.75V2.25H5.6665V1.75C5.6665 1.61739 5.61383 1.49021 5.52006 1.39645C5.42629 1.30268 5.29911 1.25 5.1665 1.25C5.0339 1.25 4.90672 1.30268 4.81295 1.39645C4.71918 1.49021 4.6665 1.61739 4.6665 1.75V2.25H3.1665C2.90129 2.25 2.64693 2.35536 2.4594 2.54289C2.27186 2.73043 2.1665 2.98478 2.1665 3.25V13.25C2.1665 13.5152 2.27186 13.7696 2.4594 13.9571C2.64693 14.1446 2.90129 14.25 3.1665 14.25H13.1665C13.4317 14.25 13.6861 14.1446 13.8736 13.9571C14.0611 13.7696 14.1665 13.5152 14.1665 13.25V3.25C14.1665 2.98478 14.0611 2.73043 13.8736 2.54289C13.6861 2.35536 13.4317 2.25 13.1665 2.25ZM4.6665 3.25V3.75C4.6665 3.88261 4.71918 4.00979 4.81295 4.10355C4.90672 4.19732 5.0339 4.25 5.1665 4.25C5.29911 4.25 5.42629 4.19732 5.52006 4.10355C5.61383 4.00979 5.6665 3.88261 5.6665 3.75V3.25H10.6665V3.75C10.6665 3.88261 10.7192 4.00979 10.813 4.10355C10.9067 4.19732 11.0339 4.25 11.1665 4.25C11.2991 4.25 11.4263 4.19732 11.5201 4.10355C11.6138 4.00979 11.6665 3.88261 11.6665 3.75V3.25H13.1665V5.25H3.1665V3.25H4.6665ZM13.1665 13.25H3.1665V6.25H13.1665V13.25ZM10.7703 7.89625C10.8167 7.94269 10.8536 7.99783 10.8788 8.05853C10.9039 8.11923 10.9169 8.18429 10.9169 8.25C10.9169 8.31571 10.9039 8.38077 10.8788 8.44147C10.8536 8.50217 10.8167 8.55731 10.7703 8.60375L7.77025 11.6038C7.72382 11.6502 7.66867 11.6871 7.60797 11.7123C7.54728 11.7374 7.48221 11.7504 7.4165 11.7504C7.3508 11.7504 7.28573 11.7374 7.22503 11.7123C7.16433 11.6871 7.10919 11.6502 7.06275 11.6038L5.56275 10.1038C5.46893 10.0099 5.41623 9.88268 5.41623 9.75C5.41623 9.61732 5.46893 9.49007 5.56275 9.39625C5.65657 9.30243 5.78382 9.24972 5.9165 9.24972C6.04919 9.24972 6.17643 9.30243 6.27025 9.39625L7.4165 10.5431L10.0628 7.89625C10.1092 7.84976 10.1643 7.81288 10.225 7.78772C10.2857 7.76256 10.3508 7.74961 10.4165 7.74961C10.4822 7.74961 10.5473 7.76256 10.608 7.78772C10.6687 7.81288 10.7238 7.84976 10.7703 7.89625Z" fill="#292D32"/>
</svg>
