<svg width="16" height="17" viewBox="0 0 16 17" fill="none" xmlns="http://www.w3.org/2000/svg">
<path d="M8 1.75C6.71442 1.75 5.45772 2.13122 4.3888 2.84545C3.31988 3.55968 2.48676 4.57484 1.99479 5.76256C1.50282 6.95028 1.37409 8.25721 1.6249 9.51809C1.8757 10.779 2.49477 11.9372 3.40381 12.8462C4.31285 13.7552 5.47104 14.3743 6.73192 14.6251C7.99279 14.8759 9.29973 14.7472 10.4874 14.2552C11.6752 13.7632 12.6903 12.9301 13.4046 11.8612C14.1188 10.7923 14.5 9.53558 14.5 8.25C14.4982 6.52665 13.8128 4.87441 12.5942 3.65582C11.3756 2.43722 9.72335 1.75182 8 1.75ZM8 13.75C6.91221 13.75 5.84884 13.4274 4.94437 12.8231C4.0399 12.2187 3.33495 11.3598 2.91867 10.3548C2.50238 9.34977 2.39347 8.2439 2.60568 7.177C2.8179 6.11011 3.34173 5.1301 4.11092 4.36091C4.8801 3.59172 5.86011 3.0679 6.92701 2.85568C7.9939 2.64346 9.09977 2.75238 10.1048 3.16866C11.1098 3.58494 11.9687 4.28989 12.5731 5.19436C13.1774 6.09883 13.5 7.1622 13.5 8.25C13.4983 9.70818 12.9184 11.1062 11.8873 12.1373C10.8562 13.1684 9.45819 13.7483 8 13.75ZM12 8.25C12 8.38261 11.9473 8.50979 11.8536 8.60355C11.7598 8.69732 11.6326 8.75 11.5 8.75H8C7.86739 8.75 7.74022 8.69732 7.64645 8.60355C7.55268 8.50979 7.5 8.38261 7.5 8.25V4.75C7.5 4.61739 7.55268 4.49021 7.64645 4.39645C7.74022 4.30268 7.86739 4.25 8 4.25C8.13261 4.25 8.25979 4.30268 8.35356 4.39645C8.44732 4.49021 8.5 4.61739 8.5 4.75V7.75H11.5C11.6326 7.75 11.7598 7.80268 11.8536 7.89645C11.9473 7.99021 12 8.11739 12 8.25Z" fill="#292D32"/>
</svg>
