<svg width="20" height="20" viewBox="0 0 20 20" fill="none" xmlns="http://www.w3.org/2000/svg">
<path d="M11.6667 7.75012V10.1668H13.8333C14 10.1668 14.0833 10.3335 14.0833 10.5001L13.75 12.0835C13.75 12.1668 13.5833 12.2501 13.5 12.2501H11.6667V18.3335H9.16667V12.3335H7.75C7.58333 12.3335 7.5 12.2501 7.5 12.0835V10.5001C7.5 10.3335 7.58333 10.2501 7.75 10.2501H9.16667V7.50012C9.16667 6.08346 10.25 5.00012 11.6667 5.00012H13.9167C14.0833 5.00012 14.1667 5.08346 14.1667 5.25012V7.25012C14.1667 7.41679 14.0833 7.50012 13.9167 7.50012H11.9167C11.75 7.50012 11.6667 7.58346 11.6667 7.75012Z" stroke="white" stroke-width="1.25" stroke-miterlimit="10" stroke-linecap="round"/>
<path d="M12.4998 18.3334H7.49984C3.33317 18.3334 1.6665 16.6667 1.6665 12.5001V7.50008C1.6665 3.33341 3.33317 1.66675 7.49984 1.66675H12.4998C16.6665 1.66675 18.3332 3.33341 18.3332 7.50008V12.5001C18.3332 16.6667 16.6665 18.3334 12.4998 18.3334Z" stroke="white" stroke-width="1.25" stroke-linecap="round" stroke-linejoin="round"/>
</svg>
