<svg width="25" height="25" viewBox="0 0 25 25" fill="none" xmlns="http://www.w3.org/2000/svg">
<path d="M12.1689 2.36768C10.2406 2.36768 8.35552 2.9395 6.75214 4.01085C5.14876 5.08219 3.89908 6.60493 3.16112 8.38651C2.42317 10.1681 2.23009 12.1285 2.60629 14.0198C2.9825 15.9111 3.9111 17.6484 5.27466 19.012C6.63822 20.3755 8.3755 21.3041 10.2668 21.6803C12.1581 22.0565 14.1185 21.8635 15.9001 21.1255C17.6817 20.3875 19.2044 19.1379 20.2758 17.5345C21.3471 15.9311 21.9189 14.046 21.9189 12.1177C21.9162 9.53265 20.8881 7.05429 19.0602 5.2264C17.2323 3.39851 14.754 2.37041 12.1689 2.36768ZM12.9189 20.333V14.3677H15.1689C15.3679 14.3677 15.5586 14.2887 15.6993 14.148C15.8399 14.0074 15.9189 13.8166 15.9189 13.6177C15.9189 13.4188 15.8399 13.228 15.6993 13.0873C15.5586 12.9467 15.3679 12.8677 15.1689 12.8677H12.9189V10.6177C12.9189 10.2199 13.077 9.83832 13.3583 9.55702C13.6396 9.27571 14.0211 9.11768 14.4189 9.11768H15.9189C16.1179 9.11768 16.3086 9.03866 16.4493 8.89801C16.5899 8.75735 16.6689 8.56659 16.6689 8.36768C16.6689 8.16876 16.5899 7.978 16.4493 7.83735C16.3086 7.69669 16.1179 7.61768 15.9189 7.61768H14.4189C13.6233 7.61768 12.8602 7.93375 12.2976 8.49636C11.735 9.05896 11.419 9.82203 11.4189 10.6177V12.8677H9.16895C8.97004 12.8677 8.77927 12.9467 8.63862 13.0873C8.49797 13.228 8.41895 13.4188 8.41895 13.6177C8.41895 13.8166 8.49797 14.0074 8.63862 14.148C8.77927 14.2887 8.97004 14.3677 9.16895 14.3677H11.4189V20.333C9.30469 20.14 7.34623 19.1393 5.95092 17.5392C4.55562 15.9391 3.83089 13.8626 3.92749 11.7418C4.0241 9.62091 4.93459 7.61894 6.46958 6.15228C8.00458 4.68561 10.0459 3.86715 12.1689 3.86715C14.292 3.86715 16.3333 4.68561 17.8683 6.15228C19.4033 7.61894 20.3138 9.62091 20.4104 11.7418C20.507 13.8626 19.7823 15.9391 18.387 17.5392C16.9917 19.1393 15.0332 20.14 12.9189 20.333Z" fill="#0FABF5"/>
</svg>
