<svg width="25" height="24" viewBox="0 0 25 24" fill="none" xmlns="http://www.w3.org/2000/svg">
<g clip-path="url(#clip0_293_1489)">
<path d="M24.76 12C24.76 17.9897 20.3716 22.9542 14.635 23.8542V15.4688H17.4311L17.9631 12H14.635V9.74906C14.635 8.79984 15.1 7.875 16.5906 7.875H18.1038V4.92188C18.1038 4.92188 16.7303 4.6875 15.4174 4.6875C12.6766 4.6875 10.885 6.34875 10.885 9.35625V12H7.83813V15.4688H10.885V23.8542C5.14845 22.9542 0.76001 17.9897 0.76001 12C0.76001 5.37281 6.13282 0 12.76 0C19.3872 0 24.76 5.37281 24.76 12Z" fill="#1877F2"/>
<path d="M17.4311 15.4688L17.9631 12H14.635V9.74902C14.635 8.80003 15.0999 7.875 16.5906 7.875H18.1038V4.92188C18.1038 4.92188 16.7305 4.6875 15.4176 4.6875C12.6765 4.6875 10.885 6.34875 10.885 9.35625V12H7.83813V15.4688H10.885V23.8542C11.496 23.95 12.1221 24 12.76 24C13.3979 24 14.024 23.95 14.635 23.8542V15.4688H17.4311Z" fill="white"/>
</g>
<defs>
<clipPath id="clip0_293_1489">
<rect width="24" height="24" fill="white" transform="translate(0.76001)"/>
</clipPath>
</defs>
</svg>
