<svg width="25" height="25" viewBox="0 0 25 25" fill="none" xmlns="http://www.w3.org/2000/svg">
<path d="M14.6016 9.40181V12.3018H17.2016C17.4016 12.3018 17.5016 12.5018 17.5016 12.7018L17.1016 14.6018C17.1016 14.7018 16.9016 14.8018 16.8016 14.8018H14.6016V22.1018H11.6016V14.9018H9.90156C9.70156 14.9018 9.60156 14.8018 9.60156 14.6018V12.7018C9.60156 12.5018 9.70156 12.4018 9.90156 12.4018H11.6016V9.10181C11.6016 7.40181 12.9016 6.10181 14.6016 6.10181H17.3016C17.5016 6.10181 17.6016 6.20181 17.6016 6.40181V8.80181C17.6016 9.00181 17.5016 9.10181 17.3016 9.10181H14.9016C14.7016 9.10181 14.6016 9.20181 14.6016 9.40181Z" stroke="#292D32" stroke-width="1.5" stroke-miterlimit="10" stroke-linecap="round"/>
<path d="M15.6016 22.1017H9.60156C4.60156 22.1017 2.60156 20.1017 2.60156 15.1017V9.10168C2.60156 4.10168 4.60156 2.10168 9.60156 2.10168H15.6016C20.6016 2.10168 22.6016 4.10168 22.6016 9.10168V15.1017C22.6016 20.1017 20.6016 22.1017 15.6016 22.1017Z" stroke="#292D32" stroke-width="1.5" stroke-linecap="round" stroke-linejoin="round"/>
</svg>
