<svg width="25" height="25" viewBox="0 0 25 25" fill="none" xmlns="http://www.w3.org/2000/svg">
<path d="M21.5439 12.1177C21.5438 14.3251 20.7648 16.4617 19.344 18.1512C17.9233 19.8406 15.9519 20.9745 13.7772 21.3532C11.6025 21.7319 9.36391 21.3311 7.45572 20.2213C5.54753 19.1115 4.09215 17.364 3.3459 15.2865C2.59965 13.209 2.61042 10.9349 3.37629 8.86454C4.14216 6.79422 5.61402 5.06055 7.53263 3.96888C9.45123 2.87721 11.6935 2.49757 13.8646 2.89682C16.0356 3.29607 17.9961 4.4486 19.4008 6.15142C19.4949 6.26536 19.5656 6.39671 19.6089 6.53798C19.6522 6.67924 19.6672 6.82765 19.6532 6.97473C19.6391 7.12181 19.5962 7.26468 19.5269 7.39518C19.4577 7.52569 19.3634 7.64127 19.2494 7.73533C19.1355 7.82938 19.0041 7.90008 18.8629 7.94338C18.7216 7.98667 18.5732 8.00172 18.4261 7.98766C18.279 7.9736 18.1362 7.93071 18.0057 7.86144C17.8751 7.79216 17.7596 7.69786 17.6655 7.58392C16.6288 6.32716 15.1927 5.46364 13.5965 5.13728C12.0004 4.81091 10.3406 5.04142 8.89374 5.79039C7.44692 6.53935 6.30047 7.76153 5.64546 9.25324C4.99044 10.7449 4.86643 12.4161 5.29408 13.9881C5.72173 15.5602 6.67522 16.9382 7.99564 17.8925C9.31606 18.8468 10.9237 19.3198 12.5505 19.2326C14.1774 19.1455 15.7252 18.5034 16.9361 17.4134C18.1469 16.3234 18.9477 14.8514 19.2049 13.2427H12.1689C11.8706 13.2427 11.5844 13.1241 11.3735 12.9132C11.1625 12.7022 11.0439 12.416 11.0439 12.1177C11.0439 11.8193 11.1625 11.5332 11.3735 11.3222C11.5844 11.1112 11.8706 10.9927 12.1689 10.9927H20.4189C20.7173 10.9927 21.0035 11.1112 21.2144 11.3222C21.4254 11.5332 21.5439 11.8193 21.5439 12.1177Z" fill="#292D32"/>
</svg>
