<svg width="25" height="24" viewBox="0 0 25 24" fill="none" xmlns="http://www.w3.org/2000/svg">
<g clip-path="url(#clip0_293_1493)">
<path d="M24.3201 12C24.3201 5.37258 18.9475 0 12.3201 0C5.69265 0 0.320068 5.37258 0.320068 12C0.320068 18.6274 5.69265 24 12.3201 24C18.9475 24 24.3201 18.6274 24.3201 12Z" fill="url(#paint0_linear_293_1493)"/>
<path d="M21.3518 4.10526C19.6023 7.31684 17.1281 10.6295 14.0365 13.721C10.9449 16.8126 7.63228 19.2821 4.42544 21.0316C4.22439 20.8568 4.02913 20.6747 3.83965 20.4853C2.69437 19.3782 1.78095 18.0542 1.15266 16.5905C0.524359 15.1268 0.193757 13.5527 0.180127 11.9599C0.166497 10.3671 0.470113 8.78748 1.07327 7.31323C1.67643 5.83898 2.56706 4.49956 3.69322 3.37308C4.81939 2.2466 6.15856 1.3556 7.63264 0.752029C9.10672 0.14846 10.6862 -0.155596 12.279 -0.142411C13.8718 -0.129226 15.4461 0.200937 16.91 0.828826C18.3738 1.45671 19.6981 2.36976 20.8054 3.51473C20.9949 3.70421 21.177 3.90105 21.3518 4.10526Z" fill="white" fill-opacity="0.0627451"/>
<path d="M15.1623 5.68433H9.47808C8.5568 5.68433 7.67326 6.0503 7.02181 6.70174C6.37037 7.35319 6.00439 8.23673 6.00439 9.15801V14.8422C6.00439 15.7635 6.37037 16.647 7.02181 17.2985C7.67326 17.9499 8.5568 18.3159 9.47808 18.3159H15.1623C16.0836 18.3159 16.9671 17.9499 17.6186 17.2985C18.27 16.647 18.636 15.7635 18.636 14.8422V9.15801C18.636 8.23673 18.27 7.35319 17.6186 6.70174C16.9671 6.0503 16.0836 5.68433 15.1623 5.68433ZM17.5307 14.3433C17.5307 15.1037 17.2286 15.8331 16.6909 16.3708C16.1531 16.9085 15.4238 17.2106 14.6633 17.2106H9.97703C9.21655 17.2106 8.48723 16.9085 7.94949 16.3708C7.41175 15.8331 7.10966 15.1037 7.10966 14.3433V9.65696C7.10966 8.89648 7.41175 8.16716 7.94949 7.62942C8.48723 7.09169 9.21655 6.78959 9.97703 6.78959H14.6633C15.4238 6.78959 16.1531 7.09169 16.6909 7.62942C17.2286 8.16716 17.5307 8.89648 17.5307 9.65696V14.3433Z" fill="white"/>
<path d="M14.624 9.72011L14.594 9.69011L14.5687 9.66485C13.9717 9.06991 13.1631 8.73603 12.3203 8.73643C11.8947 8.73932 11.4738 8.82605 11.0817 8.99165C10.6896 9.15725 10.334 9.39849 10.0351 9.70157C9.73631 10.0047 9.50012 10.3636 9.34008 10.758C9.18003 11.1524 9.09926 11.5745 9.10238 12.0001C9.10174 12.8639 9.44222 13.693 10.0498 14.307C10.3473 14.6082 10.7019 14.8471 11.0929 15.0097C11.4838 15.1724 11.9032 15.2555 12.3266 15.2543C12.9617 15.241 13.5792 15.0432 14.1038 14.6849C14.6284 14.3267 15.0374 13.8235 15.281 13.2368C15.5245 12.6501 15.5921 12.0052 15.4754 11.3808C15.3588 10.7563 15.0629 10.1793 14.624 9.72011ZM12.3203 14.1412C11.8956 14.1471 11.4787 14.0266 11.1227 13.795C10.7667 13.5634 10.4876 13.2311 10.3209 12.8405C10.1543 12.4498 10.1076 12.0184 10.1868 11.6011C10.266 11.1838 10.4675 10.7995 10.7657 10.4971C11.0639 10.1946 11.4453 9.98773 11.8614 9.90266C12.2775 9.81759 12.7096 9.8582 13.1025 10.0193C13.4955 10.1805 13.8317 10.4548 14.0683 10.8075C14.3049 11.1603 14.4313 11.5754 14.4313 12.0001C14.4334 12.2793 14.3804 12.5562 14.2755 12.815C14.1705 13.0737 14.0155 13.3093 13.8195 13.5081C13.6234 13.7069 13.3901 13.8652 13.1329 13.9738C12.8756 14.0824 12.5995 14.1393 12.3203 14.1412ZM16.4934 8.58643C16.4943 8.68775 16.4751 8.78824 16.4371 8.88214C16.399 8.97605 16.3428 9.06153 16.2717 9.13369C16.2005 9.20584 16.1159 9.26326 16.0225 9.30266C15.9292 9.34205 15.829 9.36265 15.7276 9.36327C15.6272 9.36322 15.5277 9.34324 15.435 9.30449C15.3423 9.26573 15.2582 9.20896 15.1876 9.13748C15.0807 9.02895 15.0079 8.89141 14.9784 8.74191C14.9489 8.59242 14.9639 8.43754 15.0215 8.29649C15.0792 8.15544 15.177 8.03441 15.3028 7.94842C15.4286 7.86243 15.5769 7.81525 15.7292 7.81274C15.9076 7.81271 16.0802 7.8753 16.2171 7.98959L16.2329 8.00538C16.2584 8.0261 16.2817 8.04938 16.3024 8.07485L16.3198 8.0938C16.4328 8.23304 16.4941 8.40709 16.4934 8.58643Z" fill="white"/>
</g>
<defs>
<linearGradient id="paint0_linear_293_1493" x1="3.83481" y1="3.51474" x2="20.8053" y2="20.4853" gradientUnits="userSpaceOnUse">
<stop stop-color="#FAE100"/>
<stop offset="0.15" stop-color="#FCB720"/>
<stop offset="0.3" stop-color="#FF7950"/>
<stop offset="0.5" stop-color="#FF1C74"/>
<stop offset="1" stop-color="#6C1CD1"/>
</linearGradient>
<clipPath id="clip0_293_1493">
<rect width="24" height="24" fill="white" transform="translate(0.320068)"/>
</clipPath>
</defs>
</svg>
