<svg width="25" height="25" viewBox="0 0 25 25" fill="none" xmlns="http://www.w3.org/2000/svg">
<path d="M12.1689 7.61768C11.2789 7.61768 10.4089 7.8816 9.66888 8.37606C8.92886 8.87053 8.35208 9.57333 8.01149 10.3956C7.67089 11.2179 7.58178 12.1227 7.75541 12.9956C7.92905 13.8685 8.35763 14.6703 8.98697 15.2997C9.6163 15.929 10.4181 16.3576 11.291 16.5312C12.164 16.7048 13.0688 16.6157 13.891 16.2751C14.7133 15.9345 15.4161 15.3578 15.9106 14.6177C16.405 13.8777 16.6689 13.0077 16.6689 12.1177C16.6677 10.9246 16.1932 9.78071 15.3496 8.93707C14.5059 8.09342 13.362 7.61892 12.1689 7.61768ZM12.1689 15.1177C11.5756 15.1177 10.9956 14.9417 10.5022 14.6121C10.0089 14.2824 9.62437 13.8139 9.39731 13.2657C9.17024 12.7175 9.11083 12.1143 9.22659 11.5324C9.34234 10.9505 9.62807 10.4159 10.0476 9.99636C10.4672 9.5768 11.0017 9.29108 11.5837 9.17532C12.1656 9.05956 12.7688 9.11897 13.317 9.34604C13.8652 9.5731 14.3337 9.95762 14.6634 10.451C14.993 10.9443 15.1689 11.5243 15.1689 12.1177C15.1689 12.9133 14.8529 13.6764 14.2903 14.239C13.7277 14.8016 12.9646 15.1177 12.1689 15.1177ZM16.6689 2.36768H7.66895C6.27702 2.36916 4.94252 2.92277 3.95828 3.90701C2.97404 4.89125 2.42043 6.22575 2.41895 7.61768V16.6177C2.42043 18.0096 2.97404 19.3441 3.95828 20.3283C4.94252 21.3126 6.27702 21.8662 7.66895 21.8677H16.6689C18.0609 21.8662 19.3954 21.3126 20.3796 20.3283C21.3639 19.3441 21.9175 18.0096 21.9189 16.6177V7.61768C21.9175 6.22575 21.3639 4.89125 20.3796 3.90701C19.3954 2.92277 18.0609 2.36916 16.6689 2.36768ZM20.4189 16.6177C20.4189 17.6122 20.0239 18.5661 19.3206 19.2693C18.6173 19.9726 17.6635 20.3677 16.6689 20.3677H7.66895C6.67438 20.3677 5.72056 19.9726 5.01729 19.2693C4.31403 18.5661 3.91895 17.6122 3.91895 16.6177V7.61768C3.91895 6.62311 4.31403 5.66929 5.01729 4.96603C5.72056 4.26276 6.67438 3.86768 7.66895 3.86768H16.6689C17.6635 3.86768 18.6173 4.26276 19.3206 4.96603C20.0239 5.66929 20.4189 6.62311 20.4189 7.61768V16.6177ZM18.1689 7.24268C18.1689 7.46518 18.103 7.68269 17.9793 7.86769C17.8557 8.0527 17.68 8.19689 17.4745 8.28204C17.2689 8.36719 17.0427 8.38947 16.8245 8.34606C16.6062 8.30265 16.4058 8.19551 16.2485 8.03817C16.0911 7.88084 15.984 7.68038 15.9406 7.46215C15.8972 7.24392 15.9194 7.01772 16.0046 6.81216C16.0897 6.60659 16.2339 6.43089 16.4189 6.30727C16.6039 6.18366 16.8214 6.11768 17.0439 6.11768C17.3423 6.11768 17.6285 6.2362 17.8394 6.44718C18.0504 6.65816 18.1689 6.94431 18.1689 7.24268Z" fill="#292D32"/>
</svg>
