<svg width="17" height="17" viewBox="0 0 17 17" fill="none" xmlns="http://www.w3.org/2000/svg">
<path d="M8.104 4.25C7.60955 4.25 7.1262 4.39662 6.71508 4.67133C6.30396 4.94603 5.98352 5.33648 5.7943 5.79329C5.60509 6.25011 5.55558 6.75277 5.65204 7.23773C5.7485 7.72268 5.98661 8.16814 6.33624 8.51777C6.68587 8.8674 7.13133 9.1055 7.61628 9.20196C8.10123 9.29843 8.6039 9.24892 9.06071 9.0597C9.51753 8.87048 9.90797 8.55005 10.1827 8.13893C10.4574 7.7278 10.604 7.24445 10.604 6.75C10.604 6.08696 10.3406 5.45107 9.87177 4.98223C9.40293 4.51339 8.76705 4.25 8.104 4.25ZM8.104 8.25C7.80733 8.25 7.51732 8.16203 7.27065 7.9972C7.02397 7.83238 6.83172 7.59811 6.71818 7.32403C6.60465 7.04994 6.57495 6.74834 6.63283 6.45736C6.6907 6.16639 6.83356 5.89912 7.04334 5.68934C7.25312 5.47956 7.5204 5.3367 7.81137 5.27882C8.10234 5.22094 8.40394 5.25065 8.67803 5.36418C8.95212 5.47771 9.18639 5.66997 9.35121 5.91664C9.51603 6.16332 9.604 6.45333 9.604 6.75C9.604 7.14782 9.44597 7.52936 9.16466 7.81066C8.88336 8.09196 8.50183 8.25 8.104 8.25ZM8.104 1.25C6.64582 1.25165 5.24784 1.83165 4.21674 2.86274C3.18565 3.89383 2.60566 5.29182 2.604 6.75C2.604 8.7125 3.51088 10.7925 5.229 12.7656C6.00102 13.6572 6.86991 14.4601 7.81963 15.1594C7.9037 15.2183 8.00386 15.2499 8.1065 15.2499C8.20915 15.2499 8.30931 15.2183 8.39338 15.1594C9.34135 14.4598 10.2086 13.6569 10.979 12.7656C12.6946 10.7925 13.604 8.7125 13.604 6.75C13.6023 5.29182 13.0224 3.89383 11.9913 2.86274C10.9602 1.83165 9.56219 1.25165 8.104 1.25ZM8.104 14.125C7.07088 13.3125 3.604 10.3281 3.604 6.75C3.604 5.55653 4.07811 4.41193 4.92202 3.56802C5.76594 2.72411 6.91053 2.25 8.104 2.25C9.29748 2.25 10.4421 2.72411 11.286 3.56802C12.1299 4.41193 12.604 5.55653 12.604 6.75C12.604 10.3269 9.13713 13.3125 8.104 14.125Z" fill="#292D32"/>
</svg>
