<svg width="56" height="56" viewBox="0 0 56 56" fill="none" xmlns="http://www.w3.org/2000/svg">
<path d="M50.0762 10.8697C49.8666 10.7063 49.6225 10.5929 49.3625 10.5379C49.1025 10.483 48.8334 10.488 48.5756 10.5525L35.2034 13.895L21.7831 7.18375C21.4092 6.99724 20.9809 6.95069 20.5756 7.0525L6.57562 10.5525C6.19703 10.6471 5.86093 10.8656 5.62074 11.1732C5.38055 11.4807 5.25006 11.8598 5.25 12.25V43.75C5.25004 44.0159 5.31068 44.2783 5.42731 44.5173C5.54394 44.7563 5.7135 44.9655 5.92311 45.1292C6.13271 45.2928 6.37685 45.4065 6.63698 45.4617C6.89712 45.5168 7.1664 45.512 7.42437 45.4475L20.7966 42.105L34.2169 48.8162C34.4605 48.9364 34.7284 48.9992 35 49C35.1431 48.9999 35.2856 48.9823 35.4244 48.9475L49.4244 45.4475C49.803 45.3529 50.1391 45.1344 50.3793 44.8268C50.6194 44.5193 50.7499 44.1402 50.75 43.75V12.25C50.7501 11.9838 50.6894 11.7212 50.5727 11.482C50.4559 11.2428 50.2861 11.0334 50.0762 10.8697ZM22.75 11.5806L33.25 16.8306V44.4194L22.75 39.1694V11.5806ZM8.75 13.6172L19.25 10.9922V38.8828L8.75 41.5078V13.6172ZM47.25 42.3828L36.75 45.0078V17.1172L47.25 14.4922V42.3828Z" fill="#E77944"/>
</svg>
