<svg width="28" height="33" viewBox="0 0 28 33" fill="none" xmlns="http://www.w3.org/2000/svg">
<path d="M26 9V24C26 30 24.5 31.5 18.5 31.5H9.5C3.5 31.5 2 30 2 24V9C2 3 3.5 1.5 9.5 1.5H18.5C24.5 1.5 26 3 26 9Z" stroke="#292D32" stroke-width="2.25" stroke-linecap="round" stroke-linejoin="round"/>
<path d="M17 6.75H11" stroke="#292D32" stroke-width="2.25" stroke-linecap="round" stroke-linejoin="round"/>
<path d="M13.9998 27.15C15.2839 27.15 16.3248 26.1091 16.3248 24.825C16.3248 23.5409 15.2839 22.5 13.9998 22.5C12.7157 22.5 11.6748 23.5409 11.6748 24.825C11.6748 26.1091 12.7157 27.15 13.9998 27.15Z" stroke="#292D32" stroke-width="2.25" stroke-linecap="round" stroke-linejoin="round"/>
</svg>
