<svg width="25" height="25" viewBox="0 0 25 25" fill="none" xmlns="http://www.w3.org/2000/svg">
<path d="M17.3613 6.27173C19.3613 7.66173 20.7413 9.87173 21.0213 12.4217" stroke="#292D32" stroke-width="1.5" stroke-linecap="round" stroke-linejoin="round"/>
<path d="M3.8916 12.4717C4.1516 9.93166 5.5116 7.72166 7.4916 6.32166" stroke="#292D32" stroke-width="1.5" stroke-linecap="round" stroke-linejoin="round"/>
<path d="M8.59131 21.0417C9.75131 21.6317 11.0713 21.9617 12.4613 21.9617C13.8013 21.9617 15.0613 21.6617 16.1913 21.1117" stroke="#292D32" stroke-width="1.5" stroke-linecap="round" stroke-linejoin="round"/>
<path d="M12.4612 7.8017C13.9965 7.8017 15.2412 6.55705 15.2412 5.0217C15.2412 3.48635 13.9965 2.2417 12.4612 2.2417C10.9258 2.2417 9.68115 3.48635 9.68115 5.0217C9.68115 6.55705 10.9258 7.8017 12.4612 7.8017Z" stroke="#292D32" stroke-width="1.5" stroke-linecap="round" stroke-linejoin="round"/>
<path d="M5.23117 20.0217C6.76652 20.0217 8.01117 18.777 8.01117 17.2417C8.01117 15.7063 6.76652 14.4617 5.23117 14.4617C3.69582 14.4617 2.45117 15.7063 2.45117 17.2417C2.45117 18.777 3.69582 20.0217 5.23117 20.0217Z" stroke="#292D32" stroke-width="1.5" stroke-linecap="round" stroke-linejoin="round"/>
<path d="M19.5715 20.0217C21.1069 20.0217 22.3515 18.777 22.3515 17.2417C22.3515 15.7063 21.1069 14.4617 19.5715 14.4617C18.0362 14.4617 16.7915 15.7063 16.7915 17.2417C16.7915 18.777 18.0362 20.0217 19.5715 20.0217Z" stroke="#292D32" stroke-width="1.5" stroke-linecap="round" stroke-linejoin="round"/>
</svg>
