<svg width="20" height="20" viewBox="0 0 20 20" fill="none" xmlns="http://www.w3.org/2000/svg">
<path d="M5.74984 17.1667C6.99984 17.9167 8.49984 18.3334 9.99984 18.3334C14.5832 18.3334 18.3332 14.5834 18.3332 10C18.3332 5.41669 14.5832 1.66669 9.99984 1.66669C5.4165 1.66669 1.6665 5.41669 1.6665 10C1.6665 11.5 2.08317 12.9167 2.74984 14.1667L2.03354 16.9217C1.87127 17.5458 2.44894 18.1098 3.06899 17.9326L5.74984 17.1667Z" stroke="white" stroke-width="1.25" stroke-miterlimit="10" stroke-linecap="round" stroke-linejoin="round"/>
<path d="M13.75 12.3738C13.75 12.5088 13.72 12.6476 13.6561 12.7826C13.5923 12.9176 13.5096 13.0451 13.4007 13.1651C13.2167 13.3676 13.0139 13.5138 12.7848 13.6076C12.5595 13.7013 12.3153 13.7501 12.0525 13.7501C11.6694 13.7501 11.26 13.6601 10.8281 13.4763C10.3962 13.2926 9.96432 13.0451 9.53618 12.7338C9.10428 12.4188 8.69492 12.0701 8.30433 11.6838C7.9175 11.2938 7.56823 10.8851 7.25651 10.4576C6.94855 10.0301 6.70068 9.60256 6.52041 9.17881C6.34014 8.75131 6.25 8.34256 6.25 7.95256C6.25 7.69756 6.29507 7.45381 6.3852 7.22881C6.47534 7.00006 6.61805 6.79006 6.8171 6.60256C7.05746 6.36631 7.32036 6.25006 7.59827 6.25006C7.70343 6.25006 7.80859 6.27256 7.90248 6.31756C8.00013 6.36256 8.0865 6.43006 8.15411 6.52756L9.02541 7.75381C9.09301 7.84756 9.14184 7.93381 9.17564 8.01631C9.20944 8.09506 9.22822 8.17381 9.22822 8.24506C9.22822 8.33506 9.20193 8.42506 9.14935 8.51131C9.10053 8.59756 9.02917 8.68756 8.93903 8.77756L8.65361 9.07381C8.61229 9.11506 8.59352 9.16381 8.59352 9.22381C8.59352 9.25381 8.59727 9.28006 8.60478 9.31006C8.61605 9.34006 8.62732 9.36256 8.63483 9.38506C8.70243 9.50881 8.81885 9.67006 8.9841 9.86506C9.1531 10.0601 9.33337 10.2588 9.52867 10.4576C9.73147 10.6563 9.92677 10.8401 10.1258 11.0088C10.3211 11.1738 10.4826 11.2863 10.6103 11.3538C10.6291 11.3613 10.6516 11.3726 10.6779 11.3838C10.7079 11.3951 10.738 11.3988 10.7718 11.3988C10.8356 11.3988 10.8845 11.3763 10.9258 11.3351L11.2112 11.0538C11.3051 10.9601 11.3952 10.8888 11.4816 10.8438C11.568 10.7913 11.6544 10.7651 11.7482 10.7651C11.8196 10.7651 11.8947 10.7801 11.9773 10.8138C12.06 10.8476 12.1463 10.8963 12.2402 10.9601L13.4834 11.8413C13.581 11.9088 13.6486 11.9876 13.6899 12.0813C13.7275 12.1751 13.75 12.2688 13.75 12.3738Z" stroke="white" stroke-width="1.25" stroke-miterlimit="10"/>
</svg>
