<svg width="25" height="24" viewBox="0 0 25 24" fill="none" xmlns="http://www.w3.org/2000/svg">
<g clip-path="url(#clip0_338_5733)">
<path d="M0.950606 24C0.872047 24 0.794549 23.9819 0.72414 23.947C0.65373 23.9122 0.592308 23.8616 0.544651 23.7991C0.496993 23.7367 0.464386 23.6641 0.449364 23.587C0.434343 23.5098 0.437313 23.4303 0.458043 23.3545L2.01828 17.6571C1.04689 15.9005 0.534731 13.9134 0.535481 11.8964C0.538247 5.33663 5.87647 0 12.4357 0C15.6171 0.00126563 18.6065 1.24055 20.8534 3.48909C23.0999 5.73778 24.3366 8.727 24.3357 11.9059C24.3328 18.4658 18.9945 23.8028 12.4357 23.8028H12.4305C10.5147 23.802 8.61537 23.3351 6.92422 22.4507L1.08003 23.9834C1.03718 23.9945 0.993637 24 0.950606 24Z" fill="#E5E5E5"/>
<path d="M0.950684 23.4893L2.56637 17.5892C1.56976 15.8623 1.04551 13.9034 1.04621 11.8966C1.04884 5.61843 6.15779 0.510742 12.4358 0.510742C15.4823 0.512008 18.3418 1.69781 20.4922 3.85002C22.6424 6.00224 23.8262 8.86307 23.8251 11.9057C23.8224 18.1837 18.7126 23.2921 12.4358 23.2921C12.4354 23.2921 12.4359 23.2921 12.4358 23.2921H12.4308C10.5247 23.2914 8.65187 22.8134 6.98837 21.906L0.950684 23.4893ZM7.26803 19.8448L7.61387 20.0497C9.067 20.9121 10.7331 21.3682 12.4321 21.3692H12.4358C17.6532 21.3692 21.8998 17.1233 21.9019 11.905C21.9029 9.37612 20.9192 6.99815 19.132 5.2094C17.3445 3.42065 14.9679 2.43496 12.4392 2.43388C7.21764 2.43388 2.97123 6.67916 2.96921 11.8973C2.96846 13.6855 3.46871 15.4268 4.41648 16.9338L4.64172 17.2919L3.68514 20.7841L7.26803 19.8448Z" fill="white"/>
<path d="M1.34668 23.0919L2.90654 17.3957C1.94415 15.7287 1.43823 13.8374 1.43879 11.9003C1.44113 5.83952 6.37346 0.908691 12.4337 0.908691C15.3751 0.909957 18.1358 2.05474 20.2113 4.13243C22.2874 6.21011 23.4299 8.9719 23.4288 11.9089C23.4263 17.9699 18.4938 22.9013 12.4343 22.9013C12.4337 22.9013 12.4344 22.9013 12.4343 22.9013H12.4293C10.5893 22.9006 8.7811 22.4388 7.1753 21.5635L1.34668 23.0919Z" fill="#64B161"/>
<path d="M0.950684 23.4893L2.56637 17.5892C1.56976 15.8623 1.04551 13.9034 1.04621 11.8966C1.04884 5.61843 6.15779 0.510742 12.4358 0.510742C15.4823 0.512008 18.3418 1.69781 20.4922 3.85002C22.6424 6.00224 23.8262 8.86307 23.8251 11.9057C23.8224 18.1837 18.7126 23.2921 12.4358 23.2921C12.4354 23.2921 12.4359 23.2921 12.4358 23.2921H12.4308C10.5247 23.2914 8.65187 22.8134 6.98837 21.906L0.950684 23.4893ZM7.26803 19.8448L7.61387 20.0497C9.067 20.9121 10.7331 21.3682 12.4321 21.3692H12.4358C17.6532 21.3692 21.8998 17.1233 21.9019 11.905C21.9029 9.37612 20.9192 6.99815 19.132 5.2094C17.3445 3.42065 14.9679 2.43496 12.4392 2.43388C7.21764 2.43388 2.97123 6.67916 2.96921 11.8973C2.96846 13.6855 3.46871 15.4268 4.41648 16.9338L4.64172 17.2919L3.68514 20.7841L7.26803 19.8448Z" fill="white"/>
<path fill-rule="evenodd" clip-rule="evenodd" d="M9.58933 7.13661C9.37619 6.6627 9.1517 6.65323 8.94883 6.64498C8.78289 6.63781 8.59305 6.63819 8.40353 6.63819C8.21383 6.63819 7.90548 6.70962 7.64472 6.99434C7.38381 7.27906 6.64844 7.96756 6.64844 9.36776C6.64844 10.7682 7.66834 12.1211 7.81061 12.3112C7.95288 12.501 9.77936 15.4663 12.6719 16.607C15.0759 17.5551 15.565 17.3665 16.0868 17.3191C16.6087 17.2717 17.7705 16.6306 18.0076 15.9661C18.2449 15.3017 18.2449 14.7322 18.1736 14.613C18.1024 14.4945 17.9127 14.4233 17.6282 14.281C17.3437 14.1388 15.9445 13.4501 15.6836 13.3552C15.4227 13.2602 15.233 13.213 15.0433 13.4979C14.8534 13.7824 14.3085 14.4233 14.1424 14.613C13.9763 14.8033 13.8102 14.8271 13.5257 14.6846C13.2412 14.542 12.3245 14.2416 11.2373 13.2721C10.3913 12.5179 9.82 11.5863 9.65397 11.3014C9.48803 11.0168 9.65116 10.8762 9.77898 10.7207C10.0091 10.4407 10.3953 9.93744 10.4902 9.74769C10.585 9.55766 10.5376 9.39158 10.4665 9.24908C10.3953 9.10681 9.84217 7.69948 9.58933 7.13661Z" fill="white"/>
</g>
<defs>
<clipPath id="clip0_338_5733">
<rect width="24" height="24" fill="white" transform="translate(0.439941)"/>
</clipPath>
</defs>
</svg>
