<svg width="24" height="25" viewBox="0 0 24 25" fill="none" xmlns="http://www.w3.org/2000/svg">
<path d="M6.90146 20.7017C8.40146 21.6017 10.2015 22.1017 12.0015 22.1017C17.5015 22.1017 22.0015 17.6017 22.0015 12.1017C22.0015 6.60168 17.5015 2.10168 12.0015 2.10168C6.50146 2.10168 2.00146 6.60168 2.00146 12.1017C2.00146 13.9017 2.50146 15.6017 3.30146 17.1017L2.44191 20.4077C2.24718 21.1566 2.94039 21.8334 3.68445 21.6208L6.90146 20.7017Z" stroke="#292D32" stroke-width="1.5" stroke-miterlimit="10" stroke-linecap="round" stroke-linejoin="round"/>
<path d="M16.5015 14.9503C16.5015 15.1123 16.4654 15.2788 16.3888 15.4408C16.3122 15.6028 16.213 15.7558 16.0823 15.8998C15.8615 16.1428 15.6181 16.3183 15.3432 16.4308C15.0728 16.5433 14.7799 16.6018 14.4644 16.6018C14.0047 16.6018 13.5135 16.4938 12.9952 16.2733C12.4769 16.0528 11.9587 15.7558 11.4449 15.3823C10.9266 15.0043 10.4354 14.5858 9.96666 14.1223C9.50247 13.6543 9.08334 13.1638 8.70928 12.6508C8.33972 12.1378 8.04228 11.6248 7.82595 11.1163C7.60963 10.6033 7.50146 10.1128 7.50146 9.64481C7.50146 9.33881 7.55555 9.04631 7.66371 8.77631C7.77187 8.50181 7.94313 8.24981 8.18199 8.02481C8.47042 7.74131 8.78589 7.60181 9.11939 7.60181C9.24558 7.60181 9.37177 7.62881 9.48444 7.68281C9.60162 7.73681 9.70527 7.81781 9.78639 7.93481L10.832 9.40631C10.9131 9.51881 10.9717 9.62231 11.0122 9.72131C11.0528 9.81581 11.0753 9.91031 11.0753 9.99581C11.0753 10.1038 11.0438 10.2118 10.9807 10.3153C10.9221 10.4188 10.8365 10.5268 10.7283 10.6348L10.3858 10.9903C10.3362 11.0398 10.3137 11.0983 10.3137 11.1703C10.3137 11.2063 10.3182 11.2378 10.3272 11.2738C10.3407 11.3098 10.3542 11.3368 10.3633 11.3638C10.4444 11.5123 10.5841 11.7058 10.7824 11.9398C10.9852 12.1738 11.2015 12.4123 11.4359 12.6508C11.6792 12.8893 11.9136 13.1098 12.1524 13.3123C12.3868 13.5103 12.5806 13.6453 12.7338 13.7263C12.7563 13.7353 12.7834 13.7488 12.8149 13.7623C12.851 13.7758 12.887 13.7803 12.9276 13.7803C13.0042 13.7803 13.0628 13.7533 13.1124 13.7038L13.4549 13.3663C13.5676 13.2538 13.6757 13.1683 13.7794 13.1143C13.883 13.0513 13.9867 13.0198 14.0994 13.0198C14.185 13.0198 14.2751 13.0378 14.3743 13.0783C14.4734 13.1188 14.5771 13.1773 14.6897 13.2538L16.1815 14.3113C16.2987 14.3923 16.3798 14.4868 16.4294 14.5993C16.4744 14.7118 16.5015 14.8243 16.5015 14.9503Z" stroke="#292D32" stroke-width="1.5" stroke-miterlimit="10"/>
</svg>
