<svg width="25" height="25" viewBox="0 0 25 25" fill="none" xmlns="http://www.w3.org/2000/svg">
<path d="M15.5852 11.4933L11.0852 8.4933C10.9722 8.41793 10.8409 8.37464 10.7052 8.36807C10.5696 8.3615 10.4347 8.39189 10.315 8.45599C10.1952 8.52009 10.0951 8.6155 10.0254 8.73204C9.95565 8.84858 9.91886 8.98187 9.91895 9.11768V15.1177C9.91886 15.2535 9.95565 15.3868 10.0254 15.5033C10.0951 15.6199 10.1952 15.7153 10.315 15.7794C10.4347 15.8435 10.5696 15.8739 10.7052 15.8673C10.8409 15.8607 10.9722 15.8174 11.0852 15.7421L15.5852 12.7421C15.6881 12.6736 15.7724 12.5808 15.8308 12.4718C15.8891 12.3629 15.9197 12.2413 15.9197 12.1177C15.9197 11.9941 15.8891 11.8724 15.8308 11.7635C15.7724 11.6546 15.6881 11.5618 15.5852 11.4933ZM11.4189 13.7161V10.5239L13.8171 12.1177L11.4189 13.7161ZM22.1374 6.63518C22.049 6.28957 21.8798 5.96991 21.6436 5.70258C21.4074 5.43526 21.111 5.22792 20.7789 5.09768C17.5652 3.85643 12.4502 3.86768 12.1689 3.86768C11.8877 3.86768 6.7727 3.85643 3.55895 5.09768C3.22685 5.22792 2.93048 5.43526 2.69428 5.70258C2.45809 5.96991 2.28884 6.28957 2.20051 6.63518C1.9577 7.5708 1.66895 9.2808 1.66895 12.1177C1.66895 14.9546 1.9577 16.6646 2.20051 17.6002C2.28871 17.946 2.4579 18.2658 2.6941 18.5333C2.9303 18.8008 3.22674 19.0083 3.55895 19.1386C6.6377 20.3264 11.4564 20.3677 12.1071 20.3677H12.2308C12.8814 20.3677 17.703 20.3264 20.7789 19.1386C21.1111 19.0083 21.4076 18.8008 21.6438 18.5333C21.88 18.2658 22.0492 17.946 22.1374 17.6002C22.3802 16.6627 22.6689 14.9546 22.6689 12.1177C22.6689 9.2808 22.3802 7.5708 22.1374 6.63518ZM20.6852 17.2289C20.6566 17.344 20.6012 17.4506 20.5235 17.54C20.4457 17.6295 20.3479 17.6993 20.238 17.7436C17.2708 18.8892 12.2243 18.8686 12.1755 18.8686H12.1689C12.1183 18.8686 7.07551 18.8874 4.10645 17.7436C3.99654 17.6993 3.89872 17.6295 3.82098 17.54C3.74325 17.4506 3.68783 17.344 3.65926 17.2289C3.43145 16.373 3.16895 14.7961 3.16895 12.1177C3.16895 9.43924 3.43145 7.86237 3.6527 7.01112C3.68074 6.89541 3.73592 6.78804 3.81368 6.69789C3.89144 6.60774 3.98955 6.5374 4.09988 6.49268C6.96113 5.38737 11.7555 5.36768 12.1483 5.36768H12.1736C12.2243 5.36768 17.2718 5.3508 20.2361 6.49268C20.346 6.53703 20.4439 6.6068 20.5216 6.69627C20.5993 6.78573 20.6547 6.89235 20.6833 7.00737C20.9064 7.86237 21.1689 9.43924 21.1689 12.1177C21.1689 14.7961 20.9064 16.373 20.6852 17.2242V17.2289Z" fill="#292D32"/>
</svg>
