<svg width="25" height="24" viewBox="0 0 25 24" fill="none" xmlns="http://www.w3.org/2000/svg">
<g clip-path="url(#clip0_293_1502)">
<path d="M12.8799 24C19.5073 24 24.8799 18.6274 24.8799 12C24.8799 5.37258 19.5073 0 12.8799 0C6.25247 0 0.879883 5.37258 0.879883 12C0.879883 18.6274 6.25247 24 12.8799 24Z" fill="#F20000"/>
<path d="M18.5989 9.11375C18.3589 8.36849 17.5647 7.92796 16.8273 7.82533C14.1989 7.54585 11.5483 7.54585 8.91993 7.82533C8.18888 7.92796 7.39467 8.3748 7.15467 9.11375C6.78047 11.0203 6.78047 12.9814 7.15467 14.888C7.40099 15.6316 8.1952 16.0738 8.93257 16.1764C11.561 16.4543 14.2115 16.4543 16.8399 16.1764C17.571 16.0738 18.3652 15.6253 18.6052 14.888C18.9773 12.981 18.9752 11.0199 18.5989 9.11375ZM11.4447 14.299V9.70112L15.1884 12.0001C13.9268 12.7753 12.7015 13.5301 11.4447 14.299Z" fill="white"/>
</g>
<defs>
<clipPath id="clip0_293_1502">
<rect width="24" height="24" fill="white" transform="translate(0.879883)"/>
</clipPath>
</defs>
</svg>
