<svg width="93" height="80" viewBox="0 0 93 80" fill="none" xmlns="http://www.w3.org/2000/svg">
<path d="M12.4979 62.7777L12.0534 62.5555C11.8312 62.4444 11.609 62.4444 11.4979 62.5555L11.0534 62.8888C10.4979 63.2222 10.1646 63.8888 10.1646 64.5555V66.3333C10.1646 66.6666 10.3868 66.8888 10.7201 66.8888H12.9423C13.2757 66.8888 13.4979 66.6666 13.4979 66.3333V64.5555C13.3868 63.7777 13.0534 63.1111 12.4979 62.7777ZM12.2757 65.7777H11.1646V64.5555C11.1646 64.2222 11.2757 63.9999 11.609 63.7777L11.7201 63.6666L11.8312 63.7777C12.0534 63.9999 12.2757 64.2222 12.2757 64.5555V65.7777Z" fill="#292D32"/>
<path d="M86.1647 70.2222H85.6091V52.4444H86.1647C86.498 52.4444 86.7202 52.2222 86.7202 51.8889V48.5556C86.7202 48.2222 86.498 48 86.1647 48H85.6091V46.3333C85.6091 46 85.3869 45.7778 85.0536 45.7778H81.9424C81.7202 43.8889 80.3869 42.1111 78.2758 41.1111L73.0536 38.5556V37.7778C73.0536 37.4444 72.8313 37.2222 72.498 37.2222C72.1647 37.2222 71.9424 37.5556 71.9424 37.7778V38.5556L66.8313 41C64.7202 42 63.3869 43.7778 63.1647 45.6667H61.2758V42.3333H61.8313C62.1647 42.3333 62.3869 42.1111 62.3869 41.7778V38.4444C62.3869 38.1111 62.1647 37.8889 61.8313 37.8889H61.2758V31.2222H61.8313C62.1647 31.2222 62.3869 31 62.3869 30.6667V27.3333C62.3869 27 62.1647 26.7778 61.8313 26.7778H60.1647V22.3333H60.7202C61.0536 22.3333 61.2758 22.1111 61.2758 21.7778V19.5556C61.2758 19.2222 61.0536 19 60.7202 19H60.1647V16.7778H60.7202C61.0536 16.7778 61.2758 16.5556 61.2758 16.2222V14C61.2758 13.6667 61.0536 13.4444 60.7202 13.4444H60.1647V12.3333C60.1647 11.3333 59.498 10.4444 58.498 10.2222V9.55556C58.498 9.22222 58.2758 9 57.9424 9C57.6091 9 57.3869 9.22222 57.3869 9.55556V10.2222C56.3869 10.4444 55.7202 11.3333 55.7202 12.3333V13.4444H55.1647C54.8313 13.4444 54.6091 13.6667 54.6091 14V16.2222C54.6091 16.5556 54.8313 16.7778 55.1647 16.7778H55.7202V19H55.1647C54.8313 19 54.6091 19.2222 54.6091 19.5556V21.7778C54.6091 22.1111 54.8313 22.3333 55.1647 22.3333H55.7202V26.7778H54.0536C53.7202 26.7778 53.498 27 53.498 27.3333V30.6667C53.498 31 53.7202 31.2222 54.0536 31.2222H54.6091V37.8889H53.9424C53.3869 36.8889 52.6091 35.8889 51.498 35.2222L47.2758 32.6667V31.6667C47.2758 31.3333 47.0536 31.1111 46.7202 31.1111C46.3869 31.1111 46.1647 31.3333 46.1647 31.6667V32.6667L41.9424 35.4444C40.9424 36.1111 40.0536 37 39.6091 38H38.9424V31.3333H39.498C39.8313 31.3333 40.0536 31.1111 40.0536 30.7778V27.4444C40.0536 27.1111 39.8313 26.8889 39.498 26.8889H37.8313V22.4444H38.3869C38.7202 22.4444 38.9424 22.2222 38.9424 21.8889V19.6667C38.9424 19.3333 38.7202 19.1111 38.3869 19.1111H37.8313V16.8889H38.3869C38.7202 16.8889 38.9424 16.6667 38.9424 16.3333V14.1111C38.9424 13.7778 38.7202 13.5556 38.3869 13.5556H37.8313V12.4444C37.8313 11.4444 37.1647 10.5556 36.1647 10.3333V9.66667C36.1647 9.33333 35.9424 9.11111 35.6091 9.11111C35.2758 9.11111 35.0535 9.33333 35.0535 9.66667V10.3333C34.0535 10.5556 33.3869 11.4444 33.3869 12.4444V13.5556H32.8313C32.498 13.5556 32.2758 13.7778 32.2758 14.1111V16.3333C32.2758 16.6667 32.498 16.8889 32.8313 16.8889H33.3869V19.1111H32.8313C32.498 19.1111 32.2758 19.3333 32.2758 19.6667V21.8889C32.2758 22.2222 32.498 22.4444 32.8313 22.4444H33.3869V26.8889H31.7202C31.3869 26.8889 31.1647 27.1111 31.1647 27.4444V30.7778C31.1647 31.1111 31.3869 31.3333 31.7202 31.3333H32.2758V38H31.7202C31.3869 38 31.1647 38.2222 31.1647 38.5556V41.8889C31.1647 42.2222 31.3869 42.4444 31.7202 42.4444H32.2758V45.7778H29.7202C29.498 43.8889 28.1647 42.1111 26.0536 41.1111L20.8313 38.5556V37.7778C20.8313 37.4444 20.6091 37.2222 20.2758 37.2222C19.9424 37.2222 19.7202 37.5556 19.7202 37.7778V38.5556L14.498 41.1111C12.3869 42.1111 11.0535 43.8889 10.8313 45.7778H8.38688C8.05355 45.7778 7.83132 46 7.83132 46.3333V48H7.27577C6.94244 48 6.72021 48.2222 6.72021 48.5556V51.8889C6.72021 52.2222 6.94244 52.4444 7.27577 52.4444H7.83132V70.2222H7.27577C6.94244 70.2222 6.72021 70.4444 6.72021 70.7778C6.72021 71.1111 6.94244 71.3333 7.27577 71.3333H86.1647C86.498 71.3333 86.7202 71.1111 86.7202 70.7778C86.7202 70.4444 86.498 70.2222 86.1647 70.2222ZM85.6091 51.3333H61.1647V49.1111H85.6091V51.3333ZM63.3869 46.8889H65.6091V48H63.3869V46.8889ZM78.9424 48H76.7202V46.8889H78.9424V48ZM75.6091 48H73.3869V46.8889H75.6091V48ZM72.2758 48H70.0536V46.8889H72.2758V48ZM68.9424 48H66.7202V46.8889H68.9424V48ZM84.498 46.8889V48H83.3869V46.8889H84.498ZM82.2758 48H80.0536V46.8889H82.2758V48ZM67.2758 42.1111L72.498 39.5556L77.7202 42.1111C79.498 43 80.498 44.3333 80.7202 45.7778H64.1647C64.3869 44.2222 65.498 42.8889 67.2758 42.1111ZM62.2758 46.8889V48H61.1647V46.8889H62.2758ZM56.7202 12.4444C56.7202 11.8889 57.1647 11.3333 57.8313 11.3333C58.3869 11.3333 58.9424 11.8889 58.9424 12.4444V13.5556H56.7202V12.4444ZM55.6091 14.6667H60.0536V15.7778H55.6091V14.6667ZM56.7202 16.8889H58.9424V19.1111H56.7202V16.8889ZM55.6091 20.2222H60.0536V21.3333H55.6091V20.2222ZM56.7202 22.4444H58.9424V26.8889H56.7202V22.4444ZM54.498 28H61.1647V30.2222H54.498V28ZM55.6091 31.3333H60.0536V38H55.6091V31.3333ZM54.498 39.1111H61.1647V41.3333H54.498V39.1111ZM39.1647 42.4444H41.1647V43.5556H38.9424V42.4444H39.1647ZM54.498 46.8889H38.9424V44.6667H54.498V46.8889ZM48.9424 43.5556V42.4444H51.1647V43.5556H48.9424ZM47.8313 43.5556H45.6091V42.4444H47.8313V43.5556ZM44.498 43.5556H42.2758V42.4444H44.498V43.5556ZM38.9424 62.2222C38.9424 58.6667 40.7202 55.3333 43.8313 53.3333L46.7202 51.4444L49.6091 53.3333C52.7202 55.2222 54.498 58.5556 54.498 62.2222V70.2222H38.9424V62.2222ZM50.1647 52.3333L46.9424 50.3333C46.7202 50.2222 46.498 50.2222 46.3869 50.3333L43.1647 52.4444C41.2758 53.6667 39.8313 55.3333 38.9424 57.3333V48H54.498V57.2222C53.6091 55.2222 52.1647 53.5556 50.1647 52.3333ZM54.498 43.5556H52.2758V42.4444H54.498V43.5556ZM42.6091 36.3333L46.7202 33.7778L50.8313 36.3333C52.3869 37.3333 53.3869 38.8889 53.3869 40.7778V41.3333H40.0536V40.7778C40.0536 39 40.9424 37.3333 42.6091 36.3333ZM34.498 12.4444C34.498 11.8889 34.9424 11.3333 35.6091 11.3333C36.1647 11.3333 36.7202 11.8889 36.7202 12.4444V13.5556H34.498V12.4444ZM33.3869 14.6667H37.8313V15.7778H33.3869V14.6667ZM34.498 16.8889H36.7202V19.1111H34.498V16.8889ZM33.3869 20.2222H37.8313V21.3333H33.3869V20.2222ZM34.498 22.4444H36.7202V26.8889H34.498V22.4444ZM32.2758 28H38.9424V30.2222H32.2758V28ZM33.3869 31.3333H37.8313V38H33.3869V31.3333ZM32.2758 39.1111H38.9424V41.3333H32.2758V39.1111ZM32.2758 46.8889V48H31.1647V46.8889H32.2758ZM30.0535 48H27.8313V46.8889H30.0535V48ZM11.1647 46.8889H13.3869V48H11.1647V46.8889ZM14.498 46.8889H16.7202V48H14.498V46.8889ZM17.8313 46.8889H20.0535V48H17.8313V46.8889ZM21.1647 46.8889H23.3869V48H21.1647V46.8889ZM24.498 46.8889H26.7202V48H24.498V46.8889ZM15.0535 42.1111L20.2758 39.5556L25.498 42.1111C27.2758 43 28.3869 44.3333 28.6091 45.7778H11.9424C12.1647 44.3333 13.2758 42.8889 15.0535 42.1111ZM8.94244 46.8889H10.0535V48H8.94244V46.8889ZM7.83132 49.1111H32.2758V51.3333H7.83132V49.1111ZM8.94244 52.4444H32.2758V70.2222H26.7202V62.8889C26.7202 60.1111 25.3869 57.6667 23.0535 56.2222L20.9424 54.8889C20.7202 54.7778 20.498 54.7778 20.3869 54.8889L18.2758 56.2222C15.9424 57.6667 14.6091 60.2222 14.6091 62.8889V70.2222H9.05355V52.4444H8.94244ZM25.6091 70.2222H15.6091V63C15.6091 60.6667 16.8313 58.5556 18.7202 57.2222L20.6091 56L22.3869 57.1111C24.3869 58.3333 25.6091 60.5556 25.6091 62.8889V70.2222ZM33.3869 51.8889V42.4444H37.8313V70.2222H33.3869V51.8889ZM55.6091 62.2222V42.4444H60.0536V70.2222H55.6091V62.2222ZM77.8313 70.2222H67.8313V63C67.8313 60.6667 69.0536 58.5556 70.9424 57.2222L72.8313 56L74.6091 57.1111C76.6091 58.3333 77.8313 60.5556 77.8313 62.8889V70.2222ZM78.9424 70.2222V62.8889C78.9424 60.1111 77.6091 57.6667 75.2758 56.2222L73.1647 54.8889C72.9424 54.7778 72.7202 54.7778 72.6091 54.8889L70.498 56.2222C68.1647 57.6667 66.8313 60.2222 66.8313 62.8889V70.2222H61.2758V52.4444H84.6091V70.2222H78.9424Z" fill="#292D32" stroke="#292D32" stroke-width="0.389583"/>
<path d="M28.387 66.8887H30.6093C30.9426 66.8887 31.1648 66.6664 31.1648 66.3331V64.5553C31.1648 63.8887 30.8315 63.222 30.2759 62.8887L29.8315 62.6664C29.6093 62.5553 29.387 62.5553 29.2759 62.6664L28.8315 62.9998C28.2759 63.3331 27.9426 63.9998 27.9426 64.6664V66.4442C27.8315 66.6664 28.0537 66.8887 28.387 66.8887ZM28.9426 64.5553C28.9426 64.222 29.0537 63.9998 29.387 63.7776L29.4982 63.6664L29.6093 63.7776C29.8315 63.9998 30.0537 64.222 30.0537 64.5553V65.7776H28.9426V64.5553ZM14.7204 57.222C15.6093 57.222 16.387 56.4442 16.387 55.5553C16.387 54.6664 15.6093 53.8887 14.7204 53.8887C13.8315 53.8887 13.0537 54.6664 13.0537 55.5553C13.0537 56.4442 13.8315 57.222 14.7204 57.222ZM14.7204 54.9998C15.0537 54.9998 15.2759 55.222 15.2759 55.5553C15.2759 55.8887 15.0537 56.1109 14.7204 56.1109C14.387 56.1109 14.1648 55.8887 14.1648 55.5553C14.1648 55.222 14.387 54.9998 14.7204 54.9998ZM25.8315 57.222C26.7204 57.222 27.4982 56.4442 27.4982 55.5553C27.4982 54.6664 26.7204 53.8887 25.8315 53.8887C24.9426 53.8887 24.1648 54.6664 24.1648 55.5553C24.1648 56.4442 24.9426 57.222 25.8315 57.222ZM25.8315 54.9998C26.1648 54.9998 26.387 55.222 26.387 55.5553C26.387 55.8887 26.1648 56.1109 25.8315 56.1109C25.4982 56.1109 25.2759 55.8887 25.2759 55.5553C25.2759 55.222 25.4982 54.9998 25.8315 54.9998ZM64.7204 62.7776L64.2759 62.5553C64.0537 62.4442 63.8315 62.4442 63.7204 62.5553L63.2759 62.8887C62.7204 63.222 62.387 63.8887 62.387 64.5553V66.3331C62.387 66.6664 62.6093 66.8887 62.9426 66.8887H65.1648C65.4982 66.8887 65.7204 66.6664 65.7204 66.3331V64.5553C65.6093 63.7776 65.2759 63.1109 64.7204 62.7776ZM64.4982 65.7776H63.387V64.5553C63.387 64.222 63.4981 63.9998 63.8315 63.7776L63.9426 63.6664L64.0537 63.7776C64.2759 63.9998 64.4982 64.222 64.4982 64.5553V65.7776ZM82.4982 62.7776L82.0537 62.5553C81.8315 62.4442 81.6093 62.4442 81.4981 62.5553L81.0537 62.8887C80.4981 63.222 80.1648 63.8887 80.1648 64.5553V66.3331C80.1648 66.6664 80.387 66.8887 80.7204 66.8887H82.9426C83.2759 66.8887 83.4982 66.6664 83.4982 66.3331V64.5553C83.387 63.7776 83.0537 63.1109 82.4982 62.7776ZM82.2759 65.7776H81.1648V64.5553C81.1648 64.222 81.2759 63.9998 81.6093 63.7776L81.7204 63.6664L81.8315 63.7776C82.0537 63.9998 82.2759 64.222 82.2759 64.5553V65.7776ZM66.9426 53.8887C66.0537 53.8887 65.2759 54.6664 65.2759 55.5553C65.2759 56.4442 66.0537 57.222 66.9426 57.222C67.8315 57.222 68.6093 56.4442 68.6093 55.5553C68.6093 54.6664 67.8315 53.8887 66.9426 53.8887ZM66.9426 56.1109C66.6093 56.1109 66.387 55.8887 66.387 55.5553C66.387 55.222 66.6093 54.9998 66.9426 54.9998C67.2759 54.9998 67.4982 55.222 67.4982 55.5553C67.4982 55.8887 67.2759 56.1109 66.9426 56.1109ZM78.0537 53.8887C77.1648 53.8887 76.387 54.6664 76.387 55.5553C76.387 56.4442 77.1648 57.222 78.0537 57.222C78.9426 57.222 79.7204 56.4442 79.7204 55.5553C79.7204 54.6664 78.9426 53.8887 78.0537 53.8887ZM78.0537 56.1109C77.7204 56.1109 77.4982 55.8887 77.4982 55.5553C77.4982 55.222 77.7204 54.9998 78.0537 54.9998C78.387 54.9998 78.6093 55.222 78.6093 55.5553C78.6093 55.8887 78.387 56.1109 78.0537 56.1109Z" fill="#292D32" stroke="#292D32" stroke-width="0.389583"/>
</svg>
