<svg width="92" height="80" viewBox="0 0 92 80" fill="none" xmlns="http://www.w3.org/2000/svg">
<g clip-path="url(#clip0_226_3466)">
<path d="M35.64 18.6H36.39V18.4593L36.339 18.3282L35.64 18.6ZM35.64 51.24H34.89V51.99H35.64V51.24ZM34.52 15.72H33.77V15.8607L33.821 15.9918L34.52 15.72ZM36.76 11.88H36.01V12.63H36.76V11.88ZM38.36 11.88V12.63H39.11V11.88H38.36ZM40.6 11.88H39.85V12.63H40.6V11.88ZM42.2 11.88V12.63H42.95V11.88H42.2ZM44.44 15.72L45.139 15.9918L45.19 15.8607V15.72H44.44ZM43.32 18.6L42.621 18.3282L42.57 18.4593V18.6H43.32ZM43.32 36.2H42.57V36.95H43.32V36.2ZM44.6 36.2V36.95H45.35V36.2H44.6ZM46.52 36.2H45.77V36.95H46.52V36.2ZM48.12 36.2V36.95H48.87V36.2H48.12ZM49.88 36.2H49.13V36.95H49.88V36.2ZM51.48 36.2V36.95H52.23V36.2H51.48ZM53.24 36.2H52.49V36.95H53.24V36.2ZM54.52 36.2V36.95H55.27V36.2H54.52ZM54.52 18.6H55.27V18.4593L55.219 18.3282L54.52 18.6ZM53.4 15.72H52.65V15.8607L52.701 15.9918L53.4 15.72ZM55.64 11.88H54.89V12.63H55.64V11.88ZM57.24 11.88V12.63H57.99V11.88H57.24ZM59.48 11.88H58.73V12.63H59.48V11.88ZM61.08 11.88V12.63H61.83V11.88H61.08ZM63.32 15.72L64.019 15.9918L64.07 15.8607V15.72H63.32ZM62.2 18.6L61.501 18.3282L61.45 18.4593V18.6H62.2ZM62.2 51.24V51.99H62.95V51.24H62.2ZM55.48 47.72H54.73V48.47H55.48V47.72ZM59.96 47.72V48.47H60.71V47.72H59.96ZM56.92 30.76L56.1846 30.6129L56.17 30.6857V30.76H56.92ZM56.92 33H56.17V33.75H56.92V33ZM59.64 33V33.75H60.39V33H59.64ZM57.08 25.64H56.33V26.39H57.08V25.64ZM59.64 25.64V26.39H60.39V25.64H59.64ZM46.68 43.08H45.93V43.83H46.68V43.08ZM46.84 43.08H47.59V42.33H46.84V43.08ZM46.84 47.72H46.09V48.47H46.84V47.72ZM51.16 47.72V48.47H51.91V47.72H51.16ZM38.04 25.64H37.29V26.39H38.04V25.64ZM40.6 25.64V26.39H41.35V25.64H40.6ZM40.76 33V33.75H41.51V33H40.76ZM38.04 33H37.29V33.75H38.04V33ZM38.04 47.72H37.29V48.47H38.04V47.72ZM42.52 47.72V48.47H43.27V47.72H42.52ZM84.6 20.3601V21.1101H85.35V20.3601H84.6ZM82.68 20.3601H81.93V21.1101H82.68V20.3601ZM79.96 20.3601V21.1101H80.71V20.3601H79.96ZM78.04 20.3601H77.29V21.1101H78.04V20.3601ZM75.48 24.6801H74.73V24.8161L74.7778 24.9434L75.48 24.6801ZM76.92 28.5201H77.67V28.3841L77.6223 28.2567L76.92 28.5201ZM76.92 51.2401H76.17V51.9901H76.92V51.2401ZM86.04 51.2401V51.9901H86.79V51.2401H86.04ZM86.04 28.5201L85.3378 28.2567L85.29 28.3841V28.5201H86.04ZM87.48 24.6801L88.1823 24.9434L88.23 24.8161V24.6801H87.48ZM87.48 17.4801H88.23V17.303L88.1508 17.1447L87.48 17.4801ZM79.64 46.9201H78.89V47.6701H79.64V46.9201ZM83.16 46.9201V47.6701H83.91V46.9201H83.16ZM79.64 37.6401H78.89V38.3901H79.64V37.6401ZM83.16 37.6401V38.3901H83.91V37.6401H83.16ZM11.8 51.2401H11.05V51.9901H11.8V51.2401ZM11.8 28.5201H12.55V28.3984L12.5115 28.2829L11.8 28.5201ZM20.92 51.2401V51.9901H21.67V51.2401H20.92ZM20.92 28.5201L20.2178 28.2567L20.17 28.3841V28.5201H20.92ZM22.36 24.6801L23.0623 24.9434L23.11 24.8161V24.6801H22.36ZM19.64 20.3601V21.1101H20.39V20.3601H19.64ZM17.72 20.3601H16.97V21.1101H17.72V20.3601ZM15.16 20.3601V21.1101H15.91V20.3601H15.16ZM13.08 20.3601H12.33V21.1101H13.08V20.3601ZM10.52 24.6801H9.77002V24.8018L9.80851 24.9173L10.52 24.6801ZM18.04 37.6401V38.3901H18.79V37.6401H18.04ZM14.52 37.6401H13.77V38.3901H14.52V37.6401ZM18.04 46.9201V47.6701H18.79V46.9201H18.04ZM14.52 46.9201H13.77V47.6701H14.52V46.9201ZM72.28 52.84V53.59H73.03V52.84H72.28ZM71 52.84H70.25V53.59H71V52.84ZM68.6 52.84V53.59H69.35V52.84H68.6ZM67.32 52.84H66.57V53.59H67.32V52.84ZM64.44 52.84V53.59H65.19V52.84H64.44ZM33.4 52.84H32.65V53.59H33.4V52.84ZM30.84 52.84V53.59H31.59V52.84H30.84ZM29.56 52.84H28.81V53.59H29.56V52.84ZM27.16 52.84V53.59H27.91V52.84H27.16ZM25.88 52.84H25.13V53.59H25.88V52.84ZM23.32 52.84V53.59H24.07V52.84H23.32ZM10.52 52.84V52.09H9.77002V52.84H10.52ZM10.52 85.48H9.77002V86.23H10.52V85.48ZM39.8 85.48V86.23H40.55V85.48H39.8ZM49.08 60.84L49.3755 60.1506L49.08 60.024L48.7846 60.1506L49.08 60.84ZM58.36 85.48H57.61V86.23H58.36V85.48ZM87.32 85.48V86.23H88.07V85.48H87.32ZM87.32 52.84H88.07V52.09H87.32V52.84ZM74.68 52.84H73.93V53.59H74.68V52.84ZM17.88 75.88H17.13V76.63H17.88V75.88ZM28.44 75.88V76.63H29.19V75.88H28.44ZM79.96 75.72V76.47H80.71V75.72H79.96ZM69.4 75.72H68.65V76.47H69.4V75.72ZM34.89 18.6V51.24H36.39V18.6H34.89ZM33.821 15.9918L34.941 18.8718L36.339 18.3282L35.219 15.4482L33.821 15.9918ZM33.77 9.8V15.72H35.27V9.8H33.77ZM35.32 8.25C34.9096 8.25 34.5093 8.39009 34.2097 8.68967C33.9101 8.98925 33.77 9.38956 33.77 9.8H35.27C35.27 9.76346 35.276 9.74565 35.2775 9.74173C35.2788 9.73849 35.2773 9.74339 35.2703 9.75033C35.2634 9.75727 35.2585 9.75876 35.2618 9.75751C35.2657 9.756 35.2835 9.75 35.32 9.75V8.25ZM35.96 8.25H35.32V9.75H35.96V8.25ZM37.51 9.8C37.51 9.38956 37.3699 8.98925 37.0703 8.68967C36.7708 8.39009 36.3705 8.25 35.96 8.25V9.75C35.9966 9.75 36.0144 9.756 36.0183 9.75751C36.0215 9.75876 36.0166 9.75727 36.0097 9.75033C36.0027 9.74339 36.0013 9.73849 36.0025 9.74173C36.004 9.74565 36.01 9.76346 36.01 9.8H37.51ZM37.51 11.88V9.8H36.01V11.88H37.51ZM38.36 11.13H36.76V12.63H38.36V11.13ZM37.61 10.6V11.88H39.11V10.6H37.61ZM39.16 9.05C38.7496 9.05 38.3493 9.19009 38.0497 9.48967C37.7501 9.78925 37.61 10.1896 37.61 10.6H39.11C39.11 10.5635 39.116 10.5456 39.1175 10.5417C39.1188 10.5385 39.1173 10.5434 39.1103 10.5503C39.1034 10.5573 39.0985 10.5588 39.1018 10.5575C39.1057 10.556 39.1235 10.55 39.16 10.55V9.05ZM39.8 9.05H39.16V10.55H39.8V9.05ZM41.35 10.6C41.35 10.1896 41.2099 9.78925 40.9103 9.48967C40.6108 9.19009 40.2105 9.05 39.8 9.05V10.55C39.8366 10.55 39.8544 10.556 39.8583 10.5575C39.8615 10.5588 39.8566 10.5573 39.8497 10.5503C39.8427 10.5434 39.8413 10.5385 39.8425 10.5417C39.844 10.5456 39.85 10.5635 39.85 10.6H41.35ZM41.35 11.88V10.6H39.85V11.88H41.35ZM42.2 11.13H40.6V12.63H42.2V11.13ZM41.45 9.8V11.88H42.95V9.8H41.45ZM43 8.25C42.5896 8.25 42.1893 8.39009 41.8897 8.68967C41.5901 8.98925 41.45 9.38956 41.45 9.8H42.95C42.95 9.76346 42.956 9.74565 42.9575 9.74173C42.9588 9.73849 42.9573 9.74339 42.9503 9.75033C42.9434 9.75727 42.9385 9.75876 42.9418 9.75751C42.9457 9.756 42.9635 9.75 43 9.75V8.25ZM43.64 8.25H43V9.75H43.64V8.25ZM45.19 9.8C45.19 9.38956 45.0499 8.98925 44.7504 8.68967C44.4508 8.39008 44.0505 8.25 43.64 8.25V9.75C43.6766 9.75 43.6944 9.756 43.6983 9.75751C43.7015 9.75876 43.6966 9.75727 43.6897 9.75033C43.6827 9.74339 43.6813 9.7385 43.6825 9.74173C43.684 9.74565 43.69 9.76346 43.69 9.8H45.19ZM45.19 15.72V9.8H43.69V15.72H45.19ZM44.019 18.8718L45.139 15.9918L43.741 15.4482L42.621 18.3282L44.019 18.8718ZM44.07 36.2V18.6H42.57V36.2H44.07ZM44.6 35.45H43.32V36.95H44.6V35.45ZM43.85 34.28V36.2H45.35V34.28H43.85ZM45.08 33.05C44.8044 33.05 44.46 33.1194 44.1897 33.3897C43.9194 33.6599 43.85 34.0044 43.85 34.28H45.35C45.35 34.2356 45.3606 34.3401 45.2503 34.4503C45.1401 34.5606 45.0356 34.55 45.08 34.55V33.05ZM46.04 33.05H45.08V34.55H46.04V33.05ZM47.27 34.28C47.27 34.0044 47.2006 33.6599 46.9303 33.3897C46.6601 33.1194 46.3156 33.05 46.04 33.05V34.55C46.0844 34.55 45.9799 34.5606 45.8697 34.4503C45.7594 34.3401 45.77 34.2356 45.77 34.28H47.27ZM47.27 36.2V34.28H45.77V36.2H47.27ZM48.12 35.45H46.52V36.95H48.12V35.45ZM47.37 34.28V36.2H48.87V34.28H47.37ZM48.44 33.21C48.1161 33.21 47.855 33.3644 47.6897 33.5297C47.5244 33.6949 47.37 33.9561 47.37 34.28H48.87C48.87 34.4439 48.7956 34.5451 48.7503 34.5903C48.7051 34.6356 48.6039 34.71 48.44 34.71V33.21ZM49.56 33.21H48.44V34.71H49.56V33.21ZM50.63 34.28C50.63 33.9561 50.4756 33.6949 50.3103 33.5297C50.1451 33.3644 49.8839 33.21 49.56 33.21V34.71C49.3961 34.71 49.295 34.6356 49.2497 34.5903C49.2044 34.5451 49.13 34.4439 49.13 34.28H50.63ZM50.63 36.2V34.28H49.13V36.2H50.63ZM51.48 35.45H49.88V36.95H51.48V35.45ZM50.73 34.28V36.2H52.23V34.28H50.73ZM51.8 33.21C51.4761 33.21 51.215 33.3644 51.0497 33.5297C50.8844 33.6949 50.73 33.9561 50.73 34.28H52.23C52.23 34.4439 52.1556 34.5451 52.1103 34.5903C52.0651 34.6356 51.9639 34.71 51.8 34.71V33.21ZM52.92 33.21H51.8V34.71H52.92V33.21ZM53.99 34.28C53.99 33.9561 53.8356 33.6949 53.6703 33.5297C53.5051 33.3644 53.2439 33.21 52.92 33.21V34.71C52.7561 34.71 52.655 34.6356 52.6097 34.5903C52.5644 34.5451 52.49 34.4439 52.49 34.28H53.99ZM53.99 36.2V34.28H52.49V36.2H53.99ZM54.52 35.45H53.24V36.95H54.52V35.45ZM53.77 18.6V36.2H55.27V18.6H53.77ZM52.701 15.9918L53.821 18.8718L55.219 18.3282L54.099 15.4482L52.701 15.9918ZM52.65 9.8V15.72H54.15V9.8H52.65ZM54.2 8.25C53.7896 8.25 53.3893 8.39009 53.0897 8.68967C52.7901 8.98925 52.65 9.38956 52.65 9.8H54.15C54.15 9.76346 54.156 9.74565 54.1575 9.74173C54.1588 9.73849 54.1573 9.74339 54.1503 9.75033C54.1434 9.75727 54.1385 9.75876 54.1418 9.75751C54.1457 9.756 54.1635 9.75 54.2 9.75V8.25ZM54.84 8.25H54.2V9.75H54.84V8.25ZM56.39 9.8C56.39 9.38956 56.2499 8.98925 55.9503 8.68967C55.6508 8.39009 55.2505 8.25 54.84 8.25V9.75C54.8766 9.75 54.8944 9.756 54.8983 9.75751C54.9015 9.75876 54.8966 9.75727 54.8897 9.75033C54.8827 9.74339 54.8813 9.73849 54.8825 9.74173C54.884 9.74565 54.89 9.76346 54.89 9.8H56.39ZM56.39 11.88V9.8H54.89V11.88H56.39ZM57.24 11.13H55.64V12.63H57.24V11.13ZM56.49 10.6V11.88H57.99V10.6H56.49ZM58.04 9.05C57.6296 9.05 57.2293 9.19009 56.9297 9.48967C56.6301 9.78925 56.49 10.1896 56.49 10.6H57.99C57.99 10.5635 57.996 10.5456 57.9975 10.5417C57.9988 10.5385 57.9973 10.5434 57.9904 10.5503C57.9834 10.5573 57.9785 10.5588 57.9818 10.5575C57.9857 10.556 58.0035 10.55 58.04 10.55V9.05ZM58.68 9.05H58.04V10.55H58.68V9.05ZM60.23 10.6C60.23 10.1896 60.0899 9.78925 59.7903 9.48967C59.4908 9.19009 59.0905 9.05 58.68 9.05V10.55C58.7166 10.55 58.7344 10.556 58.7383 10.5575C58.7415 10.5588 58.7366 10.5573 58.7297 10.5503C58.7227 10.5434 58.7213 10.5385 58.7225 10.5417C58.724 10.5456 58.73 10.5635 58.73 10.6H60.23ZM60.23 11.88V10.6H58.73V11.88H60.23ZM61.08 11.13H59.48V12.63H61.08V11.13ZM60.33 9.8V11.88H61.83V9.8H60.33ZM61.88 8.25C61.4696 8.25 61.0693 8.39009 60.7697 8.68967C60.4701 8.98925 60.33 9.38956 60.33 9.8H61.83C61.83 9.76346 61.836 9.74565 61.8375 9.74173C61.8388 9.73849 61.8373 9.74339 61.8303 9.75033C61.8234 9.75727 61.8185 9.75876 61.8218 9.75751C61.8257 9.756 61.8435 9.75 61.88 9.75V8.25ZM62.52 8.25H61.88V9.75H62.52V8.25ZM64.07 9.8C64.07 9.38956 63.9299 8.98925 63.6303 8.68967C63.3308 8.39009 62.9305 8.25 62.52 8.25V9.75C62.5566 9.75 62.5744 9.756 62.5783 9.75751C62.5815 9.75876 62.5766 9.75727 62.5697 9.75033C62.5627 9.74339 62.5613 9.73849 62.5625 9.74173C62.564 9.74565 62.57 9.76346 62.57 9.8H64.07ZM64.07 15.72V9.8H62.57V15.72H64.07ZM62.899 18.8718L64.019 15.9918L62.621 15.4482L61.501 18.3282L62.899 18.8718ZM62.95 51.24V18.6H61.45V51.24H62.95ZM35.64 51.99H62.2V50.49H35.64V51.99ZM59.8 46.97H55.48V48.47H59.8V46.97ZM59.96 46.97H59.8V48.47H59.96V46.97ZM59.21 43.08V47.72H60.71V43.08H59.21ZM57.72 41.59C58.5858 41.59 59.21 42.2142 59.21 43.08H60.71C60.71 41.3858 59.4142 40.09 57.72 40.09V41.59ZM56.23 43.08C56.23 42.2142 56.8542 41.59 57.72 41.59V40.09C56.0258 40.09 54.73 41.3858 54.73 43.08H56.23ZM56.23 47.72V43.08H54.73V47.72H56.23ZM58.36 30.07C58.5426 30.07 58.652 30.1353 58.7275 30.2245C58.8135 30.3261 58.89 30.5049 58.89 30.76H60.39C60.39 30.2151 60.2265 29.6739 59.8726 29.2555C59.508 28.8247 58.9775 28.57 58.36 28.57V30.07ZM57.6555 30.9071C57.7062 30.6531 57.8344 30.4262 57.9903 30.2703C58.1512 30.1095 58.2908 30.07 58.36 30.07V28.57C57.7892 28.57 57.2888 28.8505 56.9297 29.2097C56.5656 29.5738 56.2938 30.0669 56.1846 30.6129L57.6555 30.9071ZM57.67 33V30.76H56.17V33H57.67ZM59.64 32.25H56.92V33.75H59.64V32.25ZM58.89 30.76V33H60.39V30.76H58.89ZM57.83 25.64V23.24H56.33V25.64H57.83ZM59.64 24.89H57.08V26.39H59.64V24.89ZM58.89 23.24V25.64H60.39V23.24H58.89ZM58.36 22.55C58.5426 22.55 58.652 22.6153 58.7275 22.7045C58.8135 22.8061 58.89 22.9849 58.89 23.24H60.39C60.39 22.6951 60.2265 22.1539 59.8726 21.7355C59.508 21.3047 58.9775 21.05 58.36 21.05V22.55ZM57.83 23.24C57.83 22.7966 58.1896 22.55 58.36 22.55V21.05C57.2504 21.05 56.33 22.0834 56.33 23.24H57.83ZM47.43 43.08C47.43 42.2142 48.0542 41.59 48.92 41.59V40.09C47.2258 40.09 45.93 41.3858 45.93 43.08H47.43ZM46.84 42.33H46.68V43.83H46.84V42.33ZM47.59 47.72V43.08H46.09V47.72H47.59ZM51.16 46.97H46.84V48.47H51.16V46.97ZM50.41 43.08V47.72H51.91V43.08H50.41ZM48.92 41.59C49.7858 41.59 50.41 42.2142 50.41 43.08H51.91C51.91 41.3858 50.6142 40.09 48.92 40.09V41.59ZM38.79 25.64V23.24H37.29V25.64H38.79ZM40.6 24.89H38.04V26.39H40.6V24.89ZM39.85 23.24V25.64H41.35V23.24H39.85ZM39.32 22.55C39.5026 22.55 39.612 22.6153 39.6875 22.7045C39.7735 22.8061 39.85 22.9849 39.85 23.24H41.35C41.35 22.6951 41.1865 22.1539 40.8326 21.7355C40.468 21.3047 39.9375 21.05 39.32 21.05V22.55ZM38.79 23.24C38.79 22.7966 39.1496 22.55 39.32 22.55V21.05C38.2104 21.05 37.29 22.0834 37.29 23.24H38.79ZM40.01 30.76V33H41.51V30.76H40.01ZM39.32 30.07C39.7058 30.07 40.01 30.3742 40.01 30.76H41.51C41.51 29.5458 40.5342 28.57 39.32 28.57V30.07ZM38.79 30.76C38.79 30.3166 39.1496 30.07 39.32 30.07V28.57C38.2104 28.57 37.29 29.6034 37.29 30.76H38.79ZM38.79 33V30.76H37.29V33H38.79ZM40.76 32.25H38.04V33.75H40.76V32.25ZM42.36 46.97H38.04V48.47H42.36V46.97ZM42.52 46.97H42.36V48.47H42.52V46.97ZM41.77 43.08V47.72H43.27V43.08H41.77ZM40.28 41.59C41.1458 41.59 41.77 42.2142 41.77 43.08H43.27C43.27 41.3858 41.9742 40.09 40.28 40.09V41.59ZM38.79 43.08C38.79 42.2142 39.4142 41.59 40.28 41.59V40.09C38.5858 40.09 37.29 41.3858 37.29 43.08H38.79ZM38.79 47.72V43.08H37.29V47.72H38.79ZM85.24 17.5901H86.68V16.0901H85.24V17.5901ZM85.35 17.4801C85.35 17.5249 85.3391 17.5528 85.3347 17.5623C85.3302 17.5717 85.3279 17.5728 85.3304 17.5704C85.3328 17.568 85.3316 17.5703 85.3222 17.5747C85.3127 17.5792 85.2849 17.5901 85.24 17.5901V16.0901C84.8361 16.0901 84.4949 16.2845 84.2697 16.5098C84.0444 16.735 83.85 17.0762 83.85 17.4801H85.35ZM85.35 20.3601V17.4801H83.85V20.3601H85.35ZM82.68 21.1101H84.6V19.6101H82.68V21.1101ZM81.93 18.4401V20.3601H83.43V18.4401H81.93ZM82.04 18.5501C81.9952 18.5501 81.9673 18.5392 81.9579 18.5347C81.9484 18.5303 81.9473 18.528 81.9497 18.5304C81.9521 18.5328 81.9498 18.5317 81.9454 18.5222C81.9409 18.5128 81.93 18.4849 81.93 18.4401H83.43C83.43 18.0362 83.2356 17.695 83.0104 17.4698C82.7851 17.2445 82.4439 17.0501 82.04 17.0501V18.5501ZM80.6 18.5501H82.04V17.0501H80.6V18.5501ZM80.71 18.4401C80.71 18.4849 80.6991 18.5128 80.6947 18.5223C80.6902 18.5317 80.6879 18.5328 80.6904 18.5304C80.6928 18.528 80.6916 18.5303 80.6822 18.5347C80.6727 18.5392 80.6449 18.5501 80.6 18.5501V17.0501C80.1961 17.0501 79.8549 17.2445 79.6297 17.4698C79.4044 17.695 79.21 18.0362 79.21 18.4401H80.71ZM80.71 20.3601V18.4401H79.21V20.3601H80.71ZM78.04 21.1101H79.96V19.6101H78.04V21.1101ZM77.29 17.4801V20.3601H78.79V17.4801H77.29ZM77.4 17.5901C77.3552 17.5901 77.3273 17.5792 77.3179 17.5747C77.3084 17.5703 77.3073 17.568 77.3097 17.5704C77.3121 17.5728 77.3098 17.5717 77.3054 17.5623C77.301 17.5528 77.29 17.5249 77.29 17.4801H78.79C78.79 17.0762 78.5956 16.735 78.3703 16.5098C78.1451 16.2845 77.8039 16.0901 77.4 16.0901V17.5901ZM76.12 17.5901H77.4V16.0901H76.12V17.5901ZM76.23 17.4801C76.23 17.5249 76.2191 17.5528 76.2147 17.5623C76.2102 17.5717 76.2079 17.5728 76.2104 17.5704C76.2128 17.568 76.2116 17.5703 76.2022 17.5747C76.1927 17.5792 76.1649 17.5901 76.12 17.5901V16.0901C75.7161 16.0901 75.3749 16.2845 75.1497 16.5098C74.9244 16.735 74.73 17.0762 74.73 17.4801H76.23ZM76.23 24.6801V17.4801H74.73V24.6801H76.23ZM77.6223 28.2567L76.1823 24.4167L74.7778 24.9434L76.2178 28.7834L77.6223 28.2567ZM77.67 51.2401V28.5201H76.17V51.2401H77.67ZM86.04 50.4901H76.92V51.9901H86.04V50.4901ZM85.29 28.5201V51.2401H86.79V28.5201H85.29ZM86.7778 24.4167L85.3378 28.2567L86.7423 28.7834L88.1823 24.9434L86.7778 24.4167ZM86.73 17.4801V24.6801H88.23V17.4801H86.73ZM86.68 17.5901C86.6342 17.5901 86.609 17.5787 86.6088 17.5786C86.6084 17.5784 86.6124 17.5802 86.6204 17.5855C86.6284 17.5907 86.6391 17.5985 86.6519 17.6095C86.7093 17.6587 86.7698 17.7367 86.8092 17.8155L88.1508 17.1447C88.0302 16.9035 87.8507 16.6614 87.6281 16.4706C87.414 16.2872 87.0865 16.0901 86.68 16.0901V17.5901ZM79.64 47.6701H83.16V46.1701H79.64V47.6701ZM78.89 43.8801V46.9201H80.39V43.8801H78.89ZM81.4 41.3701C80.0258 41.3701 78.89 42.5059 78.89 43.8801H80.39C80.39 43.3343 80.8542 42.8701 81.4 42.8701V41.3701ZM83.91 43.8801C83.91 42.5059 82.7742 41.3701 81.4 41.3701V42.8701C81.9458 42.8701 82.41 43.3343 82.41 43.8801H83.91ZM83.91 46.9201V43.8801H82.41V46.9201H83.91ZM79.64 38.3901H83.16V36.8901H79.64V38.3901ZM78.89 34.6001V37.6401H80.39V34.6001H78.89ZM81.4 32.0901C80.0258 32.0901 78.89 33.2259 78.89 34.6001H80.39C80.39 34.0543 80.8542 33.5901 81.4 33.5901V32.0901ZM83.91 34.6001C83.91 33.2259 82.7742 32.0901 81.4 32.0901V33.5901C81.9458 33.5901 82.41 34.0543 82.41 34.6001H83.91ZM83.91 37.6401V34.6001H82.41V37.6401H83.91ZM12.55 51.2401V28.5201H11.05V51.2401H12.55ZM20.92 50.4901H11.8V51.9901H20.92V50.4901ZM20.17 28.5201V51.2401H21.67V28.5201H20.17ZM21.6578 24.4167L20.2178 28.2567L21.6223 28.7834L23.0623 24.9434L21.6578 24.4167ZM21.61 17.4801V24.6801H23.11V17.4801H21.61ZM21.72 17.5901C21.6752 17.5901 21.6473 17.5792 21.6379 17.5747C21.6284 17.5703 21.6273 17.568 21.6297 17.5704C21.6321 17.5728 21.6298 17.5717 21.6254 17.5623C21.621 17.5528 21.61 17.5249 21.61 17.4801H23.11C23.11 17.0762 22.9156 16.735 22.6903 16.5098C22.4651 16.2845 22.1239 16.0901 21.72 16.0901V17.5901ZM20.28 17.5901H21.72V16.0901H20.28V17.5901ZM20.39 17.4801C20.39 17.5249 20.3791 17.5528 20.3747 17.5623C20.3702 17.5717 20.3679 17.5728 20.3703 17.5704C20.3728 17.568 20.3716 17.5703 20.3622 17.5747C20.3527 17.5792 20.3249 17.5901 20.28 17.5901V16.0901C19.8761 16.0901 19.5349 16.2845 19.3097 16.5098C19.0844 16.735 18.89 17.0762 18.89 17.4801H20.39ZM20.39 20.3601V17.4801H18.89V20.3601H20.39ZM17.72 21.1101H19.64V19.6101H17.72V21.1101ZM16.97 18.4401V20.3601H18.47V18.4401H16.97ZM17.08 18.5501C17.0352 18.5501 17.0073 18.5392 16.9979 18.5347C16.9884 18.5303 16.9873 18.528 16.9897 18.5304C16.9921 18.5328 16.9898 18.5317 16.9854 18.5223C16.981 18.5128 16.97 18.4849 16.97 18.4401H18.47C18.47 18.0362 18.2756 17.695 18.0503 17.4698C17.8251 17.2445 17.4839 17.0501 17.08 17.0501V18.5501ZM15.64 18.5501H17.08V17.0501H15.64V18.5501ZM15.91 18.4401C15.91 18.4212 15.9125 18.4065 15.9147 18.3983C15.917 18.3895 15.9165 18.3974 15.9041 18.4161C15.8909 18.4358 15.8613 18.4718 15.8079 18.5029C15.7512 18.536 15.6904 18.5501 15.64 18.5501V17.0501C15.1891 17.0501 14.8512 17.2912 14.656 17.5841C14.4756 17.8547 14.41 18.1688 14.41 18.4401H15.91ZM15.91 20.3601V18.4401H14.41V20.3601H15.91ZM13.08 21.1101H15.16V19.6101H13.08V21.1101ZM12.33 17.4801V20.3601H13.83V17.4801H12.33ZM12.6 17.5901C12.5496 17.5901 12.4889 17.576 12.4321 17.5429C12.3787 17.5118 12.3491 17.4758 12.336 17.4561C12.3235 17.4374 12.323 17.4295 12.3253 17.4383C12.3275 17.4465 12.33 17.4612 12.33 17.4801H13.83C13.83 17.2088 13.7645 16.8947 13.5841 16.6241C13.3888 16.3312 13.0509 16.0901 12.6 16.0901V17.5901ZM11.16 17.5901H12.6V16.0901H11.16V17.5901ZM11.27 17.4801C11.27 17.5249 11.2591 17.5528 11.2547 17.5623C11.2502 17.5717 11.2479 17.5728 11.2503 17.5704C11.2528 17.568 11.2516 17.5703 11.2422 17.5747C11.2327 17.5792 11.2049 17.5901 11.16 17.5901V16.0901C10.7561 16.0901 10.4149 16.2845 10.1897 16.5098C9.96443 16.735 9.77002 17.0762 9.77002 17.4801H11.27ZM11.27 24.6801V17.4801H9.77002V24.6801H11.27ZM12.5115 28.2829L11.2315 24.4429L9.80851 24.9173L11.0885 28.7573L12.5115 28.2829ZM16.28 32.0901C14.9058 32.0901 13.77 33.2259 13.77 34.6001H15.27C15.27 34.0543 15.7342 33.5901 16.28 33.5901V32.0901ZM18.79 34.6001C18.79 33.2259 17.6542 32.0901 16.28 32.0901V33.5901C16.8258 33.5901 17.29 34.0543 17.29 34.6001H18.79ZM18.79 37.6401V34.6001H17.29V37.6401H18.79ZM14.52 38.3901H18.04V36.8901H14.52V38.3901ZM13.77 34.6001V37.6401H15.27V34.6001H13.77ZM16.28 41.3701C14.9058 41.3701 13.77 42.5059 13.77 43.8801H15.27C15.27 43.3343 15.7342 42.8701 16.28 42.8701V41.3701ZM18.79 43.8801C18.79 42.5059 17.6542 41.3701 16.28 41.3701V42.8701C16.8258 42.8701 17.29 43.3343 17.29 43.8801H18.79ZM18.79 46.9201V43.8801H17.29V46.9201H18.79ZM14.52 47.6701H18.04V46.1701H14.52V47.6701ZM13.77 43.8801V46.9201H15.27V43.8801H13.77ZM74.2 50.71C74.1269 50.71 74.0852 50.6945 74.0755 50.6908C74.0604 50.6851 74.0464 50.6775 74.0315 50.6656C74.016 50.6532 73.9905 50.6287 73.968 50.5872C73.9437 50.5422 73.93 50.49 73.93 50.44H75.43C75.43 50.0012 75.2024 49.6814 74.9685 49.4943C74.7584 49.3262 74.4774 49.21 74.2 49.21V50.71ZM72.76 50.71H74.2V49.21H72.76V50.71ZM73.03 50.44C73.03 50.513 73.0146 50.5548 73.0109 50.5645C73.0051 50.5796 72.9976 50.5936 72.9857 50.6085C72.9733 50.624 72.9487 50.6495 72.9072 50.6719C72.8623 50.6963 72.81 50.71 72.76 50.71V49.21C72.3212 49.21 72.0015 49.4375 71.8144 49.6714C71.6463 49.8816 71.53 50.1625 71.53 50.44H73.03ZM73.03 52.84V50.44H71.53V52.84H73.03ZM71 53.59H72.28V52.09H71V53.59ZM70.25 50.44V52.84H71.75V50.44H70.25ZM70.52 50.71C70.4469 50.71 70.4052 50.6945 70.3955 50.6908C70.3804 50.6851 70.3664 50.6775 70.3515 50.6656C70.336 50.6532 70.3105 50.6287 70.288 50.5872C70.2637 50.5422 70.25 50.49 70.25 50.44H71.75C71.75 50.0012 71.5224 49.6814 71.2885 49.4943C71.0784 49.3262 70.7974 49.21 70.52 49.21V50.71ZM69.08 50.71H70.52V49.21H69.08V50.71ZM69.35 50.44C69.35 50.513 69.3346 50.5548 69.3309 50.5645C69.3251 50.5796 69.3176 50.5936 69.3057 50.6085C69.2933 50.624 69.2687 50.6495 69.2272 50.6719C69.1823 50.6963 69.13 50.71 69.08 50.71V49.21C68.6412 49.21 68.3215 49.4375 68.1344 49.6714C67.9663 49.8816 67.85 50.1625 67.85 50.44H69.35ZM69.35 52.84V50.44H67.85V52.84H69.35ZM67.32 53.59H68.6V52.09H67.32V53.59ZM66.57 50.44V52.84H68.07V50.44H66.57ZM66.84 50.71C66.7669 50.71 66.7252 50.6945 66.7155 50.6908C66.7004 50.6851 66.6864 50.6775 66.6715 50.6656C66.656 50.6532 66.6305 50.6287 66.608 50.5872C66.5837 50.5422 66.57 50.49 66.57 50.44H68.07C68.07 50.0012 67.8424 49.6814 67.6085 49.4943C67.3984 49.3262 67.1175 49.21 66.84 49.21V50.71ZM64.92 50.71H66.84V49.21H64.92V50.71ZM65.19 50.44C65.19 50.513 65.1746 50.5548 65.1709 50.5645C65.1651 50.5796 65.1576 50.5936 65.1457 50.6085C65.1333 50.624 65.1087 50.6495 65.0672 50.6719C65.0223 50.6963 64.97 50.71 64.92 50.71V49.21C64.4812 49.21 64.1615 49.4375 63.9744 49.6714C63.8063 49.8816 63.69 50.1625 63.69 50.44H65.19ZM65.19 52.84V50.44H63.69V52.84H65.19ZM33.4 53.59H64.44V52.09H33.4V53.59ZM32.65 50.44V52.84H34.15V50.44H32.65ZM32.92 50.71C32.8469 50.71 32.8052 50.6945 32.7955 50.6908C32.7804 50.6851 32.7664 50.6775 32.7515 50.6656C32.736 50.6532 32.7105 50.6287 32.688 50.5872C32.6637 50.5422 32.65 50.49 32.65 50.44H34.15C34.15 50.0012 33.9224 49.6814 33.6885 49.4943C33.4784 49.3262 33.1974 49.21 32.92 49.21V50.71ZM31.32 50.71H32.92V49.21H31.32V50.71ZM31.59 50.44C31.59 50.513 31.5746 50.5548 31.5709 50.5645C31.5651 50.5796 31.5576 50.5936 31.5457 50.6085C31.5333 50.624 31.5087 50.6495 31.4672 50.6719C31.4223 50.6963 31.37 50.71 31.32 50.71V49.21C30.8812 49.21 30.5615 49.4375 30.3744 49.6714C30.2063 49.8816 30.09 50.1625 30.09 50.44H31.59ZM31.59 52.84V50.44H30.09V52.84H31.59ZM29.56 53.59H30.84V52.09H29.56V53.59ZM28.81 50.44V52.84H30.31V50.44H28.81ZM29.08 50.71C29.007 50.71 28.9652 50.6945 28.9555 50.6908C28.9404 50.6851 28.9264 50.6775 28.9115 50.6656C28.896 50.6532 28.8705 50.6287 28.848 50.5872C28.8237 50.5422 28.81 50.49 28.81 50.44H30.31C30.31 50.0012 30.0824 49.6814 29.8485 49.4943C29.6384 49.3262 29.3574 49.21 29.08 49.21V50.71ZM27.64 50.71H29.08V49.21H27.64V50.71ZM27.91 50.44C27.91 50.513 27.8946 50.5548 27.8909 50.5645C27.8851 50.5796 27.8776 50.5936 27.8657 50.6085C27.8533 50.624 27.8287 50.6495 27.7872 50.6719C27.7423 50.6963 27.69 50.71 27.64 50.71V49.21C27.2012 49.21 26.8815 49.4375 26.6944 49.6714C26.5263 49.8816 26.41 50.1625 26.41 50.44H27.91ZM27.91 52.84V50.44H26.41V52.84H27.91ZM25.88 53.59H27.16V52.09H25.88V53.59ZM25.13 50.44V52.84H26.63V50.44H25.13ZM25.4 50.71C25.3269 50.71 25.2852 50.6945 25.2755 50.6908C25.2604 50.6851 25.2464 50.6775 25.2315 50.6656C25.216 50.6532 25.1905 50.6287 25.1681 50.5872C25.1437 50.5422 25.13 50.49 25.13 50.44H26.63C26.63 50.0012 26.4024 49.6814 26.1685 49.4943C25.9584 49.3262 25.6774 49.21 25.4 49.21V50.71ZM23.8 50.71H25.4V49.21H23.8V50.71ZM24.07 50.44C24.07 50.513 24.0546 50.5548 24.0509 50.5645C24.0451 50.5796 24.0376 50.5936 24.0257 50.6085C24.0133 50.624 23.9887 50.6495 23.9472 50.6719C23.9023 50.6963 23.85 50.71 23.8 50.71V49.21C23.3612 49.21 23.0415 49.4375 22.8544 49.6714C22.6863 49.8816 22.57 50.1625 22.57 50.44H24.07ZM24.07 52.84V50.44H22.57V52.84H24.07ZM10.52 53.59H23.32V52.09H10.52V53.59ZM11.27 85.48V52.84H9.77002V85.48H11.27ZM39.8 84.73H10.52V86.23H39.8V84.73ZM39.05 74.76V85.48H40.55V74.76H39.05ZM48.7846 60.1506C42.9165 62.6655 39.05 68.3717 39.05 74.76H40.55C40.55 68.9883 44.0435 63.8144 49.3755 61.5293L48.7846 60.1506ZM59.11 74.76C59.11 68.3717 55.2435 62.6655 49.3755 60.1506L48.7846 61.5293C54.1165 63.8144 57.61 68.9883 57.61 74.76H59.11ZM59.11 85.48V74.76H57.61V85.48H59.11ZM87.32 84.73H58.36V86.23H87.32V84.73ZM86.57 52.84V85.48H88.07V52.84H86.57ZM74.68 53.59H87.32V52.09H74.68V53.59ZM73.93 50.44V52.84H75.43V50.44H73.93ZM17.13 67.72V75.88H18.63V67.72H17.13ZM23.16 61.69C19.8658 61.69 17.13 64.4257 17.13 67.72H18.63C18.63 65.2542 20.6942 63.19 23.16 63.19V61.69ZM29.19 67.72C29.19 64.4257 26.4542 61.69 23.16 61.69V63.19C25.6258 63.19 27.69 65.2542 27.69 67.72H29.19ZM29.19 75.88V67.72H27.69V75.88H29.19ZM17.88 76.63H28.44V75.13H17.88V76.63ZM80.71 75.72V67.56H79.21V75.72H80.71ZM69.4 76.47H79.96V74.97H69.4V76.47ZM68.65 67.56V75.72H70.15V67.56H68.65ZM74.68 61.53C71.3858 61.53 68.65 64.2657 68.65 67.56H70.15C70.15 65.0942 72.2142 63.03 74.68 63.03V61.53ZM80.71 67.56C80.71 64.2657 77.9742 61.53 74.68 61.53V63.03C77.1458 63.03 79.21 65.0942 79.21 67.56H80.71Z" fill="#292D32"/>
</g>
<defs>
<clipPath id="clip0_226_3466">
<rect width="91.5599" height="80" fill="white" transform="translate(0.220215)"/>
</clipPath>
</defs>
</svg>
