<svg width="93" height="80" viewBox="0 0 93 80" fill="none" xmlns="http://www.w3.org/2000/svg">
<g clip-path="url(#clip0_226_3444)">
<path d="M16.0046 85.2265H85.4355C85.8359 85.2265 86.2198 85.0675 86.5029 84.7844C86.7859 84.5013 86.945 84.1174 86.945 83.7171C86.945 83.3168 86.7859 82.9328 86.5029 82.6497C86.2198 82.3667 85.8359 82.2076 85.4355 82.2076H80.6204V39.1797H82.0408C82.4411 39.1797 82.8251 39.0207 83.1082 38.7376C83.3912 38.4545 83.5503 38.0706 83.5503 37.6703C83.5503 37.27 83.3912 36.886 83.1082 36.603C82.8251 36.3199 82.4411 36.1609 82.0408 36.1609H78.6295V31.5058C78.6271 30.326 78.1644 29.1937 77.3398 28.3499C76.5152 27.5061 75.3938 27.0175 74.2144 26.988V22.4642C74.2144 19.9676 72.1842 17.9359 69.6861 17.9359H63.5533V15.7925C63.5533 14.1276 62.1993 12.7737 60.5344 12.7737H40.9057C39.2408 12.7737 37.8869 14.1276 37.8869 15.7925V17.9359H31.754C29.2574 17.9359 27.2257 19.9676 27.2257 22.4642V26.9865C26.046 27.016 24.9245 27.5049 24.0998 28.3489C23.2752 29.193 22.8126 30.3257 22.8106 31.5058V36.1624H19.3993C18.999 36.1624 18.6151 36.3214 18.332 36.6045C18.0489 36.8875 17.8899 37.2715 17.8899 37.6718C17.8899 38.0721 18.0489 38.4561 18.332 38.7391C18.6151 39.0222 18.999 39.1812 19.3993 39.1812H20.8212V82.2076H16.0031C15.6028 82.2076 15.2188 82.3667 14.9358 82.6497C14.6527 82.9328 14.4937 83.3168 14.4937 83.7171C14.4937 84.1174 14.6527 84.5013 14.9358 84.7844C15.2188 85.0675 15.6043 85.2265 16.0046 85.2265ZM23.8386 65.8378H38.0242V71.5133H23.8401V65.8378H23.8386ZM41.0446 82.2076V59.8001C41.0446 54.4642 45.3857 50.1246 50.7216 50.1246C56.0574 50.1246 60.3986 54.4642 60.3986 59.8001V82.2076H41.0446ZM77.6031 71.5133H63.4144V65.8378H77.5986V71.5133H77.6031ZM63.4144 82.2076V74.5322H77.5986V82.2076H63.4144ZM30.2446 22.4642C30.2446 21.6341 30.9223 20.9548 31.754 20.9548H39.3963C39.7966 20.9548 40.1806 20.7958 40.4636 20.5127C40.7467 20.2296 40.9057 19.8457 40.9057 19.4454V15.7925H60.5344V19.4454C60.5344 19.8457 60.6934 20.2296 60.9765 20.5127C61.2596 20.7958 61.6435 20.9548 62.0438 20.9548H69.6861C70.5193 20.9548 71.1955 21.6341 71.1955 22.4642V26.9699H65.188V26.5095C65.1888 26.1095 65.0307 25.7254 64.7486 25.4418C64.4664 25.1583 64.0832 24.9983 63.6831 24.9971H63.6786C63.279 24.9971 62.8958 25.1555 62.6128 25.4376C62.3299 25.7197 62.1703 26.1024 62.1691 26.502V26.9699H52.2295L52.231 26.4733C52.2316 26.2751 52.1932 26.0787 52.1178 25.8953C52.0425 25.712 51.9319 25.5452 51.7921 25.4046C51.6524 25.2641 51.4863 25.1524 51.3034 25.076C51.1205 24.9996 50.9243 24.9599 50.7261 24.9593H50.7216C50.322 24.9593 49.9388 25.1177 49.6558 25.3998C49.3729 25.6819 49.2133 26.0647 49.2121 26.4642L49.2106 26.9699H39.2725L39.274 26.4356C39.2746 26.2373 39.2362 26.0409 39.1609 25.8576C39.0856 25.6742 38.9749 25.5075 38.8351 25.3669C38.6954 25.2263 38.5293 25.1146 38.3464 25.0382C38.1635 24.9618 37.9673 24.9222 37.7691 24.9216H37.7646C37.3651 24.9216 36.9818 25.08 36.6989 25.3621C36.4159 25.6442 36.2564 26.027 36.2552 26.4265L36.2537 26.9699H30.2431V22.4642H30.2446ZM25.8295 31.5058C25.8295 30.6726 26.5057 29.9963 27.3389 29.9963H74.1012C74.9344 29.9963 75.6106 30.6726 75.6106 31.5058V36.1624H25.8295V31.5058ZM29.1699 39.1812V40.8416C29.1699 41.2419 29.3289 41.6259 29.612 41.9089C29.8951 42.192 30.279 42.351 30.6793 42.351C31.0796 42.351 31.4636 42.192 31.7466 41.9089C32.0297 41.6259 32.1887 41.2419 32.1887 40.8416V39.1812H41.9548V40.8416C41.9548 41.2419 42.1138 41.6259 42.3969 41.9089C42.68 42.192 43.0639 42.351 43.4642 42.351C43.8645 42.351 44.2485 42.192 44.5315 41.9089C44.8146 41.6259 44.9737 41.2419 44.9737 40.8416V39.1812H54.7367V40.8416C54.7367 41.2419 54.8957 41.6259 55.1788 41.9089C55.4618 42.192 55.8458 42.351 56.2461 42.351C56.6464 42.351 57.0304 42.192 57.3134 41.9089C57.5965 41.6259 57.7555 41.2419 57.7555 40.8416V39.1812H67.5201V40.8416C67.5201 41.2419 67.6791 41.6259 67.9622 41.9089C68.2452 42.192 68.6292 42.351 69.0295 42.351C69.4298 42.351 69.8138 42.192 70.0968 41.9089C70.3799 41.6259 70.5389 41.2419 70.5389 40.8416V39.1812H77.6001V62.8205H63.4159V59.8016C63.4159 52.8024 57.7208 47.1073 50.7201 47.1073C43.7193 47.1073 38.0242 52.8024 38.0242 59.8016V62.8205H23.8401V39.1827L29.1699 39.1812ZM23.8401 74.5322H38.0242V82.2076H23.8401V74.5322Z" fill="#292D32"/>
<path d="M70.5087 54.9365C70.909 54.9365 71.2929 54.7775 71.576 54.4944C71.8591 54.2114 72.0181 53.8274 72.0181 53.4271V49.809C72.0181 49.4087 71.8591 49.0247 71.576 48.7417C71.2929 48.4586 70.909 48.2996 70.5087 48.2996C70.1083 48.2996 69.7244 48.4586 69.4413 48.7417C69.1583 49.0247 68.9992 49.4087 68.9992 49.809V53.4271C68.9992 53.8274 69.1583 54.2114 69.4413 54.4944C69.7244 54.7775 70.1083 54.9365 70.5087 54.9365ZM30.9313 54.9365C31.3316 54.9365 31.7156 54.7775 31.9986 54.4944C32.2817 54.2114 32.4407 53.8274 32.4407 53.4271V49.809C32.4407 49.4087 32.2817 49.0247 31.9986 48.7417C31.7156 48.4586 31.3316 48.2996 30.9313 48.2996C30.531 48.2996 30.1471 48.4586 29.864 48.7417C29.5809 49.0247 29.4219 49.4087 29.4219 49.809V53.4271C29.4219 53.8274 29.5809 54.2114 29.864 54.4944C30.1471 54.7775 30.531 54.9365 30.9313 54.9365Z" fill="#292D32"/>
</g>
<defs>
<clipPath id="clip0_226_3444">
<rect width="91.5599" height="80" fill="white" transform="translate(0.720215)"/>
</clipPath>
</defs>
</svg>
