<svg width="92" height="80" viewBox="0 0 92 80" fill="none" xmlns="http://www.w3.org/2000/svg">
<path d="M59.432 35.6836C60.015 35.6836 60.4876 35.211 60.4876 34.6281C60.4876 34.0451 60.015 33.5725 59.432 33.5725C58.8491 33.5725 58.3765 34.0451 58.3765 34.6281C58.3765 35.211 58.8491 35.6836 59.432 35.6836Z" fill="#292D32" stroke="#292D32" stroke-width="0.475"/>
<path d="M30.1897 57.2858C29.9744 57.2858 29.7679 57.3714 29.6156 57.5237C29.4633 57.6759 29.3778 57.8825 29.3778 58.0978V60.7526C29.3778 61.2011 29.7412 61.5646 30.1897 61.5646C30.6383 61.5646 31.0017 61.2011 31.0017 60.7526V58.0978C31.0017 57.8825 30.9161 57.6759 30.7639 57.5237C30.6116 57.3714 30.4051 57.2858 30.1897 57.2858ZM30.1897 67.3703C29.9744 67.3703 29.7679 67.4558 29.6156 67.6081C29.4633 67.7604 29.3778 67.9669 29.3778 68.1823V70.777C29.3778 71.2255 29.7412 71.5889 30.1897 71.5889C30.6383 71.5889 31.0017 71.2255 31.0017 70.777V68.1823C31.0017 67.9669 30.9161 67.7604 30.7639 67.6081C30.6116 67.4558 30.4051 67.3703 30.1897 67.3703ZM30.1897 47.2615C29.9744 47.2615 29.7679 47.347 29.6156 47.4993C29.4633 47.6516 29.3778 47.8581 29.3778 48.0734V50.6682C29.3778 51.1167 29.7412 51.4801 30.1897 51.4801C30.6383 51.4801 31.0017 51.1167 31.0017 50.6682V48.0734C31.0017 47.8581 30.9161 47.6516 30.7639 47.4993C30.6116 47.347 30.4051 47.2615 30.1897 47.2615ZM63.0162 57.4781C62.8009 57.4781 62.5943 57.5637 62.4421 57.7159C62.2898 57.8682 62.2042 58.0747 62.2042 58.2901V60.8848C62.2042 61.3333 62.5677 61.6968 63.0162 61.6968C63.4647 61.6968 63.8282 61.3333 63.8282 60.8848V58.2901C63.8282 58.0747 63.7426 57.8682 63.5904 57.7159C63.4381 57.5637 63.2316 57.4781 63.0162 57.4781ZM63.0162 67.5023C62.8009 67.5023 62.5943 67.5879 62.4421 67.7401C62.2898 67.8924 62.2042 68.0989 62.2042 68.3143V70.9691C62.2042 71.4176 62.5677 71.7811 63.0162 71.7811C63.4647 71.7811 63.8282 71.4176 63.8282 70.9691V68.3143C63.8282 68.0989 63.7426 67.8924 63.5904 67.7401C63.4381 67.5879 63.2316 67.5023 63.0162 67.5023ZM63.0162 47.3935C62.8009 47.3935 62.5943 47.479 62.4421 47.6313C62.2898 47.7836 62.2042 47.9901 62.2042 48.2055V50.8603C62.2042 51.3088 62.5677 51.6722 63.0162 51.6722C63.4647 51.6722 63.8282 51.3088 63.8282 50.8603V48.2055C63.8282 47.9901 63.7426 47.7836 63.5904 47.6313C63.4381 47.479 63.2316 47.3935 63.0162 47.3935ZM14.2802 37.2311C14.4956 37.2311 14.7021 37.1456 14.8544 36.9933C15.0066 36.841 15.0922 36.6345 15.0922 36.4191V32.8515C15.0922 32.403 14.7288 32.0396 14.2802 32.0396C13.8317 32.0396 13.4683 32.403 13.4683 32.8515V36.4191C13.4683 36.6345 13.5538 36.841 13.7061 36.9933C13.8584 37.1456 14.0649 37.2311 14.2802 37.2311ZM24.0238 37.2311C24.2392 37.2311 24.4457 37.1456 24.598 36.9933C24.7502 36.841 24.8358 36.6345 24.8358 36.4191V32.8515C24.8358 32.403 24.4723 32.0396 24.0238 32.0396C23.5753 32.0396 23.2119 32.403 23.2119 32.8515V36.4191C23.2119 36.6345 23.2974 36.841 23.4497 36.9933C23.6019 37.1456 23.8085 37.2311 24.0238 37.2311ZM19.3144 37.2311C19.5298 37.2311 19.7363 37.1456 19.8886 36.9933C20.0408 36.841 20.1264 36.6345 20.1264 36.4191V32.8515C20.1264 32.403 19.7629 32.0396 19.3144 32.0396C18.8659 32.0396 18.5025 32.403 18.5025 32.8515V36.4191C18.5025 36.6345 18.588 36.841 18.7403 36.9933C18.8925 37.1456 19.0991 37.2311 19.3144 37.2311Z" fill="#292D32" stroke="#292D32" stroke-width="0.475"/>
<path d="M83.6285 42.0281C83.8438 42.0281 84.0503 41.9426 84.2026 41.7903C84.3549 41.638 84.4404 41.4315 84.4404 41.2162V28.1398C84.4404 27.9244 84.3549 27.7179 84.2026 27.5656C84.0503 27.4134 83.8438 27.3278 83.6285 27.3278H81.4941V21.461C81.4941 21.2457 81.4086 21.0392 81.2563 20.8869C81.104 20.7346 80.8975 20.6491 80.6822 20.6491H78.9621L78.6201 16.6397C79.5837 15.4062 80.4085 12.9917 78.1751 10.6379C76.6758 9.05761 75.4848 7.49344 74.5343 5.86252V2.81197C74.5343 2.36344 74.1709 2 73.7223 2C73.2738 2 72.9104 2.36344 72.9104 2.81197V5.86252C71.9597 7.49344 70.7689 9.05761 69.2695 10.6379C67.0363 12.9917 67.8611 15.4062 68.8245 16.6397L68.4825 20.6491H66.7625C66.5471 20.6491 66.3406 20.7346 66.1883 20.8869C66.0361 21.0392 65.9505 21.2457 65.9505 21.461V27.3278H26.93V21.461C26.93 21.2457 26.8445 21.0392 26.6922 20.8869C26.5399 20.7346 26.3334 20.6491 26.1181 20.6491H24.3982L24.0562 16.6396C25.0198 15.406 25.8446 12.9916 23.6112 10.6377C22.1118 9.05744 20.9208 7.49327 19.9703 5.86236V2.81197C19.9703 2.36344 19.6069 2 19.1584 2C18.7098 2 18.3464 2.36344 18.3464 2.81197V5.86252C17.3958 7.49344 16.2049 9.05761 14.7056 10.6377C12.4722 12.9916 13.2971 15.406 14.2606 16.6396L13.9186 20.6489H12.1987C11.9833 20.6489 11.7768 20.7345 11.6245 20.8867C11.4723 21.039 11.3867 21.2455 11.3867 21.4609V27.3277H9.2524C9.03705 27.3277 8.83052 27.4132 8.67825 27.5655C8.52598 27.7177 8.44043 27.9243 8.44043 28.1396V41.216C8.44043 41.4314 8.52598 41.6379 8.67825 41.7901C8.83052 41.9424 9.03705 42.028 9.2524 42.028H12.5724V76.3761H9.2524C8.80387 76.3761 8.44043 76.7395 8.44043 77.188C8.44043 77.6366 8.80387 78 9.2524 78H83.6285C84.077 78 84.4404 77.6366 84.4404 77.188C84.4404 76.7395 84.077 76.3761 83.6285 76.3761H80.2182V42.0281H83.6285ZM82.8165 40.4042H64.6285V28.9517H82.8165V40.4042ZM67.2268 76.3761H58.4575V42.0281H67.2268V76.3761ZM51.1963 76.3761H41.6846V65.8369C41.6846 63.2188 43.8181 61.0889 46.4404 61.0889C49.0628 61.0889 51.1963 63.2188 51.1963 65.8369V76.3761ZM46.4404 59.4648C42.9227 59.4648 40.0607 62.3234 40.0607 65.8368V76.3761H36.0473V42.0281H56.8336V76.3761H52.8202V65.8369C52.8202 62.3234 49.9582 59.4648 46.4404 59.4648ZM29.8763 35.4475H54.4042C54.8527 35.4475 55.2162 35.084 55.2162 34.6355C55.2162 34.187 54.8527 33.8235 54.4042 33.8235H29.8763V28.9517H63.0045V40.4042H29.8763V35.4475ZM70.4477 11.7554C71.739 10.3944 72.8186 9.04039 73.7225 7.64495C74.6264 9.04039 75.7058 10.3943 76.9973 11.7554C78.6087 13.4538 77.8117 14.9846 77.4013 15.5572H70.0435C69.6333 14.9846 68.8362 13.4538 70.4477 11.7554ZM70.4084 17.1799L77.0368 17.181L77.3326 20.6489H74.5344V19.5636C74.5344 19.1151 74.171 18.7517 73.7225 18.7517C73.274 18.7517 72.9105 19.1151 72.9105 19.5636V20.6489H70.1125L70.4084 17.1799ZM67.5748 22.273H79.8704V27.3278H67.5748V22.273ZM15.8836 11.7554C17.1749 10.3944 18.2545 9.04039 19.1584 7.64495C20.0623 9.04039 21.1417 10.3943 22.4332 11.7554C24.0446 13.4538 23.2476 14.9846 22.8372 15.5572H15.4795C15.0692 14.9846 14.2721 13.4538 15.8836 11.7554ZM15.8443 17.1799L22.4727 17.181L22.7685 20.6489H19.9703V19.6122C19.9703 19.1637 19.6069 18.8002 19.1584 18.8002C18.7098 18.8002 18.3464 19.1637 18.3464 19.6122V20.6489H15.5482L15.8443 17.1799ZM13.0107 22.273H25.3063V27.3278H13.0107V22.273ZM10.0644 28.9517H28.2524V40.4042H10.0644V28.9517ZM14.1963 42.0281H24.1203V76.3761H14.1963V42.0281ZM25.7444 42.0281H34.4233V76.3761H25.7444V42.0281ZM78.5943 76.3761H68.8507V42.0281H78.5943V76.3761Z" fill="#292D32" stroke="#292D32" stroke-width="0.475"/>
<path d="M68.8444 32.0398C68.629 32.0398 68.4225 32.1254 68.2702 32.2776C68.118 32.4299 68.0324 32.6364 68.0324 32.8518V36.4194C68.0324 36.8679 68.3959 37.2314 68.8444 37.2314C69.2929 37.2314 69.6564 36.8679 69.6564 36.4194V32.8518C69.6564 32.6364 69.5708 32.4299 69.4185 32.2776C69.2663 32.1254 69.0597 32.0398 68.8444 32.0398ZM78.588 32.0398C78.3726 32.0398 78.1661 32.1254 78.0138 32.2776C77.8616 32.4299 77.776 32.6364 77.776 32.8518V36.4194C77.776 36.8679 78.1394 37.2314 78.588 37.2314C79.0365 37.2314 79.3999 36.8679 79.3999 36.4194V32.8518C79.3999 32.6364 79.3144 32.4299 79.1621 32.2776C79.0099 32.1254 78.8033 32.0398 78.588 32.0398ZM73.8411 32.0398C73.6257 32.0398 73.4192 32.1254 73.2669 32.2776C73.1146 32.4299 73.0291 32.6364 73.0291 32.8518V36.4194C73.0291 36.8679 73.3925 37.2314 73.8411 37.2314C74.2896 37.2314 74.653 36.8679 74.653 36.4194V32.8518C74.653 32.6364 74.5675 32.4299 74.4152 32.2776C74.2629 32.1254 74.0564 32.0398 73.8411 32.0398ZM36.697 7.82732C36.9124 7.82732 37.1189 7.74178 37.2712 7.5895C37.4235 7.43723 37.509 7.2307 37.509 7.01536V5.94502C37.509 5.49649 37.1456 5.13306 36.697 5.13306C36.2485 5.13306 35.8851 5.49649 35.8851 5.94502V7.01536C35.8851 7.2307 35.9706 7.43723 36.1229 7.5895C36.2752 7.74178 36.4817 7.82732 36.697 7.82732ZM36.697 13.2436C36.9124 13.2436 37.1189 13.1581 37.2712 13.0058C37.4235 12.8535 37.509 12.647 37.509 12.4317V11.3613C37.509 10.9128 37.1456 10.5494 36.697 10.5494C36.2485 10.5494 35.8851 10.9128 35.8851 11.3613V12.4317C35.8851 12.647 35.9706 12.8535 36.1229 13.0058C36.2752 13.1581 36.4817 13.2436 36.697 13.2436ZM33.4492 10.0003H34.521C34.9695 10.0003 35.3329 9.63687 35.3329 9.18834C35.3329 8.73981 34.9695 8.37637 34.521 8.37637H33.4492C33.0006 8.37637 32.6372 8.73981 32.6372 9.18834C32.6372 9.63687 33.0006 10.0003 33.4492 10.0003ZM38.8731 10.0003H39.9449C40.3934 10.0003 40.7569 9.63687 40.7569 9.18834C40.7569 8.73981 40.3934 8.37637 39.9449 8.37637H38.8731C38.6578 8.37637 38.4512 8.46192 38.299 8.61419C38.1467 8.76647 38.0611 8.97299 38.0611 9.18834C38.0611 9.40369 38.1467 9.61021 38.299 9.76249C38.4512 9.91476 38.6578 10.0003 38.8731 10.0003ZM56.1842 15.9356C56.3996 15.9356 56.6061 15.8501 56.7584 15.6978C56.9106 15.5455 56.9962 15.339 56.9962 15.1236V14.0533C56.9962 13.6048 56.6327 13.2413 56.1842 13.2413C55.7357 13.2413 55.3722 13.6048 55.3722 14.0533V15.1236C55.3722 15.339 55.4578 15.5455 55.6101 15.6978C55.7623 15.8501 55.9689 15.9356 56.1842 15.9356ZM56.1842 21.3521C56.3996 21.3521 56.6061 21.2665 56.7584 21.1143C56.9106 20.962 56.9962 20.7555 56.9962 20.5401V19.4698C56.9962 19.0212 56.6327 18.6578 56.1842 18.6578C55.7357 18.6578 55.3722 19.0212 55.3722 19.4698V20.5401C55.3722 20.7555 55.4578 20.962 55.6101 21.1143C55.7623 21.2665 55.9689 21.3521 56.1842 21.3521ZM52.9364 18.1086H54.0081C54.4567 18.1086 54.8201 17.7452 54.8201 17.2966C54.8201 16.8481 54.4567 16.4847 54.0081 16.4847H52.9364C52.4878 16.4847 52.1244 16.8481 52.1244 17.2966C52.1244 17.7452 52.4878 18.1086 52.9364 18.1086ZM58.3603 18.1086H59.4321C59.8806 18.1086 60.244 17.7452 60.244 17.2966C60.244 16.8481 59.8806 16.4847 59.4321 16.4847H58.3603C58.1449 16.4847 57.9384 16.5702 57.7861 16.7225C57.6339 16.8748 57.5483 17.0813 57.5483 17.2966C57.5483 17.512 57.6339 17.7185 57.7861 17.8708C57.9384 18.0231 58.1449 18.1086 58.3603 18.1086Z" fill="#292D32" stroke="#292D32" stroke-width="0.475"/>
</svg>
