<svg width="93" height="80" viewBox="0 0 93 80" fill="none" xmlns="http://www.w3.org/2000/svg">
<path d="M70.969 38.1903C70.7169 38.8616 70.499 39.4467 70.2776 40.031C70.1071 40.4817 69.9674 40.9491 69.7539 41.3788C68.9237 43.0455 68.6917 44.7992 68.7778 46.6486C68.8639 48.5042 68.7963 50.3669 68.7963 52.2269C68.7963 52.3868 68.7963 52.5458 68.7963 52.7821C69.0572 52.7821 69.2848 52.7821 69.5114 52.7821C70.4182 52.7821 71.3258 52.7672 72.2325 52.79C72.5953 52.7997 72.7043 52.6881 72.7025 52.3209C72.6885 49.2897 72.6946 46.2585 72.6946 43.2274C72.6946 43.056 72.6946 42.8847 72.6946 42.6273C73.691 42.8988 74.6161 43.1509 75.594 43.418C75.7073 42.5895 75.8374 41.7408 75.9375 40.8894C76.2134 38.5295 76.2986 36.1581 76.1994 33.7868C76.0315 29.7356 75.3717 25.788 73.4977 22.1304C72.3783 19.9462 70.8662 18.0915 68.8586 16.6602C68.7058 16.5513 68.5476 16.4502 68.3499 16.3677C70.3444 22.0654 71.5709 27.9476 72.7825 33.8509C69.92 28.6022 67.0566 23.3534 64.1942 18.1046C64.1573 18.1152 64.1204 18.1249 64.0835 18.1354C63.428 24.0001 62.7735 29.8647 62.118 35.7294C62.0969 35.7347 62.0759 35.7408 62.0548 35.7461C60.743 30.8162 59.4321 25.8864 58.1063 20.9039C55.1621 22.1989 52.268 23.4711 49.3695 24.746C49.3546 24.6898 49.3344 24.6573 49.3432 24.6397C51.3095 20.5849 53.7063 16.8254 56.9176 13.6308C58.0633 12.4913 59.3241 11.4958 60.7465 10.7174C62.929 9.52336 65.1949 9.26505 67.6058 9.95123C72.4372 11.3262 76.3549 13.9814 79.278 18.0844C79.8201 18.8453 80.3683 19.6027 80.863 20.454C77.8617 19.2161 74.8595 17.9781 71.7677 16.7033C71.8397 16.8403 71.8538 16.8931 71.8872 16.9264C74.5537 19.6325 76.0878 22.9378 76.9875 26.5788C77.8327 30 78.0576 33.4793 77.9583 36.9902C77.8915 39.3343 77.6728 41.6617 77.2546 43.9698C77.1983 44.279 77.2721 44.4697 77.5217 44.6771C80.5291 47.1723 81.7521 50.3757 80.8902 54.1809C80.0274 57.9861 77.5454 60.3469 73.7533 61.2949C73.4713 61.3652 73.3527 61.4829 73.3861 61.7693C73.4028 61.9117 73.3887 62.0575 73.3887 62.2332C64.5825 62.2332 55.8132 62.2332 47.0096 62.2332C46.9938 62.0206 46.9771 61.8089 46.9586 61.5646C44.4968 61.5646 42.0482 61.5646 39.5793 61.5646C39.552 61.7887 39.5266 62.0013 39.4976 62.2385C34.1609 62.2385 28.8419 62.2385 23.4807 62.2385C23.464 62.0285 23.4473 61.8168 23.428 61.5743C21.8315 61.526 20.2465 61.4785 18.6044 61.4284C18.5913 61.6376 18.5746 61.9196 18.5552 62.2315C16.3948 62.2315 14.2527 62.2315 12.0703 62.2315C12.0703 61.6903 12.0703 61.1438 12.0703 60.5463C13.4137 60.5463 14.7658 60.5463 16.118 60.5463C16.1277 60.5156 16.1373 60.4857 16.147 60.455C16.0345 60.3803 15.9256 60.2994 15.8096 60.2309C9.56101 56.5513 9.62163 47.5149 15.9256 43.9127C16.2111 43.7492 16.335 43.6087 16.2726 43.2432C15.6576 39.5935 15.4116 35.9192 15.6567 32.222C15.9353 28.0258 16.7383 23.9614 18.803 20.2317C19.6157 18.7636 20.6164 17.4378 21.7621 16.1717C18.7345 17.4202 15.7068 18.6687 12.6783 19.9172C12.6607 19.8961 12.6423 19.875 12.6247 19.8539C12.7635 19.6571 12.9014 19.4595 13.0411 19.2635C14.3476 17.4272 15.6321 15.5769 17.3428 14.0701C20.2509 11.509 23.5791 9.80012 27.394 9.1069C29.1503 8.78709 30.8223 9.21848 32.4169 9.95387C34.6758 10.9959 36.6008 12.5167 38.3914 14.216C41.8636 17.5116 44.7226 21.2992 47.26 25.3426C47.2881 25.3874 47.3048 25.4401 47.3654 25.5736C43.3766 23.8305 39.4633 22.1199 35.4709 20.375C34.1574 26.3143 32.8553 32.2071 31.5366 38.1728C32.3835 38.1367 33.1216 38.345 33.8701 37.7589C36.2116 35.9253 38.9581 34.9773 41.8496 34.4616C45.7154 33.7727 49.5628 33.8975 53.3593 34.9562C55.6173 35.5862 57.7224 36.5351 59.571 38.0111C59.7326 38.1403 60.0006 38.1833 60.2202 38.1833C63.5704 38.1939 66.9205 38.1903 70.2706 38.1903C70.4709 38.1903 70.6738 38.1903 70.969 38.1903ZM17.8418 44.9582C17.6819 45.0118 17.5712 45.0408 17.4667 45.0847C14.2668 46.4386 12.3409 50.0954 13.0315 53.5017C13.7959 57.2683 16.8472 59.7591 20.7192 59.76C37.6437 59.7626 54.5682 59.7626 71.4918 59.7574C71.9865 59.7574 72.4882 59.7327 72.9758 59.6554C76.3329 59.1239 78.8914 56.4529 79.3491 53.0255C79.7814 49.7931 77.9574 46.5212 74.9491 45.1366C74.7989 45.0671 74.6398 45.0144 74.4193 44.9283C74.4193 48.1704 74.4193 51.3263 74.4193 54.4928C55.5461 54.4928 36.7159 54.4928 17.8401 54.4928C17.8418 51.307 17.8418 48.1528 17.8418 44.9582ZM26.0813 52.7136C26.4829 52.7136 26.8062 52.6881 27.1234 52.7206C27.4985 52.7584 27.6391 52.6152 27.741 52.2497C28.4404 49.7448 30.9962 48.2723 33.5002 48.9488C35.2276 49.4153 36.3487 50.5461 36.8767 52.2629C36.9242 52.4175 36.9857 52.6354 37.1016 52.689C37.5374 52.8867 37.8766 52.6653 37.9547 52.1838C37.9688 52.0977 37.996 52.0134 38.0119 51.9264C38.7552 47.8769 42.252 44.916 46.3489 44.8677C50.5337 44.8185 54.1122 47.666 54.9504 51.7138C55.0172 52.038 55.0725 52.3648 55.1332 52.6916C55.4451 52.6916 55.7183 52.6916 56.0021 52.6916C56.0451 52.5344 56.082 52.3929 56.1216 52.2532C56.7296 50.0796 58.8444 48.6097 61.0725 48.8135C63.1697 49.005 64.7319 50.3247 65.3161 52.3771C65.353 52.5071 65.5094 52.6873 65.6228 52.6969C66.0717 52.7338 66.5251 52.7119 67.0399 52.7119C67.0399 52.5036 67.0399 52.3323 67.0399 52.161C67.0399 49.7009 67.0602 47.2408 67.0303 44.7816C67.0197 43.9443 67.1463 43.1667 67.4828 42.3988C67.8272 41.6143 68.0995 40.7989 68.4114 39.9748C67.1999 39.9748 66.0419 39.9748 64.8461 39.9748C64.8461 40.5643 64.8461 41.1152 64.8461 41.6872C52.9103 41.6872 41.0132 41.6872 29.0589 41.6872C29.0589 41.0959 29.0589 40.5336 29.0589 39.9651C27.5925 39.9651 26.1833 39.9651 24.7309 39.9651C24.788 40.14 24.8267 40.277 24.8777 40.4106C25.2256 41.3252 25.5867 42.2354 25.9188 43.1562C26.0154 43.4242 26.0752 43.7211 26.0769 44.0058C26.0884 46.6996 26.0831 49.3943 26.0831 52.088C26.0813 52.2761 26.0813 52.4632 26.0813 52.7136ZM25.0868 15.8642C24.9681 15.9433 24.8478 16.0206 24.7309 16.1032C22.856 17.4272 21.4028 19.1273 20.3045 21.1332C18.3136 24.7688 17.6002 28.7313 17.3762 32.8124C17.2338 35.4052 17.3533 37.9909 17.6476 40.5687C17.7399 41.3761 17.8708 42.1801 17.9885 43.0156C18.5508 42.8988 19.0455 42.796 19.6069 42.6782C19.6069 42.9383 19.6069 43.1544 19.6069 43.3706C19.6069 46.3279 19.614 49.2853 19.5981 52.2418C19.5955 52.6521 19.6886 52.8067 20.1279 52.7918C21.0777 52.7584 22.0292 52.7813 22.9799 52.7813C23.4148 52.7813 23.8488 52.7813 24.3022 52.7813C24.3171 52.6126 24.3364 52.4992 24.3364 52.3868C24.3382 49.6491 24.3408 46.9113 24.332 44.1736C24.3312 43.9619 24.2714 43.7405 24.195 43.5401C23.5852 41.9279 22.9641 40.3192 22.349 38.7087C22.2902 38.555 22.2445 38.3959 22.1716 38.1754C25.1843 38.1754 28.1179 38.1754 31.1157 38.1754C30.5525 31.3197 29.9937 24.5149 29.435 17.7093C29.3981 17.704 29.3603 17.6987 29.3234 17.6935C25.78 24.1538 22.2383 30.6133 18.6958 37.0728C20.5787 29.9306 22.4756 22.8069 25.0868 15.8642ZM42.3478 21.4662C42.3688 21.4363 42.389 21.4073 42.4101 21.3774C42.1237 21.0128 41.8417 20.6447 41.5517 20.2836C39.4449 17.6645 37.1798 15.2026 34.457 13.2029C33.2982 12.3516 32.0699 11.6171 30.6957 11.1637C30.5481 11.1154 30.2784 11.1224 30.2037 11.2147C29.2469 12.4087 28.0828 13.463 27.5126 14.9285C26.6076 17.2559 25.7396 19.5974 24.8583 21.9336C24.8469 21.9635 24.8715 22.0065 24.8952 22.1199C26.8264 18.6011 28.725 15.1403 30.6861 11.567C31.1289 16.9467 31.5594 22.1805 31.9899 27.4152C32.0321 27.4169 32.0743 27.4187 32.1156 27.4205C32.8141 24.2672 33.5125 21.1139 34.2207 17.9175C35.6194 18.5273 36.969 19.1142 38.3167 19.7037C39.661 20.2897 41.0044 20.8784 42.3478 21.4662ZM53.2934 52.6908C53.1774 50.0198 50.5337 46.4255 46.0923 46.6117C42.8986 46.7462 39.487 49.9487 39.7199 52.6908C44.2297 52.6908 48.7422 52.6908 53.2934 52.6908ZM67.9572 21.3414C67.988 21.3282 68.0196 21.3159 68.0503 21.3028C67.8992 20.7905 67.7507 20.2766 67.5952 19.7652C66.7201 16.8816 65.7256 14.064 63.4869 11.8877C63.2514 11.6592 63.0783 11.5573 62.784 11.7172C61.9775 12.1548 61.1182 12.5141 60.3679 13.0316C57.9991 14.6658 56.1989 16.8597 54.5462 19.1818C54.1351 19.7599 53.752 20.3583 53.3557 20.9478C53.3803 20.9777 53.4049 21.0075 53.4287 21.0374C55.366 20.1887 57.3024 19.34 59.2705 18.4781C59.9655 21.084 60.6411 23.6152 61.3167 26.1465C61.3536 26.1386 61.3914 26.1298 61.4283 26.1219C61.9414 21.5277 62.4554 16.9335 62.9817 12.2233C64.6783 15.3318 66.3177 18.3366 67.9572 21.3414ZM36.6685 38.0981C43.2518 38.0981 49.8141 38.0981 56.4721 38.0981C50.5943 34.8156 41.2855 35.2839 36.6685 38.0981ZM29.6862 11.0003C29.6818 10.9405 29.6774 10.8799 29.6731 10.8202C29.0123 10.8202 28.3341 10.7235 27.6927 10.8369C24.8135 11.3482 22.2111 12.5247 19.8696 14.274C19.3363 14.672 18.8346 15.1113 18.318 15.5321C18.3444 15.5743 18.3699 15.6165 18.3962 15.6586C22.1601 14.1061 25.9232 12.5537 29.6862 11.0003ZM75.2408 16.2376C75.2566 16.2113 75.2724 16.184 75.2874 16.1577C75.1398 16.0215 75.0036 15.8695 74.8428 15.7518C73.9132 15.0691 73.0144 14.3372 72.0374 13.7301C70.0852 12.5159 67.9546 11.726 65.6843 11.3456C65.0798 11.2445 64.4639 11.2507 63.7452 11.4888C67.655 13.1037 71.4479 14.6711 75.2408 16.2376ZM35.1142 52.6908C34.9772 51.5565 33.6663 50.5575 32.3247 50.5496C30.9593 50.5408 29.6405 51.5257 29.4806 52.6908C31.36 52.6908 33.2358 52.6908 35.1142 52.6908ZM63.5273 52.6916C63.32 51.4774 62.0196 50.5241 60.6323 50.5514C59.3074 50.5769 58.0343 51.5635 57.8849 52.6916C59.766 52.6916 61.6453 52.6916 63.5273 52.6916Z" fill="#292D32"/>
<path d="M35.124 66.1851C35.124 65.6192 35.124 65.0824 35.124 64.5122C43.6236 64.5122 52.1074 64.5122 60.6307 64.5122C60.6307 65.0561 60.6307 65.6025 60.6307 66.1851C52.1469 66.1851 43.664 66.1851 35.124 66.1851Z" fill="#292D32"/>
<path d="M30.0007 64.5149C30.0007 65.086 30.0007 65.6228 30.0007 66.1895C24.0236 66.1895 18.0667 66.1895 12.0693 66.1895C12.0693 65.6457 12.0693 65.0992 12.0693 64.5149C18.0262 64.5149 23.9937 64.5149 30.0007 64.5149Z" fill="#292D32"/>
<path d="M30.1099 68.4519C35.5563 68.4519 40.9808 68.4519 46.4457 68.4519C46.4457 69.0186 46.4457 69.5774 46.4457 70.1573C40.9984 70.1573 35.5748 70.1573 30.1099 70.1573C30.1099 69.5871 30.1099 69.0283 30.1099 68.4519Z" fill="#292D32"/>
<path d="M67.9484 68.4651C67.9484 69.0379 67.9484 69.5739 67.9484 70.1441C63.3964 70.1441 58.8698 70.1441 54.3125 70.1441C54.3125 69.5915 54.3125 69.0432 54.3125 68.4651C58.8452 68.4651 63.37 68.4651 67.9484 68.4651Z" fill="#292D32"/>
<path d="M75.3041 64.5078C75.3041 65.0859 75.3041 65.6228 75.3041 66.1903C71.838 66.1903 68.3957 66.1903 64.9243 66.1903C64.9243 65.6324 64.9243 65.0851 64.9243 64.5078C68.3772 64.5078 71.8196 64.5078 75.3041 64.5078Z" fill="#292D32"/>
<path d="M22.438 70.1617C18.964 70.1617 15.5348 70.1617 12.0679 70.1617C12.0679 69.5994 12.0679 69.0529 12.0679 68.4695C15.5102 68.4695 18.9605 68.4695 22.438 68.4695C22.438 69.023 22.438 69.5704 22.438 70.1617Z" fill="#292D32"/>
<path d="M72.6191 70.1415C72.6191 69.5774 72.6191 69.0318 72.6191 68.4607C73.626 68.4607 74.6092 68.4607 75.6222 68.4607C75.6222 69.0125 75.6222 69.5589 75.6222 70.1415C74.6434 70.1415 73.6612 70.1415 72.6191 70.1415Z" fill="#292D32"/>
<path d="M78.6113 60.542C79.4179 60.542 80.1884 60.542 80.9932 60.542C80.9932 61.1069 80.9932 61.6534 80.9932 62.2324C80.2034 62.2324 79.4223 62.2324 78.6113 62.2324C78.6113 61.6798 78.6113 61.1324 78.6113 60.542Z" fill="#292D32"/>
<path d="M78.604 68.4519C79.4193 68.4519 80.1872 68.4519 80.9912 68.4519C80.9912 69.0133 80.9912 69.5581 80.9912 70.1406C80.2048 70.1406 79.4167 70.1406 78.604 70.1406C78.604 69.58 78.604 69.0335 78.604 68.4519Z" fill="#292D32"/>
<path d="M79.4731 64.4956C79.9915 64.4956 80.4686 64.4956 80.987 64.4956C80.987 65.0474 80.987 65.593 80.987 66.1799C80.5037 66.1799 80.0056 66.1799 79.4731 66.1799C79.4731 65.6334 79.4731 65.0878 79.4731 64.4956Z" fill="#292D32"/>
</svg>
