<svg width="92" height="80" viewBox="0 0 92 80" fill="none" xmlns="http://www.w3.org/2000/svg">
<path d="M11.4865 54.7368H7.27597C6.85492 54.7368 6.57422 55.0175 6.57422 55.4386V61.0526C6.57422 61.4737 6.85492 61.7544 7.27597 61.7544H11.4865C11.9076 61.7544 12.1883 61.4737 12.1883 61.0526V55.4386C12.1883 55.0175 11.9076 54.7368 11.4865 54.7368ZM10.7847 56.1403V57.5438H7.97773V56.1403H10.7847ZM7.97773 60.3509V58.9473H10.7847V60.3509H7.97773Z" fill="#292D32"/>
<path d="M90.083 78.5965H87.9778V65.9649H88.6795C89.1006 65.9649 89.3813 65.6842 89.3813 65.2632C89.3813 64.8421 89.1006 64.5614 88.6795 64.5614H87.9778V53.3333H88.6795C89.1006 53.3333 89.3813 53.0526 89.3813 52.6316C89.3813 52.2105 89.1006 51.9298 88.6795 51.9298H87.9778V47.7193H88.6795C89.1006 47.7193 89.3813 47.4386 89.3813 47.0175C89.3813 46.5965 89.1006 46.3158 88.6795 46.3158H87.9778V41.4035C87.9778 40.9825 87.6971 40.7018 87.276 40.7018C86.855 40.7018 86.5743 40.9825 86.5743 41.4035V42.1053H85.1708V37.8947H85.8725C86.2936 37.8947 86.5743 37.614 86.5743 37.193C86.5743 36.7719 86.2936 36.4912 85.8725 36.4912H85.1708C85.1708 35.2281 84.3287 34.1053 83.0655 33.8246V31.5789C83.0655 31.1579 82.7848 30.8772 82.3637 30.8772C81.9427 30.8772 81.662 31.1579 81.662 31.5789V33.8246C80.3988 34.1053 79.5567 35.2281 79.5567 36.4912H78.855C78.4339 36.4912 78.1532 36.7719 78.1532 37.193C78.1532 37.614 78.4339 37.8947 78.855 37.8947H79.5567V42.1053H78.1532V41.4035C78.1532 40.9825 77.8725 40.7018 77.4515 40.7018C77.0304 40.7018 76.7497 40.9825 76.7497 41.4035V46.3158H76.048C75.6269 46.3158 75.3462 46.5965 75.3462 47.0175C75.3462 47.4386 75.6269 47.7193 76.048 47.7193H76.7497V49.1228H65.5216V47.7193H66.2234C66.6444 47.7193 66.9251 47.4386 66.9251 47.0175C66.9251 46.5965 66.6444 46.3158 66.2234 46.3158H65.5216V39.2982H66.2234C66.6444 39.2982 66.9251 39.0175 66.9251 38.5965C66.9251 38.1754 66.6444 37.8947 66.2234 37.8947H65.5216C65.2409 36.4912 64.1181 35.3684 62.7146 35.0877V32.9825C62.7146 32.5614 62.4339 32.2807 62.0129 32.2807C61.5918 32.2807 61.3111 32.5614 61.3111 32.9825V35.0877H60.6094C58.9251 35.0877 57.5216 33.8246 57.2409 32.2807H59.2059C59.6269 32.2807 59.9076 32 59.9076 31.5789V28.7719C59.9076 28.3509 59.6269 28.0702 59.2059 28.0702H57.1006V25.2632H57.8023C58.2234 25.2632 58.5041 24.9825 58.5041 24.5614C58.5041 24.1404 58.2234 23.8596 57.8023 23.8596H57.1006C56.5392 19.5088 53.5918 16 49.5216 14.5965V9.82456H50.2234C50.6444 9.82456 50.9251 9.54386 50.9251 9.12281C50.9251 8.70175 50.6444 8.42105 50.2234 8.42105H49.5216C49.2409 7.01754 48.1181 5.89474 46.7146 5.61404V0.701754C46.7146 0.280702 46.4339 0 46.0129 0C45.5918 0 45.3111 0.280702 45.3111 0.701754V5.61404C43.9076 5.89474 42.7848 7.01754 42.5041 8.42105H41.8023C41.3813 8.42105 41.1006 8.70175 41.1006 9.12281C41.1006 9.54386 41.3813 9.82456 41.8023 9.82456H42.5041V14.5965C38.4339 16 35.4866 19.5088 34.9252 23.8596H34.083C33.662 23.8596 33.3813 24.1404 33.3813 24.5614C33.3813 24.9825 33.662 25.2632 34.083 25.2632H34.7848V28.0702H32.6795C32.2585 28.0702 31.9778 28.3509 31.9778 28.7719V31.5789C31.9778 32 32.2585 32.2807 32.6795 32.2807H34.6444C34.3637 33.8246 32.9602 35.0877 31.276 35.0877H30.5743V32.9825C30.5743 32.5614 30.2936 32.2807 29.8725 32.2807C29.4515 32.2807 29.1708 32.5614 29.1708 32.9825V35.0877C27.7673 35.3684 26.6444 36.4912 26.3637 37.8947H25.662C25.2409 37.8947 24.9602 38.1754 24.9602 38.5965C24.9602 39.0175 25.2409 39.2982 25.662 39.2982H26.3637V46.3158H25.662C25.2409 46.3158 24.9602 46.5965 24.9602 47.0175C24.9602 47.4386 25.2409 47.7193 25.662 47.7193H26.3637V49.1228H15.1357V47.7193H15.8374C16.2585 47.7193 16.5392 47.4386 16.5392 47.0175C16.5392 46.5965 16.2585 46.3158 15.8374 46.3158H15.1357V41.4035C15.1357 40.9825 14.855 40.7018 14.4339 40.7018C14.0129 40.7018 13.7322 40.9825 13.7322 41.4035V42.1053H12.3287V37.8947H13.0304C13.4515 37.8947 13.7322 37.614 13.7322 37.193C13.7322 36.7719 13.4515 36.4912 13.0304 36.4912H12.3287C12.3287 35.2281 11.4866 34.1053 10.2234 33.8246V31.5789C10.2234 31.1579 9.94269 30.8772 9.52164 30.8772C9.10059 30.8772 8.81988 31.1579 8.81988 31.5789V33.8246C7.55673 34.1053 6.71462 35.2281 6.71462 36.4912H6.01287C5.59181 36.4912 5.31111 36.7719 5.31111 37.193C5.31111 37.614 5.59181 37.8947 6.01287 37.8947H6.71462V42.1053H5.31111V41.4035C5.31111 40.9825 5.03041 40.7018 4.60936 40.7018C4.18831 40.7018 3.9076 40.9825 3.9076 41.4035V46.3158H3.20585C2.7848 46.3158 2.50409 46.5965 2.50409 47.0175C2.50409 47.4386 2.7848 47.7193 3.20585 47.7193H3.9076V51.9298H3.20585C2.7848 51.9298 2.50409 52.2105 2.50409 52.6316C2.50409 53.0526 2.7848 53.3333 3.20585 53.3333H3.9076V64.5614H3.20585C2.7848 64.5614 2.50409 64.8421 2.50409 65.2632C2.50409 65.6842 2.7848 65.9649 3.20585 65.9649H3.9076V78.5965H1.80234C1.38129 78.5965 1.10059 78.8772 1.10059 79.2982C1.10059 79.7193 1.38129 80 1.80234 80H90.2234C90.6445 80 90.9251 79.7193 90.9251 79.2982C90.9251 78.8772 90.5041 78.5965 90.083 78.5965ZM86.5743 64.5614H78.1532V53.3333H86.5743V64.5614ZM82.3637 35.0877C83.2058 35.0877 83.7673 35.6491 83.7673 36.4912H80.9602C80.9602 35.6491 81.662 35.0877 82.3637 35.0877ZM80.9602 37.8947H83.7673V42.1053H80.9602V37.8947ZM78.1532 43.6491L80.2585 43.5088H86.4339V46.3158H78.0129V43.6491H78.1532ZM86.5743 47.7193V51.9298H78.1532V47.7193H86.5743ZM76.7497 50.5263V51.9298H76.048C75.6269 51.9298 75.3462 52.2105 75.3462 52.6316C75.3462 53.0526 75.6269 53.3333 76.048 53.3333H76.7497V54.7368H65.5216V53.3333H66.2234C66.6444 53.3333 66.9251 53.0526 66.9251 52.6316C66.9251 52.2105 66.6444 51.9298 66.2234 51.9298H65.5216V50.5263H76.7497ZM40.2585 74.386V61.7544C40.2585 58.6667 42.7848 56.1404 45.8725 56.1404C48.9602 56.1404 51.4866 58.6667 51.4866 61.7544V78.5965H40.2585V74.386ZM45.8725 54.7368C43.6269 54.7368 41.5216 55.8596 40.2585 57.5439V53.3333H51.4866V57.5439C50.2234 55.8596 48.2585 54.7368 45.8725 54.7368ZM49.3813 51.9298H40.2585V49.1228H51.4866V51.9298H49.3813ZM36.048 42.1053H38.855V44.9123H36.048V42.1053ZM42.3637 42.1053H51.4866V44.9123H40.2585V42.1053H42.3637ZM38.855 32.2807H40.2585V37.8947H38.855V32.2807ZM41.662 32.2807H50.083V37.8947H48.6795V36.3509C48.6795 34.807 47.4164 33.5439 45.8725 33.5439C44.3287 33.5439 43.0655 34.807 43.0655 36.3509V37.8947H41.662V32.2807ZM52.8901 37.8947H51.4866V32.2807H52.8901V37.8947ZM47.276 37.8947H44.469V36.3509C44.469 35.5088 45.0304 34.9474 45.8725 34.9474C46.7146 34.9474 47.276 35.5088 47.276 36.3509V37.8947ZM43.0655 39.2982H48.6795V40.7018H43.0655V39.2982ZM55.6971 44.9123H52.8901V42.1053H55.6971V44.9123ZM35.3462 46.3158H58.5041V47.7193H33.2409V46.3158H35.3462ZM27.6269 49.8246V47.7193H31.8374V48.4211C31.8374 48.8421 32.1181 49.1228 32.5392 49.1228H34.6444V51.9298H27.6269V49.8246ZM34.6444 53.3333V56.5614C34.2234 56.2807 33.8023 56.1404 33.2409 56.1404C32.6795 56.1404 32.2585 56.2807 31.8374 56.5614V53.3333H34.6444ZM34.6444 71.5789H31.8374V68.7719C31.8374 67.9298 32.3988 67.3684 33.2409 67.3684C34.083 67.3684 34.6444 67.9298 34.6444 68.7719V71.5789ZM33.2409 65.9649C32.6795 65.9649 32.2585 66.1053 31.8374 66.386V63.1579H34.6444V66.386C34.2234 66.1053 33.8023 65.9649 33.2409 65.9649ZM34.6444 61.7544H31.8374V58.9474C31.8374 58.1053 32.3988 57.5439 33.2409 57.5439C34.083 57.5439 34.6444 58.1053 34.6444 58.9474V61.7544ZM31.8374 72.9825H34.6444V78.5965H31.8374V72.9825ZM36.048 49.1228H38.855V51.9298H36.048V49.1228ZM52.8901 49.1228H55.6971V51.9298H52.8901V49.1228ZM59.9076 71.5789H57.1006V68.7719C57.1006 67.9298 57.662 67.3684 58.5041 67.3684C59.3462 67.3684 59.9076 67.9298 59.9076 68.7719V71.5789ZM58.5041 65.9649C57.9427 65.9649 57.5216 66.1053 57.1006 66.386V63.1579H59.9076V66.386C59.4866 66.1053 59.0655 65.9649 58.5041 65.9649ZM59.9076 61.7544H57.1006V58.9474C57.1006 58.1053 57.662 57.5439 58.5041 57.5439C59.3462 57.5439 59.9076 58.1053 59.9076 58.9474V61.7544ZM57.1006 72.9825H59.9076V78.5965H57.1006V72.9825ZM59.9076 56.5614C59.4866 56.2807 59.0655 56.1404 58.5041 56.1404C57.9427 56.1404 57.5216 56.2807 57.1006 56.5614V53.3333H59.9076V56.5614ZM57.1006 51.9298V49.1228H59.2059C59.6269 49.1228 59.9076 48.8421 59.9076 48.4211V47.7193H64.1181V51.9298H57.1006ZM64.1181 46.3158H62.7146V42.807C62.7146 42.386 62.4339 42.1053 62.0129 42.1053C61.5918 42.1053 61.3111 42.386 61.3111 42.807V46.3158H59.9076V39.2982H64.1181V46.3158ZM63.9778 37.8947H60.048C60.3287 37.0526 61.1708 36.4912 62.0129 36.4912C62.855 36.4912 63.6971 37.0526 63.9778 37.8947ZM59.3462 36.3509C58.9251 36.7719 58.6444 37.3333 58.5041 37.8947H57.8023C57.3813 37.8947 57.1006 38.1754 57.1006 38.5965C57.1006 39.0175 57.3813 39.2982 57.8023 39.2982H58.5041V44.9123H57.1006V41.4035C57.1006 40.9825 56.8199 40.7018 56.3988 40.7018H50.083V39.2982H54.9953C55.4164 39.2982 55.6971 39.0175 55.6971 38.5965C55.6971 38.1754 55.4164 37.8947 54.9953 37.8947H54.2936V32.2807H55.8374C56.1181 34.2456 57.5216 35.7895 59.3462 36.3509ZM55.6971 28.0702H54.2936V25.2632H55.6971V28.0702ZM38.855 25.2632H41.662V28.0702H38.855V25.2632ZM43.0655 25.2632H48.6795V28.0702H43.0655V25.2632ZM50.083 25.2632H52.8901V28.0702H50.083V25.2632ZM45.8725 7.01754C46.855 7.01754 47.5567 7.57895 47.8374 8.42105H43.9076C44.1883 7.57895 44.8901 7.01754 45.8725 7.01754ZM43.7673 9.82456H47.9778V14.1754C47.5567 14.0351 46.9953 14.0351 46.5743 14.0351V11.9298C46.5743 11.5088 46.2936 11.2281 45.8725 11.2281C45.4515 11.2281 45.1708 11.5088 45.1708 11.9298V14.0351C44.7497 14.0351 44.1883 14.1754 43.7673 14.1754V9.82456ZM45.8725 15.4386C50.7848 15.4386 54.855 19.0877 55.5567 23.8596H36.1883C36.8901 19.0877 40.9602 15.4386 45.8725 15.4386ZM36.048 25.2632H37.4515V28.0702H36.048V25.2632ZM33.2409 29.4737H58.5041V30.8772H33.2409V29.4737ZM36.048 32.2807H37.5918V37.8947H36.8901C36.469 37.8947 36.1883 38.1754 36.1883 38.5965C36.1883 39.0175 36.469 39.2982 36.8901 39.2982H41.8023V40.7018H35.4865C35.0655 40.7018 34.7848 40.9825 34.7848 41.4035V44.9123H33.3813V39.2982H34.083C34.5041 39.2982 34.7848 39.0175 34.7848 38.5965C34.7848 38.1754 34.5041 37.8947 34.083 37.8947H33.3813C33.2409 37.3333 32.9602 36.7719 32.5392 36.3509C34.2234 35.7895 35.7673 34.2456 36.048 32.2807ZM29.7322 36.4912C30.7146 36.4912 31.4164 37.0526 31.6971 37.8947H27.7673C28.048 37.0526 28.8901 36.4912 29.7322 36.4912ZM31.8374 39.2982V46.3158H30.4339V42.807C30.4339 42.386 30.1532 42.1053 29.7322 42.1053C29.3111 42.1053 29.0304 42.386 29.0304 42.807V46.3158H27.6269V39.2982H31.8374ZM26.2234 50.5263V51.9298H25.5216C25.1006 51.9298 24.8199 52.2105 24.8199 52.6316C24.8199 53.0526 25.1006 53.3333 25.5216 53.3333H26.2234V54.7368H14.9953V53.3333H15.6971C16.1181 53.3333 16.3988 53.0526 16.3988 52.6316C16.3988 52.2105 16.1181 51.9298 15.6971 51.9298H14.9953V50.5263H26.2234ZM9.38129 35.0877C10.2234 35.0877 10.7848 35.6491 10.7848 36.4912H7.97778C7.97778 35.6491 8.53918 35.0877 9.38129 35.0877ZM7.97778 37.8947H10.7848V42.1053H7.97778V37.8947ZM5.17076 43.6491L7.13568 43.5088H13.4515V46.3158H5.03041V43.6491H5.17076ZM5.17076 47.7193H13.5918V51.9298H5.17076V47.7193ZM5.17076 53.3333H13.5918V64.5614H5.17076V53.3333ZM5.17076 65.9649H13.5918V78.5965H5.17076V65.9649ZM14.9953 65.9649H15.6971C16.1181 65.9649 16.3988 65.6842 16.3988 65.2632C16.3988 64.8421 16.1181 64.5614 15.6971 64.5614H14.9953V56.1404H26.2234V78.5965H14.9953V65.9649ZM27.6269 78.5965V53.3333H30.4339V78.5965H27.6269ZM36.048 78.5965V53.3333H38.855V78.5965H36.048ZM52.8901 78.5965V53.3333H55.6971V78.5965H52.8901ZM61.3111 72.2807V53.3333H64.1181V78.5965H61.3111V72.2807ZM65.5216 56.1404H76.7497V64.5614H76.048C75.6269 64.5614 75.3462 64.8421 75.3462 65.2632C75.3462 65.6842 75.6269 65.9649 76.048 65.9649H76.7497V78.5965H65.5216V56.1404ZM78.1532 78.5965V65.9649H86.5743V78.5965H78.1532Z" fill="#292D32"/>
<path d="M22.7146 67.3685H18.504C18.083 67.3685 17.8023 67.6492 17.8023 68.0703V73.6843C17.8023 74.1053 18.083 74.3861 18.504 74.3861H22.7146C23.1356 74.3861 23.4163 74.1053 23.4163 73.6843V68.0703C23.4163 67.6492 23.1356 67.3685 22.7146 67.3685ZM22.0128 68.772V70.1755H19.2058V68.772H22.0128ZM22.0128 72.9825H19.2058V71.579H22.0128V72.9825ZM22.7146 57.5439H18.504C18.083 57.5439 17.8023 57.8246 17.8023 58.2457V63.8597C17.8023 64.2808 18.083 64.5615 18.504 64.5615H22.7146C23.1356 64.5615 23.4163 64.2808 23.4163 63.8597V58.2457C23.4163 57.8246 23.1356 57.5439 22.7146 57.5439ZM22.0128 58.9475V60.351H19.2058V58.9475H22.0128ZM22.0128 63.158H19.2058V61.7545H22.0128V63.158ZM11.4865 67.3685H7.27597C6.85492 67.3685 6.57422 67.6492 6.57422 68.0703V73.6843C6.57422 74.1053 6.85492 74.3861 7.27597 74.3861H11.4865C11.9076 74.3861 12.1883 74.1053 12.1883 73.6843V68.0703C12.1883 67.6492 11.9076 67.3685 11.4865 67.3685ZM10.7847 72.9825H7.97773V68.772H10.7847V72.9825Z" fill="#292D32"/>
<path d="M45.8727 27.3684C46.2602 27.3684 46.5744 27.0542 46.5744 26.6666C46.5744 26.279 46.2602 25.9648 45.8727 25.9648C45.4851 25.9648 45.1709 26.279 45.1709 26.6666C45.1709 27.0542 45.4851 27.3684 45.8727 27.3684Z" fill="#292D32"/>
<path d="M9.38144 50.5263C9.76901 50.5263 10.0832 50.2121 10.0832 49.8246C10.0832 49.437 9.76901 49.1228 9.38144 49.1228C8.99387 49.1228 8.67969 49.437 8.67969 49.8246C8.67969 50.2121 8.99387 50.5263 9.38144 50.5263Z" fill="#292D32"/>
<path d="M80.2584 61.7544H84.469C84.89 61.7544 85.1707 61.4737 85.1707 61.0526V55.4386C85.1707 55.0175 84.89 54.7368 84.469 54.7368H80.2584C79.8374 54.7368 79.5567 55.0175 79.5567 55.4386V61.0526C79.5567 61.4737 79.8374 61.7544 80.2584 61.7544ZM80.9602 60.3509V58.9473H83.7672V60.3509H80.9602ZM83.7672 56.1403V57.5438H80.9602V56.1403H83.7672ZM73.2409 67.3684H69.0304C68.6093 67.3684 68.3286 67.6491 68.3286 68.0701V73.6842C68.3286 74.1052 68.6093 74.3859 69.0304 74.3859H73.2409C73.6619 74.3859 73.9426 74.1052 73.9426 73.6842V68.0701C73.9426 67.6491 73.6619 67.3684 73.2409 67.3684ZM69.7321 68.7719H72.5391V70.1754H69.7321V68.7719ZM69.7321 72.9824V71.5789H72.5391V72.9824H69.7321ZM73.2409 57.5438H69.0304C68.6093 57.5438 68.3286 57.8245 68.3286 58.2456V63.8596C68.3286 64.2807 68.6093 64.5614 69.0304 64.5614H73.2409C73.6619 64.5614 73.9426 64.2807 73.9426 63.8596V58.2456C73.9426 57.8245 73.6619 57.5438 73.2409 57.5438ZM69.7321 58.9473H72.5391V60.3509H69.7321V58.9473ZM69.7321 63.1579V61.7544H72.5391V63.1579H69.7321ZM84.469 67.3684H80.2584C79.8374 67.3684 79.5567 67.6491 79.5567 68.0701V73.6842C79.5567 74.1052 79.8374 74.3859 80.2584 74.3859H84.469C84.89 74.3859 85.1707 74.1052 85.1707 73.6842V68.0701C85.1707 67.6491 84.89 67.3684 84.469 67.3684ZM83.7672 72.9824H80.9602V68.7719H83.7672V72.9824Z" fill="#292D32"/>
<path d="M82.3639 50.5263C82.7514 50.5263 83.0656 50.2121 83.0656 49.8246C83.0656 49.437 82.7514 49.1228 82.3639 49.1228C81.9763 49.1228 81.6621 49.437 81.6621 49.8246C81.6621 50.2121 81.9763 50.5263 82.3639 50.5263Z" fill="#292D32"/>
</svg>
