<svg width="92" height="80" viewBox="0 0 92 80" fill="none" xmlns="http://www.w3.org/2000/svg">
<g clip-path="url(#clip0_226_3508)">
<path d="M85.3743 40.098C85.1609 39.6953 84.8426 39.3576 84.4531 39.1208C84.0637 38.884 83.6175 38.7568 83.1617 38.7526V36.2501C83.1606 35.2558 82.7651 34.3026 82.062 33.5996C81.359 32.8965 80.4058 32.5011 79.4115 32.5001H65.6609V10.6251C65.6609 10.3783 65.5878 10.137 65.451 9.9317L61.9108 4.62164V1.25005C61.9108 0.918518 61.7791 0.600563 61.5446 0.366132C61.3102 0.131702 60.9922 0 60.6607 0C60.3292 0 60.0112 0.131702 59.7768 0.366132C59.5424 0.600563 59.4107 0.918518 59.4107 1.25005V4.62163L55.8705 9.93169C55.7336 10.1371 55.6606 10.3783 55.6605 10.6251V22.2128C54.9753 21.5932 54.0843 21.2501 53.1604 21.2501C52.2365 21.2501 51.3456 21.5932 50.6603 22.2128C49.9751 21.5932 49.0841 21.2501 48.1602 21.2501C47.2363 21.2501 46.3454 21.5932 45.6601 22.2128C44.9749 21.5932 44.0839 21.2501 43.16 21.2501C42.2361 21.2501 41.3452 21.5932 40.6599 22.2128C39.9747 21.5932 39.0837 21.2501 38.1598 21.2501C37.2359 21.2501 36.345 21.5932 35.6597 22.2128V10.6251C35.6596 10.3783 35.5866 10.137 35.4497 9.9317L31.9095 4.62164V1.25005C31.9095 0.918518 31.7778 0.600563 31.5434 0.366132C31.309 0.131702 30.991 0 30.6595 0C30.3279 0 30.01 0.131702 29.7755 0.366132C29.5411 0.600563 29.4094 0.918518 29.4094 1.25005V4.62163L25.8692 9.93169C25.7324 10.1371 25.6594 10.3783 25.6593 10.6251V32.5001H11.9087C10.9145 32.5011 9.96125 32.8965 9.2582 33.5996C8.55514 34.3026 8.15968 35.2558 8.15857 36.2501V38.7526C7.70278 38.7568 7.25658 38.884 6.86711 39.1208C6.47765 39.3576 6.15939 39.6953 5.94595 40.098C5.7354 40.4966 5.63802 40.9452 5.66438 41.3951C5.69074 41.8451 5.83984 42.2793 6.0955 42.6505L8.15857 45.6582V76.2501C8.15968 77.2443 8.55514 78.1975 9.2582 78.9005C9.96125 79.6036 10.9145 79.999 11.9087 80.0001H79.4115C80.4058 79.999 81.359 79.6036 82.062 78.9005C82.7651 78.1975 83.1606 77.2443 83.1617 76.2501V45.6581L85.2247 42.6502C85.4804 42.279 85.6295 41.8449 85.6559 41.395C85.6822 40.9451 85.5848 40.4965 85.3743 40.098ZM80.6616 36.2501V38.7501H65.6609V35.0001H79.4115C79.7429 35.0004 80.0607 35.1322 80.295 35.3666C80.5294 35.6009 80.6612 35.9186 80.6616 36.2501ZM51.9519 60.8924L46.9517 57.8614C46.5626 57.6244 46.1158 57.499 45.6602 57.4989C45.2046 57.4988 44.7577 57.6241 44.3686 57.8611L39.3683 60.8924C38.9999 61.1181 38.6953 61.4344 38.4838 61.8112C38.2722 62.188 38.1607 62.6127 38.1598 63.0448V77.5001H35.6597V48.7501H55.6605V77.5001H53.1604V63.0448C53.1596 62.6127 53.048 62.188 52.8365 61.8112C52.6249 61.4344 52.3204 61.1181 51.9519 60.8924ZM11.5871 46.2363L8.19642 41.2501H25.6593V46.2391L11.5871 46.2363ZM28.1594 17.5001H33.1596V32.5001H28.1594V17.5001ZM55.6605 28.7501V32.5001H35.6597V28.7501H55.6605ZM63.1608 17.5001V32.5001H58.1606V17.5001H63.1608ZM55.6605 38.7501H52.6917V35.0001H55.6605V38.7501ZM47.0664 38.7501V35.0001H50.1916V38.7501H47.0664ZM41.4412 38.7501V35.0001H44.5663V38.7501H41.4412ZM35.6597 38.7501V35.0001H38.9411V38.7501H35.6597ZM33.1596 63.7501H28.1594V35.0001H33.1596V63.7501ZM28.1594 66.2501H33.1596V68.7501H28.1594V66.2501ZM35.6597 41.2501H55.6605V46.2452L35.6597 46.2412V41.2501ZM58.1606 66.2501H63.1608V68.7501H58.1606V66.2501ZM63.1608 63.7501H58.1606V35.0001H63.1608V63.7501ZM58.1606 11.0035L60.6607 7.25347L63.1609 11.0035V15.0001H61.9108V14.3751C61.9108 14.0435 61.7791 13.7256 61.5447 13.4911C61.3102 13.2567 60.9923 13.125 60.6607 13.125C60.3292 13.125 60.0113 13.2567 59.7768 13.4911C59.5424 13.7256 59.4107 14.0435 59.4107 14.3751V15.0001H58.1606V11.0035ZM53.1604 23.7501C53.4918 23.7504 53.8096 23.8822 54.0439 24.1166C54.2783 24.3509 54.4101 24.6686 54.4105 25.0001V26.2501H51.9104V25.0001C51.9108 24.6686 52.0426 24.3509 52.2769 24.1166C52.5113 23.8822 52.829 23.7504 53.1604 23.7501ZM48.1602 23.7501C48.4916 23.7504 48.8094 23.8822 49.0437 24.1166C49.2781 24.3509 49.4099 24.6686 49.4103 25.0001V26.2501H46.9102V25.0001C46.9106 24.6686 47.0424 24.3509 47.2767 24.1166C47.5111 23.8822 47.8288 23.7504 48.1602 23.7501ZM43.16 23.7501C43.4914 23.7504 43.8092 23.8822 44.0435 24.1166C44.2779 24.3509 44.4097 24.6686 44.4101 25.0001V26.2501H41.91V25.0001C41.9104 24.6686 42.0422 24.3509 42.2765 24.1166C42.5109 23.8822 42.8286 23.7504 43.16 23.7501ZM36.9098 25.0001C36.9098 24.6685 37.0415 24.3506 37.2759 24.1161C37.5103 23.8817 37.8283 23.75 38.1598 23.75C38.4913 23.75 38.8093 23.8817 39.0437 24.1161C39.2782 24.3506 39.4099 24.6685 39.4099 25.0001V26.2501H36.9098V25.0001ZM28.1594 11.0035L30.6595 7.25347L33.1596 11.0035V15.0001H31.9096V14.3751C31.9096 14.0435 31.7779 13.7256 31.5434 13.4911C31.309 13.2567 30.991 13.125 30.6595 13.125C30.328 13.125 30.01 13.2567 29.7756 13.4911C29.5411 13.7256 29.4094 14.0435 29.4094 14.3751V15.0001H28.1594V11.0035ZM11.9087 35.0001H25.6593V38.7501H10.6587V36.2501C10.6591 35.9186 10.7909 35.6009 11.0252 35.3666C11.2596 35.1322 11.5773 35.0004 11.9087 35.0001ZM10.6587 76.2501V48.5582C10.9657 48.6842 11.2943 48.7493 11.6261 48.7501H11.9087V50.0001C11.9087 50.3316 12.0404 50.6495 12.2749 50.884C12.5093 51.1184 12.8272 51.2501 13.1588 51.2501C13.4903 51.2501 13.8083 51.1184 14.0427 50.884C14.2771 50.6495 14.4088 50.3316 14.4088 50.0001V48.7501H16.9089V50.0001C16.9089 50.3316 17.0406 50.6495 17.2751 50.884C17.5095 51.1184 17.8275 51.2501 18.159 51.2501C18.4905 51.2501 18.8085 51.1184 19.0429 50.884C19.2773 50.6495 19.409 50.3316 19.409 50.0001V48.7501H21.9091V50.0001C21.9091 50.3316 22.0408 50.6495 22.2753 50.884C22.5097 51.1184 22.8277 51.2501 23.1592 51.2501C23.4907 51.2501 23.8087 51.1184 24.0431 50.884C24.2776 50.6495 24.4093 50.3316 24.4093 50.0001V48.7501H25.6593V77.5001H23.1592V62.5998C23.1615 61.935 22.9026 61.2959 22.4383 60.82L19.9382 58.2538C19.4633 57.7878 18.8244 57.5267 18.159 57.5267C17.4936 57.5267 16.8547 57.7878 16.3797 58.2538L13.879 60.8204C13.4151 61.2963 13.1565 61.9352 13.1588 62.5998V77.5001H11.9087C11.5773 77.4997 11.2596 77.3679 11.0252 77.1335C10.7909 76.8992 10.6591 76.5815 10.6587 76.2501ZM15.6595 77.5001L15.6705 62.5644L18.1474 59.9982L20.6591 62.5998V77.5001H15.6595ZM28.1594 77.5001V71.2501H33.1596V77.5001H28.1594ZM40.6605 77.5001L40.6648 63.0304L45.6552 59.9991L50.6603 63.0448V77.5001H40.6605ZM58.1606 77.5001V71.2501H63.1608V77.5001H58.1606ZM70.6618 77.5001L70.6728 62.5644L73.1497 59.9982L75.6614 62.5998V77.5001H70.6618ZM79.4115 77.5001H78.1615V62.5998C78.1637 61.935 77.9049 61.2959 77.4406 60.8201L74.9405 58.2539C74.4671 57.7849 73.8277 57.5217 73.1613 57.5217C72.4949 57.5217 71.8554 57.7849 71.382 58.2539L68.8813 60.8204C68.4174 61.2963 68.1588 61.9353 68.161 62.5999V77.5001H65.6609V48.7501H66.911V50.0001C66.911 50.3316 67.0427 50.6495 67.2771 50.884C67.5116 51.1184 67.8295 51.2501 68.1611 51.2501C68.4926 51.2501 68.8105 51.1184 69.045 50.884C69.2794 50.6495 69.4111 50.3316 69.4111 50.0001V48.7501H71.9112V50.0001C71.9112 50.3316 72.0429 50.6495 72.2773 50.884C72.5118 51.1184 72.8297 51.2501 73.1613 51.2501C73.4928 51.2501 73.8108 51.1184 74.0452 50.884C74.2796 50.6495 74.4113 50.3316 74.4113 50.0001V48.7501H76.9114V50.0001C76.9114 50.3316 77.0431 50.6495 77.2776 50.884C77.512 51.1184 77.8299 51.2501 78.1615 51.2501C78.493 51.2501 78.811 51.1184 79.0454 50.884C79.2798 50.6495 79.4115 50.3316 79.4115 50.0001V48.7501H79.6941C80.026 48.7493 80.3546 48.6842 80.6616 48.5582V76.2501C80.6612 76.5815 80.5294 76.8992 80.295 77.1335C80.0607 77.3679 79.7429 77.4997 79.4115 77.5001ZM79.6941 46.2501L65.6609 46.2472V41.2501H83.1238L83.1629 41.2363L79.6941 46.2501Z" fill="#292D32"/>
<path d="M13.1587 58.125C13.849 58.125 14.4087 57.5654 14.4087 56.875C14.4087 56.1846 13.849 55.625 13.1587 55.625C12.4683 55.625 11.9087 56.1846 11.9087 56.875C11.9087 57.5654 12.4683 58.125 13.1587 58.125Z" fill="#292D32"/>
<path d="M23.1597 58.125C23.85 58.125 24.4097 57.5654 24.4097 56.875C24.4097 56.1846 23.85 55.625 23.1597 55.625C22.4693 55.625 21.9097 56.1846 21.9097 56.875C21.9097 57.5654 22.4693 58.125 23.1597 58.125Z" fill="#292D32"/>
<path d="M68.1606 58.125C68.851 58.125 69.4106 57.5654 69.4106 56.875C69.4106 56.1846 68.851 55.625 68.1606 55.625C67.4703 55.625 66.9106 56.1846 66.9106 56.875C66.9106 57.5654 67.4703 58.125 68.1606 58.125Z" fill="#292D32"/>
<path d="M78.1616 58.125C78.852 58.125 79.4116 57.5654 79.4116 56.875C79.4116 56.1846 78.852 55.625 78.1616 55.625C77.4713 55.625 76.9116 56.1846 76.9116 56.875C76.9116 57.5654 77.4713 58.125 78.1616 58.125Z" fill="#292D32"/>
<path d="M39.4102 58.125C40.1005 58.125 40.6602 57.5654 40.6602 56.875C40.6602 56.1846 40.1005 55.625 39.4102 55.625C38.7198 55.625 38.1602 56.1846 38.1602 56.875C38.1602 57.5654 38.7198 58.125 39.4102 58.125Z" fill="#292D32"/>
<path d="M51.9102 58.125C52.6005 58.125 53.1602 57.5654 53.1602 56.875C53.1602 56.1846 52.6005 55.625 51.9102 55.625C51.2198 55.625 50.6602 56.1846 50.6602 56.875C50.6602 57.5654 51.2198 58.125 51.9102 58.125Z" fill="#292D32"/>
<path d="M30.6597 22.5001C30.3282 22.5001 30.0103 22.6318 29.7758 22.8662C29.5414 23.1006 29.4097 23.4185 29.4097 23.7501V26.2501C29.4097 26.5816 29.5414 26.8995 29.7758 27.134C30.0102 27.3684 30.3282 27.5001 30.6597 27.5001C30.9913 27.5001 31.3092 27.3684 31.5436 27.134C31.7781 26.8995 31.9098 26.5816 31.9098 26.2501V23.7501C31.9097 23.4185 31.778 23.1006 31.5436 22.8662C31.3092 22.6318 30.9912 22.5001 30.6597 22.5001ZM60.661 27.5001C60.9925 27.5 61.3104 27.3683 61.5449 27.1339C61.7793 26.8995 61.911 26.5816 61.911 26.2501V23.7501C61.911 23.4185 61.7793 23.1006 61.5449 22.8661C61.3105 22.6317 60.9925 22.5 60.661 22.5C60.3294 22.5 60.0115 22.6317 59.777 22.8661C59.5426 23.1006 59.4109 23.4185 59.4109 23.7501V26.2501C59.4109 26.5816 59.5426 26.8995 59.7771 27.1339C60.0115 27.3683 60.3294 27.5 60.661 27.5001Z" fill="#292D32"/>
</g>
<defs>
<clipPath id="clip0_226_3508">
<rect width="91.5599" height="80" fill="white" transform="translate(0.220215)"/>
</clipPath>
</defs>
</svg>
