<svg width="92" height="80" viewBox="0 0 92 80" fill="none" xmlns="http://www.w3.org/2000/svg">
<path d="M33.3798 11C33.3056 11 33.2328 11.0207 33.1697 11.0597C33.1065 11.0986 33.0554 11.1544 33.0222 11.2208L31.5318 14.2H30.1798C30.1056 14.2 30.0328 14.2207 29.9697 14.2597C29.9065 14.2986 29.8554 14.3544 29.8222 14.4208L27.4222 19.2208C27.4206 19.224 27.4222 19.2288 27.4206 19.232C27.3946 19.284 27.3807 19.3411 27.3798 19.3992V20.9992C27.3798 21.1053 27.4219 21.207 27.4969 21.282C27.572 21.3571 27.6737 21.3992 27.7798 21.3992H28.9798V27.4376L24.6198 27.0016C24.615 27.0016 24.6094 27.004 24.6038 27.0032C24.5958 27.0032 24.5878 26.9992 24.5798 26.9992H16.5798C16.5718 26.9992 16.5638 27.0032 16.5558 27.0032L16.5398 27.0016L8.53979 27.8016C8.44098 27.811 8.34926 27.857 8.28264 27.9306C8.21603 28.0041 8.17934 28.1 8.17979 28.1992V68.616H6.37659C6.01819 68.616 5.77979 68.776 5.77979 69.016C5.77979 69.256 6.01819 69.416 6.37659 69.416H85.183C85.5414 69.416 85.7798 69.256 85.7798 69.016C85.7798 68.776 85.5414 68.616 85.183 68.616H84.1798V28.1992C84.1802 28.1 84.1435 28.0041 84.0769 27.9306C84.0103 27.857 83.9186 27.811 83.8198 27.8016L75.8198 27.0016C75.815 27.0016 75.8094 27.004 75.8038 27.0032C75.7958 27.0032 75.7878 26.9992 75.7798 26.9992H67.7798C67.7718 26.9992 67.7638 27.0032 67.7558 27.0032L67.7398 27.0016L63.3798 27.4376V21.4H64.5798C64.6859 21.4 64.7876 21.3579 64.8626 21.2828C64.9376 21.2078 64.9798 21.1061 64.9798 21V19.4C64.9798 19.3944 64.9766 19.3904 64.9766 19.3856C64.9766 19.3632 64.9686 19.3424 64.9638 19.32C64.9582 19.2904 64.9534 19.2608 64.9406 19.2336C64.939 19.2296 64.9398 19.2256 64.9374 19.2216L62.5374 14.4216C62.5041 14.3552 62.4531 14.2994 62.3899 14.2602C62.3268 14.2211 62.2541 14.2003 62.1798 14.2H60.827L59.3374 11.2216C59.3041 11.1552 59.2531 11.0994 59.1899 11.0605C59.1268 11.0215 59.054 11.0008 58.9798 11.0008H33.3798V11ZM33.627 11.7992H58.7318L59.9662 14.2672C59.8911 14.3117 59.8329 14.3799 59.8008 14.4611C59.7688 14.5423 59.7646 14.6318 59.7889 14.7157C59.8133 14.7995 59.8648 14.8728 59.9355 14.9242C60.0061 14.9755 60.0917 15.0019 60.179 14.9992H60.3318L60.7318 15.7992H31.6278L33.6278 11.7992H33.627ZM61.227 14.9992H61.9326L63.9326 18.9992H60.1798V18.1992H61.3798C61.4859 18.1992 61.5876 18.1571 61.6626 18.082C61.7376 18.007 61.7798 17.9053 61.7798 17.7992V16.1992C61.7792 16.1409 61.7656 16.0835 61.7398 16.0312C61.7374 16.028 61.7398 16.024 61.7374 16.0208L61.227 14.9992ZM30.427 15H31.1326L30.6222 16.0208C30.6206 16.024 30.6222 16.0288 30.6206 16.032C30.5946 16.084 30.5807 16.1411 30.5798 16.1992V17.7992C30.5798 17.9053 30.6219 18.007 30.6969 18.082C30.772 18.1571 30.8737 18.1992 30.9798 18.1992H32.1798V18.9992H28.427L30.427 15ZM31.3798 16.6H60.9798V17.4H31.3798V16.6ZM32.9798 18.2H36.1798V21.5184C35.9214 21.4352 35.6511 21.3952 35.3798 21.4C34.4974 21.4 33.7798 21.9832 33.7798 22.7V23C33.6737 23 33.572 23.0421 33.4969 23.1172C33.4219 23.1922 33.3798 23.2939 33.3798 23.4C33.3798 23.5061 33.4219 23.6078 33.4969 23.6828C33.572 23.7579 33.6737 23.8 33.7798 23.8V27.8H32.9798V18.2ZM36.9798 18.2H55.3798V23C55.2737 23 55.172 23.0421 55.0969 23.1172C55.0219 23.1922 54.9798 23.2939 54.9798 23.4C54.9798 23.5061 55.0219 23.6078 55.0969 23.6828C55.172 23.7579 55.2737 23.8 55.3798 23.8V27.8H54.5798L54.583 20.6C54.583 19.7176 53.6854 19 52.5814 19C51.9254 19 51.3462 19.2568 50.9814 19.648C50.6158 19.2568 50.0374 19 49.3814 19C48.7254 19 48.1462 19.2568 47.7814 19.648C47.4158 19.2568 46.8374 19 46.1814 19C45.5254 19 44.9462 19.2568 44.5814 19.648C44.2158 19.2568 43.6374 19 42.9814 19C42.3254 19 41.7462 19.2568 41.3814 19.648C41.0158 19.2568 40.4374 19 39.7814 19C38.6782 19 37.7798 19.7176 37.7798 20.6V21.4C37.6737 21.4 37.572 21.4421 37.4969 21.5172C37.4219 21.5922 37.3798 21.6939 37.3798 21.8C37.3798 21.9061 37.4219 22.0078 37.4969 22.0828C37.572 22.1579 37.6737 22.2 37.7798 22.2V27.8H36.9798V18.2ZM56.1798 18.2H59.3798V27.8H58.5798V23C58.5799 22.9484 58.5699 22.8973 58.5502 22.8496C58.5696 22.8021 58.5796 22.7513 58.5798 22.7C58.5798 21.984 57.8622 21.4 56.9798 21.4C56.703 21.4001 56.4297 21.4619 56.1798 21.5808V18.2ZM28.1798 19.8H32.1798V20.6H28.1798V19.8ZM39.7814 19.8C40.4158 19.8 40.9718 20.168 40.9814 20.5888L40.9798 20.6V21.4C40.8737 21.4 40.772 21.4421 40.6969 21.5172C40.6219 21.5922 40.5798 21.6939 40.5798 21.8C40.5798 21.9061 40.6219 22.0078 40.6969 22.0828C40.772 22.1579 40.8737 22.2 40.9798 22.2V26.2H38.5798V22.2C38.6859 22.2 38.7876 22.1579 38.8626 22.0828C38.9376 22.0078 38.9798 21.9061 38.9798 21.8C38.9798 21.6939 38.9376 21.5922 38.8626 21.5172C38.7876 21.4421 38.6859 21.4 38.5798 21.4V20.6C38.5798 20.1744 39.1414 19.8 39.7814 19.8ZM42.9814 19.8C43.6158 19.8 44.1718 20.168 44.1814 20.5888L44.1798 20.6V21.4C44.0737 21.4 43.972 21.4421 43.8969 21.5172C43.8219 21.5922 43.7798 21.6939 43.7798 21.8C43.7798 21.9061 43.8219 22.0078 43.8969 22.0828C43.972 22.1579 44.0737 22.2 44.1798 22.2V26.2H41.7814L41.783 22.2C41.8891 22.2 41.9908 22.1579 42.0658 22.0828C42.1408 22.0078 42.183 21.9061 42.183 21.8C42.183 21.6939 42.1408 21.5922 42.0658 21.5172C41.9908 21.4421 41.8891 21.4 41.783 21.4V20.6L41.7814 20.5888C41.791 20.168 42.347 19.8 42.9814 19.8ZM46.1814 19.8C46.8158 19.8 47.3718 20.168 47.3814 20.5888L47.3798 20.6V21.4C47.2737 21.4 47.172 21.4421 47.0969 21.5172C47.0219 21.5922 46.9798 21.6939 46.9798 21.8C46.9798 21.9061 47.0219 22.0078 47.0969 22.0828C47.172 22.1579 47.2737 22.2 47.3798 22.2V26.2H44.9814L44.983 22.2C45.0891 22.2 45.1908 22.1579 45.2658 22.0828C45.3408 22.0078 45.383 21.9061 45.383 21.8C45.383 21.6939 45.3408 21.5922 45.2658 21.5172C45.1908 21.4421 45.0891 21.4 44.983 21.4V20.6L44.9814 20.5888C44.991 20.168 45.547 19.8 46.1814 19.8ZM49.3814 19.8C50.0158 19.8 50.5718 20.168 50.5814 20.5888L50.5798 20.6V21.4C50.4737 21.4 50.372 21.4421 50.2969 21.5172C50.2219 21.5922 50.1798 21.6939 50.1798 21.8C50.1798 21.9061 50.2219 22.0078 50.2969 22.0828C50.372 22.1579 50.4737 22.2 50.5798 22.2V26.2H48.1814L48.183 22.2C48.2891 22.2 48.3908 22.1579 48.4658 22.0828C48.5408 22.0078 48.583 21.9061 48.583 21.8C48.583 21.6939 48.5408 21.5922 48.4658 21.5172C48.3908 21.4421 48.2891 21.4 48.183 21.4V20.6L48.1814 20.5888C48.191 20.168 48.747 19.8 49.3814 19.8ZM52.5814 19.8C53.2214 19.8 53.783 20.1752 53.783 20.6V21.4056C53.7302 21.4044 53.6778 21.414 53.6289 21.4336C53.5799 21.4533 53.5355 21.4827 53.4982 21.52C53.4601 21.5559 53.4299 21.5994 53.4096 21.6476C53.3892 21.6958 53.379 21.7477 53.3798 21.8C53.3798 21.904 53.4182 22.008 53.4982 22.08C53.571 22.16 53.6758 22.2 53.7798 22.2H53.783L53.7814 26.2H51.3814L51.383 22.2C51.4891 22.2 51.5908 22.1579 51.6658 22.0828C51.7408 22.0078 51.783 21.9061 51.783 21.8C51.783 21.6939 51.7408 21.5922 51.6658 21.5172C51.5908 21.4421 51.4891 21.4 51.383 21.4V20.6L51.3814 20.5888C51.391 20.168 51.947 19.8 52.5814 19.8ZM60.1798 19.8H64.1798V20.6H60.1798V19.8ZM29.7798 21.4H32.1798V27.7592L29.7798 27.5184V21.4ZM60.1798 21.4H62.5798V27.5184L60.1798 27.7584V21.4ZM35.3798 22.2C35.7646 22.2 36.1798 22.2968 36.1798 22.512V23.016C36.128 23.0131 36.0762 23.021 36.0276 23.039C35.9789 23.0571 35.9346 23.0849 35.8972 23.1209C35.8598 23.1568 35.8302 23.2001 35.8103 23.248C35.7904 23.2959 35.7805 23.3473 35.7814 23.3992C35.7814 23.5032 35.8198 23.6072 35.8998 23.6792C35.9318 23.7176 35.9798 23.7512 36.0278 23.7672C36.0758 23.7912 36.1238 23.7992 36.1798 23.7992V26.1992H34.5798V23.7992C34.6859 23.7992 34.7876 23.7571 34.8626 23.682C34.9376 23.607 34.9798 23.5053 34.9798 23.3992C34.9798 23.2931 34.9376 23.1914 34.8626 23.1164C34.7876 23.0413 34.6859 22.9992 34.5798 22.9992V22.6992C34.5798 22.4632 34.9222 22.2 35.3798 22.2ZM56.9798 22.2C57.4374 22.2 57.7798 22.464 57.7798 22.7C57.7798 22.7528 57.7902 22.8032 57.8094 22.8496C57.7897 22.8973 57.7797 22.9484 57.7798 23V23.016C57.7285 23.0129 57.6772 23.0205 57.629 23.0383C57.5808 23.0561 57.5368 23.0836 57.4998 23.1192C57.4617 23.1551 57.4315 23.1986 57.4112 23.2468C57.3908 23.295 57.3806 23.3469 57.3814 23.3992C57.3814 23.5032 57.4198 23.6072 57.4998 23.6792C57.5318 23.7176 57.5798 23.7512 57.6278 23.7672C57.6758 23.7912 57.7238 23.7992 57.7798 23.7992V26.1992H56.1798V23.7992C56.2859 23.7992 56.3876 23.7571 56.4626 23.682C56.5376 23.607 56.5798 23.5053 56.5798 23.3992C56.5798 23.2931 56.5376 23.1914 56.4626 23.1164C56.3876 23.0413 56.2859 22.9992 56.1798 22.9992V22.6992C56.1798 22.4632 56.5222 22.2 56.9798 22.2ZM34.5798 27H36.1798V27.8H34.5798V27ZM38.5798 27H40.9798V27.8H38.5798V27ZM41.7798 27H44.1798V27.8H41.7798V27ZM44.9798 27H47.3798V27.8H44.9798V27ZM48.1798 27H50.5798V27.8H48.1798V27ZM51.3798 27H53.7798V27.8H51.3798V27ZM56.1798 27H57.7798V27.8H56.1798V27ZM16.9798 27.8H24.1798V29.4H16.9798V27.8ZM68.1798 27.8H75.3798V29.4H68.1798V27.8ZM16.1798 27.8416V29.4H8.97979V28.5624L16.1798 27.8416ZM24.9798 27.8416L32.1798 28.5616V29.4H24.9798V27.84V27.8416ZM67.3798 27.8416V29.4H60.1798V28.5624L67.3798 27.8416ZM76.1798 27.8416L83.3798 28.5616V29.4H76.1798V27.84V27.8416ZM32.9798 28.6H35.3798V29.4H32.9798V28.6ZM36.1798 28.6H56.1798V30.2H36.1798V28.6ZM56.9798 28.6H59.3798V29.4H56.9798V28.6ZM8.97979 30.2H16.1798V37.4H8.97979V30.2ZM16.9798 30.2H24.1798V37.4H16.9798V30.2ZM24.9798 30.2H32.1798V37.4H24.9798V30.2ZM32.9798 30.2H35.3798V30.6C35.3798 30.7061 35.4219 30.8078 35.4969 30.8828C35.572 30.9579 35.6737 31 35.7798 31H36.1798V37.416H32.9798V30.2ZM56.9798 30.2H59.3798V37.416H56.1798V30.9992H56.5798C56.6859 30.9992 56.7876 30.9571 56.8626 30.882C56.9376 30.807 56.9798 30.7053 56.9798 30.5992V30.2ZM60.1798 30.2H67.3798V37.4H60.1798V30.2ZM68.1798 30.2H75.3798V37.4H68.1798V30.2ZM76.1798 30.2H83.3798V37.4H76.1798V30.2ZM36.9798 31H55.3798V32.6H36.9798V31ZM12.5798 31.8C11.9182 31.8 11.3798 32.3384 11.3798 33V35.4C11.3798 35.5061 11.4219 35.6078 11.4969 35.6828C11.572 35.7579 11.6737 35.8 11.7798 35.8H13.3798C13.4859 35.8 13.5876 35.7579 13.6626 35.6828C13.7376 35.6078 13.7798 35.5061 13.7798 35.4V33C13.7798 32.3384 13.2414 31.8 12.5798 31.8ZM20.5798 31.8C19.9182 31.8 19.3798 32.3384 19.3798 33V35.4C19.3798 35.5061 19.4219 35.6078 19.4969 35.6828C19.572 35.7579 19.6737 35.8 19.7798 35.8H21.3798C21.4859 35.8 21.5876 35.7579 21.6626 35.6828C21.7376 35.6078 21.7798 35.5061 21.7798 35.4V33C21.7798 32.3384 21.2414 31.8 20.5798 31.8ZM28.5798 31.8C27.9182 31.8 27.3798 32.3384 27.3798 33V35.4C27.3798 35.5061 27.4219 35.6078 27.4969 35.6828C27.572 35.7579 27.6737 35.8 27.7798 35.8H29.3798C29.4859 35.8 29.5876 35.7579 29.6626 35.6828C29.7376 35.6078 29.7798 35.5061 29.7798 35.4V33C29.7798 32.3384 29.2414 31.8 28.5798 31.8ZM63.7798 31.8C63.1182 31.8 62.5798 32.3384 62.5798 33V35.4C62.5798 35.5061 62.6219 35.6078 62.6969 35.6828C62.772 35.7579 62.8737 35.8 62.9798 35.8H64.5798C64.6859 35.8 64.7876 35.7579 64.8626 35.6828C64.9376 35.6078 64.9798 35.5061 64.9798 35.4V33C64.9798 32.3384 64.4414 31.8 63.7798 31.8ZM71.7798 31.8C71.1182 31.8 70.5798 32.3384 70.5798 33V35.4C70.5798 35.5061 70.6219 35.6078 70.6969 35.6828C70.772 35.7579 70.8737 35.8 70.9798 35.8H72.5798C72.6859 35.8 72.7876 35.7579 72.8626 35.6828C72.9376 35.6078 72.9798 35.5061 72.9798 35.4V33C72.9798 32.3384 72.4414 31.8 71.7798 31.8ZM79.7798 31.8C79.1182 31.8 78.5798 32.3384 78.5798 33V35.4C78.5798 35.5061 78.6219 35.6078 78.6969 35.6828C78.772 35.7579 78.8737 35.8 78.9798 35.8H80.5798C80.6859 35.8 80.7876 35.7579 80.8626 35.6828C80.9376 35.6078 80.9798 35.5061 80.9798 35.4V33C80.9798 32.3384 80.4414 31.8 79.7798 31.8ZM10.1798 31.816C10.0737 31.816 9.97196 31.8581 9.89694 31.9332C9.82193 32.0082 9.77979 32.1099 9.77979 32.216V35.416C9.77979 35.5221 9.82193 35.6238 9.89694 35.6988C9.97196 35.7739 10.0737 35.816 10.1798 35.816C10.2859 35.816 10.3876 35.7739 10.4626 35.6988C10.5376 35.6238 10.5798 35.5221 10.5798 35.416V32.216C10.5798 32.1099 10.5376 32.0082 10.4626 31.9332C10.3876 31.8581 10.2859 31.816 10.1798 31.816ZM14.9798 31.816C14.8737 31.816 14.772 31.8581 14.6969 31.9332C14.6219 32.0082 14.5798 32.1099 14.5798 32.216V35.416C14.5798 35.5221 14.6219 35.6238 14.6969 35.6988C14.772 35.7739 14.8737 35.816 14.9798 35.816C15.0859 35.816 15.1876 35.7739 15.2626 35.6988C15.3376 35.6238 15.3798 35.5221 15.3798 35.416V32.216C15.3798 32.1099 15.3376 32.0082 15.2626 31.9332C15.1876 31.8581 15.0859 31.816 14.9798 31.816ZM18.1798 31.816C18.0737 31.816 17.972 31.8581 17.8969 31.9332C17.8219 32.0082 17.7798 32.1099 17.7798 32.216V35.416C17.7798 35.5221 17.8219 35.6238 17.8969 35.6988C17.972 35.7739 18.0737 35.816 18.1798 35.816C18.2859 35.816 18.3876 35.7739 18.4626 35.6988C18.5376 35.6238 18.5798 35.5221 18.5798 35.416V32.216C18.5798 32.1099 18.5376 32.0082 18.4626 31.9332C18.3876 31.8581 18.2859 31.816 18.1798 31.816ZM22.9798 31.816C22.8737 31.816 22.772 31.8581 22.6969 31.9332C22.6219 32.0082 22.5798 32.1099 22.5798 32.216V35.416C22.5798 35.5221 22.6219 35.6238 22.6969 35.6988C22.772 35.7739 22.8737 35.816 22.9798 35.816C23.0859 35.816 23.1876 35.7739 23.2626 35.6988C23.3376 35.6238 23.3798 35.5221 23.3798 35.416V32.216C23.3798 32.1099 23.3376 32.0082 23.2626 31.9332C23.1876 31.8581 23.0859 31.816 22.9798 31.816ZM26.1798 31.816C26.0737 31.816 25.972 31.8581 25.8969 31.9332C25.8219 32.0082 25.7798 32.1099 25.7798 32.216V35.416C25.7798 35.5221 25.8219 35.6238 25.8969 35.6988C25.972 35.7739 26.0737 35.816 26.1798 35.816C26.2859 35.816 26.3876 35.7739 26.4626 35.6988C26.5376 35.6238 26.5798 35.5221 26.5798 35.416V32.216C26.5798 32.1099 26.5376 32.0082 26.4626 31.9332C26.3876 31.8581 26.2859 31.816 26.1798 31.816ZM30.9798 31.816C30.8737 31.816 30.772 31.8581 30.6969 31.9332C30.6219 32.0082 30.5798 32.1099 30.5798 32.216V35.416C30.5798 35.5221 30.6219 35.6238 30.6969 35.6988C30.772 35.7739 30.8737 35.816 30.9798 35.816C31.0859 35.816 31.1876 35.7739 31.2626 35.6988C31.3376 35.6238 31.3798 35.5221 31.3798 35.416V32.216C31.3798 32.1099 31.3376 32.0082 31.2626 31.9332C31.1876 31.8581 31.0859 31.816 30.9798 31.816ZM61.3798 31.816C61.2737 31.816 61.172 31.8581 61.0969 31.9332C61.0219 32.0082 60.9798 32.1099 60.9798 32.216V35.416C60.9798 35.5221 61.0219 35.6238 61.0969 35.6988C61.172 35.7739 61.2737 35.816 61.3798 35.816C61.4859 35.816 61.5876 35.7739 61.6626 35.6988C61.7376 35.6238 61.7798 35.5221 61.7798 35.416V32.216C61.7798 32.1099 61.7376 32.0082 61.6626 31.9332C61.5876 31.8581 61.4859 31.816 61.3798 31.816ZM66.1798 31.816C66.0737 31.816 65.972 31.8581 65.8969 31.9332C65.8219 32.0082 65.7798 32.1099 65.7798 32.216V35.416C65.7798 35.5221 65.8219 35.6238 65.8969 35.6988C65.972 35.7739 66.0737 35.816 66.1798 35.816C66.2859 35.816 66.3876 35.7739 66.4626 35.6988C66.5376 35.6238 66.5798 35.5221 66.5798 35.416V32.216C66.5798 32.1099 66.5376 32.0082 66.4626 31.9332C66.3876 31.8581 66.2859 31.816 66.1798 31.816ZM69.3798 31.816C69.2737 31.816 69.172 31.8581 69.0969 31.9332C69.0219 32.0082 68.9798 32.1099 68.9798 32.216V35.416C68.9798 35.5221 69.0219 35.6238 69.0969 35.6988C69.172 35.7739 69.2737 35.816 69.3798 35.816C69.4859 35.816 69.5876 35.7739 69.6626 35.6988C69.7376 35.6238 69.7798 35.5221 69.7798 35.416V32.216C69.7798 32.1099 69.7376 32.0082 69.6626 31.9332C69.5876 31.8581 69.4859 31.816 69.3798 31.816ZM74.1798 31.816C74.0737 31.816 73.972 31.8581 73.8969 31.9332C73.8219 32.0082 73.7798 32.1099 73.7798 32.216V35.416C73.7798 35.5221 73.8219 35.6238 73.8969 35.6988C73.972 35.7739 74.0737 35.816 74.1798 35.816C74.2859 35.816 74.3876 35.7739 74.4626 35.6988C74.5376 35.6238 74.5798 35.5221 74.5798 35.416V32.216C74.5798 32.1099 74.5376 32.0082 74.4626 31.9332C74.3876 31.8581 74.2859 31.816 74.1798 31.816ZM77.3798 31.816C77.2737 31.816 77.172 31.8581 77.0969 31.9332C77.0219 32.0082 76.9798 32.1099 76.9798 32.216V35.416C76.9798 35.5221 77.0219 35.6238 77.0969 35.6988C77.172 35.7739 77.2737 35.816 77.3798 35.816C77.4859 35.816 77.5876 35.7739 77.6626 35.6988C77.7376 35.6238 77.7798 35.5221 77.7798 35.416V32.216C77.7798 32.1099 77.7376 32.0082 77.6626 31.9332C77.5876 31.8581 77.4859 31.816 77.3798 31.816ZM82.1798 31.816C82.0737 31.816 81.972 31.8581 81.8969 31.9332C81.8219 32.0082 81.7798 32.1099 81.7798 32.216V35.416C81.7798 35.5221 81.8219 35.6238 81.8969 35.6988C81.972 35.7739 82.0737 35.816 82.1798 35.816C82.2859 35.816 82.3876 35.7739 82.4626 35.6988C82.5376 35.6238 82.5798 35.5221 82.5798 35.416V32.216C82.5798 32.1099 82.5376 32.0082 82.4626 31.9332C82.3876 31.8581 82.2859 31.816 82.1798 31.816ZM12.5798 32.5992C12.7998 32.5992 12.9798 32.7792 12.9798 32.9992V34.9992H12.1798V32.9992C12.1798 32.7792 12.3598 32.5992 12.5798 32.5992ZM20.5798 32.5992C20.7998 32.5992 20.9798 32.7792 20.9798 32.9992V34.9992H20.1798V32.9992C20.1798 32.7792 20.3598 32.5992 20.5798 32.5992ZM28.5798 32.5992C28.7998 32.5992 28.9798 32.7792 28.9798 32.9992V34.9992H28.1798V32.9992C28.1798 32.7792 28.3598 32.5992 28.5798 32.5992ZM63.7798 32.5992C63.9998 32.5992 64.1798 32.7792 64.1798 32.9992V34.9992H63.3798V32.9992C63.3798 32.7792 63.5598 32.5992 63.7798 32.5992ZM71.7798 32.5992C71.9998 32.5992 72.1798 32.7792 72.1798 32.9992V34.9992H71.3798V32.9992C71.3798 32.7792 71.5598 32.5992 71.7798 32.5992ZM79.7798 32.5992C79.9998 32.5992 80.1798 32.7792 80.1798 32.9992V34.9992H79.3798V32.9992C79.3798 32.7792 79.5598 32.5992 79.7798 32.5992ZM36.9798 33.3992H55.3798V34.6096C55.0356 34.3449 54.614 34.2007 54.1798 34.1992C53.8682 34.2 53.5611 34.2738 53.2832 34.4149C53.0053 34.5559 52.7644 34.7601 52.5798 35.0112C52.3952 34.7601 52.1543 34.5559 51.8764 34.4149C51.5985 34.2738 51.2914 34.2 50.9798 34.1992C50.6682 34.2 50.3611 34.2738 50.0832 34.4149C49.8053 34.5559 49.5644 34.7601 49.3798 35.0112C49.1952 34.7601 48.9543 34.5559 48.6764 34.4149C48.3985 34.2738 48.0914 34.2 47.7798 34.1992C47.4682 34.2 47.1611 34.2738 46.8832 34.4149C46.6053 34.5559 46.3644 34.7601 46.1798 35.0112C45.9952 34.7601 45.7543 34.5559 45.4764 34.4149C45.1985 34.2738 44.8914 34.2 44.5798 34.1992C44.2682 34.2 43.9611 34.2738 43.6832 34.4149C43.4053 34.5559 43.1644 34.7601 42.9798 35.0112C42.7952 34.7601 42.5543 34.5559 42.2764 34.4149C41.9985 34.2738 41.6914 34.2 41.3798 34.1992C41.0682 34.2 40.7611 34.2738 40.4832 34.4149C40.2053 34.5559 39.9644 34.7601 39.7798 35.0112C39.5952 34.7601 39.3543 34.5559 39.0764 34.4149C38.7985 34.2738 38.4914 34.2 38.1798 34.1992C37.7278 34.1992 37.3158 34.356 36.9798 34.6096V33.3992ZM38.1798 34.9992C38.8414 34.9992 39.3798 35.5376 39.3798 36.1992V37.2664C39.3798 37.3136 39.391 37.3568 39.4062 37.3992H36.9798V36.1992C36.9798 35.5376 37.5182 34.9992 38.1798 34.9992ZM41.3798 34.9992C42.0414 34.9992 42.5798 35.5376 42.5798 36.1992V37.2664C42.5798 37.3136 42.591 37.3568 42.6062 37.3992H40.1534C40.1699 37.3568 40.1788 37.3119 40.1798 37.2664V36.1992C40.1798 35.5376 40.7182 34.9992 41.3798 34.9992ZM44.5798 34.9992C45.2414 34.9992 45.7798 35.5376 45.7798 36.1992V37.2664C45.7798 37.3136 45.791 37.3568 45.8062 37.3992H43.3534C43.3699 37.3568 43.3788 37.3119 43.3798 37.2664V36.1992C43.3798 35.5376 43.9182 34.9992 44.5798 34.9992ZM47.7798 34.9992C48.4414 34.9992 48.9798 35.5376 48.9798 36.1992V37.2664C48.9798 37.3136 48.991 37.3568 49.0062 37.3992H46.5534C46.5699 37.3568 46.5788 37.3119 46.5798 37.2664V36.1992C46.5798 35.5376 47.1182 34.9992 47.7798 34.9992ZM50.9798 34.9992C51.6414 34.9992 52.1798 35.5376 52.1798 36.1992V37.2664C52.1798 37.3136 52.191 37.3568 52.2062 37.3992H49.7534C49.7699 37.3568 49.7788 37.3119 49.7798 37.2664V36.1992C49.7798 35.5376 50.3182 34.9992 50.9798 34.9992ZM54.1798 34.9992C54.8414 34.9992 55.3798 35.5376 55.3798 36.1992V37.3992H52.9534C52.9699 37.3568 52.9788 37.3119 52.9798 37.2664V36.1992C52.9798 35.5376 53.5182 34.9992 54.1798 34.9992ZM8.97979 38.1992H16.1798V38.9992H8.97979V38.1992ZM16.9798 38.1992H24.1798V38.9992H16.9798V38.1992ZM24.9798 38.1992H32.1798V38.9992H24.9798V38.1992ZM36.9798 38.1992H55.3798V38.9992H36.9798V38.1992ZM60.1798 38.1992H67.3798V38.9992H60.1798V38.1992ZM68.1798 38.1992H75.3798V38.9992H68.1798V38.1992ZM76.1798 38.1992H83.3798V38.9992H76.1798V38.1992ZM32.9798 38.216H36.1798V38.9992H32.9798V38.216ZM56.1798 38.216H59.3798V38.9992H56.1798V38.216ZM8.97979 39.7992H16.1798V68.5992H8.97979V39.7992ZM16.9798 39.7992H24.1798V68.5992H16.9798V39.7992ZM24.9798 39.7992H32.1798V68.5992H24.9798V39.7992ZM32.9798 39.7992H36.1798V68.5992H32.9798V39.7992ZM36.9798 39.7992H55.3798V68.5992H53.7798V56.66C53.7773 55.4765 53.4672 54.3139 52.8798 53.2865C52.2924 52.259 51.448 51.4018 50.4294 50.7992L46.7846 48.6552C46.7211 48.6177 46.6486 48.5984 46.5749 48.5996C46.5012 48.6007 46.4292 48.6222 46.367 48.6616L42.5566 51.0616C41.5814 51.671 40.7778 52.5192 40.2219 53.5259C39.666 54.5326 39.3761 55.6644 39.3798 56.8144V68.5984H36.9798V39.7992ZM56.1798 39.7992H59.3798V68.5992H56.1798V39.7992ZM60.1798 39.7992H67.3798V68.5992H60.1798V39.7992ZM68.1798 39.7992H75.3798V68.5992H68.1798V39.7992ZM76.1798 39.7992H83.3798V68.5992H76.1798V39.7992ZM10.1798 41.416C10.0737 41.416 9.97196 41.4581 9.89694 41.5332C9.82193 41.6082 9.77979 41.7099 9.77979 41.816V46.616C9.77979 46.7221 9.82193 46.8238 9.89694 46.8988C9.97196 46.9739 10.0737 47.016 10.1798 47.016C10.2859 47.016 10.3876 46.9739 10.4626 46.8988C10.5376 46.8238 10.5798 46.7221 10.5798 46.616V41.816C10.5798 41.7099 10.5376 41.6082 10.4626 41.5332C10.3876 41.4581 10.2859 41.416 10.1798 41.416ZM12.5798 41.416C12.4737 41.416 12.372 41.4581 12.2969 41.5332C12.2219 41.6082 12.1798 41.7099 12.1798 41.816V46.616C12.1798 46.7221 12.2219 46.8238 12.2969 46.8988C12.372 46.9739 12.4737 47.016 12.5798 47.016C12.6859 47.016 12.7876 46.9739 12.8626 46.8988C12.9376 46.8238 12.9798 46.7221 12.9798 46.616V41.816C12.9798 41.7099 12.9376 41.6082 12.8626 41.5332C12.7876 41.4581 12.6859 41.416 12.5798 41.416ZM14.9798 41.416C14.8737 41.416 14.772 41.4581 14.6969 41.5332C14.6219 41.6082 14.5798 41.7099 14.5798 41.816V46.616C14.5798 46.7221 14.6219 46.8238 14.6969 46.8988C14.772 46.9739 14.8737 47.016 14.9798 47.016C15.0859 47.016 15.1876 46.9739 15.2626 46.8988C15.3376 46.8238 15.3798 46.7221 15.3798 46.616V41.816C15.3798 41.7099 15.3376 41.6082 15.2626 41.5332C15.1876 41.4581 15.0859 41.416 14.9798 41.416ZM18.1798 41.416C18.0737 41.416 17.972 41.4581 17.8969 41.5332C17.8219 41.6082 17.7798 41.7099 17.7798 41.816V46.616C17.7798 46.7221 17.8219 46.8238 17.8969 46.8988C17.972 46.9739 18.0737 47.016 18.1798 47.016C18.2859 47.016 18.3876 46.9739 18.4626 46.8988C18.5376 46.8238 18.5798 46.7221 18.5798 46.616V41.816C18.5798 41.7099 18.5376 41.6082 18.4626 41.5332C18.3876 41.4581 18.2859 41.416 18.1798 41.416ZM20.5798 41.416C20.4737 41.416 20.372 41.4581 20.2969 41.5332C20.2219 41.6082 20.1798 41.7099 20.1798 41.816V46.616C20.1798 46.7221 20.2219 46.8238 20.2969 46.8988C20.372 46.9739 20.4737 47.016 20.5798 47.016C20.6859 47.016 20.7876 46.9739 20.8626 46.8988C20.9376 46.8238 20.9798 46.7221 20.9798 46.616V41.816C20.9798 41.7099 20.9376 41.6082 20.8626 41.5332C20.7876 41.4581 20.6859 41.416 20.5798 41.416ZM22.9798 41.416C22.8737 41.416 22.772 41.4581 22.6969 41.5332C22.6219 41.6082 22.5798 41.7099 22.5798 41.816V46.616C22.5798 46.7221 22.6219 46.8238 22.6969 46.8988C22.772 46.9739 22.8737 47.016 22.9798 47.016C23.0859 47.016 23.1876 46.9739 23.2626 46.8988C23.3376 46.8238 23.3798 46.7221 23.3798 46.616V41.816C23.3798 41.7099 23.3376 41.6082 23.2626 41.5332C23.1876 41.4581 23.0859 41.416 22.9798 41.416ZM26.1798 41.416C26.0737 41.416 25.972 41.4581 25.8969 41.5332C25.8219 41.6082 25.7798 41.7099 25.7798 41.816V46.616C25.7798 46.7221 25.8219 46.8238 25.8969 46.8988C25.972 46.9739 26.0737 47.016 26.1798 47.016C26.2859 47.016 26.3876 46.9739 26.4626 46.8988C26.5376 46.8238 26.5798 46.7221 26.5798 46.616V41.816C26.5798 41.7099 26.5376 41.6082 26.4626 41.5332C26.3876 41.4581 26.2859 41.416 26.1798 41.416ZM28.5798 41.416C28.4737 41.416 28.372 41.4581 28.2969 41.5332C28.2219 41.6082 28.1798 41.7099 28.1798 41.816V46.616C28.1798 46.7221 28.2219 46.8238 28.2969 46.8988C28.372 46.9739 28.4737 47.016 28.5798 47.016C28.6859 47.016 28.7876 46.9739 28.8626 46.8988C28.9376 46.8238 28.9798 46.7221 28.9798 46.616V41.816C28.9798 41.7099 28.9376 41.6082 28.8626 41.5332C28.7876 41.4581 28.6859 41.416 28.5798 41.416ZM30.9798 41.416C30.8737 41.416 30.772 41.4581 30.6969 41.5332C30.6219 41.6082 30.5798 41.7099 30.5798 41.816V46.616C30.5798 46.7221 30.6219 46.8238 30.6969 46.8988C30.772 46.9739 30.8737 47.016 30.9798 47.016C31.0859 47.016 31.1876 46.9739 31.2626 46.8988C31.3376 46.8238 31.3798 46.7221 31.3798 46.616V41.816C31.3798 41.7099 31.3376 41.6082 31.2626 41.5332C31.1876 41.4581 31.0859 41.416 30.9798 41.416ZM34.5798 41.416C34.4737 41.416 34.372 41.4581 34.2969 41.5332C34.2219 41.6082 34.1798 41.7099 34.1798 41.816V46.616C34.1798 46.7221 34.2219 46.8238 34.2969 46.8988C34.372 46.9739 34.4737 47.016 34.5798 47.016C34.6859 47.016 34.7876 46.9739 34.8626 46.8988C34.9376 46.8238 34.9798 46.7221 34.9798 46.616V41.816C34.9798 41.7099 34.9376 41.6082 34.8626 41.5332C34.7876 41.4581 34.6859 41.416 34.5798 41.416ZM39.7798 41.416C39.6737 41.416 39.572 41.4581 39.4969 41.5332C39.4219 41.6082 39.3798 41.7099 39.3798 41.816V46.616C39.3798 46.7221 39.4219 46.8238 39.4969 46.8988C39.572 46.9739 39.6737 47.016 39.7798 47.016C39.8859 47.016 39.9876 46.9739 40.0626 46.8988C40.1376 46.8238 40.1798 46.7221 40.1798 46.616V41.816C40.1798 41.7099 40.1376 41.6082 40.0626 41.5332C39.9876 41.4581 39.8859 41.416 39.7798 41.416ZM42.9798 41.416C42.8737 41.416 42.772 41.4581 42.6969 41.5332C42.6219 41.6082 42.5798 41.7099 42.5798 41.816V46.616C42.5798 46.7221 42.6219 46.8238 42.6969 46.8988C42.772 46.9739 42.8737 47.016 42.9798 47.016C43.0859 47.016 43.1876 46.9739 43.2626 46.8988C43.3376 46.8238 43.3798 46.7221 43.3798 46.616V41.816C43.3798 41.7099 43.3376 41.6082 43.2626 41.5332C43.1876 41.4581 43.0859 41.416 42.9798 41.416ZM46.1798 41.416C46.0737 41.416 45.972 41.4581 45.8969 41.5332C45.8219 41.6082 45.7798 41.7099 45.7798 41.816V46.616C45.7798 46.7221 45.8219 46.8238 45.8969 46.8988C45.972 46.9739 46.0737 47.016 46.1798 47.016C46.2859 47.016 46.3876 46.9739 46.4626 46.8988C46.5376 46.8238 46.5798 46.7221 46.5798 46.616V41.816C46.5798 41.7099 46.5376 41.6082 46.4626 41.5332C46.3876 41.4581 46.2859 41.416 46.1798 41.416ZM49.3798 41.416C49.2737 41.416 49.172 41.4581 49.0969 41.5332C49.0219 41.6082 48.9798 41.7099 48.9798 41.816V46.616C48.9798 46.7221 49.0219 46.8238 49.0969 46.8988C49.172 46.9739 49.2737 47.016 49.3798 47.016C49.4859 47.016 49.5876 46.9739 49.6626 46.8988C49.7376 46.8238 49.7798 46.7221 49.7798 46.616V41.816C49.7798 41.7099 49.7376 41.6082 49.6626 41.5332C49.5876 41.4581 49.4859 41.416 49.3798 41.416ZM52.5798 41.416C52.4737 41.416 52.372 41.4581 52.2969 41.5332C52.2219 41.6082 52.1798 41.7099 52.1798 41.816V46.616C52.1798 46.7221 52.2219 46.8238 52.2969 46.8988C52.372 46.9739 52.4737 47.016 52.5798 47.016C52.6859 47.016 52.7876 46.9739 52.8626 46.8988C52.9376 46.8238 52.9798 46.7221 52.9798 46.616V41.816C52.9798 41.7099 52.9376 41.6082 52.8626 41.5332C52.7876 41.4581 52.6859 41.416 52.5798 41.416ZM57.7798 41.416C57.6737 41.416 57.572 41.4581 57.4969 41.5332C57.4219 41.6082 57.3798 41.7099 57.3798 41.816V46.616C57.3798 46.7221 57.4219 46.8238 57.4969 46.8988C57.572 46.9739 57.6737 47.016 57.7798 47.016C57.8859 47.016 57.9876 46.9739 58.0626 46.8988C58.1376 46.8238 58.1798 46.7221 58.1798 46.616V41.816C58.1798 41.7099 58.1376 41.6082 58.0626 41.5332C57.9876 41.4581 57.8859 41.416 57.7798 41.416ZM61.3798 41.416C61.2737 41.416 61.172 41.4581 61.0969 41.5332C61.0219 41.6082 60.9798 41.7099 60.9798 41.816V46.616C60.9798 46.7221 61.0219 46.8238 61.0969 46.8988C61.172 46.9739 61.2737 47.016 61.3798 47.016C61.4859 47.016 61.5876 46.9739 61.6626 46.8988C61.7376 46.8238 61.7798 46.7221 61.7798 46.616V41.816C61.7798 41.7099 61.7376 41.6082 61.6626 41.5332C61.5876 41.4581 61.4859 41.416 61.3798 41.416ZM63.7798 41.416C63.6737 41.416 63.572 41.4581 63.4969 41.5332C63.4219 41.6082 63.3798 41.7099 63.3798 41.816V46.616C63.3798 46.7221 63.4219 46.8238 63.4969 46.8988C63.572 46.9739 63.6737 47.016 63.7798 47.016C63.8859 47.016 63.9876 46.9739 64.0626 46.8988C64.1376 46.8238 64.1798 46.7221 64.1798 46.616V41.816C64.1798 41.7099 64.1376 41.6082 64.0626 41.5332C63.9876 41.4581 63.8859 41.416 63.7798 41.416ZM66.1798 41.416C66.0737 41.416 65.972 41.4581 65.8969 41.5332C65.8219 41.6082 65.7798 41.7099 65.7798 41.816V46.616C65.7798 46.7221 65.8219 46.8238 65.8969 46.8988C65.972 46.9739 66.0737 47.016 66.1798 47.016C66.2859 47.016 66.3876 46.9739 66.4626 46.8988C66.5376 46.8238 66.5798 46.7221 66.5798 46.616V41.816C66.5798 41.7099 66.5376 41.6082 66.4626 41.5332C66.3876 41.4581 66.2859 41.416 66.1798 41.416ZM69.3798 41.416C69.2737 41.416 69.172 41.4581 69.0969 41.5332C69.0219 41.6082 68.9798 41.7099 68.9798 41.816V46.616C68.9798 46.7221 69.0219 46.8238 69.0969 46.8988C69.172 46.9739 69.2737 47.016 69.3798 47.016C69.4859 47.016 69.5876 46.9739 69.6626 46.8988C69.7376 46.8238 69.7798 46.7221 69.7798 46.616V41.816C69.7798 41.7099 69.7376 41.6082 69.6626 41.5332C69.5876 41.4581 69.4859 41.416 69.3798 41.416ZM71.7798 41.416C71.6737 41.416 71.572 41.4581 71.4969 41.5332C71.4219 41.6082 71.3798 41.7099 71.3798 41.816V46.616C71.3798 46.7221 71.4219 46.8238 71.4969 46.8988C71.572 46.9739 71.6737 47.016 71.7798 47.016C71.8859 47.016 71.9876 46.9739 72.0626 46.8988C72.1376 46.8238 72.1798 46.7221 72.1798 46.616V41.816C72.1798 41.7099 72.1376 41.6082 72.0626 41.5332C71.9876 41.4581 71.8859 41.416 71.7798 41.416ZM74.1798 41.416C74.0737 41.416 73.972 41.4581 73.8969 41.5332C73.8219 41.6082 73.7798 41.7099 73.7798 41.816V46.616C73.7798 46.7221 73.8219 46.8238 73.8969 46.8988C73.972 46.9739 74.0737 47.016 74.1798 47.016C74.2859 47.016 74.3876 46.9739 74.4626 46.8988C74.5376 46.8238 74.5798 46.7221 74.5798 46.616V41.816C74.5798 41.7099 74.5376 41.6082 74.4626 41.5332C74.3876 41.4581 74.2859 41.416 74.1798 41.416ZM77.3798 41.416C77.2737 41.416 77.172 41.4581 77.0969 41.5332C77.0219 41.6082 76.9798 41.7099 76.9798 41.816V46.616C76.9798 46.7221 77.0219 46.8238 77.0969 46.8988C77.172 46.9739 77.2737 47.016 77.3798 47.016C77.4859 47.016 77.5876 46.9739 77.6626 46.8988C77.7376 46.8238 77.7798 46.7221 77.7798 46.616V41.816C77.7798 41.7099 77.7376 41.6082 77.6626 41.5332C77.5876 41.4581 77.4859 41.416 77.3798 41.416ZM79.7798 41.416C79.6737 41.416 79.572 41.4581 79.4969 41.5332C79.4219 41.6082 79.3798 41.7099 79.3798 41.816V46.616C79.3798 46.7221 79.4219 46.8238 79.4969 46.8988C79.572 46.9739 79.6737 47.016 79.7798 47.016C79.8859 47.016 79.9876 46.9739 80.0626 46.8988C80.1376 46.8238 80.1798 46.7221 80.1798 46.616V41.816C80.1798 41.7099 80.1376 41.6082 80.0626 41.5332C79.9876 41.4581 79.8859 41.416 79.7798 41.416ZM82.1798 41.416C82.0737 41.416 81.972 41.4581 81.8969 41.5332C81.8219 41.6082 81.7798 41.7099 81.7798 41.816V46.616C81.7798 46.7221 81.8219 46.8238 81.8969 46.8988C81.972 46.9739 82.0737 47.016 82.1798 47.016C82.2859 47.016 82.3876 46.9739 82.4626 46.8988C82.5376 46.8238 82.5798 46.7221 82.5798 46.616V41.816C82.5798 41.7099 82.5376 41.6082 82.4626 41.5332C82.3876 41.4581 82.2859 41.416 82.1798 41.416ZM41.3798 47.7992C40.7182 47.7992 40.1798 48.3376 40.1798 48.9992C40.1798 49.6608 40.7182 50.1992 41.3798 50.1992C42.0414 50.1992 42.5798 49.6608 42.5798 48.9992C42.5798 48.3376 42.0414 47.7992 41.3798 47.7992ZM50.9798 47.7992C50.3182 47.7992 49.7798 48.3376 49.7798 48.9992C49.7798 49.6608 50.3182 50.1992 50.9798 50.1992C51.6414 50.1992 52.1798 49.6608 52.1798 48.9992C52.1798 48.3376 51.6414 47.7992 50.9798 47.7992ZM41.3798 48.5992C41.5998 48.5992 41.7798 48.7792 41.7798 48.9992C41.7798 49.2192 41.5998 49.3992 41.3798 49.3992C41.2738 49.399 41.1721 49.3568 41.0972 49.2818C41.0222 49.2068 40.98 49.1052 40.9798 48.9992C40.9798 48.7792 41.1598 48.5992 41.3798 48.5992ZM50.9798 48.5992C51.1998 48.5992 51.3798 48.7792 51.3798 48.9992C51.3798 49.2192 51.1998 49.3992 50.9798 49.3992C50.8738 49.399 50.7721 49.3568 50.6972 49.2818C50.6222 49.2068 50.58 49.1052 50.5798 48.9992C50.5798 48.7792 50.7598 48.5992 50.9798 48.5992ZM46.5878 49.4672L50.0222 51.488C50.9212 52.0197 51.6665 52.7761 52.185 53.6828C52.7036 54.5895 52.9774 55.6155 52.9798 56.66V68.5992H51.3798V56.7016C51.3775 55.9111 51.1699 55.1347 50.7774 54.4485C50.3849 53.7623 49.8209 53.1899 49.1406 52.7872L46.783 51.4H46.7814L46.5718 51.2768L46.3654 51.4064L43.8998 52.96C43.249 53.3673 42.7128 53.9338 42.3419 54.606C41.9709 55.2782 41.7775 56.0339 41.7798 56.8016V68.6H40.1798V56.8144C40.1766 55.7994 40.4324 54.8003 40.9229 53.9117C41.4134 53.0231 42.1224 52.2743 42.983 51.736L46.5878 49.4672ZM46.9798 52.444L48.7342 53.4768C49.0654 53.672 49.355 53.92 49.6062 54.1992H46.9798V52.444ZM46.1798 52.4688V54.1992H43.6358C43.843 53.9847 44.0751 53.7957 44.327 53.636L46.1798 52.4688ZM50.1534 54.9848C50.351 55.3664 50.4894 55.7808 50.547 56.2128C50.5638 56.3408 50.5702 56.4688 50.5734 56.5992H46.9798V54.9992H50.0798C50.1054 54.9992 50.1286 54.9896 50.1534 54.9848ZM43.0422 54.9912H43.0438C43.0566 54.992 43.0678 54.9992 43.0798 54.9992H46.1798V56.5992H42.5926C42.6191 56.0361 42.7729 55.4864 43.0422 54.9912ZM42.5798 57.3992H46.1798V58.9992H42.5798V57.3992ZM46.9798 57.3992H50.5798V58.9992H46.9798V57.3992ZM42.5798 59.7992H46.1798V61.3992H42.5798V59.7992ZM46.9798 59.7992H50.5798V61.3992H46.9798V59.7992ZM42.5798 62.1992H46.1798V63.7992H42.5798V62.1992ZM46.9798 62.1992H50.5798V63.7992H46.9798V62.1992ZM42.5798 64.5992H46.1798V66.1992H42.5798V64.5992ZM46.9798 64.5992H50.5798V66.1992H46.9798V64.5992ZM42.5798 66.9992H46.1798V68.5992H42.5798V66.9992ZM46.9798 66.9992H50.5798V68.5992H46.9798V66.9992Z" fill="#292D32" stroke="#292D32" stroke-width="0.5"/>
</svg>
