<svg width="170" height="124" viewBox="0 0 170 124" fill="none" xmlns="http://www.w3.org/2000/svg">
<rect width="170" height="124" fill="white"/>
<g clip-path="url(#clip0_226_3673)">
<path d="M31.73 42H138.27V82H31.73" fill="#004B96"/>
<path d="M87.81 61.84C87.1 61.84 86.58 62.07 86.06 62.31V67.7C86.56 67.75 86.85 67.75 87.32 67.75C89.04 67.75 89.27 66.96 89.27 65.87V63.3C89.27 62.49 89 61.84 87.81 61.84ZM76.42 61.54C75.23 61.54 74.96 62.19 74.96 63V63.45H77.88V63C77.88 62.2 77.61 61.54 76.42 61.54ZM54.36 67.16C54.36 67.8 54.66 68.13 55.33 68.13C56.05 68.13 56.47 67.9 56.99 67.66V66.38H55.43C54.68 66.38 54.36 66.52 54.36 67.16ZM98.89 61.84C97.7 61.84 97.29 62.49 97.29 63.3V66.25C97.29 67.06 97.7 67.71 98.89 67.71C100.08 67.71 100.49 67.06 100.49 66.25V63.3C100.5 62.49 100.08 61.84 98.89 61.84ZM48.52 70.47H45.02V62H43.27V59.08H45.02V57.33C45.02 54.95 46.01 53.53 48.82 53.53H51.16V56.45H49.7C48.61 56.45 48.53 56.86 48.53 57.62V59.08H51.18L50.85 62H48.51V70.47H48.52ZM60.49 70.49H57.57L57.44 69.75C56.11 70.49 54.92 70.61 54.13 70.61C51.99 70.61 50.85 69.18 50.85 67.21C50.85 64.88 52.18 64.05 54.56 64.05H56.98V63.55C56.98 62.36 56.84 62.01 55.01 62.01H52.01L52.3 59.09H55.57C59.59 59.09 60.47 60.36 60.47 63.57V70.49H60.49ZM70.42 62.21C68.6 61.9 68.08 61.83 67.21 61.83C65.64 61.83 65.16 62.18 65.16 63.51V66.03C65.16 67.36 65.63 67.71 67.21 67.71C68.08 67.71 68.61 67.64 70.42 67.33V70.18C68.83 70.54 67.79 70.63 66.91 70.63C63.15 70.63 61.65 68.65 61.65 65.8V63.76C61.65 60.9 63.14 58.92 66.91 58.92C67.79 58.92 68.82 59.01 70.42 59.37V62.21ZM81.39 65.8H74.97V66.04C74.97 67.37 75.44 67.72 77.01 67.72C78.42 67.72 79.28 67.65 81.1 67.34V70.19C79.35 70.55 78.44 70.64 76.72 70.64C72.96 70.64 71.46 68.66 71.46 65.81V63.47C71.46 60.97 72.57 58.93 76.42 58.93C80.28 58.93 81.38 60.95 81.38 63.47V65.8H81.39ZM92.78 65.85C92.78 68.61 91.99 70.62 87.21 70.62C85.48 70.62 84.47 70.47 82.56 70.17V54.41L86.06 53.83V59.35C86.82 59.07 87.8 58.93 88.69 58.93C92.19 58.93 92.78 60.5 92.78 63.02V65.85ZM104 65.91C104 68.29 103.02 70.6 98.9 70.6C94.78 70.6 93.78 68.29 93.78 65.91V63.61C93.78 61.23 94.78 58.92 98.9 58.92C103.02 58.92 104 61.23 104 63.61V65.91ZM115.22 65.91C115.22 68.29 114.24 70.6 110.12 70.6C106 70.6 105 68.29 105 65.91V63.61C105 61.23 106 58.92 110.12 58.92C114.23 58.92 115.22 61.23 115.22 63.61V65.91ZM126.74 70.47H122.94L119.73 65.12V70.47H116.23V54.41L119.73 53.83V64.17L122.94 59.09H126.74L123.23 64.64L126.74 70.47ZM110.11 61.84C108.92 61.84 108.51 62.49 108.51 63.3V66.25C108.51 67.06 108.92 67.71 110.11 67.71C111.3 67.71 111.72 67.06 111.72 66.25V63.3C111.72 62.49 111.3 61.84 110.11 61.84Z" fill="white"/>
</g>
<defs>
<clipPath id="clip0_226_3673">
<rect width="106.54" height="40" fill="white" transform="translate(31.73 42)"/>
</clipPath>
</defs>
</svg>
