<svg width="170" height="124" viewBox="0 0 170 124" fill="none" xmlns="http://www.w3.org/2000/svg">
<rect width="170" height="124" fill="white"/>
<g clip-path="url(#clip0_226_3709)">
<path fill-rule="evenodd" clip-rule="evenodd" d="M18.4375 47H151.562V77H18.4375V47Z" fill="#EE2737" fill-opacity="0.01"/>
<path d="M31.3187 50.2062C38.4438 50.2062 44.2 55.9625 44.2 63.0687C44.2 70.175 38.4438 75.9312 31.3187 75.9312C24.1937 75.9312 18.4375 70.175 18.4375 63.0687C18.4375 55.9625 24.2125 50.2062 31.3187 50.2062ZM63.0438 56.0562H63.1V54.65H66.9438V68.5812C66.9438 72.6312 63.7188 75.4437 59.2 75.4437C56.2375 75.6125 53.3875 74.3375 51.5125 72.05L54.3812 69.6687C55.4688 71.225 57.2875 72.1062 59.2 72.0125C61.45 72.0125 63.1 70.5875 63.1 68.6375V67.6062H63.0438C61.8063 68.8062 60.1375 69.425 58.4125 69.3312C55.6937 69.4062 53.1625 68.0187 51.775 65.6937C50.3875 63.3687 50.35 60.4812 51.7 58.1375C53.05 55.7937 55.5625 54.35 58.2812 54.3875C60.025 54.275 61.75 54.875 63.0438 56.0562ZM26.2563 56.1687C26.05 56.3562 25.9375 56.6375 25.9563 56.9187V60.725C25.9563 61.0812 25.675 61.3812 25.3188 61.4C24.9437 61.3812 24.6625 61.0812 24.6812 60.725C24.6812 59.7125 24.7562 58.6812 24.9437 57.6875C25.0375 57.1625 24.7 56.6562 24.175 56.5437C23.6687 56.4687 23.2 56.8062 23.1062 57.3125C23.1062 57.3312 23.1062 57.3312 23.1062 57.35C22.8812 58.7937 22.7687 60.275 22.825 61.7375C22.8438 63.2 23.5938 64.55 24.8125 65.3562C25.3563 65.6937 25.7125 66.275 25.75 66.9125L25.8438 69.1625C25.8625 69.725 26.3125 70.1937 26.875 70.2125C27.4375 70.1937 27.9062 69.7437 27.9062 69.1625L28 66.9875C28.0375 66.35 28.3938 65.7687 28.9563 65.45C30.1375 64.7187 30.8687 63.4437 30.925 62.0562C31 60.4812 30.9062 58.9062 30.6625 57.35C30.5875 56.8437 30.1187 56.4687 29.6125 56.5437C29.5938 56.5437 29.5938 56.5437 29.575 56.5437C29.0688 56.6562 28.7312 57.1625 28.825 57.6875C28.9937 58.7 29.0875 59.7125 29.0875 60.725C29.1062 61.0625 28.8438 61.3812 28.4875 61.4C28.3562 61.4 28.225 61.3812 28.1125 61.3062C27.925 61.175 27.8125 60.9687 27.8125 60.725V56.9562C27.8313 56.4687 27.5125 56.0375 27.0438 55.925C26.7625 55.9062 26.4812 55.9812 26.2563 56.1687ZM36.1562 55.925C33.7 55.925 32.4812 59.6375 32.4812 62.075C32.5 63.3312 33.1375 64.5125 34.1875 65.225C34.675 65.5437 34.975 66.0687 35.0125 66.65L35.125 69.1625C35.1062 69.725 35.575 70.1937 36.1375 70.2125C36.325 70.2125 36.5125 70.175 36.6812 70.0625C37 69.8937 37.1875 69.5375 37.1875 69.1625L37.3 66.65C37.3375 66.0687 37.6375 65.5437 38.125 65.225C39.175 64.5125 39.8125 63.35 39.8312 62.0937C39.8312 59.6375 38.6125 55.925 36.1562 55.925ZM76.9937 54.2375C81.6812 54.2375 85.075 57.5562 85.075 61.7937C85.075 66.0312 81.6625 69.35 76.9937 69.35C74.1625 69.5375 71.4813 68.1312 70 65.7125C68.5375 63.2937 68.5375 60.275 70 57.8562C71.4813 55.4562 74.1812 54.0687 76.9937 54.2375ZM106.544 54.2375C111.213 54.2375 114.625 57.5562 114.625 61.7937C114.625 66.0312 111.213 69.35 106.544 69.35C103.713 69.5375 101.031 68.1312 99.55 65.7125C98.0875 63.2937 98.0875 60.275 99.55 57.8562C101.012 55.4562 103.713 54.05 106.544 54.2375ZM124.3 54.2375C128.987 54.2375 132.381 57.5562 132.381 61.7937C132.381 66.0312 128.969 69.35 124.3 69.35C121.469 69.5375 118.788 68.1312 117.325 65.7125C115.863 63.2937 115.863 60.275 117.325 57.8562C118.788 55.4562 121.487 54.0687 124.3 54.2375ZM150.344 49.25V68.9562H146.631V67.55H146.575C145.3 68.8062 143.538 69.4812 141.738 69.3687C139.675 69.4812 137.669 68.7312 136.206 67.2875C134.725 65.8625 133.919 63.875 133.975 61.8125C133.938 59.7875 134.744 57.8375 136.188 56.4125C137.631 54.9875 139.6 54.2 141.625 54.2562C143.312 54.1812 144.963 54.725 146.275 55.7937H146.331V49.25C146.35 49.25 150.344 49.25 150.344 49.25ZM97.4125 49.1375V52.5687H94.1312C93.3438 52.5687 92.95 52.9437 92.95 53.675V54.65H98.3125V58.0437H92.95V68.9562H88.9563V58.0437H85.525V54.65H88.9563V53.1875C88.9563 50.675 90.7188 49.1375 93.6625 49.1375H97.4125ZM76.9937 57.7625C74.7625 57.7812 72.9625 59.6 72.9625 61.8312C72.9813 64.0625 74.8 65.8625 77.0312 65.8625C79.2625 65.8625 81.0812 64.0437 81.0812 61.8125C81.1375 60.725 80.7062 59.6562 79.9375 58.8875C79.1687 58.1 78.1 57.6875 76.9937 57.7625ZM106.544 57.7625C104.312 57.7812 102.512 59.6 102.512 61.8312C102.531 64.0625 104.35 65.8625 106.581 65.8625C108.812 65.8625 110.631 64.0437 110.631 61.8125C110.688 60.725 110.256 59.6562 109.488 58.8875C108.7 58.1 107.631 57.6875 106.544 57.7625ZM124.3 57.7625C122.069 57.7812 120.269 59.6 120.269 61.8312C120.288 64.0625 122.106 65.8625 124.338 65.8625C126.569 65.8625 128.387 64.0437 128.387 61.8125C128.444 60.725 128.031 59.6562 127.244 58.8875C126.475 58.1 125.406 57.6875 124.3 57.7625ZM59.05 57.8937C56.4437 57.8937 54.7188 59.4687 54.7188 61.8125C54.6437 62.9187 55.0562 64.0062 55.8625 64.7937C56.6687 65.5625 57.775 65.9562 58.8812 65.8437C61.1312 65.8437 62.9312 64.4375 62.9312 62.6937V60.9875C62.9312 59.375 61.0938 57.8937 59.05 57.8937ZM139.225 58.8312C138.419 59.6 137.969 60.6875 137.987 61.7937C137.987 64.25 139.656 65.825 142.263 65.825C144.531 65.825 146.35 64.4187 146.35 62.675V60.8562C146.35 59.15 144.456 57.7437 142.263 57.7437C141.138 57.6687 140.05 58.0625 139.225 58.8312Z" fill="#EE2737"/>
</g>
<defs>
<clipPath id="clip0_226_3709">
<rect width="133.125" height="30" fill="white" transform="translate(18.4375 47)"/>
</clipPath>
</defs>
</svg>
