<svg width="170" height="124" viewBox="0 0 170 124" fill="none" xmlns="http://www.w3.org/2000/svg">
<rect width="170" height="124" fill="white"/>
<path fill-rule="evenodd" clip-rule="evenodd" d="M33.2324 61.8443H39.4588V64.1024H37.5328V67.8936H44.5506V64.1024H42.5692V61.8443H48.9063V64.1024H46.8695V75.249H48.9063V77.4572H42.5692V75.249H44.5506V70.1018H37.5328V75.249H39.4588V77.4572H33.2324V75.249H35.2138V64.1024H33.2324V61.8443Z" fill="#EC6608"/>
<path fill-rule="evenodd" clip-rule="evenodd" d="M107.694 61.8443H120.479V66.2H118.332V64.1024H112.105V67.8382H117.424V70.0465H112.105V75.249H118.276V72.2548H120.54V77.4572H107.694V75.249H109.786V64.1024H107.694V61.8443Z" fill="#EC6608"/>
<path fill-rule="evenodd" clip-rule="evenodd" d="M51.7896 61.8443H64.6352V66.2H62.4269V64.1024H56.2061V67.8382H61.5248V70.0465H56.2061V75.249H62.3716V72.2548H64.6352V77.4572H51.7896V75.249H53.8871V64.1024H51.7896V61.8443Z" fill="#EC6608"/>
<path fill-rule="evenodd" clip-rule="evenodd" d="M111.43 59.7467H116.013L117.142 61.1082H112.675L111.43 59.7467Z" fill="#EC6608"/>
<path fill-rule="evenodd" clip-rule="evenodd" d="M133.043 68.519C131.46 68.1205 130.38 68.1813 128.742 67.6722C127.325 67.163 127.043 66.3162 127.043 65.7461C127.043 65.1263 127.663 63.5987 129.927 63.5987C132.19 63.5987 133.718 65.1263 133.773 66.4269H135.981V61.8443H133.834V62.8626L133.945 63.1449C133.889 63.1449 133.834 62.9733 133.607 62.8073C133.607 62.8073 133.607 62.8073 133.607 62.752C132.987 62.1874 131.681 61.5067 129.761 61.5067C127.442 61.5067 124.724 62.9789 124.724 65.7517C124.724 68.4691 126.65 69.3713 128.344 69.8251C129.982 70.2789 130.834 70.2789 132.246 70.6719C133.602 71.0095 134.509 71.8618 134.509 73.1071C134.509 74.2361 133.773 75.7637 130.829 75.7637C127.945 75.7637 126.755 74.1808 126.418 71.9725H124.326V77.4628H126.473V76.4444L126.418 76.1622C126.418 76.1622 126.473 76.3337 126.755 76.4998V76.5551C127.829 77.4019 129.301 77.972 131.111 77.972C133.203 77.972 136.767 76.8983 136.767 73.1624C136.778 70.4394 135.362 69.1997 133.043 68.519Z" fill="#EC6608"/>
<path fill-rule="evenodd" clip-rule="evenodd" d="M102.658 75.249V64.1024H104.75V61.8443H99.0933L95.3021 71.0095L95.2468 71.4578L95.1306 71.0095L91.4003 61.8443H85.6831V64.1024H87.7752V75.249H85.6831V77.4572H92.0755V75.249H90.0941V65.0101V64.3293L90.2657 64.8385L94.6214 75.249H95.8667L100.222 64.8385L100.339 64.274L100.394 64.8994V75.249H98.4126V77.4572H104.75V75.249H102.658Z" fill="#EC6608"/>
<path fill-rule="evenodd" clip-rule="evenodd" d="M57.0532 55.8449C57.0532 55.8449 56.9978 55.8449 54.9058 55.8449V55.2803H56.4886C56.544 55.391 56.8816 55.6733 57.0532 55.8449Z" fill="#EC6608"/>
<path fill-rule="evenodd" clip-rule="evenodd" d="M111.087 55.8449C111.087 55.6179 111.314 55.391 111.596 55.2803H112.725V55.8449H111.087Z" fill="#EC6608"/>
<path fill-rule="evenodd" clip-rule="evenodd" d="M75.5551 56.2378C74.5921 56.6916 73.4077 56.6363 72.4447 56.2378H61.1819C60.1082 56.6916 58.863 56.6916 57.7893 56.2378H54.9058V57.3115H112.731V56.2378H75.5551Z" fill="#EC6608"/>
<path fill-rule="evenodd" clip-rule="evenodd" d="M61.8628 55.8449C62.0344 55.7342 62.4273 55.3357 62.4827 55.2803H71.1996C71.3103 55.4519 71.5981 55.7342 71.7641 55.8449H61.8628Z" fill="#EC6608"/>
<path fill-rule="evenodd" clip-rule="evenodd" d="M74.0278 55.5072C75.4999 55.5072 76.7452 54.262 76.7452 52.7898C76.7452 51.2623 75.4999 50.017 74.0278 50.017C72.5002 50.017 71.255 51.2623 71.255 52.7898C71.255 54.262 72.5002 55.5072 74.0278 55.5072V56.0718C72.1626 56.0718 70.6904 54.5996 70.6904 52.7898C70.6904 50.9246 72.1626 49.4525 74.0278 49.4525C75.8376 49.4525 77.3097 50.9246 77.3097 52.7898C77.3097 54.5996 75.8376 56.0718 74.0278 56.0718V55.5072Z" fill="#EC6608"/>
<path fill-rule="evenodd" clip-rule="evenodd" d="M63.2187 52.3359C63.2187 50.2992 61.5196 48.6001 59.4829 48.6001C57.3908 48.6001 55.7471 50.2992 55.7471 52.3359C55.7471 54.428 57.3853 56.0718 59.4829 56.0718C61.5251 56.0718 63.2187 54.428 63.2187 52.3359H62.5988C62.5988 54.0904 61.182 55.5072 59.4884 55.5072C57.734 55.5072 56.3227 54.0904 56.3227 52.3359C56.3227 50.5815 57.7395 49.2255 59.4884 49.2255C61.1875 49.2255 62.5988 50.5815 62.5988 52.3359H63.2187Z" fill="#EC6608"/>
<path fill-rule="evenodd" clip-rule="evenodd" d="M75.7821 54.6549L74.6531 53.3543V53.299C74.7084 53.2436 74.7084 53.1883 74.7638 53.1274L76.4629 53.5812C76.5182 53.5812 76.6345 53.6366 76.6345 53.6919C76.6345 53.6366 76.6898 53.4096 76.7451 53.2934C76.6898 53.3488 76.5736 53.3488 76.4629 53.3488L74.88 52.8949C74.8247 52.8949 74.8247 52.8396 74.8247 52.8396C74.8247 52.7842 74.8247 52.668 74.8247 52.6127V52.5573L76.4629 51.9375C76.4629 51.9375 76.6345 51.9375 76.6345 51.9928C76.6345 51.9375 76.5238 51.6552 76.5238 51.5943C76.5238 51.6497 76.4131 51.7659 76.3522 51.7659L76.4629 51.7105L74.7638 52.3304C74.7638 52.3858 74.7638 52.3304 74.7084 52.3304C74.7084 52.2751 74.6531 52.2197 74.5977 52.2197C74.5977 52.1644 74.5424 52.109 74.5977 52.109L75.5054 50.6922C75.5607 50.6368 75.677 50.5815 75.7323 50.5815C75.677 50.5815 75.4501 50.4099 75.3338 50.3546C75.3892 50.3546 75.3892 50.5261 75.3338 50.5815L74.4262 51.9983C74.3708 51.9983 74.3708 51.9983 74.3155 51.9983C74.3155 51.9983 74.2048 51.943 74.1439 51.943C74.1439 51.943 74.0886 51.943 74.0886 51.8876L74.0332 50.2494C74.0332 50.1387 74.0332 50.0225 74.1439 50.0225C74.0332 50.0225 73.8063 50.0225 73.6901 50.0225C73.7454 50.0225 73.8008 50.1941 73.8008 50.2494L73.8561 51.8876C73.8561 51.943 73.8008 51.943 73.8008 51.943C73.8008 51.943 73.6901 51.9983 73.6292 52.0537C73.6292 52.0537 73.5738 52.0537 73.5738 51.9983L72.5001 50.6977C72.4448 50.6424 72.4448 50.5261 72.4448 50.4708C72.3895 50.5261 72.1625 50.6977 72.1072 50.7531C72.1625 50.7531 72.2788 50.8084 72.3341 50.8638L73.4078 52.1644V52.2197C73.3525 52.2197 73.2971 52.3304 73.2971 52.3913C73.2971 52.3913 73.2418 52.4466 73.1864 52.4466L71.6036 51.9928C71.4929 51.9375 71.432 51.8821 71.432 51.8212C71.432 51.8766 71.3213 52.1588 71.3213 52.2197C71.3213 52.2197 71.4929 52.1644 71.5482 52.2197L73.1311 52.6182C73.1864 52.6182 73.1864 52.6736 73.1864 52.6736C73.1864 52.7289 73.1864 52.8451 73.1864 52.9005V52.9558L71.6036 53.6366C71.5482 53.6366 71.432 53.6919 71.432 53.6366C71.432 53.6919 71.4873 53.9188 71.5427 54.0351C71.5427 53.9797 71.6534 53.8635 71.7142 53.8635L73.2418 53.1827C73.2971 53.1827 73.2971 53.2381 73.2971 53.2381C73.3525 53.2381 73.4078 53.2934 73.4078 53.3488C73.4632 53.3488 73.4632 53.4041 73.4632 53.4041L72.5001 54.821C72.4448 54.8763 72.3895 54.9316 72.3286 54.9316C72.3839 54.987 72.6108 55.1586 72.6662 55.1586C72.6108 55.1586 72.6662 54.987 72.6662 54.9316L73.6292 53.5757C73.6292 53.5203 73.6845 53.5203 73.6845 53.5203C73.7399 53.5757 73.7952 53.5757 73.8561 53.5757C73.9115 53.5757 73.9115 53.5757 73.9115 53.631L74.0221 55.3301C74.0221 55.3855 73.9668 55.5017 73.9115 55.5017C73.9668 55.5017 74.2491 55.5017 74.3653 55.5017C74.2546 55.5017 74.2546 55.391 74.2546 55.2748L74.1439 53.6366C74.1439 53.5812 74.1993 53.5812 74.1993 53.5812C74.2546 53.5812 74.3708 53.5259 74.4262 53.4705C74.4262 53.4705 74.4815 53.4705 74.4815 53.5259L75.6106 54.7711C75.6106 54.8265 75.6659 54.9427 75.6659 54.9981C75.7213 54.9427 75.8928 54.7711 75.9482 54.7158C75.8928 54.7711 75.7821 54.6549 75.7821 54.6549Z" fill="#EC6608"/>
<path fill-rule="evenodd" clip-rule="evenodd" d="M59.3723 50.1885C60.9552 50.1885 62.5436 50.3601 63.4457 50.6424C63.5564 50.6424 63.5564 50.7531 63.4457 50.8139C62.4827 51.0409 60.8998 51.2124 59.4276 51.2124C57.9554 51.2678 56.3726 51.2124 55.3542 50.9855C55.2435 50.9855 55.2435 50.8748 55.3542 50.8748C56.2619 50.5261 57.7894 50.2439 59.3723 50.1885V49.9063C57.6732 49.9616 55.9796 50.3601 54.5628 50.8693C54.3912 50.9246 54.3912 51.0409 54.5628 51.0409C56.1456 51.4394 57.7894 51.4947 59.4276 51.4393C61.0105 51.384 62.7096 51.2678 64.2371 50.8195C64.4641 50.7641 64.4087 50.6479 64.2925 50.6479C62.8203 50.1941 61.1212 49.9118 59.3723 49.9118V50.1885Z" fill="#EC6608"/>
<path fill-rule="evenodd" clip-rule="evenodd" d="M76.1807 49.1702C75.7822 49.2809 75.107 49.5078 74.7639 49.5078C74.4816 49.5078 73.0648 49.4525 72.1017 49.5078C70.8011 49.5631 70.6849 49.7347 70.6296 49.6185C70.3473 49.1647 70.1204 48.4894 69.6665 48.091C67.0044 48.5448 64.4032 48.1463 62.0289 47.2995V46.9619C62.2004 47.0173 62.3111 47.0173 62.4274 47.0173C62.0289 46.4527 61.3537 46.2812 60.9552 45.6613C60.7283 45.4897 60.6729 45.1521 60.446 44.9805C60.5013 45.6004 59.9922 46.0542 59.9368 46.5634C60.2744 46.6741 60.7283 46.6741 60.8998 46.6188C61.1267 46.5634 61.409 46.6188 61.5197 46.7903C61.6913 46.8457 61.802 46.9619 62.0289 46.9619V47.2995C61.7466 47.2442 61.6913 47.1888 61.4643 47.0726C61.1821 47.1833 60.9552 47.1279 60.8445 47.0173C60.7891 46.9619 60.2246 46.9619 59.9977 46.9619C59.2616 46.9619 58.4702 47.2442 58.0717 47.8696C57.9001 48.2072 57.961 48.6057 58.127 48.8879C58.2377 49.0595 58.7469 49.7956 59.09 50.017L58.6362 50.1277C57.9554 49.5078 57.4463 48.9377 57.5625 48.2016C57.9001 46.6188 59.3723 46.8457 59.7708 46.1649C60.053 45.5451 60.1693 43.7297 59.8261 43.2206C58.8631 42.8221 57.6787 42.3129 57.4518 41.1838C57.3965 40.9016 57.5071 40.564 57.7894 40.5031C58.2986 40.3924 58.6362 40.6747 59.0347 40.8407C59.2063 40.73 58.8631 40.3315 59.2616 40.3315C59.7708 40.3315 60.1084 41.3499 60.28 41.4052L60.2246 41.8037C59.887 41.693 58.6417 41.0123 58.5255 40.9569C58.2986 40.8462 58.0163 40.6747 57.8448 40.9016C57.6178 41.1838 57.9001 41.5215 58.0717 41.8092C60.7338 44.5821 65.1448 41.6377 68.0283 43.619C68.0837 43.4475 68.0283 43.3921 67.9176 43.3368C65.9363 41.4716 62.7705 42.4291 60.2246 41.8092L60.28 41.4108C63.4512 42.2022 67.6354 40.9016 69.2791 44.5212C70.3528 46.0487 71.4874 48.4839 73.8064 48.5393C75.6715 48.5946 76.9168 47.8585 77.8245 46.5025C79.0697 44.2389 79.8058 41.6377 82.0141 40.1101C82.241 39.9995 82.3517 40.1101 82.241 40.1655C81.1673 41.2392 80.2043 42.656 79.6951 43.846C80.5419 47.0726 82.4126 46.3919 82.8664 46.3365C82.7557 45.1466 82.8664 41.6377 85.4123 40.7909C85.9768 40.3371 88.0136 39.0364 90.6757 40.171C88.6943 42.0362 87.5044 44.6983 87.1114 46.5634L84.9031 47.1833C85.0747 46.8457 85.0747 46.2756 85.0138 45.6558C84.7869 45.7664 84.56 45.938 84.0508 46.2203C83.8239 46.2756 83.9955 45.938 83.9955 45.938C83.9955 45.8273 84.56 45.6004 85.0138 45.3181C84.8423 44.0175 84.7316 42.3184 85.8053 41.2447C83.597 41.9808 84.2224 46.6188 84.4493 47.1833C83.8294 47.4656 82.9771 47.4656 82.9771 47.4656L82.8664 46.6741C81.9034 47.0117 80.2652 46.7848 79.5291 44.2389C78.7266 45.8882 78.0458 48.4894 76.1807 49.1702Z" fill="#EC6608"/>
<path fill-rule="evenodd" clip-rule="evenodd" d="M110.694 42.2631C110.583 42.1524 110.522 42.0915 110.412 42.0915C110.356 42.0362 110.412 41.9808 110.467 41.9808C110.522 41.9255 110.639 41.9808 110.694 42.0915C110.749 42.1524 110.749 42.2631 110.694 42.2631Z" fill="#EC6608"/>
<path fill-rule="evenodd" clip-rule="evenodd" d="M60.0527 53.1827L61.2426 54.5387C61.3533 54.6494 61.3533 54.821 61.298 54.8763C61.4695 54.821 61.6965 54.5387 61.8072 54.4225C61.7518 54.4778 61.5249 54.4778 61.4695 54.3671L60.2243 53.0112C60.2243 52.9558 60.2243 52.9558 60.2243 52.9005C60.2243 52.9005 60.2243 52.9005 60.2796 52.8451C60.2796 52.7898 60.335 52.7898 60.335 52.7898L62.0894 53.4097C62.261 53.5203 62.3163 53.6366 62.3163 53.6919C62.3717 53.5812 62.4879 53.2381 62.5432 53.1274C62.4879 53.1827 62.3163 53.2381 62.2056 53.1827L60.4512 52.5629C60.3958 52.5629 60.3958 52.5629 60.3958 52.5075C60.3958 52.4522 60.3958 52.4522 60.3958 52.3968C60.3958 52.3415 60.4512 52.3415 60.4512 52.3415L62.261 52.0592C62.4879 52.0039 62.5986 52.1146 62.5986 52.1699C62.5986 52.0592 62.5432 51.6607 62.5432 51.55C62.5432 51.6054 62.4326 51.777 62.2056 51.8323L60.4512 52.1146C60.3958 52.1146 60.3958 52.0592 60.3958 52.0592C60.3405 52.0039 60.3405 51.9485 60.2852 51.8877V51.8323L61.702 50.6424C61.8736 50.5317 62.0396 50.5317 62.1005 50.587C61.9898 50.4763 61.7629 50.1886 61.6467 50.0779C61.702 50.1332 61.6467 50.3048 61.536 50.4763L60.18 51.6054C60.1247 51.6607 60.1247 51.6607 60.1247 51.6054C60.0693 51.6054 60.014 51.6054 59.9531 51.55C59.9531 51.55 59.8977 51.4947 59.9531 51.4947L60.573 49.7403C60.6283 49.5687 60.7999 49.5133 60.8552 49.5133C60.7445 49.458 60.346 49.2864 60.2353 49.2864C60.2907 49.2864 60.4069 49.5133 60.346 49.6849L59.7151 51.3729C59.7151 51.4283 59.6598 51.4283 59.6598 51.4283C59.6044 51.4283 59.5491 51.4283 59.4882 51.4283L59.4328 51.3729L59.0952 49.5631C59.0952 49.3362 59.2059 49.2255 59.2059 49.2255C59.0952 49.2255 58.7521 49.2809 58.586 49.3362C58.6414 49.3362 58.813 49.4469 58.8683 49.6185L59.2059 51.3729C59.2059 51.4283 59.2059 51.4283 59.1506 51.4836C59.0952 51.4836 59.0399 51.539 58.979 51.539H58.9237L57.6784 50.183C57.5677 50.0114 57.5677 49.8454 57.623 49.8454C57.5123 49.9008 57.2246 50.1277 57.1692 50.2439C57.2246 50.2439 57.3961 50.2439 57.5068 50.3546L58.7521 51.7106V51.7659C58.6967 51.8212 58.6967 51.8212 58.6414 51.8766C58.6414 51.8766 58.6414 51.8766 58.586 51.8766L56.8869 51.2567C56.7154 51.2014 56.6047 51.0298 56.66 50.9745C56.5493 51.146 56.4885 51.4836 56.4331 51.5943C56.4885 51.539 56.66 51.4836 56.8316 51.539L58.5307 52.1035C58.5307 52.1588 58.5307 52.1588 58.5307 52.1588C58.5307 52.2142 58.5307 52.2695 58.5307 52.3304C58.5307 52.3858 58.5307 52.3858 58.5307 52.3858L56.7209 52.7234C56.5493 52.7234 56.3833 52.6127 56.3833 52.5518C56.3833 52.7234 56.4386 53.1163 56.494 53.2326C56.494 53.1772 56.5493 53.0056 56.7763 52.9503L58.5307 52.6127C58.5307 52.6127 58.586 52.6127 58.586 52.668C58.586 52.7234 58.586 52.7234 58.6414 52.7787C58.6414 52.8341 58.6414 52.8341 58.6414 52.8341L57.2245 53.9631C57.053 54.1347 56.8869 54.0738 56.8869 54.0185C56.8869 54.19 57.1692 54.4723 57.2245 54.5276C57.2245 54.4723 57.2246 54.3007 57.3352 54.19L58.8074 53.061C58.8074 53.0056 58.8074 53.0056 58.8628 53.061C58.8628 53.061 58.9181 53.1163 58.9735 53.1717C59.0288 53.1717 59.0288 53.1717 59.0288 53.227L58.4089 54.9261C58.3536 55.0977 58.182 55.2084 58.1267 55.153C58.2374 55.2084 58.5805 55.38 58.7465 55.38C58.6359 55.38 58.575 55.2084 58.6359 55.0423L59.2557 53.2879C59.2557 53.2879 59.2557 53.2326 59.3111 53.2326C59.3664 53.2879 59.4218 53.2879 59.4826 53.2879C59.4826 53.2879 59.538 53.2879 59.538 53.3432L59.8756 55.0977C59.8756 55.3246 59.7649 55.4353 59.704 55.4962C59.8756 55.4962 60.2132 55.3855 60.3239 55.3246C60.2686 55.38 60.097 55.2139 60.097 55.0977L59.7594 53.2879C59.7594 53.2325 59.7594 53.2326 59.7594 53.2326C59.8147 53.2326 59.8701 53.1772 59.9309 53.1772C59.9974 53.1274 59.9974 53.1274 60.0527 53.1827Z" fill="#EC6608"/>
<path fill-rule="evenodd" clip-rule="evenodd" d="M109.902 42.49C109.847 42.4346 109.902 42.3793 109.902 42.3184C109.958 42.1468 110.013 42.1469 110.013 41.9808C109.731 41.7539 109.675 41.3001 109.841 41.1894C110.013 41.0178 110.578 41.2447 110.578 41.2447C111.087 40.8462 111.258 40.564 111.541 40.3979C111.939 40.3979 112.731 41.134 112.731 41.5879C112.62 41.7594 112.332 42.0417 111.884 42.6062C112.055 43.0047 112.055 43.287 111.773 43.5139C111.718 43.5139 111.601 43.5139 111.491 43.4032C111.546 43.9677 112.172 44.3109 112.398 44.7592C112.398 45.6668 113.361 46.7959 112.288 47.532C112.061 47.6427 111.834 47.8142 111.723 48.0411C111.895 48.9488 112.232 49.9063 112.404 50.8693L111.33 50.9246C111.22 51.2622 110.876 51.8876 110.993 52.2253C110.993 52.2253 110.937 52.1699 111.048 52.2253C111.22 52.4522 111.275 54.3173 111.22 54.4889C111.22 54.7158 111.391 54.7158 111.275 55.1088C111.164 55.1641 110.71 55.4464 110.655 55.6179C110.373 55.9002 109.581 55.9555 109.581 55.8448C109.581 55.5626 110.146 55.225 110.262 54.8818C110.373 53.5259 110.262 52.1644 109.526 51.0907C109.244 50.9191 109.017 51.3729 108.845 51.5999C109.128 52.4466 109.637 53.3543 109.581 54.3173C109.581 54.5996 109.919 54.9981 109.753 55.391L108.845 55.8448H105.563C105.453 55.6733 105.226 55.5072 105.281 55.2803H108.225C108.225 55.1696 108.508 55.225 108.79 54.7711C108.79 53.4152 107.373 51.4338 107.6 50.7531C107.882 49.9063 108.281 49.2255 108.729 48.091L108.956 48.0356C108.447 49.7347 107.711 50.5815 107.827 51.0907C107.882 51.3729 107.998 51.5999 108.165 51.9375L108.275 52.2751C108.331 52.4466 108.502 52.8396 108.613 52.9558C108.784 52.9558 108.895 52.8451 109.011 52.7842C109.011 52.5573 108.84 52.2751 108.729 52.1035L108.275 52.2751L108.165 51.9375C108.502 51.9375 108.729 51.7105 108.447 51.539C109.238 51.1405 108.275 51.2567 108.557 51.0851C109.011 50.8582 109.238 50.0114 109.294 49.5023C109.294 49.3916 109.349 49.3307 109.465 49.3307C109.803 50.2384 109.803 51.4227 110.373 52.2751V52.5573C110.317 52.7842 110.373 53.0665 110.483 53.2381C110.993 53.2934 110.937 53.1827 110.821 52.5573C110.71 52.5573 110.483 52.502 110.367 52.5573V52.2751C110.423 52.2197 110.65 52.2751 110.705 52.2197C110.533 51.9375 110.533 51.7105 110.533 51.4283C110.533 51.2567 110.644 50.9191 110.76 51.6552C110.932 51.7105 111.214 50.3546 111.269 49.9007C110.196 50.1277 111.269 48.8824 110.478 48.827L110.876 48.1463C110.876 47.9194 110.705 47.7478 110.423 47.864L110.196 47.5818C110.024 47.5264 109.858 47.2442 109.631 47.0726C109.46 47.2442 109.177 47.5818 109.122 47.8087C109.067 47.864 109.233 47.9194 109.294 47.864C109.465 47.6925 109.576 48.0356 109.858 47.9747C109.969 47.864 110.312 47.8032 110.196 47.5762L110.423 47.8585C110.196 47.9692 110.196 48.3677 110.196 48.6499C109.797 49.386 109.969 48.2515 109.515 48.2515C109.233 48.423 109.116 47.9692 108.95 48.0245L108.724 48.0799C108.724 47.6814 108.779 47.2331 108.724 46.7793C109.061 44.8532 109.46 44.9141 109.515 44.3441C109.515 44.1171 110.362 43.6633 110.306 43.4364C110.362 43.4364 110.478 43.608 110.478 43.6633C110.423 43.9456 109.858 43.9456 109.913 44.571C110.251 43.9511 111.214 44.0065 111.269 43.2704C111.098 42.8165 111.496 43.0988 111.496 42.6505C111.386 42.5398 111.042 42.1967 110.987 42.0306C110.932 41.9753 111.159 41.6321 110.367 41.6321C110.312 41.6875 110.257 42.0306 110.14 42.1967C110.085 42.252 109.969 42.3682 110.03 42.4236C110.03 42.4789 110.14 42.5343 110.14 42.7612C110.085 42.9881 110.14 43.0988 110.251 43.215C110.705 43.4419 111.042 43.215 110.533 43.4973C110.533 43.5526 110.533 43.608 110.478 43.6688C110.478 43.6135 110.306 43.3866 110.251 43.3312C110.196 43.3312 109.913 43.1597 109.969 42.9328C110.013 42.7169 110.013 42.6062 109.902 42.49Z" fill="#EC6608"/>
<path fill-rule="evenodd" clip-rule="evenodd" d="M94.6824 40.3426C94.7377 40.7411 94.5108 41.0233 94.5108 41.4163C94.9093 42.3793 94.5108 43.1154 94.6215 44.0175C94.1676 43.7353 94.0569 42.9992 93.8854 42.2077C93.7747 41.527 93.9407 41.3001 93.9961 40.5695L94.6824 40.3426Z" fill="#EC6608"/>
<path fill-rule="evenodd" clip-rule="evenodd" d="M93.4924 40.6248C93.4371 41.8148 93.2655 42.3793 94.1123 44.2444C91.9649 45.1521 90.2104 45.772 87.6646 46.5081C87.9468 44.6983 89.7013 41.2447 91.1735 40.2817C92.4187 40.6248 93.4924 40.6248 93.4924 40.6248Z" fill="#EC6608"/>
<path fill-rule="evenodd" clip-rule="evenodd" d="M87.9468 53.9188C87.3823 54.0904 87.3823 54.428 87.7199 54.7656C87.9468 54.9372 88.1737 55.2194 88.1737 55.2748H84.5541C84.5541 55.4464 84.7257 55.5571 84.8364 55.8393H104.866C104.977 55.5571 104.639 55.2194 104.528 54.8763C103.111 54.3671 103.111 53.0665 103.056 51.5943C103.056 51.539 102.945 51.3674 102.945 51.0851C102.774 50.8582 101.816 48.5392 102.265 46.6741L102.602 46.0542C102.885 45.6558 102.547 45.4344 102.774 44.9805L106.964 44.1891C107.019 44.1338 107.019 43.9622 106.908 43.9068C106.908 43.8515 106.964 43.9068 106.908 43.9068L102.835 44.6429C103.062 43.6246 102.154 43.287 102.552 42.4346C103.117 43.0545 104.645 44.1338 105.436 44.2998L105.834 44.2444C104.816 43.7906 103.006 42.7169 101.988 41.3001C101.877 41.3001 101.761 41.1894 101.65 41.1285C101.65 41.2392 101.933 41.5823 101.877 41.6377C101.877 41.6377 101.197 42.0915 99.9512 41.527C99.5527 42.3184 95.1417 44.2998 95.1417 44.2998C95.3133 45.5451 95.8778 46.3365 96.4977 47.0172C96.3261 46.9066 96.553 47.1279 96.4977 47.0172C97.4053 47.7533 98.479 48.091 99.669 48.3179C99.8959 48.9986 100.743 51.2014 100.798 51.5445C100.909 51.8821 101.08 51.8821 101.08 51.8821C101.191 51.9928 101.589 52.7289 101.589 53.0112L101.7 54.2011C101.755 54.4834 102.099 54.2564 102.154 54.5387L101.982 55.2748H102.829C102.375 54.8763 102.658 54.2011 102.093 53.9188C102.038 53.2381 101.982 52.7289 101.695 52.4466C101.468 51.7659 100.732 49.9561 100.278 48.3179L100.56 47.9194C99.3148 48.257 98.3517 47.8087 97.2227 47.1833C96.3759 46.7848 96.8851 47.1279 97.1674 46.9564C98.5233 47.5762 99.2041 47.4102 100.222 47.294C100.333 47.4655 100.56 47.6316 100.56 47.9138L100.278 48.3123C100.56 48.0301 100.787 48.2016 100.959 48.9931C101.185 49.6738 101.412 50.183 101.578 50.7475C101.805 51.3121 101.977 52.0482 102.143 52.4466C102.143 52.4466 102.314 52.4466 102.425 52.6736C102.824 53.9188 102.934 54.0904 102.879 54.6549C102.99 55.1088 103.615 54.7103 103.56 55.2748H88.6774C88.9043 54.3671 88.3951 53.5757 88.6774 52.7289C88.1128 51.8212 86.696 51.146 86.9229 49.9007C87.6037 48.9377 89.8064 47.9747 89.2972 46.8457C91.3339 45.8273 92.3523 47.5264 94.2174 47.3549C94.8982 47.3549 95.6343 47.2442 96.2542 47.0726C95.4627 46.4527 94.782 45.4897 94.389 44.6374C90.4263 46.2756 86.5798 47.5818 82.3348 48.4286L81.9972 48.3179C81.5987 48.3732 75.1509 49.8454 75.3779 50.1277C72.9427 50.2992 70.1145 51.3176 69.4946 51.6552C69.2124 51.8268 69.157 51.9375 69.4946 52.0537C72.0959 52.7344 74.2488 52.2253 78.2669 50.6977L77.9846 50.4708C77.7577 50.6424 74.4757 51.7714 73.1751 51.943C71.8191 52.1146 70.6292 52.0537 70.0647 51.8876C69.8931 51.8323 69.8931 51.8323 70.0093 51.777C72.5552 50.7586 77.4754 49.8509 78.1562 50.7033C78.5547 50.8139 78.8369 51.0409 79.0639 51.3231C79.2908 51.6054 79.7446 51.4947 80.0822 51.4338C80.536 51.3231 80.5914 50.9246 80.5914 50.5262L80.0822 50.4708C79.8553 50.4708 78.9532 50.5815 78.8369 50.6977C78.4993 50.4155 78.1562 50.1332 77.7079 50.017C78.6156 49.6185 80.0822 49.2809 80.8792 49.2255C80.1431 49.7347 80.4807 50.3546 80.0878 50.4708L80.5969 50.5262C80.5969 50.2992 80.5969 50.1277 80.7076 50.017C81.2168 48.7717 83.3642 48.6001 84.4434 48.3179C84.4434 48.3179 83.8789 49.054 83.4804 49.2255C83.3697 50.98 82.7443 52.5075 82.6336 54.262C83.1428 54.262 83.1428 54.8265 83.2535 55.1696C83.0819 55.4519 82.855 55.1696 82.6336 55.225C81.8422 54.8265 82.8052 54.1513 82.1798 53.5868C82.5174 52.1699 83.0266 50.7586 83.0266 49.2864C82.7997 49.2864 82.7443 49.5133 82.6281 49.6849C82.4565 51.1017 82.0636 52.4024 81.7204 53.703C81.8311 53.8137 82.1189 53.9299 82.1189 54.1568C81.6651 54.4391 82.1189 54.9483 81.9474 55.2859H76.8002L76.2911 55.8504H84.1003L84.1556 55.5681C83.0266 54.3228 83.4195 52.5131 83.9841 51.1571L85.34 49.3473C86.4691 48.8935 87.1498 47.5375 88.3398 47.0837C88.3398 47.7035 87.6037 47.9304 87.2107 48.2736C86.7569 49.2366 85.4563 49.3473 85.2847 50.421C85.7939 50.9855 86.53 51.384 87.1498 51.8932C87.7697 52.2917 87.6037 53.1385 88.0575 53.5314C88.1737 53.6366 88.0575 53.8635 87.9468 53.9188Z" fill="#EC6608"/>
<path fill-rule="evenodd" clip-rule="evenodd" d="M96.6032 33.4964C96.3763 33.834 95.9224 34.0609 96.2047 34.6863C95.6402 35.0239 95.8062 35.5331 95.9778 35.8153C95.6955 36.0976 95.524 36.6621 95.9224 37.0053C95.4686 37.5144 96.0331 37.9683 96.2047 38.1343C95.9778 38.6435 96.2047 39.042 96.2047 39.042C96.1494 39.3796 95.524 39.9496 95.297 40.1157C94.9594 40.9625 95.0701 42.7169 95.1255 43.9068C96.7084 43.1154 98.2968 42.3793 99.5365 41.3056C98.4628 40.5695 97.6105 38.8151 96.4261 38.9313C96.3154 37.686 95.8062 35.4777 97.5551 33.2141C97.7821 33.1034 98.1197 33.0425 98.2912 32.9318C97.5551 32.8211 96.5921 33.2694 95.9169 32.8765C95.9225 32.871 96.2656 33.4355 96.6032 33.4964Z" fill="#EC6608"/>
<path fill-rule="evenodd" clip-rule="evenodd" d="M100.394 32.9263C100.394 32.9816 100.621 33.0979 100.621 33.0979C100.621 33.0979 100.848 33.0425 100.848 32.9872C100.848 32.9318 100.903 32.7603 100.848 32.7049C100.792 32.7049 100.621 32.6496 100.51 32.6496C100.51 32.644 100.394 32.871 100.394 32.9263L100.283 33.037L99.4919 32.4725L99.6026 32.3618C99.6026 32.3618 99.9402 32.0242 100.112 32.0242C100.283 31.9688 101.185 32.0242 101.412 32.1957C101.584 32.3673 101.695 32.478 101.922 32.8765C102.541 33.3303 103.56 33.3303 104.185 33.8395C104.074 34.0111 104.357 34.2933 104.13 34.404C103.958 34.4594 103.565 34.3487 103.51 34.4594L103.455 34.797L103.228 34.7416C103.228 34.7416 103.338 34.3431 103.228 34.3431C103.117 34.2878 102.89 34.1716 102.774 34.2325C102.719 34.2878 102.774 34.3431 102.829 34.4594C102.829 34.5701 103.111 34.6309 103.283 34.5701L103.51 34.6254L103.792 34.6808C103.682 34.963 103.621 35.0792 103.228 34.963C103.117 35.2453 103.737 35.4722 103.792 35.5829C103.737 35.6936 103.621 35.8098 103.228 35.5829C103.228 35.5829 101.589 37.1658 100.626 37.6196C99.6081 38.0734 100.571 37.3927 100.571 37.3927C101.025 37.2211 103.006 35.5275 103.006 35.356C102.951 35.2453 102.835 35.0184 102.835 34.8468C102.552 34.7361 101.988 34.9021 101.761 35.0737C101.872 35.5829 102.779 38.1288 102.099 41.9753L101.988 41.8646C102.608 38.1288 101.589 35.1291 101.589 35.1291C101.025 35.356 100.626 35.1844 100.344 35.2397C100.233 37.5587 102.099 37.8963 101.418 40.9569C99.4365 40.6193 98.0252 38.1841 96.8906 38.411C96.8353 38.0125 96.4368 37.3373 96.8353 37.1104C96.7246 36.7728 96.6084 36.319 97.1175 36.0367C96.946 35.5829 96.8906 35.1899 97.3998 34.8468C97.2891 34.5645 97.3445 33.9391 97.9643 33.8284C98.0197 33.3193 98.2466 32.9208 98.7004 32.7547C98.1912 32.5278 98.0806 32.0186 98.0806 32.0186C98.5344 32.3009 98.9273 32.4725 99.6081 32.3562L100.394 32.9263Z" fill="#EC6608"/>
<path fill-rule="evenodd" clip-rule="evenodd" d="M81.1562 75.249L81.1009 72.0777C81.1009 71.1147 80.481 70.0963 79.6287 69.5318C79.4571 69.4764 79.1749 69.3602 78.948 69.3602C79.1749 69.3602 79.4571 69.3602 79.7394 69.2495C80.5862 68.851 81.6045 67.7773 81.6045 65.9122C81.6045 64.4953 81.04 63.4216 80.0217 62.6855C79.0587 62.0048 77.985 61.8388 76.8559 61.8388H68.1445V64.1024H70.1259V75.249H68.1445V77.4572H74.3709V75.249H72.3895V70.3288H76.6899C78.1621 70.3841 78.7266 71.3471 78.7266 72.1385L78.8982 77.4572H83.1431V75.249H81.1562ZM77.1382 68.1814H72.384V64.1024C72.384 64.1024 75.7767 64.1024 76.8559 64.1024C77.3651 64.1024 77.9296 64.1024 78.3834 64.274C78.948 64.5562 79.4571 65.1816 79.4571 66.1391C79.4571 67.329 78.3834 68.1814 77.1382 68.1814Z" fill="#EC6608"/>
<path fill-rule="evenodd" clip-rule="evenodd" d="M67.3529 83.0029C69.3896 83.0029 70.2973 84.1319 70.2973 85.5488C70.2973 86.9656 69.3343 88.0393 67.1869 88.0393H65.7147V91.9412H64.4141V83.0029H67.3529ZM65.7091 86.9047H67.292C68.255 86.9047 68.9303 86.3955 68.9303 85.4879C68.9303 84.8071 68.5318 84.1319 67.3474 84.1319H65.7091V86.9047Z" fill="#EC6608"/>
<path fill-rule="evenodd" clip-rule="evenodd" d="M80.4197 91.9411H79.0029L77.8738 89.2846H73.972L72.8983 91.9411H71.4814L75.4442 82.9475H76.3518L80.4197 91.9411ZM74.4812 88.0946H77.3647L75.8371 84.5857L74.4812 88.0946Z" fill="#EC6608"/>
<path fill-rule="evenodd" clip-rule="evenodd" d="M95.3026 91.9412H94.002V83.0029H95.3026V91.9412Z" fill="#EC6608"/>
<path fill-rule="evenodd" clip-rule="evenodd" d="M104.639 84.9289C103.792 84.2481 103.001 84.0212 102.32 84.0212C101.473 84.0212 100.792 84.4197 100.792 85.0396C100.792 86.794 104.982 86.7387 104.982 89.6222C104.982 90.9781 103.853 91.9965 102.265 91.9965C101.246 91.9965 100.339 91.7696 99.5472 91.2051V89.5668C100.283 90.4136 101.185 90.8674 102.148 90.8674C103.222 90.8674 103.731 90.2476 103.731 89.7384C103.731 87.9286 99.4863 87.7017 99.4863 85.2665C99.4863 83.7943 100.676 82.8922 102.431 82.8922C103.222 82.8922 103.903 83.0637 104.639 83.512V84.9289Z" fill="#EC6608"/>
<path fill-rule="evenodd" clip-rule="evenodd" d="M89.812 90.8675C89.6404 90.6405 89.4744 90.4136 89.3028 90.1314C88.6221 89.0023 88.0575 88.2053 87.2108 87.6962C88.2291 87.2977 88.7936 86.5062 88.7936 85.4879C88.7936 83.9603 87.6037 82.9973 85.6832 82.9973H83.3643V91.9356H84.7202V88.0338H85.2847C85.9655 88.0338 86.53 88.2607 87.7199 90.0705L88.9652 91.9356H90.4927L89.812 90.8675ZM85.5725 86.9047H84.7258V84.0766H85.5725C86.8732 84.0766 87.3823 84.5857 87.3823 85.4325C87.4377 86.1742 87.0392 86.9047 85.5725 86.9047Z" fill="#EC6608"/>
</svg>
