<svg width="170" height="124" viewBox="0 0 170 124" fill="none" xmlns="http://www.w3.org/2000/svg">
<rect width="170" height="124" fill="white"/>
<g clip-path="url(#clip0_226_3647)">
<path fill-rule="evenodd" clip-rule="evenodd" d="M105.199 57.2629C104.961 57.2629 104.319 57.3315 103.948 57.4001C103.88 57.6018 102.899 58.0417 103.137 59.2602C103.307 60.0067 103.678 60.5474 103.508 60.6805C103.036 60.9509 102.358 60.4788 101.749 60.2407C101.14 59.9341 100.192 59.5306 99.5824 60.3093C99.0417 61.0558 100.902 60.9509 102.492 61.7982C103.674 62.4075 104.489 62.2703 106.381 62.4761C108.278 62.6133 108.379 61.7982 108.681 61.8345C108.952 61.9031 108.851 62.6456 109.73 62.9159C110.138 63.0168 111.05 62.5084 111.219 62.577C111.49 62.6092 111.49 63.154 112.131 63.4243C112.841 63.6261 113.043 63.2226 113.281 63.1177C113.483 63.0168 113.519 63.5252 113.923 63.6261C114.326 63.6946 114.939 63.6583 115.242 63.6947C115.48 63.7955 115.242 64.1022 115.92 64.2031C116.529 64.3039 116.731 63.965 117.038 64.0659C117.276 64.1667 117.578 64.8446 118.865 64.7437C119.677 64.6751 119.475 64.1667 119.273 63.7955C119.035 63.4243 117.276 63.1177 114.435 62.1049C109.629 60.4465 108.342 60.854 107.33 58.889C106.926 58.078 106.688 57.6382 106.619 57.3678C106.353 57.2952 105.845 57.3315 105.199 57.2629Z" fill="#E30613"/>
<path d="M121.375 62.7101C121.173 62.5729 120.495 63.2185 120.225 63.1176C119.918 63.0168 119.684 62.6092 119.446 62.5084C119.144 62.4075 118.974 62.577 118.668 62.5084C118.43 62.4761 118.599 62.1008 118.397 62C118.127 61.8991 117.99 62.1694 117.687 62.0686C117.449 62 117.28 61.5601 117.078 61.4593C116.84 61.3907 116.775 61.6973 116.505 61.5965C116.134 61.4593 116.033 61.1889 115.795 61.0881C115.593 60.9509 115.153 61.3584 114.847 61.1889C114.54 61.0517 114.54 60.0027 114.338 59.9018C114.1 59.8009 113.358 60.6482 113.051 60.4425C112.781 60.3053 112.881 59.5265 112.643 59.3934C112.442 59.2562 111.526 60.0349 111.292 59.9341C111.09 59.8332 111.054 59.4256 110.751 59.3934C110.481 59.3611 110.005 59.7323 109.702 59.6314C109.093 59.3934 108.35 59.4942 107.434 57.3315C107.333 57.0612 107.132 56.8917 106.926 56.9926C106.385 57.1943 106.587 57.4001 107.329 58.889C108.346 60.854 109.629 60.4465 114.435 62.1049C117.276 63.1217 119.035 63.4243 119.273 63.7955C119.475 64.1667 119.68 64.6751 118.865 64.7437C117.578 64.8446 117.276 64.1667 117.037 64.0659C116.735 63.965 116.529 64.3039 115.92 64.2031C115.242 64.1022 115.48 63.7955 115.242 63.6946C114.939 63.6624 114.326 63.6946 113.922 63.6261C113.515 63.5252 113.483 63.0168 113.281 63.1176C113.043 63.2185 112.841 63.6261 112.131 63.4243C111.489 63.154 111.489 62.6133 111.219 62.577C111.05 62.5084 110.138 63.0168 109.73 62.9159C108.851 62.6456 108.951 61.8991 108.681 61.8345C108.378 61.8022 108.278 62.6133 106.381 62.4761C104.485 62.2743 103.674 62.4075 102.491 61.7982C100.902 60.9509 99.0415 61.0517 99.5822 60.3093C100.191 59.5306 101.14 59.9381 101.749 60.2407C102.358 60.4788 103.036 60.9509 103.508 60.6805C103.678 60.5433 103.306 60.0026 103.137 59.2602C102.899 57.9408 104.053 57.5332 103.948 57.3315C103.779 57.0934 103.137 56.7545 101.58 56.9926C100.53 57.162 98.5008 58.7518 97.9924 58.9899C97.484 59.2925 95.3858 60.4102 94.2359 58.7518C93.0859 57.0612 94.135 55.3342 94.6071 54.7935C95.0469 54.2528 95.7934 53.8453 96.0637 54.2528C96.4349 54.8944 95.5553 55.0638 95.1841 55.5037C94.8452 55.9435 94.3045 57.4324 94.9138 58.1102C95.5553 58.7881 96.7416 58.8567 98.0933 57.8399C99.211 56.9926 101.039 55.8103 102.83 55.9435C104.658 56.0443 105.606 56.8917 105.877 56.9603C106.147 56.9926 106.385 56.3833 106.756 56.2501C107.027 56.1493 107.398 56.4882 107.636 56.3873C107.838 56.2501 108.076 55.7094 108.346 55.6086C108.649 55.5077 109.395 56.0161 109.633 55.8466C109.835 55.7458 109.803 55.1002 110.142 55.0679C110.481 54.9993 111.054 55.6086 111.292 55.5077C111.594 55.3382 111.594 54.9993 111.901 54.9993C112.139 54.9993 112.68 55.8103 112.95 55.7458C113.152 55.7135 113.087 54.8984 113.39 54.7975C113.693 54.6967 114.471 55.3382 114.742 55.2374C114.943 55.1365 114.98 54.156 115.351 53.9502C115.69 53.813 116.029 54.3577 116.231 54.2569C116.501 54.156 116.67 53.0383 116.973 53.006C117.243 52.9737 117.784 53.3086 118.022 53.2441C118.224 53.2118 118.123 52.195 118.53 51.9932C118.938 51.8601 119.446 52.5016 119.58 52.4694C119.781 52.4008 119.882 51.8601 120.088 51.8278C120.326 51.7592 120.935 52.2676 121.238 52.199C121.476 52.0981 121.375 51.3517 121.645 51.3194C121.847 51.2508 122.695 51.4203 122.626 50.4721C122.594 49.5238 121.375 48.6119 120.225 48.6119C118.127 48.6119 116.029 49.5238 114.237 49.8628C112.446 50.1694 108.754 51.2508 107.842 51.4203C106.93 51.5575 106.046 51.0491 106.861 50.4035C107.503 49.7942 107.842 50.2703 107.842 50.0645C107.842 49.8628 107.434 49.657 106.861 49.5561C106.252 49.4552 105.542 50.0645 104.763 49.9636C103.984 49.8628 103.206 49.2535 102.362 49.423C100.296 49.661 99.9938 50.5729 98.9447 50.9441C97.8956 51.3517 97.1168 51.045 96.5398 51.1136C95.1195 51.3154 94.6111 52.1627 93.562 52.0618C92.3112 51.961 91.7019 51.2508 90.3462 50.8755C89.059 50.468 86.5896 50.0968 86.0126 49.895C85.4033 49.657 82.7322 49.0154 82.0866 48.9468C81.3764 48.846 81.0375 49.0477 80.7349 49.0477C80.3959 49.0477 79.9561 48.846 79.484 48.8096C79.0442 48.741 78.3341 48.7088 78.0274 48.8096C77.7571 48.9468 77.6562 48.9468 77.2809 48.8419C76.9783 48.8096 75.8606 48.6039 75.3845 48.6725C74.7066 48.7047 74.4363 49.1445 73.9279 49.2131C73.4558 49.2454 72.9797 49.0114 72.439 49.1123C71.8983 49.2131 71.4585 49.4149 70.9823 49.5521C70.5425 49.7215 69.7315 49.6207 69.3563 49.653C68.3394 49.891 68.2063 50.3994 67.8351 50.3994C67.4961 50.3994 66.2776 50.1977 65.9064 50.3994C65.4988 50.5689 65.1599 50.8715 64.8573 50.9078C64.486 50.9401 63.1303 51.1459 62.287 51.045C61.8149 51.0127 60.9998 51.4162 60.6609 51.5171C60.2534 51.618 59.3092 51.618 59.0348 51.1459C58.7766 50.5608 59.519 49.7135 60.7698 48.6967C61.6172 48.0551 66.3865 44.702 74.1337 43.4512C80.1901 42.4344 87.2634 39.8964 88.7524 38.3389C89.3939 37.6973 92.0005 35.4942 92.6421 34.1425C93.2836 32.7868 93.4894 32.0121 93.1505 32.0443C92.8115 32.1452 92.408 32.8554 91.7624 33.0934C91.1532 33.2952 90.6125 32.9562 90.1363 33.162C89.6965 33.2992 89.1881 34.0094 88.716 34.0417C88.2076 34.1102 88.0059 33.6704 87.6347 33.8399C87.2634 34.1102 86.6542 34.5501 86.2466 34.6509C85.3993 34.7881 85.367 33.8036 84.5883 34.2111C83.7772 34.6187 83.2002 35.2925 82.3892 35.462C81.6427 35.5628 81.7436 34.9899 81.2392 34.9899C80.4282 34.9899 79.6495 36.1076 79.2782 36.1076C78.907 36.1076 78.6004 35.4983 78.1283 35.5669C77.6885 35.5992 76.3004 36.6482 75.7598 36.8177C75.1828 36.9186 75.0819 36.039 74.6098 36.1076C74.0328 36.1398 72.9877 37.1567 72.4107 37.2938C71.8014 37.3947 71.4625 36.9872 71.059 36.9872C70.6515 36.9872 69.4006 38.0363 68.7914 38.2057C67.9117 38.4075 67.8431 37.2938 66.8949 37.3584C66.217 37.3907 65.5069 38.3066 64.9662 38.3389C64.3892 38.4075 64.1552 37.9677 63.5096 38.1008C62.7994 38.3026 61.4114 39.2508 60.9393 39.3517C60.4995 39.4525 60.1606 39.1822 59.6199 39.3517C58.6031 39.6543 57.6589 41.01 57.0133 41.349C56.3031 41.7565 55.7947 41.5507 55.4235 41.7888C54.7456 42.2609 54.6448 43.2091 54.0032 43.4794C53.4302 43.7821 53.4625 43.3423 52.9218 43.6812C52.0099 44.3591 52.3489 45.1015 52.0745 45.4404C51.8041 45.7794 51.0577 46.0497 50.6179 46.5904C50.178 47.0988 50.178 47.4014 50.0086 47.7404C49.8068 48.0793 49.0281 49.0961 48.8586 49.5359C48.7577 49.9757 48.9595 50.4519 48.7577 50.7868C48.6205 51.0934 48.3179 51.5978 48.1485 51.9731C47.8781 52.8527 48.2493 53.7323 48.217 54.0712C48.1485 54.3739 47.8095 54.8823 47.8095 55.2898C47.8095 55.6973 48.217 56.4761 48.1121 57.0854C48.0153 57.7027 46.7604 61.7296 47.4746 63.5575C48.2534 65.4539 49.4033 66.4667 49.8109 66.2972C50.2507 66.16 49.9803 65.349 50.4201 64.6066C50.86 63.8964 51.3684 63.0168 51.7719 63.6261C52.1108 64.2031 50.9608 64.2031 50.86 65.8614C50.7228 67.4512 50.9285 66.7774 50.86 67.2495C50.8277 67.7579 49.8109 68.7061 49.8109 69.1459C49.8109 69.618 49.9117 70.8043 51.4006 72.0551C52.3125 72.8661 52.5183 73.4109 52.7524 73.4431C52.9541 73.5117 53.1599 72.4949 53.5997 72.2932C54.209 72.0228 55.5284 73.2091 55.7665 73.1728C56.0691 73.0719 56.174 71.4458 56.7147 71.1432C57.2554 70.9051 58.5748 71.9542 58.8452 71.8211C59.1155 71.6193 58.8129 70.6025 58.946 70.195C59.1155 69.8238 59.8579 69.7229 59.6239 69.045C59.4222 68.3671 59.3213 67.0477 56.9164 66.8782C56.2063 66.8096 55.2258 66.7088 55.8674 65.9663C56.6098 65.2199 57.4248 62.4801 55.6656 60.3497C54.9232 59.4337 53.2285 59.9421 52.7564 60.1479C51.909 60.4546 51.0657 61.5682 50.7268 61.2656C50.4242 60.9589 51.4047 59.7081 52.9259 59.2683C54.4148 58.7962 56.3112 58.8971 57.0536 60.7572C58.3731 64.0053 57.0536 65.5306 57.2231 65.8695C57.4248 66.2084 58.1713 65.8372 59.2204 66.4788C60.7093 67.4593 60.5076 68.3066 60.8788 68.6092C61.2177 68.8796 63.0092 69.0168 64.6676 69.1176C66.3583 69.2185 68.2224 69.6583 68.9971 69.2185C70.248 68.577 70.3489 66.1721 73.2621 64.4129C74.7187 63.5332 76.6474 62.6536 78.8102 63.0248C81.215 63.3638 81.2473 63.7027 81.0456 64.0053C81.0133 64.1748 80.9447 64.4129 80.9084 64.3766C79.7584 63.7673 78.1 63.6987 77.0832 63.9045C75.5943 64.1748 73.0563 64.5823 71.1962 67.8305C69.3684 71.0786 72.3139 71.115 72.6165 71.2158C72.9554 71.353 73.4961 71.5185 73.4639 72.4667C73.3953 73.4149 73.7019 73.9556 74.0409 74.5649C74.4484 75.1055 75.0899 75.5454 75.0899 75.5454C75.0899 75.5454 75.562 74.464 76.1068 74.2259C76.6474 73.9193 77.289 74.464 77.5957 74.8029C78.5439 76.0215 78.1363 73.7538 78.8142 73.5158C79.7947 73.2091 80.1659 74.6657 80.7107 74.3954C81.6912 73.9556 81.1505 73.2777 81.8606 73.0074C82.6031 72.8056 83.0429 73.4149 83.3495 73.2091C83.6885 72.971 83.6562 70.8729 83.0106 70.0255C82.3004 69.1459 81.2513 67.657 79.016 67.657C76.8169 67.657 76.1068 67.3544 76.2076 66.9105C76.3085 66.4707 76.7483 66.164 77.289 66.3698C78.1363 66.6725 78.2372 66.6079 79.5889 66.6725C81.5499 66.7047 81.1101 67.5521 82.7362 68.2622C83.9548 68.7706 85.5446 67.9233 87.5096 68.2622C89.5069 68.6012 91.1653 68.9724 92.9891 68.8715C96.443 68.7706 100.264 67.2454 101.011 67.1445C101.789 67.0074 102.197 67.1123 102.197 66.8742C102.197 66.6725 98.8479 66.1641 99.0496 65.353C99.3199 64.5743 100.91 65.2158 103.109 65.7242C105.308 66.1963 110.013 66.6039 111.84 66.503C113.805 66.4707 117.155 67.3503 119.894 66.7047C121.282 66.3658 122.602 65.5185 122.735 64.5743C122.9 63.6261 121.645 62.9159 121.375 62.7101ZM102.495 51.1015C103.036 51.0006 103.984 51.2387 103.746 51.848C103.545 52.4573 103.444 52.3564 103 52.4573C102.56 52.5581 101.648 52.659 101.41 52.2555C101.208 51.848 101.886 51.2347 102.495 51.1015ZM88.7201 35.4983C89.059 35.6677 89.0913 36.1398 89.059 36.4465C88.9581 36.7168 88.7887 36.9872 88.6192 36.9872C88.3489 36.9872 88.3489 36.616 88.248 36.2407C88.1471 35.9381 88.3489 35.2925 88.7201 35.4983ZM85.6091 36.4465C86.3193 36.616 86.0489 37.2575 85.9117 38.004C85.8109 38.5124 85.371 38.6456 85.3025 38.7505C85.0644 39.1903 84.9998 37.2616 84.9998 37.2616C84.9998 37.2616 85.2016 36.3416 85.6091 36.4465ZM82.1552 36.9872C82.4255 36.9549 82.9016 38.004 82.6273 38.9159C82.3246 39.7955 81.9494 39.7955 81.9494 39.7955C81.9494 39.7955 81.8485 38.815 81.7476 38.7141C81.6508 38.5447 81.445 37.1567 82.1552 36.9872ZM79.0442 37.4956C79.6858 37.2575 79.8552 38.7141 79.5526 39.4606C79.2823 40.2394 79.2823 40.7115 78.8062 40.4088C78.2292 40.1385 78.7053 39.1903 78.5358 38.9199C78.3341 38.4398 78.5035 37.7659 79.0442 37.4956ZM75.5943 38.3066C76.4053 38.2057 76.3045 39.4929 76.1027 40.2031C75.8647 40.8446 75.6952 41.1513 75.3603 41.0504C74.9891 40.9132 75.4612 40.0699 75.2594 39.6946C74.985 39.3557 75.1545 38.3389 75.5943 38.3066ZM72.0395 38.9482C72.5116 39.0491 72.8505 39.7592 72.6165 40.7437C72.4148 41.7606 72.1081 41.9946 71.8378 41.9946C71.5674 41.9946 71.9386 40.4048 71.7006 40.4048C71.4988 40.4048 71.4625 38.8473 72.0395 38.9482ZM68.5533 40.1345C68.8559 40.1345 69.5338 40.7115 69.1949 41.7606C68.8559 42.8419 68.8559 42.741 68.5533 42.8419C68.2144 42.9105 68.4524 42.2004 68.2507 41.7928C68.0126 41.4539 67.71 40.1022 68.5533 40.1345ZM65.406 41.2521C66.0153 41.2199 66.2534 42.503 66.1162 43.0477C66.0153 43.5884 65.8136 44.2663 65.4383 44.1654C65.0994 44.0968 65.5069 43.1163 65.2002 43.1163C64.9662 43.1123 64.4941 41.2844 65.406 41.2521ZM63.4127 44.9401C63.0052 45.6866 63.0415 45.6866 62.7712 45.6866C62.5008 45.6866 62.6703 44.6052 62.3637 44.6052C62.0933 44.6052 61.8552 43.0154 62.7026 42.9468C63.6145 42.9105 63.6468 44.3994 63.4127 44.9401ZM62.057 39.8641C62.2587 39.8641 62.7672 40.2031 62.2951 40.7115C61.8552 41.2199 61.823 41.5588 61.4154 41.353C61.0079 41.2158 61.4154 39.8964 62.057 39.8641ZM50.5533 50.5608C50.8236 50.5608 51.1626 51.2387 51.1303 51.509C51.0617 51.7108 51.0294 52.0497 50.6219 52.1506C50.2507 52.2515 50.1135 51.6422 50.1135 51.5413C50.0772 51.4041 49.9763 50.4922 50.5533 50.5608ZM50.9568 54.9953C50.755 54.9953 50.517 54.9953 50.3475 54.8621C50.2466 54.6926 49.5688 54.0148 50.0772 53.3369C50.1094 53.236 50.9568 53.813 51.1263 54.1842C51.2312 54.4505 51.2312 54.9953 50.9568 54.9953ZM51.6669 49.3423C51.5661 49.5117 51.2957 49.6126 51.1263 49.5117C50.8559 49.3423 50.8559 48.8016 50.9568 48.7007C51.0254 48.6684 51.0577 47.8534 51.5984 47.9542C51.8687 47.9865 51.5661 48.6644 51.5984 48.733C51.6669 48.8339 51.8041 49.2051 51.6669 49.3423ZM74.2063 52.7922C74.2386 52.5541 74.6138 52.3523 74.985 52.4532C75.4571 52.4855 76.0018 52.893 75.8969 53.1997C75.8647 53.5063 75.3563 53.7404 74.8478 53.5063C74.408 53.3006 74.1054 53.0988 74.2063 52.7922ZM74.8801 54.9953C75.1828 54.963 75.9978 54.8944 75.9292 55.3342C75.8969 55.7417 75.6912 55.8426 75.0496 55.9435C74.408 56.0443 74.0005 55.6368 74.0005 55.4351C74.0368 55.0961 74.5452 55.0598 74.8801 54.9953ZM73.1895 50.355C73.5607 50.355 73.8996 50.6577 73.7988 50.8957C73.6979 51.1338 73.6616 51.4364 72.9877 51.3033C72.7497 51.2024 72.447 50.8634 72.447 50.6617C72.447 50.2542 72.8505 50.2905 73.1895 50.355ZM69.5338 51.2024C69.6024 50.8634 70.2439 50.7948 70.5506 50.932C70.8895 51.1015 71.0913 51.5413 70.8895 51.7431C70.6515 51.9125 70.4175 51.8439 70.0099 51.7431C69.6024 51.6422 69.5015 51.5413 69.5338 51.2024ZM69.094 52.7599C69.6024 52.7599 70.2117 53.1311 69.9413 53.4014C69.7396 53.6032 69.5338 53.7404 68.9931 53.7404C68.4524 53.7404 68.2466 53.5386 68.2466 53.232C68.2507 52.9616 68.5896 52.6913 69.094 52.7599ZM68.2144 54.9953C68.7914 54.8944 69.1949 55.2333 69.1626 55.5359C69.1626 55.8426 68.6542 56.1129 68.3152 56.1129C67.9077 56.1129 67.3347 56.0121 67.2661 55.5359C67.2016 55.1284 67.9117 55.0598 68.2144 54.9953ZM66.6609 57.7027C66.56 57.3961 67.2702 57.2629 67.6091 57.1943C67.9117 57.162 68.5573 57.2952 68.4565 57.6018C68.3556 57.8399 68.1538 58.1425 67.6091 58.1425C67.0644 58.1062 66.7618 57.9367 66.6609 57.7027ZM67.5042 59.5992C67.4033 60.039 66.9958 60.1076 66.6932 60.1398C66.3542 60.2084 65.8136 60.1398 65.8136 59.8009C65.8136 59.4297 66.2856 59.1593 66.56 59.0544C67.1007 58.9536 67.6051 59.2602 67.5042 59.5992ZM66.0153 51.3033C66.217 51.3355 66.8626 51.505 66.8949 51.8117C66.8949 52.0497 67.0644 52.3887 66.3542 52.3887C65.7127 52.3887 65.4423 52.2878 65.3051 51.9488C65.1034 51.5413 65.8136 51.2347 66.0153 51.3033ZM65.9144 53.7081C66.5923 53.8453 66.6932 53.8453 66.7618 54.1479C66.794 54.4546 66.2897 54.6563 65.7127 54.7572C65.1034 54.8581 64.7645 54.5877 64.595 54.2851C64.4941 54.0107 65.2366 53.6072 65.9144 53.7081ZM64.7645 56.4842C65.1034 56.4519 65.5069 56.585 65.5069 56.9562C65.4383 57.2589 65.2366 57.3961 64.8976 57.5332C64.595 57.7027 63.9171 57.4324 63.8162 57.1943C63.7154 56.9562 64.3932 56.5528 64.7645 56.4842ZM64.1552 59.2925C64.1552 59.5992 63.5459 59.8332 63.2433 59.9018C63.0052 59.9341 62.8035 60.1398 62.6017 59.9341C62.3637 59.7323 62.4 59.5265 62.5694 59.3934C62.6703 59.2562 63.3159 58.9536 63.4491 58.885C63.7154 58.7841 64.1875 59.0544 64.1552 59.2925ZM62.7671 52.082C63.3078 52.082 63.5459 52.3887 63.6468 52.659C63.7154 52.8971 63.6468 53.0302 63.5096 53.1311C63.4087 53.232 62.7994 53.1997 62.4605 52.9939C61.9884 52.7599 62.1579 52.082 62.7671 52.082ZM60.0597 44.6012C60.8021 44.5326 60.9393 45.5494 60.7698 46.4613C60.4995 47.3409 60.3986 47.3409 60.0597 47.24C59.753 47.1392 60.0597 46.6308 59.8579 46.3927C59.6199 46.195 59.2164 44.6375 60.0597 44.6012ZM59.519 40.8123C60.1969 40.7115 59.9588 41.5588 59.8216 41.7928C59.6199 42.0995 59.8539 42.5393 59.4141 42.503C58.942 42.4344 59.0066 41.8614 58.942 41.5548C58.9097 41.2158 59.1115 40.8446 59.519 40.8123ZM57.1182 43.8587C57.2554 43.657 57.3563 43.1486 57.7961 43.1123C58.0987 43.0437 57.9978 43.891 57.9655 44.2985C57.9655 44.7061 58.0664 45.2105 57.5257 45.0087C56.9487 44.807 56.9487 44.0968 57.1182 43.8587ZM55.02 43.9596C55.1209 43.9596 55.1209 43.891 55.1209 43.891C55.1209 43.891 55.593 43.1123 56.0691 43.3503C56.2708 43.3826 55.7665 44.3671 55.6979 44.5366C55.597 44.807 55.2581 45.0087 54.9554 44.7384C54.6448 44.4317 54.9191 43.9596 55.02 43.9596ZM53.5997 45.7511C53.87 45.852 53.5997 46.7316 53.4988 47.1392C53.4665 47.5467 53.1599 47.7484 52.8573 47.6476C52.5546 47.6153 52.7201 46.9011 52.6192 46.9011C52.5506 46.8365 52.9541 45.6503 53.5997 45.7511ZM52.6152 52.4895C52.8169 52.5581 52.8532 52.9616 52.8532 53.0302C52.8532 53.1997 53.055 53.3006 53.1559 53.6072C53.2244 53.8453 53.055 54.0833 52.8169 54.1479C52.5466 54.1479 52.3085 53.6395 52.3085 53.6395C52.3125 53.7081 52.1108 52.4573 52.6152 52.4895ZM53.4625 56.6536C53.2608 56.7908 53.0227 56.8917 52.716 56.8554C52.4134 56.7545 52.0745 56.2461 52.3448 55.9435C52.6152 55.7054 53.0227 55.9112 53.2244 56.0443C53.4302 56.2138 53.6643 56.4842 53.4625 56.6536ZM53.5634 50.932C53.1559 50.8634 53.3253 50.0847 53.2567 50.0847C53.2567 50.0847 53.6643 48.6967 54.0678 48.9347C54.3704 49.1365 54.2049 50.0524 54.1686 50.4922C54.1041 50.8998 53.9023 51.0329 53.5634 50.932ZM54.3099 53.5063C54.1767 53.4378 54.0072 52.5581 54.6125 52.4895C54.8505 52.4895 55.254 52.9616 55.254 53.236C55.2218 53.5386 55.3226 53.9462 54.7456 53.9139C54.2049 53.8413 54.4107 53.5386 54.3099 53.5063ZM55.7624 57.8359C55.5607 57.8359 55.1532 57.8036 54.9151 57.4283C54.7133 57.158 54.6448 56.6819 54.9151 56.5487C55.1168 56.4478 55.6575 56.7868 55.8956 57.2589C56.17 57.7027 55.8996 57.8359 55.7624 57.8359ZM56.4726 56.1452C56.2023 56.1129 55.8996 56.008 55.6616 55.7054C55.4235 55.4351 55.4235 54.8581 55.7988 54.7895C56.3758 54.6886 56.7107 55.197 56.9164 55.6368C57.0496 56.1089 56.6421 56.1452 56.4726 56.1452ZM57.0133 53.7404C56.7429 53.7404 56.6058 53.6395 56.4726 53.4337C56.2708 53.2965 56.2023 52.6872 56.7429 52.6872C57.0133 52.6872 57.4208 52.889 57.4531 53.1957C57.5217 53.5386 57.2513 53.7081 57.0133 53.7404ZM57.5217 46.9051C57.8929 46.9051 58.5708 47.3127 58.369 48.4949C58.0987 49.6449 57.9615 49.2414 57.7275 49.3059C57.5257 49.4068 57.6589 48.6644 57.5257 48.4949C57.2513 48.1883 56.6098 46.9051 57.5217 46.9051ZM58.1996 58.0417C57.9615 57.9408 57.6589 57.8036 57.6226 57.4324C57.5217 57.0934 57.8929 56.9926 58.1996 57.0612C58.5708 57.0934 58.8411 57.4001 58.8411 57.6382C58.8411 57.9367 58.4013 58.1062 58.1996 58.0417ZM58.8411 55.7054C58.6717 55.7377 58.5708 55.8426 58.1996 55.7377C57.8606 55.6045 57.1505 54.8581 57.792 54.4505C57.9938 54.2811 58.7725 54.4828 58.942 55.0598C59.2164 55.5359 59.0469 55.6045 58.8411 55.7054ZM58.9097 53.4014C58.8088 53.3006 59.0106 52.7599 59.5513 52.893C60.0597 52.9939 60.1928 53.3328 60.1606 53.6395C60.0597 53.9462 59.7207 53.9462 59.4504 53.9098C59.2164 53.8413 59.0469 53.5063 58.9097 53.4014ZM60.9393 59.2925C60.7698 59.3934 60.3986 59.4942 59.8902 59.4297C59.4504 59.3974 59.3495 59.2602 59.519 58.9899C59.7207 58.7518 59.8579 58.6832 60.2655 58.5501C60.673 58.3806 61.1451 58.5823 61.246 58.7518C61.3468 58.885 61.1451 59.2602 60.9393 59.2925ZM61.6172 57.0934C61.3468 57.2629 60.7698 57.0934 60.6004 56.6859C60.4632 56.2461 60.7012 56.1452 60.903 56.0443C61.1411 56.0121 61.714 56.2824 61.8149 56.6536C61.8552 56.8877 61.8552 56.9562 61.6172 57.0934ZM62.1579 55.1284C61.9198 55.1284 61.0402 54.9912 61.2097 54.5514C61.3105 54.0793 61.8189 54.0793 62.0893 54.1439C62.2587 54.1439 62.9689 54.3819 62.7994 54.7854C62.6986 55.2293 62.3959 55.0961 62.1579 55.1284ZM69.9413 63.1176C69.9413 63.3557 69.8041 63.5252 69.6024 63.5252C69.3643 63.5252 68.6905 63.3557 68.3515 63.6261C68.0126 63.8641 67.8109 64.3039 67.8431 64.6066C67.9117 64.8446 67.9117 65.2158 67.7423 65.3167C67.6051 65.4539 66.9635 65.2158 66.6932 65.2481C66.4551 65.2481 65.6118 65.4499 65.406 65.8897C65.168 66.2972 65.3374 66.5998 65.2043 66.7007C65.0671 66.8702 64.8653 66.9388 64.6636 66.9388C64.4618 67.0074 63.5459 66.8702 63.4127 67.0074C63.211 67.1445 62.7026 67.7538 62.5654 67.548C62.3959 67.3463 62.1579 67.4472 62.5977 66.7007C62.7994 66.3618 63.3401 65.9905 63.4087 65.9905C63.441 65.9905 64.1189 66.0591 64.2561 65.9583C64.3932 65.8211 64.7967 65.01 64.9662 64.8406C65.6441 64.2999 65.6078 64.5016 65.8136 64.4008C66.0153 64.3685 66.6932 64.5016 66.7618 64.3685C66.8626 64.1667 67.2702 63.4203 67.6091 63.1176C68.0489 62.7101 68.7591 62.6456 68.86 62.577C68.8922 62.4761 69.0617 62.2057 69.1626 62C69.2957 61.7982 69.905 61.2898 70.3125 61.3907C70.5143 61.4593 69.8041 62.4075 69.8041 62.6092C69.7396 62.811 69.9413 62.8473 69.9413 63.1176ZM70.4497 60.2407C69.9413 60.3416 69.4006 60.3093 69.3684 60.039C69.2998 59.8372 69.4692 59.5306 69.8082 59.3974C70.1148 59.2602 70.4175 59.3651 70.6555 59.3651C70.8573 59.3651 71.3657 59.3651 71.2971 59.5346C71.2608 59.7 70.9581 60.1398 70.4497 60.2407ZM71.1599 57.9367C70.5829 58.0053 70.0422 57.8359 70.1108 57.5978C70.2117 57.3275 70.5506 57.0894 71.059 57.0894C71.5674 57.0571 71.9064 57.1903 71.9064 57.4283C71.9064 57.6341 71.7006 57.9045 71.1599 57.9367ZM72.3099 55.197C72.209 55.6045 72.0072 55.7054 71.632 55.7377C71.2608 55.7377 70.5143 55.6368 70.5143 55.0598C70.5143 54.7895 71.293 54.6523 71.4625 54.6523C71.632 54.5877 72.3421 54.7895 72.3099 55.197ZM72.8505 53.0302C72.7819 53.3328 72.3421 53.6072 72.0032 53.5023C71.632 53.4014 71.1559 53.3328 71.1922 52.9939C71.1922 52.7922 71.4948 52.4855 72.0395 52.5541C72.6165 52.5581 72.8869 52.7922 72.8505 53.0302ZM74.6461 59.5992C74.5089 59.7363 74.3435 60.1076 73.9359 60.2084C73.5647 60.2407 73.0886 60.4102 72.8869 59.9381C72.786 59.7 72.9554 59.4983 73.2581 59.2965C73.4961 59.1593 74.3072 59.1593 74.3072 59.1593C74.3072 59.1593 74.408 58.889 74.6098 59.0585C74.8156 59.1916 74.8156 59.4297 74.6461 59.5992ZM75.5943 57.8036C75.2554 57.8036 74.4444 57.8359 74.408 57.4324C74.3072 57.2629 74.8478 57.0612 75.1868 56.9603C75.5943 56.8594 75.8647 56.8594 75.9978 56.8917C76.135 56.9603 76.5062 57.0934 76.5062 57.2629C76.5062 57.4324 75.8969 57.735 75.5943 57.8036ZM76.0341 51.0329C75.8969 50.694 75.8647 50.3914 76.0018 50.2542C76.2399 50.0847 77.0509 50.3873 77.1841 50.7626C77.3858 51.1015 77.3858 51.509 77.0469 51.6099C76.708 51.6422 76.135 51.3396 76.0341 51.0329ZM77.2487 52.9979C77.1801 52.6953 77.7893 52.4573 78.1969 52.4895C78.5358 52.5581 79.1451 52.8971 79.0442 53.236C78.9111 53.6072 78.8425 53.7081 78.5358 53.7081C78.2332 53.7081 77.285 53.5063 77.2487 52.9979ZM77.5553 55.3988C77.4867 55.1284 78.096 54.9912 78.3341 54.9912C78.5358 54.9912 79.4517 55.1284 79.1814 55.4996C79.0119 55.8386 78.6407 56.008 78.3341 56.008C78.096 56.008 77.6562 55.6368 77.5553 55.3988ZM79.3832 58.2434C79.0442 58.4815 78.8062 58.4815 78.4027 58.4815C78.0314 58.4815 77.9628 58.2434 77.9628 57.9408C77.9628 57.7027 78.3341 57.5332 78.5035 57.501C78.7053 57.4324 78.9433 57.501 79.1451 57.4324C79.2823 57.4001 79.2823 57.4001 79.484 57.3315C79.6535 57.2992 79.7544 57.2629 79.7867 57.5332C79.8552 57.8036 79.7544 58.0417 79.3832 58.2434ZM80.061 51.4041C79.8916 51.505 79.8916 51.6059 79.5526 51.5413C79.1451 51.509 78.9433 50.8998 78.8425 50.8634C78.7053 50.7948 78.4027 50.4559 78.5358 50.2905C78.7053 50.1533 79.4517 50.1533 79.7867 50.4599C80.1942 50.7948 80.1942 51.3033 80.061 51.4041ZM80.8035 52.7922C80.9043 52.6913 81.1424 52.5541 81.445 52.5541C81.7476 52.5541 82.1552 52.7558 82.2924 52.9616C82.3932 53.1997 82.3932 53.4014 82.1915 53.6032C82.0543 53.7404 81.1424 53.5023 81.0052 53.3328C80.8035 53.1311 80.7349 52.9616 80.8035 52.7922ZM81.0415 55.8386C80.9407 55.9394 80.9043 55.6005 81.0415 55.431C81.2433 55.2938 81.6831 55.0598 81.9534 55.0598C82.1915 55.0598 82.595 55.1284 82.5304 55.3302C82.4941 55.5319 82.4296 56.0403 81.8889 56.0403C81.3442 56.1089 81.1424 55.8063 81.0415 55.8386ZM82.0906 58.3443C81.6508 58.3766 81.3482 58.312 81.2796 57.9367C81.2473 57.5978 81.5822 57.4969 81.6508 57.4969C81.6831 57.4969 82.0583 57.4283 82.1592 57.3961C82.3973 57.3961 82.8008 57.0894 83.0066 57.3961C83.1034 57.6018 82.5304 58.2434 82.0906 58.3443ZM83.5432 51.509C83.4746 51.6462 83.3415 52.0497 82.8331 51.9166C82.3246 51.7471 82.0906 51.509 81.9534 51.3073C81.8526 51.1055 81.4813 50.7989 81.784 50.4963C81.9534 50.3591 82.7322 50.6657 83.1034 50.9361C83.4101 51.2347 83.5795 51.3033 83.5432 51.509ZM83.8821 52.9616C83.983 52.7599 84.3906 52.655 84.6932 52.655C84.9958 52.6872 85.4033 52.7922 85.4719 53.1271C85.5405 53.4337 85.4719 53.5346 85.371 53.7041C85.2016 53.8413 84.5923 53.6355 84.3542 53.5346C84.0839 53.4378 83.7813 53.0988 83.8821 52.9616ZM83.9507 55.2979C83.9507 55.0598 84.2897 55.0961 84.4591 55.0598C84.5277 54.9912 84.6286 54.8903 84.899 54.8581C85.1007 54.7895 85.5405 54.7895 85.5405 54.9912C85.6091 55.1284 85.5405 55.431 84.9998 55.6005C84.3906 55.8063 83.983 55.5359 83.9507 55.2979ZM85.9117 57.5332C85.9117 57.5332 85.4719 57.9408 85.371 58.1102C85.2016 58.2111 84.9312 58.4815 84.5237 58.1425C84.2856 57.9045 84.5237 57.501 84.6932 57.3961C84.8304 57.2589 85.8431 56.6496 86.0449 56.9562C86.2184 57.2629 85.9117 57.5332 85.9117 57.5332ZM86.521 51.5413C86.3193 51.848 86.0126 51.8117 85.6414 51.7431C85.3025 51.7108 84.6932 51.3033 84.7295 50.8957C84.7981 50.5568 85.4074 50.6577 85.7423 50.7948C86.1175 50.932 86.7591 51.2347 86.521 51.5413ZM90.5479 56.2138C90.3462 56.2138 89.8378 55.7054 90.6488 55.6045C90.9554 55.5359 90.9877 55.7377 90.9877 56.0443C90.9877 56.2784 90.7174 56.2138 90.5479 56.2138ZM90.9877 53.8413C90.6488 53.7404 90.5156 53.6032 90.7174 53.3328C90.9554 53.1311 91.0563 53.1957 91.3589 53.3006C91.597 53.4014 91.6656 53.6072 91.597 53.809C91.5647 54.047 91.3589 53.9462 90.9877 53.8413ZM92.9164 61.1526C92.4443 61.0517 92.0045 60.4747 91.7665 60.1358C91.5647 59.7283 91.4961 58.9858 91.6656 58.6469C91.8028 58.2394 92.0045 58.2071 92.2063 58.3402C92.4444 58.4774 92.3072 59.4902 92.4444 59.5265C92.6138 59.6274 92.7147 60.3376 93.1545 60.4425C93.2877 60.4425 93.4571 60.7814 93.4571 60.7814C93.4571 60.7814 93.2877 61.2575 92.9164 61.1526Z" stroke="white" stroke-width="0.0871553" stroke-miterlimit="2.6131"/>
<path fill-rule="evenodd" clip-rule="evenodd" d="M121.375 62.7101C121.173 62.5729 120.495 63.2185 120.225 63.1176C119.918 63.0168 119.684 62.6092 119.446 62.5084C119.144 62.4075 118.974 62.577 118.668 62.5084C118.43 62.4761 118.599 62.1008 118.397 62C118.127 61.8991 117.99 62.1694 117.687 62.0686C117.449 62 117.28 61.5602 117.078 61.4593C116.84 61.3907 116.775 61.6973 116.505 61.5965C116.134 61.4593 116.033 61.1889 115.795 61.0881C115.593 60.9509 115.153 61.3584 114.847 61.1889C114.54 61.0517 114.54 60.0027 114.338 59.9018C114.1 59.8009 113.358 60.6482 113.051 60.4425C112.781 60.3053 112.881 59.5265 112.643 59.3934C112.442 59.2562 111.526 60.0349 111.292 59.9341C111.09 59.8332 111.054 59.4256 110.751 59.3934C110.481 59.3611 110.005 59.7323 109.702 59.6314C109.093 59.3934 108.35 59.4942 107.434 57.3315C107.333 57.0612 107.132 56.8917 106.926 56.9926C106.385 57.1943 106.587 57.4001 107.329 58.889C108.346 60.854 109.629 60.4465 114.435 62.1049C117.276 63.1217 119.035 63.4243 119.273 63.7955C119.475 64.1667 119.68 64.6751 118.865 64.7437C117.578 64.8446 117.276 64.1667 117.037 64.0659C116.735 63.965 116.529 64.3039 115.92 64.2031C115.242 64.1022 115.48 63.7955 115.242 63.6946C114.939 63.6624 114.326 63.6946 113.923 63.6261C113.515 63.5252 113.483 63.0168 113.281 63.1176C113.043 63.2185 112.841 63.6261 112.131 63.4243C111.489 63.154 111.489 62.6133 111.219 62.577C111.05 62.5084 110.138 63.0168 109.73 62.9159C108.851 62.6456 108.951 61.8991 108.681 61.8345C108.378 61.8022 108.278 62.6133 106.381 62.4761C104.485 62.2743 103.674 62.4075 102.491 61.7982C100.902 60.9509 99.0415 61.0517 99.5822 60.3093C100.191 59.5306 101.14 59.9381 101.749 60.2407C102.358 60.4788 103.036 60.9509 103.508 60.6805C103.678 60.5433 103.306 60.0026 103.137 59.2602C102.899 57.9408 104.053 57.5332 103.948 57.3315C103.779 57.0934 103.137 56.7545 101.58 56.9926C100.53 57.162 98.5008 58.7518 97.9924 58.9899C97.484 59.2925 95.3858 60.4102 94.2359 58.7518C93.0859 57.0612 94.135 55.3342 94.6071 54.7935C95.0469 54.2528 95.7934 53.8453 96.0637 54.2528C96.4349 54.8944 95.5553 55.0638 95.1841 55.5037C94.8452 55.9435 94.3045 57.4324 94.9138 58.1102C95.5553 58.7881 96.7416 58.8567 98.0933 57.8399C99.211 56.9926 101.039 55.8103 102.83 55.9435C104.658 56.0443 105.606 56.8917 105.877 56.9603C106.147 56.9926 106.385 56.3833 106.756 56.2501C107.027 56.1493 107.398 56.4882 107.636 56.3873C107.838 56.2501 108.076 55.7094 108.346 55.6086C108.649 55.5077 109.395 56.0161 109.633 55.8466C109.835 55.7458 109.803 55.1002 110.142 55.0679C110.481 54.9993 111.054 55.6086 111.292 55.5077C111.594 55.3382 111.594 54.9993 111.901 54.9993C112.139 54.9993 112.68 55.8103 112.95 55.7458C113.152 55.7135 113.087 54.8984 113.39 54.7975C113.693 54.6967 114.471 55.3382 114.742 55.2374C114.943 55.1365 114.98 54.156 115.351 53.9502C115.69 53.813 116.029 54.3577 116.23 54.2569C116.501 54.156 116.67 53.0383 116.973 53.006C117.243 52.9737 117.784 53.3086 118.022 53.2441C118.224 53.2118 118.123 52.195 118.53 51.9932C118.938 51.8601 119.446 52.5016 119.58 52.4694C119.781 52.4008 119.882 51.8601 120.088 51.8278C120.326 51.7592 120.935 52.2676 121.238 52.199C121.476 52.0981 121.375 51.3517 121.645 51.3194C121.847 51.2508 122.695 51.4203 122.626 50.472C122.594 49.5238 121.375 48.6119 120.225 48.6119C118.127 48.6119 116.029 49.5238 114.237 49.8628C112.446 50.1694 108.754 51.2508 107.842 51.4203C106.93 51.5575 106.046 51.0491 106.861 50.4035C107.503 49.7942 107.842 50.2703 107.842 50.0645C107.842 49.8628 107.434 49.657 106.861 49.5561C106.252 49.4552 105.542 50.0645 104.763 49.9636C103.984 49.8628 103.206 49.2535 102.362 49.423C100.296 49.661 99.9938 50.5729 98.9447 50.9441C97.8956 51.3517 97.1168 51.045 96.5398 51.1136C95.1195 51.3154 94.6111 52.1627 93.562 52.0618C92.3112 51.961 91.7019 51.2508 90.3462 50.8755C89.059 50.468 86.5896 50.0968 86.0126 49.8951C85.4033 49.657 82.7322 49.0154 82.0866 48.9468C81.3764 48.846 81.0375 49.0477 80.7349 49.0477C80.3959 49.0477 79.9561 48.846 79.484 48.8096C79.0442 48.741 78.3341 48.7088 78.0274 48.8096C77.7571 48.9468 77.6562 48.9468 77.2809 48.8419C76.9783 48.8096 75.8606 48.6039 75.3845 48.6725C74.7066 48.7047 74.4363 49.1445 73.9279 49.2131C73.4558 49.2454 72.9797 49.0114 72.439 49.1123C71.8983 49.2131 71.4585 49.4149 70.9823 49.5521C70.5425 49.7215 69.7315 49.6207 69.3563 49.653C68.3394 49.891 68.2063 50.3994 67.8351 50.3994C67.4961 50.3994 66.2776 50.1977 65.9064 50.3994C65.4988 50.5689 65.1599 50.8715 64.8573 50.9078C64.486 50.9401 63.1303 51.1459 62.287 51.045C61.8149 51.0127 60.9998 51.4162 60.6609 51.5171C60.2534 51.618 59.3092 51.618 59.0348 51.1459C58.7766 50.5608 59.519 49.7135 60.7698 48.6967C61.6172 48.0551 66.3865 44.702 74.1337 43.4512C80.1901 42.4344 87.2634 39.8964 88.7524 38.3389C89.3939 37.6973 92.0005 35.4942 92.6421 34.1425C93.2836 32.7868 93.4894 32.0121 93.1505 32.0443C92.8115 32.1452 92.408 32.8554 91.7624 33.0934C91.1532 33.2952 90.6125 32.9562 90.1363 33.162C89.6965 33.2992 89.1881 34.0094 88.716 34.0417C88.2076 34.1102 88.0059 33.6704 87.6347 33.8399C87.2635 34.1102 86.6542 34.5501 86.2466 34.6509C85.3993 34.7881 85.367 33.8036 84.5883 34.2111C83.7772 34.6187 83.2002 35.2925 82.3892 35.462C81.6427 35.5628 81.7436 34.9899 81.2392 34.9899C80.4282 34.9899 79.6495 36.1076 79.2782 36.1076C78.907 36.1076 78.6004 35.4983 78.1283 35.5669C77.6885 35.5992 76.3004 36.6482 75.7598 36.8177C75.1828 36.9186 75.0819 36.039 74.6098 36.1076C74.0328 36.1398 72.9877 37.1567 72.4107 37.2938C71.8014 37.3947 71.4625 36.9872 71.059 36.9872C70.6515 36.9872 69.4006 38.0363 68.7914 38.2057C67.9117 38.4075 67.8431 37.2938 66.8949 37.3584C66.217 37.3907 65.5069 38.3066 64.9662 38.3389C64.3892 38.4075 64.1552 37.9677 63.5096 38.1008C62.7994 38.3026 61.4114 39.2508 60.9393 39.3517C60.4995 39.4525 60.1606 39.1822 59.6199 39.3517C58.6031 39.6543 57.6589 41.01 57.0133 41.349C56.3031 41.7565 55.7947 41.5507 55.4235 41.7888C54.7456 42.2609 54.6448 43.2091 54.0032 43.4794C53.4302 43.7821 53.4625 43.3423 52.9218 43.6812C52.0099 44.3591 52.3489 45.1015 52.0745 45.4404C51.8041 45.7794 51.0577 46.0497 50.6179 46.5904C50.178 47.0988 50.178 47.4014 50.0086 47.7404C49.8068 48.0793 49.0281 49.0961 48.8586 49.5359C48.7577 49.9757 48.9595 50.4519 48.7577 50.7868C48.6205 51.0934 48.3179 51.5978 48.1485 51.9731C47.8781 52.8527 48.2493 53.7323 48.217 54.0712C48.1485 54.3739 47.8095 54.8823 47.8095 55.2898C47.8095 55.6973 48.217 56.4761 48.1121 57.0854C48.0153 57.7027 46.7604 61.7296 47.4746 63.5575C48.2534 65.4539 49.4033 66.4667 49.8109 66.2972C50.2507 66.16 49.9803 65.349 50.4201 64.6066C50.86 63.8964 51.3684 63.0168 51.7719 63.6261C52.1108 64.2031 50.9608 64.2031 50.86 65.8614C50.7228 67.4512 50.9285 66.7774 50.86 67.2495C50.8277 67.7579 49.8109 68.7061 49.8109 69.1459C49.8109 69.618 49.9117 70.8043 51.4006 72.0551C52.3125 72.8661 52.5183 73.4109 52.7524 73.4431C52.9541 73.5117 53.1599 72.4949 53.5997 72.2932C54.209 72.0228 55.5284 73.2091 55.7665 73.1728C56.0691 73.0719 56.174 71.4458 56.7147 71.1432C57.2554 70.9051 58.5748 71.9542 58.8452 71.8211C59.1155 71.6193 58.8129 70.6025 58.946 70.195C59.1155 69.8238 59.8579 69.7229 59.6239 69.045C59.4222 68.3671 59.3213 67.0477 56.9164 66.8782C56.2063 66.8096 55.2258 66.7088 55.8674 65.9663C56.6098 65.2199 57.4248 62.4801 55.6656 60.3497C54.9232 59.4337 53.2285 59.9421 52.7564 60.1479C51.909 60.4546 51.0657 61.5682 50.7268 61.2656C50.4242 60.9589 51.4047 59.7081 52.9259 59.2683C54.4148 58.7962 56.3112 58.8971 57.0536 60.7572C58.3731 64.0053 57.0536 65.5306 57.2231 65.8695C57.4248 66.2084 58.1713 65.8372 59.2204 66.4788C60.7093 67.4593 60.5076 68.3066 60.8788 68.6092C61.2177 68.8796 63.0092 69.0168 64.6676 69.1176C66.3583 69.2185 68.2224 69.6583 68.9971 69.2185C70.248 68.577 70.3489 66.1721 73.2621 64.4129C74.7187 63.5333 76.6474 62.6536 78.8102 63.0248C81.215 63.3638 81.2473 63.7027 81.0456 64.0053C81.0133 64.1748 80.9447 64.4129 80.9084 64.3766C79.7584 63.7673 78.1 63.6987 77.0832 63.9045C75.5943 64.1748 73.0563 64.5823 71.1962 67.8305C69.3684 71.0786 72.3139 71.115 72.6165 71.2158C72.9554 71.353 73.4961 71.5185 73.4639 72.4667C73.3953 73.4149 73.7019 73.9556 74.0409 74.5649C74.4484 75.1055 75.0899 75.5454 75.0899 75.5454C75.0899 75.5454 75.562 74.464 76.1068 74.2259C76.6474 73.9193 77.289 74.464 77.5957 74.8029C78.5439 76.0215 78.1363 73.7538 78.8142 73.5158C79.7947 73.2091 80.1659 74.6657 80.7107 74.3954C81.6912 73.9556 81.1505 73.2777 81.8606 73.0074C82.6031 72.8056 83.0429 73.4149 83.3495 73.2091C83.6885 72.971 83.6562 70.8729 83.0106 70.0255C82.3004 69.1459 81.2513 67.657 79.016 67.657C76.8169 67.657 76.1068 67.3544 76.2076 66.9105C76.3085 66.4707 76.7483 66.1641 77.289 66.3698C78.1363 66.6725 78.2372 66.6079 79.5889 66.6725C81.5499 66.7047 81.1101 67.5521 82.7362 68.2622C83.9548 68.7706 85.5446 67.9233 87.5096 68.2622C89.5069 68.6012 91.1653 68.9724 92.9891 68.8715C96.443 68.7706 100.264 67.2454 101.011 67.1445C101.789 67.0074 102.197 67.1123 102.197 66.8742C102.197 66.6725 98.8479 66.1641 99.0496 65.353C99.3199 64.5743 100.91 65.2158 103.109 65.7242C105.308 66.1963 110.013 66.6039 111.84 66.503C113.805 66.4707 117.155 67.3503 119.894 66.7047C121.282 66.3658 122.602 65.5185 122.735 64.5743C122.9 63.6261 121.645 62.9159 121.375 62.7101ZM102.495 51.1015C103.036 51.0006 103.984 51.2387 103.746 51.848C103.545 52.4573 103.444 52.3564 103 52.4573C102.56 52.5581 101.648 52.659 101.41 52.2555C101.208 51.848 101.886 51.2347 102.495 51.1015ZM88.7201 35.4983C89.059 35.6677 89.0913 36.1398 89.059 36.4465C88.9581 36.7168 88.7887 36.9872 88.6192 36.9872C88.3489 36.9872 88.3489 36.616 88.248 36.2407C88.1471 35.9381 88.3489 35.2925 88.7201 35.4983ZM85.6091 36.4465C86.3193 36.616 86.0489 37.2575 85.9117 38.004C85.8109 38.5124 85.371 38.6456 85.3025 38.7505C85.0644 39.1903 84.9998 37.2616 84.9998 37.2616C84.9998 37.2616 85.2016 36.3416 85.6091 36.4465ZM82.1552 36.9872C82.4255 36.9549 82.9016 38.004 82.6273 38.9159C82.3246 39.7955 81.9494 39.7955 81.9494 39.7955C81.9494 39.7955 81.8485 38.815 81.7476 38.7141C81.6508 38.5447 81.445 37.1567 82.1552 36.9872ZM79.0442 37.4956C79.6858 37.2575 79.8552 38.7141 79.5526 39.4606C79.2823 40.2394 79.2823 40.7115 78.8062 40.4088C78.2292 40.1385 78.7053 39.1903 78.5358 38.9199C78.3341 38.4398 78.5035 37.7659 79.0442 37.4956ZM75.5943 38.3066C76.4053 38.2057 76.3045 39.4929 76.1027 40.2031C75.8647 40.8446 75.6952 41.1513 75.3603 41.0504C74.9891 40.9132 75.4612 40.0699 75.2594 39.6946C74.985 39.3557 75.1545 38.3389 75.5943 38.3066ZM72.0395 38.9482C72.5116 39.0491 72.8505 39.7592 72.6165 40.7437C72.4148 41.7606 72.1081 41.9946 71.8378 41.9946C71.5674 41.9946 71.9386 40.4048 71.7006 40.4048C71.4988 40.4048 71.4625 38.8473 72.0395 38.9482ZM68.5533 40.1345C68.8559 40.1345 69.5338 40.7115 69.1949 41.7606C68.8559 42.8419 68.8559 42.741 68.5533 42.8419C68.2144 42.9105 68.4524 42.2004 68.2507 41.7928C68.0126 41.4539 67.71 40.1022 68.5533 40.1345ZM65.406 41.2521C66.0153 41.2199 66.2534 42.503 66.1162 43.0477C66.0153 43.5884 65.8136 44.2663 65.4383 44.1654C65.0994 44.0968 65.5069 43.1163 65.2002 43.1163C64.9662 43.1123 64.4941 41.2844 65.406 41.2521ZM63.4127 44.9401C63.0052 45.6866 63.0415 45.6866 62.7712 45.6866C62.5008 45.6866 62.6703 44.6052 62.3637 44.6052C62.0933 44.6052 61.8552 43.0154 62.7026 42.9468C63.6145 42.9105 63.6468 44.3994 63.4127 44.9401ZM62.057 39.8641C62.2587 39.8641 62.7671 40.2031 62.2951 40.7115C61.8552 41.2199 61.823 41.5588 61.4154 41.353C61.0079 41.2158 61.4154 39.8964 62.057 39.8641ZM50.5533 50.5608C50.8236 50.5608 51.1626 51.2387 51.1303 51.509C51.0617 51.7108 51.0294 52.0497 50.6219 52.1506C50.2507 52.2515 50.1135 51.6422 50.1135 51.5413C50.0772 51.4041 49.9763 50.4922 50.5533 50.5608ZM50.9568 54.9953C50.755 54.9953 50.517 54.9953 50.3475 54.8621C50.2466 54.6926 49.5688 54.0148 50.0772 53.3369C50.1094 53.236 50.9568 53.813 51.1263 54.1842C51.2312 54.4505 51.2312 54.9953 50.9568 54.9953ZM51.6669 49.3423C51.5661 49.5117 51.2957 49.6126 51.1263 49.5117C50.8559 49.3423 50.8559 48.8016 50.9568 48.7007C51.0254 48.6684 51.0577 47.8534 51.5984 47.9542C51.8687 47.9865 51.5661 48.6644 51.5984 48.733C51.6669 48.8339 51.8041 49.2051 51.6669 49.3423ZM74.2063 52.7922C74.2386 52.5541 74.6138 52.3523 74.985 52.4532C75.4571 52.4855 76.0018 52.893 75.8969 53.1997C75.8647 53.5063 75.3563 53.7404 74.8478 53.5063C74.408 53.3006 74.1054 53.0988 74.2063 52.7922ZM74.8801 54.9953C75.1828 54.963 75.9978 54.8944 75.9292 55.3342C75.8969 55.7417 75.6912 55.8426 75.0496 55.9435C74.408 56.0443 74.0005 55.6368 74.0005 55.4351C74.0368 55.0961 74.5452 55.0598 74.8801 54.9953ZM73.1895 50.355C73.5607 50.355 73.8996 50.6577 73.7988 50.8957C73.6979 51.1338 73.6616 51.4364 72.9877 51.3033C72.7497 51.2024 72.447 50.8634 72.447 50.6617C72.447 50.2542 72.8505 50.2905 73.1895 50.355ZM69.5338 51.2024C69.6024 50.8634 70.2439 50.7948 70.5506 50.932C70.8895 51.1015 71.0913 51.5413 70.8895 51.7431C70.6515 51.9125 70.4175 51.8439 70.0099 51.7431C69.6024 51.6422 69.5015 51.5413 69.5338 51.2024ZM69.094 52.7599C69.6024 52.7599 70.2117 53.1311 69.9413 53.4014C69.7396 53.6032 69.5338 53.7404 68.9931 53.7404C68.4524 53.7404 68.2466 53.5386 68.2466 53.232C68.2507 52.9616 68.5896 52.6913 69.094 52.7599ZM68.2144 54.9953C68.7914 54.8944 69.1949 55.2333 69.1626 55.5359C69.1626 55.8426 68.6542 56.1129 68.3152 56.1129C67.9077 56.1129 67.3347 56.0121 67.2661 55.5359C67.2016 55.1284 67.9117 55.0598 68.2144 54.9953ZM66.6609 57.7027C66.56 57.3961 67.2702 57.2629 67.6091 57.1943C67.9117 57.162 68.5573 57.2952 68.4565 57.6018C68.3556 57.8399 68.1538 58.1425 67.6091 58.1425C67.0644 58.1062 66.7618 57.9367 66.6609 57.7027ZM67.5042 59.5992C67.4033 60.039 66.9958 60.1076 66.6932 60.1398C66.3542 60.2084 65.8136 60.1398 65.8136 59.8009C65.8136 59.4297 66.2856 59.1593 66.56 59.0544C67.1007 58.9536 67.6051 59.2602 67.5042 59.5992ZM66.0153 51.3033C66.217 51.3355 66.8626 51.505 66.8949 51.8117C66.8949 52.0497 67.0644 52.3887 66.3542 52.3887C65.7127 52.3887 65.4423 52.2878 65.3051 51.9488C65.1034 51.5413 65.8136 51.2347 66.0153 51.3033ZM65.9144 53.7081C66.5923 53.8453 66.6932 53.8453 66.7618 54.1479C66.7941 54.4546 66.2897 54.6563 65.7127 54.7572C65.1034 54.8581 64.7645 54.5877 64.595 54.2851C64.4941 54.0107 65.2366 53.6072 65.9144 53.7081ZM64.7645 56.4842C65.1034 56.4519 65.5069 56.585 65.5069 56.9562C65.4383 57.2589 65.2366 57.3961 64.8976 57.5332C64.595 57.7027 63.9171 57.4324 63.8162 57.1943C63.7154 56.9562 64.3932 56.5528 64.7645 56.4842ZM64.1552 59.2925C64.1552 59.5992 63.5459 59.8332 63.2433 59.9018C63.0052 59.9341 62.8035 60.1398 62.6017 59.9341C62.3637 59.7323 62.4 59.5265 62.5694 59.3934C62.6703 59.2562 63.3159 58.9536 63.4491 58.885C63.7154 58.7841 64.1875 59.0544 64.1552 59.2925ZM62.7671 52.082C63.3078 52.082 63.5459 52.3887 63.6468 52.659C63.7154 52.8971 63.6468 53.0302 63.5096 53.1311C63.4087 53.232 62.7994 53.1997 62.4605 52.9939C61.9884 52.7599 62.1579 52.082 62.7671 52.082ZM60.0597 44.6012C60.8021 44.5326 60.9393 45.5494 60.7698 46.4613C60.4995 47.3409 60.3986 47.3409 60.0597 47.24C59.753 47.1392 60.0597 46.6308 59.8579 46.3927C59.6199 46.195 59.2164 44.6375 60.0597 44.6012ZM59.519 40.8123C60.1969 40.7115 59.9588 41.5588 59.8216 41.7928C59.6199 42.0995 59.8539 42.5393 59.4141 42.503C58.942 42.4344 59.0066 41.8614 58.942 41.5548C58.9097 41.2158 59.1115 40.8446 59.519 40.8123ZM57.1182 43.8587C57.2554 43.657 57.3563 43.1486 57.7961 43.1123C58.0987 43.0437 57.9978 43.891 57.9655 44.2985C57.9655 44.7061 58.0664 45.2105 57.5257 45.0087C56.9487 44.807 56.9487 44.0968 57.1182 43.8587ZM55.02 43.9596C55.1209 43.9596 55.1209 43.891 55.1209 43.891C55.1209 43.891 55.593 43.1123 56.0691 43.3503C56.2708 43.3826 55.7665 44.3671 55.6979 44.5366C55.597 44.807 55.2581 45.0087 54.9554 44.7384C54.6448 44.4317 54.9191 43.9596 55.02 43.9596ZM53.5997 45.7511C53.87 45.852 53.5997 46.7316 53.4988 47.1392C53.4665 47.5467 53.1599 47.7484 52.8573 47.6476C52.5546 47.6153 52.7201 46.9011 52.6192 46.9011C52.5506 46.8365 52.9541 45.6503 53.5997 45.7511ZM52.6152 52.4895C52.8169 52.5581 52.8532 52.9616 52.8532 53.0302C52.8532 53.1997 53.055 53.3006 53.1559 53.6072C53.2244 53.8453 53.055 54.0833 52.8169 54.1479C52.5466 54.1479 52.3085 53.6395 52.3085 53.6395C52.3125 53.7081 52.1108 52.4573 52.6152 52.4895ZM53.4625 56.6536C53.2608 56.7908 53.0227 56.8917 52.716 56.8554C52.4134 56.7545 52.0745 56.2461 52.3448 55.9435C52.6152 55.7054 53.0227 55.9112 53.2244 56.0443C53.4302 56.2138 53.6643 56.4842 53.4625 56.6536ZM53.5634 50.932C53.1559 50.8634 53.3253 50.0847 53.2567 50.0847C53.2567 50.0847 53.6643 48.6967 54.0678 48.9347C54.3704 49.1365 54.2049 50.0524 54.1686 50.4922C54.1041 50.8998 53.9023 51.0329 53.5634 50.932ZM54.3099 53.5063C54.1767 53.4378 54.0072 52.5581 54.6125 52.4895C54.8505 52.4895 55.254 52.9616 55.254 53.236C55.2218 53.5386 55.3226 53.9462 54.7456 53.9139C54.2049 53.8413 54.4107 53.5386 54.3099 53.5063ZM55.7624 57.8359C55.5607 57.8359 55.1532 57.8036 54.9151 57.4283C54.7133 57.158 54.6448 56.6819 54.9151 56.5487C55.1168 56.4478 55.6575 56.7868 55.8956 57.2589C56.17 57.7027 55.8996 57.8359 55.7624 57.8359ZM56.4726 56.1452C56.2023 56.1129 55.8996 56.008 55.6616 55.7054C55.4235 55.4351 55.4235 54.8581 55.7988 54.7895C56.3758 54.6886 56.7107 55.197 56.9164 55.6368C57.0496 56.1089 56.6421 56.1452 56.4726 56.1452ZM57.0133 53.7404C56.7429 53.7404 56.6058 53.6395 56.4726 53.4337C56.2708 53.2965 56.2023 52.6873 56.7429 52.6873C57.0133 52.6873 57.4208 52.889 57.4531 53.1957C57.5217 53.5386 57.2513 53.7081 57.0133 53.7404ZM57.5217 46.9051C57.8929 46.9051 58.5708 47.3127 58.369 48.4949C58.0987 49.6449 57.9615 49.2414 57.7275 49.3059C57.5257 49.4068 57.6589 48.6644 57.5257 48.4949C57.2513 48.1883 56.6098 46.9051 57.5217 46.9051ZM58.1996 58.0417C57.9615 57.9408 57.6589 57.8036 57.6226 57.4324C57.5217 57.0934 57.8929 56.9926 58.1996 57.0612C58.5708 57.0934 58.8411 57.4001 58.8411 57.6382C58.8411 57.9367 58.4013 58.1062 58.1996 58.0417ZM58.8411 55.7054C58.6717 55.7377 58.5708 55.8426 58.1996 55.7377C57.8606 55.6045 57.1505 54.8581 57.792 54.4505C57.9938 54.2811 58.7725 54.4828 58.942 55.0598C59.2164 55.5359 59.0469 55.6045 58.8411 55.7054ZM58.9097 53.4014C58.8088 53.3006 59.0106 52.7599 59.5513 52.893C60.0597 52.9939 60.1928 53.3328 60.1606 53.6395C60.0597 53.9462 59.7207 53.9462 59.4504 53.9098C59.2164 53.8413 59.0469 53.5063 58.9097 53.4014ZM60.9393 59.2925C60.7698 59.3934 60.3986 59.4942 59.8902 59.4297C59.4504 59.3974 59.3495 59.2602 59.519 58.9899C59.7207 58.7518 59.8579 58.6832 60.2655 58.5501C60.673 58.3806 61.1451 58.5823 61.246 58.7518C61.3468 58.885 61.1451 59.2602 60.9393 59.2925ZM61.6172 57.0934C61.3468 57.2629 60.7698 57.0934 60.6004 56.6859C60.4632 56.2461 60.7012 56.1452 60.903 56.0443C61.1411 56.0121 61.714 56.2824 61.8149 56.6536C61.8552 56.8877 61.8552 56.9562 61.6172 57.0934ZM62.1579 55.1284C61.9198 55.1284 61.0402 54.9912 61.2097 54.5514C61.3105 54.0793 61.8189 54.0793 62.0893 54.1439C62.2587 54.1439 62.9689 54.3819 62.7994 54.7854C62.6986 55.2293 62.3959 55.0961 62.1579 55.1284ZM69.9413 63.1176C69.9413 63.3557 69.8041 63.5252 69.6024 63.5252C69.3643 63.5252 68.6905 63.3557 68.3515 63.6261C68.0126 63.8641 67.8109 64.3039 67.8431 64.6066C67.9117 64.8446 67.9117 65.2158 67.7423 65.3167C67.6051 65.4539 66.9635 65.2158 66.6932 65.2481C66.4551 65.2481 65.6118 65.4499 65.406 65.8897C65.168 66.2972 65.3374 66.5998 65.2043 66.7007C65.0671 66.8702 64.8653 66.9388 64.6636 66.9388C64.4618 67.0074 63.5459 66.8702 63.4127 67.0074C63.211 67.1445 62.7026 67.7538 62.5654 67.548C62.3959 67.3463 62.1579 67.4472 62.5977 66.7007C62.7994 66.3618 63.3401 65.9905 63.4087 65.9905C63.441 65.9905 64.1189 66.0591 64.2561 65.9583C64.3932 65.8211 64.7967 65.01 64.9662 64.8406C65.6441 64.2999 65.6078 64.5016 65.8136 64.4008C66.0153 64.3685 66.6932 64.5016 66.7618 64.3685C66.8626 64.1667 67.2702 63.4203 67.6091 63.1176C68.0489 62.7101 68.7591 62.6456 68.86 62.577C68.8922 62.4761 69.0617 62.2057 69.1626 62C69.2957 61.7982 69.905 61.2898 70.3125 61.3907C70.5143 61.4593 69.8041 62.4075 69.8041 62.6092C69.7396 62.811 69.9413 62.8473 69.9413 63.1176ZM70.4497 60.2407C69.9413 60.3416 69.4006 60.3093 69.3684 60.039C69.2998 59.8372 69.4692 59.5306 69.8082 59.3974C70.1148 59.2602 70.4175 59.3651 70.6555 59.3651C70.8573 59.3651 71.3657 59.3651 71.2971 59.5346C71.2608 59.7 70.9581 60.1398 70.4497 60.2407ZM71.1599 57.9367C70.5829 58.0053 70.0422 57.8359 70.1108 57.5978C70.2117 57.3275 70.5506 57.0894 71.059 57.0894C71.5674 57.0571 71.9064 57.1903 71.9064 57.4283C71.9064 57.6341 71.7006 57.9045 71.1599 57.9367ZM72.3099 55.197C72.209 55.6045 72.0072 55.7054 71.632 55.7377C71.2608 55.7377 70.5143 55.6368 70.5143 55.0598C70.5143 54.7895 71.293 54.6523 71.4625 54.6523C71.632 54.5877 72.3421 54.7895 72.3099 55.197ZM72.8505 53.0302C72.7819 53.3328 72.3421 53.6072 72.0032 53.5023C71.632 53.4014 71.1559 53.3328 71.1922 52.9939C71.1922 52.7922 71.4948 52.4855 72.0395 52.5541C72.6165 52.5581 72.8869 52.7922 72.8505 53.0302ZM74.6461 59.5992C74.5089 59.7363 74.3435 60.1076 73.9359 60.2084C73.5647 60.2407 73.0886 60.4102 72.8869 59.9381C72.786 59.7 72.9554 59.4983 73.2581 59.2965C73.4961 59.1593 74.3072 59.1593 74.3072 59.1593C74.3072 59.1593 74.408 58.889 74.6098 59.0585C74.8156 59.1916 74.8156 59.4297 74.6461 59.5992ZM75.5943 57.8036C75.2554 57.8036 74.4444 57.8359 74.408 57.4324C74.3072 57.2629 74.8478 57.0612 75.1868 56.9603C75.5943 56.8594 75.8647 56.8594 75.9978 56.8917C76.135 56.9603 76.5062 57.0934 76.5062 57.2629C76.5062 57.4324 75.8969 57.735 75.5943 57.8036ZM76.0341 51.0329C75.8969 50.694 75.8647 50.3914 76.0018 50.2542C76.2399 50.0847 77.0509 50.3873 77.1841 50.7626C77.3858 51.1015 77.3858 51.509 77.0469 51.6099C76.708 51.6422 76.135 51.3396 76.0341 51.0329ZM77.2487 52.9979C77.1801 52.6953 77.7893 52.4573 78.1969 52.4895C78.5358 52.5581 79.1451 52.8971 79.0442 53.236C78.9111 53.6072 78.8425 53.7081 78.5358 53.7081C78.2332 53.7081 77.285 53.5063 77.2487 52.9979ZM77.5553 55.3988C77.4867 55.1284 78.096 54.9912 78.3341 54.9912C78.5358 54.9912 79.4517 55.1284 79.1814 55.4996C79.0119 55.8386 78.6407 56.008 78.3341 56.008C78.096 56.008 77.6562 55.6368 77.5553 55.3988ZM79.3832 58.2434C79.0442 58.4815 78.8062 58.4815 78.4027 58.4815C78.0314 58.4815 77.9628 58.2434 77.9628 57.9408C77.9628 57.7027 78.3341 57.5332 78.5035 57.501C78.7053 57.4324 78.9433 57.501 79.1451 57.4324C79.2823 57.4001 79.2823 57.4001 79.484 57.3315C79.6535 57.2992 79.7544 57.2629 79.7867 57.5332C79.8552 57.8036 79.7544 58.0417 79.3832 58.2434ZM80.061 51.4041C79.8916 51.505 79.8916 51.6059 79.5526 51.5413C79.1451 51.509 78.9433 50.8998 78.8425 50.8634C78.7053 50.7948 78.4027 50.4559 78.5358 50.2905C78.7053 50.1533 79.4517 50.1533 79.7867 50.4599C80.1942 50.7948 80.1942 51.3033 80.061 51.4041ZM80.8035 52.7922C80.9043 52.6913 81.1424 52.5541 81.445 52.5541C81.7476 52.5541 82.1552 52.7558 82.2924 52.9616C82.3932 53.1997 82.3932 53.4014 82.1915 53.6032C82.0543 53.7404 81.1424 53.5023 81.0052 53.3328C80.8035 53.1311 80.7349 52.9616 80.8035 52.7922ZM81.0415 55.8386C80.9407 55.9394 80.9043 55.6005 81.0415 55.431C81.2433 55.2938 81.6831 55.0598 81.9534 55.0598C82.1915 55.0598 82.595 55.1284 82.5304 55.3302C82.4941 55.5319 82.4296 56.0403 81.8889 56.0403C81.3442 56.1089 81.1424 55.8063 81.0415 55.8386ZM82.0906 58.3443C81.6508 58.3766 81.3482 58.312 81.2796 57.9367C81.2473 57.5978 81.5822 57.4969 81.6508 57.4969C81.6831 57.4969 82.0583 57.4283 82.1592 57.3961C82.3973 57.3961 82.8008 57.0894 83.0066 57.3961C83.1034 57.6018 82.5304 58.2434 82.0906 58.3443ZM83.5432 51.509C83.4746 51.6462 83.3415 52.0497 82.8331 51.9166C82.3246 51.7471 82.0906 51.509 81.9534 51.3073C81.8526 51.1055 81.4813 50.7989 81.784 50.4963C81.9534 50.3591 82.7322 50.6657 83.1034 50.9361C83.4101 51.2347 83.5795 51.3033 83.5432 51.509ZM83.8821 52.9616C83.983 52.7599 84.3906 52.655 84.6932 52.655C84.9958 52.6872 85.4033 52.7922 85.4719 53.1271C85.5405 53.4337 85.4719 53.5346 85.371 53.7041C85.2016 53.8413 84.5923 53.6355 84.3542 53.5346C84.0839 53.4378 83.7813 53.0988 83.8821 52.9616ZM83.9507 55.2979C83.9507 55.0598 84.2897 55.0961 84.4591 55.0598C84.5277 54.9912 84.6286 54.8903 84.899 54.8581C85.1007 54.7895 85.5405 54.7895 85.5405 54.9912C85.6091 55.1284 85.5405 55.431 84.9998 55.6005C84.3906 55.8063 83.983 55.5359 83.9507 55.2979ZM85.9117 57.5332C85.9117 57.5332 85.4719 57.9408 85.371 58.1102C85.2016 58.2111 84.9312 58.4815 84.5237 58.1425C84.2856 57.9045 84.5237 57.501 84.6932 57.3961C84.8304 57.2589 85.8431 56.6496 86.0449 56.9562C86.2184 57.2629 85.9117 57.5332 85.9117 57.5332ZM86.521 51.5413C86.3193 51.848 86.0126 51.8117 85.6414 51.7431C85.3025 51.7108 84.6932 51.3033 84.7295 50.8957C84.7981 50.5568 85.4074 50.6577 85.7423 50.7948C86.1175 50.932 86.7591 51.2347 86.521 51.5413ZM90.5479 56.2138C90.3462 56.2138 89.8378 55.7054 90.6488 55.6045C90.9554 55.5359 90.9877 55.7377 90.9877 56.0443C90.9877 56.2784 90.7174 56.2138 90.5479 56.2138ZM90.9877 53.8413C90.6488 53.7404 90.5156 53.6032 90.7174 53.3328C90.9554 53.1311 91.0563 53.1957 91.3589 53.3006C91.597 53.4014 91.6656 53.6072 91.597 53.809C91.5647 54.047 91.3589 53.9462 90.9877 53.8413ZM92.9164 61.1526C92.4444 61.0517 92.0045 60.4747 91.7665 60.1358C91.5647 59.7283 91.4961 58.9858 91.6656 58.6469C91.8028 58.2394 92.0045 58.2071 92.2063 58.3402C92.4444 58.4774 92.3072 59.4902 92.4444 59.5265C92.6138 59.6274 92.7147 60.3376 93.1545 60.4425C93.2877 60.4425 93.4571 60.7814 93.4571 60.7814C93.4571 60.7814 93.2877 61.2575 92.9164 61.1526Z" fill="#009640"/>
<path d="M57.1868 91.6328H58.8169C59.2688 91.6328 59.6481 91.3382 59.7611 90.8984L60.1121 89.5104C60.1686 89.2925 60.3583 89.1432 60.5842 89.1432H63.6387C63.8646 89.1432 64.0543 89.2925 64.1108 89.5104L64.4618 90.8984C64.5708 91.3382 64.95 91.6328 65.406 91.6328H67.0361C67.6858 91.6328 68.1538 91.0033 67.9682 90.3819L64.5466 78.9388C64.4215 78.5191 64.0543 78.2447 63.6145 78.2447H60.6084C60.1726 78.2447 59.8014 78.5191 59.6763 78.9388L56.2547 90.3819C56.065 91.0074 56.5331 91.6328 57.1868 91.6328ZM63.0334 86.4236H61.1854C61.0402 86.4236 60.9272 86.2824 60.9635 86.1371L62.0086 82.0094C62.0328 81.9125 62.1901 81.9125 62.2143 82.0094L63.2594 86.1371C63.2876 86.2824 63.1787 86.4236 63.0334 86.4236ZM85.2177 91.9556C88.7402 91.9556 91.597 88.8325 91.597 84.9831C91.597 81.1338 88.7402 78.0107 85.2177 78.0107C81.6952 78.0107 78.8384 81.1338 78.8384 84.9831C78.8424 88.8325 81.6952 91.9556 85.2177 91.9556ZM85.2177 88.8486C83.5149 88.8486 82.6071 87.1176 82.6071 84.9831C82.6071 82.8486 83.4181 81.1176 85.2177 81.1176C87.0173 81.1176 87.8283 82.8486 87.8283 84.9831C87.8324 87.1176 86.9205 88.8486 85.2177 88.8486ZM98.6905 87.8076C98.6905 88.6065 98.061 89.0464 97.2056 89.0464C96.1283 89.0464 95.4302 88.4008 94.7806 87.739C94.4376 87.388 93.8646 87.4001 93.5055 87.731L92.7026 88.4613C92.3878 88.7478 92.1538 89.2239 92.4201 89.5548C93.2876 90.624 94.5788 91.8426 97.6938 91.8426C100.458 91.8426 102.185 89.9139 102.185 87.8359C102.185 86.1412 101.471 85.0195 99.445 83.9865L97.3468 82.9899C96.4551 82.7518 96.0758 82.429 96.0758 81.848C96.0758 81.2306 96.5116 80.8513 97.2177 80.8513C98.0529 80.8513 98.7591 81.3678 99.3926 81.8803C99.7638 82.1788 100.313 82.1102 100.635 81.7592L101.475 80.8513C101.765 80.5366 101.874 80.0121 101.563 79.7135C100.555 78.733 99.0455 77.9986 96.9796 77.9986C94.0583 77.9986 92.3354 79.8103 92.3354 82.0134C92.3354 83.8695 93.2392 84.8339 95.1962 85.7296L97.6051 86.7585C98.3757 86.9845 98.6905 87.279 98.6905 87.8076ZM67.9601 84.9831C67.9601 88.8325 70.8169 91.9556 74.3394 91.9556C76.022 91.9556 77.5513 91.2454 78.6891 90.0833C78.8909 89.8776 78.8868 89.5467 78.6932 89.3369L77.4141 87.9367C77.1599 87.6583 76.7644 87.739 76.4901 88.0013C75.8687 88.6025 75.3724 88.8486 74.3435 88.8486C72.5439 88.8486 71.7328 87.1176 71.7328 84.9831C71.7328 82.8486 72.5439 81.1176 74.3435 81.1176C75.3764 81.1176 75.8687 81.3638 76.4901 81.965C76.7644 82.2273 77.1558 82.308 77.4141 82.0295L78.6932 80.6294C78.8868 80.4196 78.8909 80.0887 78.6891 79.8829C77.5513 78.7209 76.022 78.0107 74.3394 78.0107C70.8169 78.0107 67.9601 81.1338 67.9601 84.9831ZM120.548 83.3571H118.171C117.901 83.3571 117.683 83.1392 117.683 82.8729V81.9004C117.683 81.6301 117.901 81.4122 118.171 81.4122H121.674C122.21 81.4122 122.646 80.9764 122.646 80.4398V79.2212C122.646 78.6846 122.21 78.2488 121.674 78.2488H114.964C114.427 78.2488 113.991 78.6846 113.991 79.2212V90.6644C113.991 91.201 114.427 91.6368 114.964 91.6368H121.674C122.21 91.6368 122.646 91.201 122.646 90.6644V89.4458C122.646 88.9092 122.21 88.4734 121.674 88.4734H118.171C117.901 88.4734 117.683 88.2555 117.683 87.9852V87.0127C117.683 86.7424 117.901 86.5245 118.171 86.5245H119.487H120.548C121.085 86.5245 121.52 86.0887 121.52 85.5521V84.3335C121.52 83.7928 121.085 83.3571 120.548 83.3571ZM106.885 91.6328H108.633C109.169 91.6328 109.605 91.197 109.605 90.6603V81.8964C109.605 81.6261 109.823 81.4082 110.089 81.4082H112.054C112.591 81.4082 113.027 80.9724 113.027 80.4357V79.2172C113.027 78.6805 112.591 78.2447 112.054 78.2447H103.46C102.923 78.2447 102.487 78.6805 102.487 79.2172V80.4357C102.487 80.9724 102.923 81.4082 103.46 81.4082H105.425C105.695 81.4082 105.913 81.6261 105.913 81.8964V90.6603C105.913 91.197 106.349 91.6328 106.885 91.6328ZM54.5721 88.4613H51.9615C51.6911 88.4613 51.4773 88.2434 51.4773 87.9731V79.2172C51.4773 78.6805 51.0415 78.2447 50.5049 78.2447H48.7537C48.217 78.2447 47.7812 78.6805 47.7812 79.2172V90.6603C47.7812 91.197 48.217 91.6328 48.7537 91.6328L53.8014 91.6287H54.5721C55.1088 91.6287 55.5445 91.193 55.5445 90.6563V89.4337C55.5445 88.893 55.1088 88.4613 54.5721 88.4613Z" stroke="white" stroke-width="0.0871553" stroke-miterlimit="2.6131"/>
<path fill-rule="evenodd" clip-rule="evenodd" d="M85.2177 91.9556C88.7402 91.9556 91.597 88.8325 91.597 84.9831C91.597 81.1338 88.7402 78.0107 85.2177 78.0107C81.6952 78.0107 78.8384 81.1338 78.8384 84.9831C78.8424 88.8325 81.6952 91.9556 85.2177 91.9556ZM85.2177 88.8486C83.5149 88.8486 82.6071 87.1176 82.6071 84.9831C82.6071 82.8486 83.4181 81.1176 85.2177 81.1176C87.0173 81.1176 87.8283 82.8486 87.8283 84.9831C87.8324 87.1176 86.9205 88.8486 85.2177 88.8486ZM57.1868 91.6328H58.8169C59.2688 91.6328 59.6481 91.3382 59.7611 90.8984L60.1121 89.5104C60.1686 89.2925 60.3583 89.1432 60.5842 89.1432H63.6387C63.8646 89.1432 64.0543 89.2925 64.1108 89.5104L64.4618 90.8984C64.5708 91.3382 64.95 91.6328 65.406 91.6328H67.0361C67.6858 91.6328 68.1538 91.0033 67.9682 90.3819L64.5466 78.9388C64.4215 78.5191 64.0543 78.2447 63.6145 78.2447H60.6084C60.1726 78.2447 59.8014 78.5191 59.6763 78.9388L56.2547 90.3819C56.065 91.0074 56.5331 91.6328 57.1868 91.6328ZM63.0334 86.4236H61.1854C61.0402 86.4236 60.9272 86.2824 60.9635 86.1371L62.0086 82.0094C62.0328 81.9125 62.1901 81.9125 62.2143 82.0094L63.2594 86.1371C63.2876 86.2824 63.1787 86.4236 63.0334 86.4236ZM67.9601 84.9831C67.9601 88.8325 70.8169 91.9556 74.3394 91.9556C76.022 91.9556 77.5513 91.2454 78.6891 90.0833C78.8909 89.8776 78.8868 89.5467 78.6932 89.3369L77.4141 87.9367C77.1599 87.6583 76.7644 87.739 76.4901 88.0013C75.8687 88.6025 75.3724 88.8486 74.3435 88.8486C72.5439 88.8486 71.7328 87.1176 71.7328 84.9831C71.7328 82.8486 72.5439 81.1176 74.3435 81.1176C75.3764 81.1176 75.8687 81.3638 76.4901 81.965C76.7644 82.2273 77.1558 82.308 77.4141 82.0295L78.6932 80.6294C78.8868 80.4196 78.8909 80.0887 78.6891 79.8829C77.5513 78.7209 76.022 78.0107 74.3394 78.0107C70.8169 78.0107 67.9601 81.1338 67.9601 84.9831ZM98.6905 87.8076C98.6905 88.6065 98.061 89.0464 97.2056 89.0464C96.1283 89.0464 95.4302 88.4008 94.7806 87.739C94.4376 87.388 93.8646 87.4001 93.5055 87.731L92.7026 88.4613C92.3878 88.7478 92.1538 89.2239 92.4201 89.5548C93.2876 90.624 94.5788 91.8426 97.6938 91.8426C100.458 91.8426 102.185 89.9139 102.185 87.8359C102.185 86.1412 101.471 85.0195 99.445 83.9865L97.3468 82.9899C96.4551 82.7518 96.0758 82.429 96.0758 81.848C96.0758 81.2306 96.5116 80.8513 97.2177 80.8513C98.0529 80.8513 98.7591 81.3678 99.3926 81.8803C99.7638 82.1788 100.313 82.1102 100.635 81.7592L101.475 80.8513C101.765 80.5366 101.874 80.0121 101.563 79.7135C100.555 78.733 99.0455 77.9986 96.9796 77.9986C94.0583 77.9986 92.3354 79.8103 92.3354 82.0134C92.3354 83.8695 93.2392 84.8339 95.1962 85.7296L97.6051 86.7585C98.3757 86.9845 98.6905 87.279 98.6905 87.8076ZM120.548 83.3571H118.171C117.901 83.3571 117.683 83.1392 117.683 82.8729V81.9004C117.683 81.6301 117.901 81.4122 118.171 81.4122H121.674C122.21 81.4122 122.646 80.9764 122.646 80.4398V79.2212C122.646 78.6846 122.21 78.2488 121.674 78.2488H114.964C114.427 78.2488 113.991 78.6846 113.991 79.2212V90.6644C113.991 91.201 114.427 91.6368 114.964 91.6368H121.674C122.21 91.6368 122.646 91.201 122.646 90.6644V89.4458C122.646 88.9092 122.21 88.4734 121.674 88.4734H118.171C117.901 88.4734 117.683 88.2555 117.683 87.9852V87.0127C117.683 86.7424 117.901 86.5245 118.171 86.5245H119.487H120.548C121.085 86.5245 121.52 86.0887 121.52 85.5521V84.3335C121.52 83.7928 121.085 83.3571 120.548 83.3571ZM106.885 91.6328H108.633C109.169 91.6328 109.605 91.197 109.605 90.6603V81.8964C109.605 81.6261 109.823 81.4082 110.089 81.4082H112.054C112.591 81.4082 113.027 80.9724 113.027 80.4357V79.2172C113.027 78.6805 112.591 78.2447 112.054 78.2447H103.46C102.923 78.2447 102.487 78.6805 102.487 79.2172V80.4357C102.487 80.9724 102.923 81.4082 103.46 81.4082H105.425C105.695 81.4082 105.913 81.6261 105.913 81.8964V90.6603C105.913 91.197 106.349 91.6328 106.885 91.6328ZM54.5721 88.4613H51.9615C51.6911 88.4613 51.4773 88.2434 51.4773 87.9731V79.2172C51.4773 78.6805 51.0415 78.2447 50.5049 78.2447H48.7537C48.217 78.2447 47.7812 78.6805 47.7812 79.2172V90.6603C47.7812 91.197 48.217 91.6328 48.7537 91.6328L53.8014 91.6287H54.5721C55.1088 91.6287 55.5445 91.193 55.5445 90.6563V89.4337C55.5445 88.893 55.1088 88.4613 54.5721 88.4613Z" fill="#009640"/>
</g>
<defs>
<clipPath id="clip0_226_3647">
<rect width="75.575" height="60" fill="white" transform="translate(47.2124 32)"/>
</clipPath>
</defs>
</svg>
