<svg width="170" height="124" viewBox="0 0 170 124" fill="none" xmlns="http://www.w3.org/2000/svg">
<rect width="170" height="124" fill="white"/>
<g clip-path="url(#clip0_226_3714)">
<path fill-rule="evenodd" clip-rule="evenodd" d="M54.7423 34.8457C54.3619 35.0878 51.3016 38.7014 50.7483 39.3412C49.7455 40.5169 48.9328 41.6407 48.0337 42.8165C44.7486 47.1217 40.6854 55.4729 44.3336 60.7118C49.0366 67.5068 59.4971 63.9105 66.223 61.0576L86.7637 52.205C91.3456 50.2685 95.8583 48.3493 100.44 46.3264C102.74 45.3236 104.953 44.3899 107.253 43.3871C111.713 41.4333 116.537 39.3412 120.981 37.4738C121.586 37.2318 127.499 34.6209 127.88 34.5345C127.689 34.4307 127.447 34.5345 127.188 34.6209C120.03 36.6266 112.595 38.4766 105.506 40.5169L94.3195 43.56L71.9806 49.6288C67.1739 50.9256 58.9611 53.8822 54.5867 50.4587C51.2843 47.8652 51.2324 43.6464 52.5292 39.808C52.8231 38.9089 53.1343 38.0444 53.532 37.2318L54.7423 34.8457Z" fill="#E30613"/>
<path fill-rule="evenodd" clip-rule="evenodd" d="M100.25 82.2207C100.198 80.8548 100.112 77.9328 100.769 76.8435C101.218 76.1173 102.238 76.0481 102.653 76.8435C102.982 77.4486 103.12 78.5898 103.155 79.3506C103.224 80.8202 103.276 83.5175 102.636 84.7105C102.186 85.5231 101.287 85.4713 100.786 84.6932C100.475 84.1572 100.284 82.9296 100.25 82.2207ZM100.924 72.3135C99.5237 72.5036 98.6419 73.1088 97.7601 73.835C95.7198 75.5294 95.3049 79.0566 95.4259 81.7366C95.6334 86.3185 97.7601 89.9321 102.67 89.448C107.391 88.9812 108.307 83.8287 108.134 80.0249C108.082 78.9529 107.944 77.7771 107.615 76.7916C107.322 75.9098 106.993 75.149 106.44 74.4401C106.405 74.3883 106.353 74.3537 106.319 74.3018C105.921 73.8177 105.904 73.8004 105.402 73.3854C104.209 72.3999 102.549 72.0887 100.924 72.3135Z" fill="black"/>
<path fill-rule="evenodd" clip-rule="evenodd" d="M88.3371 77.0856C88.9596 77.0683 89.2016 77.0511 89.5647 77.4314C90.7232 78.5899 90.5503 82.5839 90.1007 83.9325C89.9624 84.3648 89.7722 84.7106 89.4956 84.8835C89.167 85.1083 88.7867 85.2466 88.3025 85.1601L88.3371 77.0856ZM83.5996 89.1542C85.2595 89.1196 86.9366 89.1542 88.5965 89.1542C90.1353 89.1369 91.3802 88.7392 92.4003 87.9957L93.3858 87.0966C94.7863 85.212 95.2013 83.4484 95.2532 80.9241C95.3396 75.9445 93.1438 72.7285 88.5446 72.7285C86.902 72.7285 85.2595 72.7285 83.6342 72.7285L83.5996 89.1542Z" fill="black"/>
<path fill-rule="evenodd" clip-rule="evenodd" d="M49.7454 83.1026C49.7454 84.9872 49.6936 86.3013 50.9212 87.7364C51.0076 87.8401 51.0249 87.892 51.1286 87.9784C52.8058 89.7075 56.1774 89.8631 58.3386 88.9813C59.2031 88.6182 59.8256 88.0303 60.327 87.2523C60.8284 86.4569 61.0705 85.5232 61.1396 84.434C61.2088 83.2928 61.1569 81.9615 61.1396 80.7857L61.1051 72.6939H56.4021C56.4194 76.1693 56.4886 80.146 56.4367 83.5522C56.4194 84.2783 56.212 85.091 55.4166 85.0737C54.604 85.0737 54.4484 84.2956 54.4484 83.5522L54.3792 72.7112H49.6763L49.7454 83.1026Z" fill="black"/>
<path fill-rule="evenodd" clip-rule="evenodd" d="M61.2953 88.1859C62.9897 89.4308 65.7042 89.9495 67.9347 88.8775C70.0614 87.8574 71.0815 85.6097 70.7357 83.3274C70.4763 81.5119 69.3352 80.5091 68.1249 79.5063L66.9837 78.5726C65.5141 77.5179 66.1538 76.394 67.1912 76.3249C67.9865 76.273 68.9721 76.7399 69.5427 77.1548C69.802 77.345 69.8712 77.4142 70.1478 77.5525L70.0959 73.3856C68.3151 72.3481 65.272 71.8986 63.4392 73.057C60.8284 74.6996 60.6209 78.2614 62.2462 80.1633C62.9724 81.0105 63.4911 81.4946 64.3556 82.2208L65.4449 83.2064C65.9809 83.9671 65.929 84.9354 65.0126 85.1774C63.7677 85.4887 62.5401 84.7625 61.5892 84.1055L61.3471 83.9498L61.2953 88.1859Z" fill="black"/>
<path fill-rule="evenodd" clip-rule="evenodd" d="M70.3376 76.8436H73.0694L73.0867 89.1196H77.7551V76.8436H80.3832L80.3659 72.6939H70.3203L70.3376 76.8436Z" fill="black"/>
<path fill-rule="evenodd" clip-rule="evenodd" d="M116.087 76.8436H118.819L118.837 89.1196H123.505V76.8436H126.133V72.6939H116.087V76.8436Z" fill="black"/>
<path fill-rule="evenodd" clip-rule="evenodd" d="M44.8176 80.4745C44.8176 81.5638 44.9386 83.5695 44.783 84.555C44.6792 85.212 44.1259 85.4714 43.5035 85.333C42.6217 85.1083 42.3969 84.7971 42.103 84.7106V88.0822C42.103 88.6873 42.0165 88.6528 42.4834 88.8775C44.4372 89.7766 47.2209 89.6383 48.5522 87.7537C49.9873 85.6961 49.5205 82.1517 49.5205 79.4544L49.4686 72.6939H44.7657L44.8176 80.4745Z" fill="black"/>
<path fill-rule="evenodd" clip-rule="evenodd" d="M111.056 89.1195H115.776L115.794 72.7112H111.004L111.056 89.1195Z" fill="black"/>
<path d="M125.926 86.3013C126.185 86.3013 126.444 86.3704 126.687 86.5088C126.929 86.6471 127.136 86.8373 127.274 87.0793C127.413 87.3214 127.482 87.598 127.482 87.8574C127.482 88.134 127.413 88.3934 127.274 88.6354C127.136 88.8775 126.946 89.085 126.704 89.206C126.462 89.3443 126.202 89.4135 125.926 89.4135C125.649 89.4135 125.39 89.3443 125.148 89.206C124.906 89.0677 124.698 88.8775 124.577 88.6354C124.439 88.3934 124.37 88.134 124.37 87.8574C124.37 87.5807 124.439 87.3214 124.577 87.0793C124.715 86.82 124.906 86.6298 125.165 86.5088C125.407 86.3704 125.666 86.3013 125.926 86.3013ZM125.926 86.5606C125.701 86.5606 125.493 86.6125 125.286 86.7335C125.079 86.8546 124.923 87.0102 124.802 87.2176C124.681 87.4251 124.629 87.6499 124.629 87.8747C124.629 88.0994 124.681 88.3069 124.802 88.5144C124.923 88.7219 125.079 88.8775 125.286 88.9985C125.493 89.1196 125.701 89.1714 125.943 89.1714C126.168 89.1714 126.375 89.1196 126.583 88.9985C126.79 88.8775 126.946 88.7219 127.067 88.5144C127.188 88.3069 127.24 88.0994 127.24 87.8747C127.24 87.6499 127.171 87.4251 127.067 87.2176C126.946 87.0102 126.79 86.8546 126.583 86.7335C126.358 86.6125 126.151 86.5606 125.926 86.5606ZM125.234 88.7219V87.0447H125.805C125.995 87.0447 126.151 87.062 126.237 87.0966C126.323 87.1312 126.393 87.1831 126.444 87.2522C126.496 87.3214 126.531 87.4078 126.531 87.4943C126.531 87.6153 126.479 87.7191 126.393 87.8055C126.306 87.892 126.185 87.9438 126.047 87.9611C126.099 87.9784 126.151 88.013 126.185 88.0476C126.254 88.1167 126.341 88.2205 126.427 88.3761L126.635 88.7046H126.306L126.151 88.4453C126.029 88.2378 125.943 88.0994 125.857 88.0649C125.805 88.0303 125.736 88.013 125.649 88.013H125.493V88.7219H125.234ZM125.511 87.7882H125.839C125.995 87.7882 126.099 87.7536 126.168 87.7191C126.22 87.6672 126.254 87.6153 126.254 87.5289C126.254 87.477 126.237 87.4424 126.22 87.3906C126.185 87.356 126.151 87.3214 126.099 87.3041C126.047 87.2868 125.96 87.2695 125.822 87.2695H125.511V87.7882Z" fill="black"/>
</g>
<defs>
<clipPath id="clip0_226_3714">
<rect width="85.7938" height="55" fill="white" transform="translate(42.103 34.5)"/>
</clipPath>
</defs>
</svg>
