<svg width="170" height="124" viewBox="0 0 170 124" fill="none" xmlns="http://www.w3.org/2000/svg">
<rect width="170" height="124" fill="white"/>
<g clip-path="url(#clip0_226_3655)">
<path fill-rule="evenodd" clip-rule="evenodd" d="M88.149 37.1358C87.8872 37.1745 87.6303 38.149 87.1212 38.6581C86.7479 39.0217 86.2824 39.0023 86.0352 39.4532C85.9382 39.6229 85.9673 39.909 85.8606 40.1853C85.6522 40.738 84.9152 40.7865 84.9152 41.3925C84.9152 42.047 85.5261 42.1682 86.0594 42.6337C86.4764 43.007 86.5152 43.2639 87.0194 43.4433C87.4509 43.5888 88.0908 43.1088 88.6629 43.2833C89.1332 43.4239 89.5889 43.5258 89.6956 44.0106C89.7877 44.4566 89.6908 45.1499 89.1138 45.0723C88.9199 45.0481 88.0811 44.7669 87.0533 44.8784C85.8122 45.019 84.3965 45.4263 84.2559 46.808C84.1783 47.5789 85.1383 48.4952 86.0594 48.3061C86.6994 48.1801 86.394 47.4286 86.743 47.0601C87.1988 46.5898 89.7829 48.6988 92.1876 48.6988C93.2009 48.6988 93.9524 48.4419 94.699 47.6613C94.7669 47.6031 94.8541 47.4722 94.9608 47.4674C95.0626 47.4771 95.242 47.574 95.3002 47.6177C97.2346 49.174 98.6988 52.2914 105.806 52.3302C106.805 52.335 107.944 52.815 108.875 53.6634C109.704 54.4295 110.189 55.627 110.659 56.8342C111.372 58.6523 112.647 60.4171 114.582 62.3854C114.688 62.4921 116.279 63.7284 116.405 63.8205C116.424 63.8351 116.54 64.1114 116.502 64.2666C116.453 65.4447 116.283 68.8773 118.838 69.0324C119.464 69.0663 119.299 68.6251 119.299 68.3246C119.299 67.7282 119.188 67.1319 119.503 66.521C119.934 65.6823 118.591 65.2944 118.63 63.4763C118.659 62.1188 117.52 62.3515 116.943 61.3188C116.608 60.7176 116.313 60.4025 116.337 59.6704C116.468 55.5494 115.459 52.8441 114.96 52.1799C114.567 51.6757 114.242 51.4769 114.601 51.249C116.734 49.8382 117.219 48.5291 117.219 48.5291C118.354 45.8626 119.372 43.4239 120.783 42.3525C121.064 42.1295 121.791 41.5865 122.237 41.378C123.551 40.7574 124.239 40.3841 124.622 40.0108C125.224 39.4241 125.704 38.1975 125.122 37.4557C124.404 36.5394 123.158 37.2667 122.61 37.5915C118.688 39.9187 118.111 44.0251 116.754 46.3814C115.668 48.2673 113.908 49.6491 112.332 49.7606C111.154 49.8479 109.879 49.6103 108.609 49.0528C105.525 47.7001 103.838 45.9547 103.44 45.6493C102.611 45.0093 96.1826 38.6969 90.9707 38.4399C90.9707 38.4399 90.3259 37.1455 90.161 37.1212C89.778 37.0727 89.3902 37.8921 89.109 37.9891C88.8569 38.0715 88.4108 37.0921 88.149 37.1358Z" fill="black"/>
<path fill-rule="evenodd" clip-rule="evenodd" d="M65.2073 74.8164C64.7177 74.8018 64.3007 74.3994 64.3007 73.9049V57.6487H58.9482V75.563C58.9482 76.4405 59.6609 77.1581 60.5336 77.1581H69.8956C70.7731 77.1581 71.4761 76.4405 71.4761 75.563V57.6536H66.1237L66.1188 73.9097C66.1188 74.4043 65.7019 74.8067 65.2073 74.8164Z" fill="black"/>
<path fill-rule="evenodd" clip-rule="evenodd" d="M83.1456 57.6536H75.0345C74.0745 57.6536 73.2939 58.4341 73.2939 59.4038V77.1629H78.6561V60.8728C78.661 60.3734 79.0634 59.9759 79.5627 59.9759C80.0621 59.9759 80.4645 60.3637 80.4742 60.8583V77.1629H85.817V60.8583C85.8218 60.3637 86.2242 59.9759 86.7236 59.9759C87.2181 59.9759 87.6302 60.3734 87.6302 60.8728V77.1629H92.9924V59.3989C92.9924 58.4293 92.2118 57.6487 91.2519 57.6487H83.1456V57.6536Z" fill="black"/>
<path fill-rule="evenodd" clip-rule="evenodd" d="M55.3749 72.2613H49.9594V77.1629H44.6069V57.6535H55.4088C56.3736 57.6535 57.13 58.439 57.13 59.4086V70.5014C57.13 71.4759 56.3445 72.2613 55.3749 72.2613ZM51.7775 60.9067C51.7823 60.3637 51.3412 59.9759 50.8709 59.9759H49.9594V69.8469H50.8709C51.3412 69.8469 51.7823 69.4736 51.7775 68.9306V60.9067Z" fill="black"/>
<path fill-rule="evenodd" clip-rule="evenodd" d="M113.782 74.8503C113.782 76.1739 112.72 77.255 111.406 77.255C110.078 77.255 109.011 76.1836 109.011 74.8503C109.011 73.5413 110.078 72.4504 111.367 72.4504C112.715 72.4504 113.782 73.5122 113.782 74.8503ZM111.367 72.7995C110.291 72.7995 109.389 73.7303 109.389 74.8551C109.389 75.9848 110.291 76.9059 111.401 76.9059C112.502 76.9059 113.394 75.9848 113.394 74.8551C113.394 73.7255 112.502 72.7995 111.401 72.7995H111.367Z" fill="black"/>
<path fill-rule="evenodd" clip-rule="evenodd" d="M112.526 76.2417H111.886L111.062 75.146V76.2417H110.543V73.4782H111.091C111.837 73.4782 112.235 73.7594 112.235 74.2976C112.235 74.6564 112.002 74.9764 111.673 75.0733L111.634 75.0879L112.526 76.2417ZM111.154 74.6952C111.527 74.6952 111.721 74.5643 111.721 74.2976C111.721 74.06 111.532 73.9437 111.168 73.9437H111.062V74.6952H111.154Z" fill="black"/>
<path fill-rule="evenodd" clip-rule="evenodd" d="M101.986 77.1629V72.2662H100.168V77.1629H94.8154V59.3989C94.8154 58.4293 95.596 57.6487 96.556 57.6487H105.598C106.558 57.6487 107.338 58.4293 107.338 59.3989V77.1581H101.986V77.1629ZM101.986 69.8469V60.8631C101.971 60.3686 101.574 59.9856 101.075 59.9856C100.58 59.9856 100.173 60.3831 100.168 60.8776V69.8469H101.986Z" fill="black"/>
<path fill-rule="evenodd" clip-rule="evenodd" d="M44.7573 87V81.6427H45.3537V82.1469C45.4943 81.9481 45.6543 81.8027 45.8336 81.7057C46.0082 81.6039 46.2263 81.5554 46.4785 81.5554C46.8081 81.5554 47.099 81.6427 47.356 81.8124C47.6081 81.9821 47.802 82.2245 47.9281 82.5348C48.059 82.8451 48.122 83.1844 48.122 83.5529C48.122 83.9505 48.0493 84.3044 47.9087 84.6244C47.7681 84.9443 47.5596 85.1868 47.2881 85.3564C47.0166 85.5261 46.7306 85.6086 46.4348 85.6086C46.2166 85.6086 46.0179 85.5601 45.8433 85.468C45.6688 85.3758 45.5282 85.2595 45.4167 85.1189V87.0049H44.7573V87ZM45.3537 83.6014C45.3537 84.1008 45.4555 84.4692 45.6543 84.7068C45.8579 84.9443 46.1003 85.0656 46.3863 85.0656C46.6772 85.0656 46.9293 84.9443 47.1378 84.6922C47.3463 84.445 47.4481 84.062 47.4481 83.5432C47.4481 83.0487 47.3463 82.6802 47.1427 82.433C46.939 82.1857 46.6966 82.0645 46.4154 82.0645C46.1342 82.0645 45.887 82.1954 45.6736 82.4572C45.4603 82.7238 45.3537 83.102 45.3537 83.6014Z" fill="black"/>
<path fill-rule="evenodd" clip-rule="evenodd" d="M55.1908 85.5164V84.9492C54.8902 85.3855 54.4781 85.6037 53.9593 85.6037C53.7314 85.6037 53.5181 85.5601 53.3193 85.4728C53.1206 85.3855 52.9751 85.274 52.8782 85.1431C52.7812 85.0122 52.7133 84.8474 52.6745 84.6583C52.6503 84.5274 52.6357 84.3238 52.6357 84.0426V81.6427H53.2903V83.7905C53.2903 84.1347 53.3048 84.3626 53.329 84.4838C53.3727 84.6583 53.4599 84.7892 53.5908 84.891C53.7266 84.988 53.8914 85.0365 54.0902 85.0365C54.289 85.0365 54.4732 84.988 54.6429 84.8862C54.8175 84.7843 54.9387 84.6486 55.0114 84.4741C55.0841 84.2995 55.118 84.0474 55.118 83.7177V81.6427H55.7726V85.5164H55.1908Z" fill="black"/>
<path fill-rule="evenodd" clip-rule="evenodd" d="M60.5381 85.5164V81.6427H61.1247V82.1857C61.2459 81.9966 61.4108 81.8415 61.6095 81.73C61.8132 81.6136 62.041 81.5554 62.298 81.5554C62.584 81.5554 62.8216 81.6136 63.001 81.7348C63.1852 81.856 63.3161 82.0209 63.3889 82.2342C63.6943 81.7833 64.0967 81.5554 64.5864 81.5554C64.9694 81.5554 65.2651 81.6621 65.4736 81.8754C65.6821 82.0887 65.7839 82.4136 65.7839 82.8596V85.5213H65.1294V83.0778C65.1294 82.816 65.11 82.6269 65.0664 82.5105C65.0227 82.3942 64.9451 82.3021 64.8336 82.2293C64.7221 82.1615 64.5912 82.1227 64.4409 82.1227C64.1694 82.1227 63.9416 82.2148 63.7622 82.3942C63.5828 82.5736 63.4907 82.8644 63.4907 83.262V85.5116H62.8362V82.9954C62.8362 82.7045 62.7828 82.4814 62.6762 82.336C62.5695 82.1905 62.395 82.1178 62.1526 82.1178C61.9683 82.1178 61.7986 82.1663 61.6386 82.2633C61.4835 82.3602 61.3671 82.5008 61.2993 82.6899C61.2265 82.879 61.1926 83.1505 61.1926 83.4996V85.5116H60.5381V85.5164Z" fill="black"/>
<path fill-rule="evenodd" clip-rule="evenodd" d="M73.0272 85.0413C72.7848 85.2498 72.5473 85.3952 72.3242 85.4777C72.0964 85.5601 71.8588 85.6037 71.597 85.6037C71.1704 85.6037 70.8455 85.5019 70.6177 85.2934C70.3898 85.0849 70.2734 84.8183 70.2734 84.4983C70.2734 84.3092 70.3171 84.1347 70.4043 83.9795C70.4916 83.8244 70.6031 83.6983 70.7437 83.6014C70.8843 83.5044 71.0395 83.4365 71.2188 83.3881C71.3449 83.3541 71.5437 83.3202 71.8006 83.2911C72.3291 83.2281 72.7218 83.1505 72.9739 83.0632C72.9788 82.976 72.9788 82.9178 72.9788 82.8935C72.9788 82.6269 72.9157 82.4378 72.7897 82.3263C72.6248 82.176 72.3727 82.1033 72.043 82.1033C71.7328 82.1033 71.5049 82.1566 71.3594 82.2633C71.214 82.3699 71.1025 82.5639 71.0346 82.8402L70.3946 82.7529C70.4528 82.4766 70.5498 82.2536 70.6807 82.0887C70.8116 81.919 71.0104 81.7881 71.2625 81.696C71.5146 81.6039 71.8103 81.5603 72.14 81.5603C72.4697 81.5603 72.7412 81.5991 72.9448 81.6766C73.1533 81.7542 73.3036 81.8512 73.4006 81.9724C73.4975 82.0887 73.5654 82.239 73.6042 82.4184C73.6236 82.5299 73.6381 82.7335 73.6381 83.0244V83.902C73.6381 84.5129 73.6527 84.9007 73.6818 85.0607C73.7108 85.2207 73.7642 85.3807 73.8466 85.5261H73.1581C73.0903 85.3807 73.0466 85.2207 73.0272 85.0413ZM72.9739 83.5723C72.7363 83.6693 72.3776 83.7517 71.9024 83.8196C71.6309 83.8583 71.4419 83.902 71.3304 83.9505C71.2188 83.9989 71.1316 84.0717 71.0734 84.1638C71.0104 84.2559 70.9813 84.3626 70.9813 84.4741C70.9813 84.6486 71.0492 84.7941 71.1801 84.9104C71.311 85.0268 71.5049 85.0849 71.7619 85.0849C72.014 85.0849 72.2418 85.0316 72.4358 84.9201C72.6345 84.8086 72.78 84.6583 72.8721 84.4644C72.9448 84.3141 72.9788 84.0959 72.9788 83.8099V83.5723H72.9739Z" fill="black"/>
<path fill-rule="evenodd" clip-rule="evenodd" d="M78.5786 85.5165V84.7698H79.3252V85.5165H78.5786Z" fill="black"/>
<path fill-rule="evenodd" clip-rule="evenodd" d="M86.7334 84.0959L87.3783 84.1783C87.3104 84.6244 87.1261 84.9734 86.8352 85.2256C86.5444 85.4777 86.1856 85.6037 85.7638 85.6037C85.2353 85.6037 84.8087 85.4292 84.4838 85.085C84.159 84.7407 83.999 84.2414 83.999 83.5917C83.999 83.1747 84.0669 82.8063 84.2075 82.4911C84.3481 82.176 84.5566 81.9433 84.8426 81.7833C85.1238 81.6282 85.4341 81.5457 85.7686 81.5457C86.1904 81.5457 86.5347 81.6524 86.8013 81.8657C87.068 82.079 87.2425 82.3796 87.3152 82.7723L86.6753 82.8693C86.6122 82.6075 86.5056 82.4136 86.3504 82.2827C86.1953 82.1518 86.011 82.0839 85.788 82.0839C85.4583 82.0839 85.1868 82.2002 84.9832 82.4378C84.7747 82.6754 84.6729 83.0487 84.6729 83.5626C84.6729 84.0814 84.7747 84.4595 84.9735 84.6971C85.1723 84.9347 85.4341 85.051 85.7541 85.051C86.011 85.051 86.2244 84.9734 86.3989 84.8135C86.5783 84.668 86.685 84.4256 86.7334 84.0959Z" fill="black"/>
<path fill-rule="evenodd" clip-rule="evenodd" d="M91.4312 83.5771C91.4312 82.8596 91.6299 82.3263 92.0323 81.9821C92.3669 81.696 92.7693 81.5506 93.2492 81.5506C93.7826 81.5506 94.2189 81.7251 94.5534 82.0742C94.8928 82.4233 95.0625 82.9032 95.0625 83.519C95.0625 84.0183 94.9898 84.411 94.8395 84.6971C94.6892 84.9831 94.471 85.2061 94.185 85.3613C93.8989 85.5213 93.5886 85.5989 93.2492 85.5989C92.7062 85.5989 92.2699 85.4243 91.9354 85.0752C91.596 84.7359 91.4312 84.2365 91.4312 83.5771ZM92.1051 83.5771C92.1051 84.0717 92.2117 84.445 92.4299 84.6922C92.6481 84.9395 92.9196 85.0655 93.2492 85.0655C93.5741 85.0655 93.8456 84.9395 94.0638 84.6922C94.2771 84.445 94.3886 84.0668 94.3886 83.5577C94.3886 83.0778 94.2819 82.7141 94.0638 82.4669C93.8456 82.2196 93.5741 82.0984 93.2541 82.0984C92.9244 82.0984 92.6529 82.2196 92.4347 82.4669C92.2117 82.7141 92.1051 83.0826 92.1051 83.5771Z" fill="black"/>
<path fill-rule="evenodd" clip-rule="evenodd" d="M99.5669 85.5164V81.6427H100.154V82.1857C100.275 81.9966 100.44 81.8415 100.638 81.73C100.842 81.6136 101.07 81.5554 101.327 81.5554C101.613 81.5554 101.85 81.6136 102.03 81.7348C102.214 81.856 102.345 82.0209 102.418 82.2342C102.723 81.7833 103.126 81.5554 103.615 81.5554C103.998 81.5554 104.294 81.6621 104.502 81.8754C104.711 82.0887 104.813 82.4136 104.813 82.8596V85.5213H104.158V83.0778C104.158 82.816 104.139 82.6269 104.095 82.5105C104.052 82.3942 103.974 82.3021 103.862 82.2293C103.751 82.1615 103.62 82.1227 103.47 82.1227C103.198 82.1227 102.97 82.2148 102.791 82.3942C102.612 82.5736 102.519 82.8644 102.519 83.262V85.5116H101.865V82.9954C101.865 82.7045 101.812 82.4814 101.705 82.336C101.598 82.1905 101.424 82.1178 101.181 82.1178C100.997 82.1178 100.827 82.1663 100.667 82.2633C100.512 82.3602 100.396 82.5008 100.328 82.6899C100.255 82.879 100.221 83.1505 100.221 83.4996V85.5116H99.5669V85.5164Z" fill="black"/>
</g>
<defs>
<clipPath id="clip0_226_3655">
<rect width="80.7864" height="50" fill="white" transform="translate(44.6069 37)"/>
</clipPath>
</defs>
</svg>
