<svg width="170" height="124" viewBox="0 0 170 124" fill="none" xmlns="http://www.w3.org/2000/svg">
<rect width="170" height="124" fill="white"/>
<path d="M143.419 57.8353C142.745 56.0478 141.168 54.9577 139.58 54.2163C130.226 51.2 121.428 46.8702 112.721 42.5369C108.32 40.5023 103.638 39.2565 98.7731 38.2815C85.946 35.6511 72.6924 37.2693 61.1619 41.3182C50.3492 45.2926 40.5452 52.2122 28.4562 52.9638L27.5523 53.7458C27.0851 55.1575 26.1643 56.7418 26.6687 58.3465L34.6513 72.9644C35.3453 73.9563 35.6703 75.4695 37.0854 75.7607L43.2061 75.9638C45.1527 76.3531 47.5596 75.869 49.1271 77.3179C50.4236 79.295 48.1555 82.0032 50.1596 83.8144C52.6072 86.0792 55.786 86.9391 59.2458 87C62.269 86.7901 65.5595 86.4076 67.2962 83.8618C68.1154 82.6363 67.5399 80.2293 69.5813 79.9991L75.6918 80.9978C87.3002 82.2774 99.7278 81.9761 110.7 79.5184C111.411 79.4371 112.477 79.3694 112.91 80.0871C113.503 81.6139 114.264 83.398 116.032 83.96C121.431 84.9519 126.431 83.1813 130.402 79.7892C132.657 77.7885 133.246 74.6943 132.948 71.6678C133.679 70.4389 135.196 70.0225 136.276 69.0678C139.627 66.1158 144.042 62.7305 143.419 57.8353ZM138.148 54.9882C137.677 56.3119 137.39 57.7236 136.567 58.7764L134.983 58.2144C135.274 56.8874 135.832 55.5705 136.564 54.3382L138.148 54.9882ZM133.734 53.5765C134.438 53.6781 135.152 53.8677 135.585 54.1453L134.096 57.9335C133.385 57.8319 132.857 57.6423 132.335 57.1887C132.715 55.953 133.09 54.6294 133.734 53.5765ZM131.228 54.5075L131.394 55.0424C131.709 57.3546 131.577 59.66 131.98 61.8909C132.867 61.9045 133.5 61.2105 134.302 60.9566C134.732 61.6743 134.807 62.7406 134.79 63.6276C132.908 64.6601 131.018 65.9567 128.964 66.8064C128.588 62.9776 128.486 58.8069 128.297 54.8088C129.19 54.5549 130.257 54.4906 131.228 54.5075ZM125.365 54.9307L125.534 55.5536C125.734 58.9321 125.676 62.0399 126.238 65.3304C126.766 65.5234 127.308 64.9987 127.934 64.8294C128.276 65.6351 128.168 66.5221 128.154 67.3176C126.536 68.3535 124.837 69.122 123.141 69.7111C122.691 65.1781 122.521 59.9376 122.43 55.2319C123.32 54.9814 124.39 54.9137 125.365 54.9307ZM114.427 55.8819C115.415 55.364 116.831 55.5705 118.073 55.4148C119.945 54.9171 119.285 57.3038 119.887 58.2043C120.703 62.1245 121.699 66.0481 122.423 70.053C121.523 70.5743 120.632 70.9975 119.562 71.0686C119.312 70.4423 119.237 69.64 118.892 69.0137C118.273 68.7395 117.555 69.2574 116.932 69.3319C116.296 70.1173 116.627 71.3733 116.346 72.3415C115.27 72.6766 114.288 73.1912 113.222 73.2589L113.14 72.8154L114.427 55.8819ZM103.763 56.4845C104.66 56.058 105.899 56.3457 106.878 56.1866L107.301 57.1717C107.704 59.6634 108.184 62.1617 108.763 64.6567C109.119 64.5755 109.037 64.1286 109.044 63.7766L109.525 56.7723C109.356 56.5895 109.623 56.2408 109.627 56.0614C110.52 55.8142 111.587 55.8312 112.558 55.8515C112.446 61.9755 112.074 67.9134 111.61 73.7701C110.361 74.1865 109.109 74.6096 107.866 74.7654C107.104 72.6224 106.786 70.4863 106.292 68.3434C105.936 68.3366 106.018 68.7835 106.014 69.1389L105.368 75.3409C104.203 75.8521 102.781 75.737 101.536 75.9807L101.194 75.1784L97.3614 56.9957L97.6322 56.8231L101.007 56.6199L101.353 57.0702C101.654 60.1847 102.219 63.2112 102.781 66.2411C103.377 63.0453 103.435 59.8496 103.763 56.4845ZM100.022 47.4457C98.9695 47.0733 97.6525 46.1592 96.4846 46.9379C96.119 47.2866 95.8414 47.8147 96.1901 48.1769C97.9437 49.3652 100.977 48.441 101.817 51.0341C102.243 52.1073 102.04 53.5224 101.224 54.3078C99.8666 55.7905 97.8184 56.2002 95.7838 55.7161C94.9003 55.4351 93.8373 55.2353 93.0553 54.5989C93.3362 53.7187 93.7899 53.1026 94.3349 52.4932C95.4013 52.6929 96.4508 53.4208 97.7846 53.177C98.3195 53.1872 98.8611 52.9299 99.0439 52.4018C99.0812 50.4485 96.6708 51.3828 95.4318 50.9156C94.2807 50.7159 93.3261 49.724 92.9875 48.6508C92.7438 47.4931 92.9402 46.3387 93.7526 45.5566C95.7331 43.996 99.0236 44.0569 101.123 45.428C101.2 46.1389 100.564 46.9277 100.022 47.4457ZM81.1152 76.1297L80.8477 76.2143L77.8348 75.8927L77.5876 75.0023L76.7345 58.7392L76.8293 58.211C77.723 58.0486 78.786 58.1569 79.7644 57.9978C80.2451 60.5842 80.2011 63.1536 80.5058 65.8213C81.1185 66.3697 82.1917 65.9466 82.9872 65.9601L83.1734 65.696L82.7841 57.9673C83.6745 57.6288 84.8356 57.5644 85.8986 57.5848L86.0645 58.0282L87.2392 76.3362C87.3273 76.5156 87.1411 76.6916 86.9684 76.6882C85.902 76.5799 84.7409 76.9117 83.9521 76.2786L83.4578 69.5249C82.6656 69.1559 81.6805 69.579 80.8816 69.5655L80.7021 69.8295L81.1152 76.1297ZM73.8536 75.2833L73.7588 75.5508L70.9253 75.1411C70.475 70.6962 70.2008 66.2478 69.7539 61.8029L69.5813 61.5355L67.005 61.5761C67.022 60.6891 66.5954 59.616 67.0558 58.8238C69.8115 58.6105 72.7466 58.4853 75.4989 58.3566L75.7595 58.6274L75.8036 61.0243C75.0046 61.1901 74.1143 61.2612 73.2273 61.2443L72.9531 61.593L73.8536 75.2833ZM75.4684 55.0728L75.1739 56.6673C74.2835 56.8298 73.2172 56.8975 72.4216 56.796C73.1088 53.2549 73.8807 49.8966 74.7406 46.5384C75.9897 46.1186 77.6756 46.1491 79.0095 46.1762L80.0285 48.7693L82.3779 56.0918C81.5722 56.4304 80.5972 56.2374 79.6222 56.3965C79.1889 55.7702 79.3886 54.5278 78.3222 54.5109C77.3405 54.5718 76.1049 54.2841 75.4684 55.0728ZM86.0137 51.4505C85.8377 51.3591 85.8343 51.5385 85.7429 51.6232L85.9325 55.8007C85.2148 56.2306 84.2466 55.9463 83.3562 56.1088L83.187 55.5705C82.9771 52.5508 82.686 49.1722 82.7469 46.0644C83.6372 45.8139 84.7036 45.7462 85.6786 45.6751L86.0341 45.8579L88.6238 49.9L88.9827 49.8154C88.8236 48.6576 88.9421 47.0631 88.7897 45.6379C89.5954 45.2994 90.7498 45.4077 91.6368 45.4212C91.9279 48.8032 92.1311 52.1818 92.2495 55.4655C91.1764 55.8007 89.9407 55.6043 88.8744 55.6687C87.8283 54.2367 87.1377 52.8927 86.0137 51.4505ZM94.6091 57.0262L94.8766 57.121C95.0357 57.9267 95.0188 58.8069 95.0052 59.6092L91.7993 60.0831L91.5251 60.4318L91.9686 65.2356C92.7607 65.6046 93.8305 65.2695 94.6294 65.4591C94.7852 66.4408 94.951 67.5072 94.8393 68.3908C94.1216 68.8275 93.2414 68.5431 92.4357 68.7936L92.2529 69.0577L92.5204 73.6821L92.9605 74.0409L95.9802 74.0985C96.3255 74.8162 96.3086 75.7031 96.2916 76.5021C94.1521 76.9083 91.7553 76.8643 89.4465 76.9083L89.284 76.2854L88.0788 59.4839L88.028 57.5306C90.1676 57.1244 92.385 57.1616 94.6091 57.0262ZM64.6048 42.5369C65.9624 45.9324 66.6936 49.5852 67.8751 52.9807L68.3253 52.7234L70.2888 42.3744L70.563 42.0223L98.2924 40.3161C99.1827 40.5091 100.794 39.5646 100.77 40.983C100.577 41.6026 101.18 42.5877 100.378 42.9262L75.9356 44.4293L73.3593 44.6494L72.9937 45.1741L70.7357 56.9415L70.2888 57.1108L66.1993 57.3004L65.6814 56.5793C64.2561 51.938 62.6549 47.3813 61.233 42.74C62.2926 42.5809 63.5418 42.4252 64.6048 42.5369ZM63.6773 59.2063L63.7619 59.4738L63.8093 61.6912C62.8275 61.9417 61.8526 61.9248 60.7862 62.0805C60.3291 62.6899 60.7591 63.499 60.7455 64.3013C61.5343 64.7549 62.34 64.2437 63.315 64.4333C63.5689 65.1476 63.4606 66.214 63.5317 67.1043C62.7294 67.3515 61.8424 67.2499 60.9487 67.497C60.6474 69.447 61.1484 71.2311 61.0231 73.093C60.0448 73.1607 58.8971 72.7849 57.9256 72.6766C57.4719 68.3231 57.1063 64.1422 57.0115 59.6126C59.2357 59.3011 61.3685 59.0777 63.6773 59.2063ZM49.364 60.0967C51.4122 59.7751 53.6329 59.7311 55.7657 59.5923L55.9384 59.9477L56.1652 62.0839C56.0704 62.2565 55.891 62.3412 55.6235 62.4326L53.0473 62.6458C52.6817 63.1706 52.9322 63.9729 53.0134 64.5992C53.6228 65.1442 54.6959 64.8091 55.4949 64.8226L55.7556 65.0968L55.8876 67.5817C55.1699 68.0996 53.9342 67.6325 53.2165 68.1504C53.0134 69.3894 53.3486 70.642 53.2335 71.9725C52.2551 71.9555 51.1075 71.7558 50.1325 71.5594L49.8718 71.1972L49.2726 60.2693L49.364 60.0967ZM44.9292 60.0154C45.9888 60.2998 46.957 60.8516 47.563 61.6641C49.0289 63.9966 49.056 67.1957 48.037 69.6603C47.3024 70.9772 45.9618 71.5764 44.5365 71.7287C42.9386 71.7863 41.5303 70.9602 40.7585 69.5249C39.7327 67.2871 39.4416 63.9966 40.7246 61.8029C41.7267 60.4894 43.2535 59.3621 44.9292 60.0154ZM38.4768 58.3837C39.2588 59.379 39.4145 60.6214 40.1051 61.7013C39.7395 62.2261 38.9372 62.3852 38.4023 62.6458C37.8843 61.6607 37.1091 60.4928 36.7739 59.2436C37.1396 58.8069 37.7658 58.4649 38.4768 58.3837ZM35.8904 63.7529C35.3826 62.5917 34.6005 61.6032 34.2688 60.3472C34.8104 59.9139 35.4333 59.7514 36.0562 59.6735C36.6588 60.7501 37.258 61.9146 37.5932 63.0758C37.0549 63.4177 36.4219 63.9424 35.8904 63.7529ZM61.602 85.0907C58.7448 85.744 55.109 85.5883 53.1996 83.3337C53.0337 82.6261 53.4874 82.186 54.0256 81.8407C56.7915 81.0926 59.9771 81.685 62.164 83.2355L62.5093 83.7738C62.4992 84.4001 62.0489 84.8334 61.602 85.0907ZM65.9827 83.3066C65.8913 83.5706 65.7051 83.8313 65.4376 83.916L64.9095 83.8178C61.6968 80.033 55.935 79.4845 51.2937 80.815C50.8536 80.7168 50.8603 80.2699 50.8671 79.9179C50.8773 79.2069 51.3377 78.5062 52.052 78.1609C56.9472 77.4567 62.0794 78.1744 65.7525 81.3465C66.3652 81.7189 66.0808 82.6837 65.9827 83.3066ZM127.924 79.5658C126.205 81.5767 124.051 82.6024 121.479 82.6464C121.032 82.4603 120.5 82.4501 120.25 81.9118C120.094 80.754 120.994 80.06 121.716 79.3627C123.253 78.0593 125.213 77.389 127.335 77.7817L127.86 78.1406C128.215 78.5096 128.114 79.0377 127.924 79.5658ZM130.463 76.8643C130.186 77.301 129.57 77.1114 129.217 77.02C126.042 75.8013 122.467 77.1554 120.03 79.4202C118.598 79.928 118.086 83.7365 116.082 81.5631C115.649 81.2077 115.744 80.5848 115.93 80.1413C119.095 76.8304 122.955 74.5927 127.4 74.4065C128.554 74.5149 129.979 74.1899 130.582 75.263C130.66 75.8013 130.826 76.5122 130.463 76.8643ZM141.94 61.2748C138.835 65.8315 133.28 68.5702 128.618 71.1464C115.077 78.5333 99.3046 81.7019 82.8146 80.4189C71.7242 79.9483 61.6664 76.6578 50.6775 75.6523L38.3583 74.5352C38.1856 74.3557 37.8302 74.349 37.9216 73.9969C38.1078 73.4654 38.1213 72.8425 38.6596 72.5886C43.5446 72.68 48.0573 73.3875 52.658 74.0003L74.0838 77.0606C88.8744 79.1088 104.515 78.2421 117.65 73.4248C126.316 70.5642 134.214 65.6554 141.696 59.9274C142.133 60.2118 142.031 60.8313 141.94 61.2748Z" fill="#E31119"/>
<path d="M44.6786 68.797C46.0362 67.4023 45.0984 65.256 44.9528 63.5633C44.6956 63.0284 43.7274 62.568 43.2737 63.1774C42.7117 64.6805 42.942 66.6338 43.3583 68.1504C43.5276 68.6887 44.1437 68.8783 44.6786 68.797Z" fill="#E31119"/>
<path d="M118.245 65.6318C118.09 64.1219 117.765 62.5139 117.348 61.0887C117.05 62.5917 116.935 64.2743 116.993 65.7841C117.433 65.9703 117.88 65.8891 118.245 65.6318Z" fill="#E31119"/>
<path d="M76.3281 51.894C76.7648 52.1716 77.3031 52.0024 77.75 51.8331C77.5875 51.0308 77.2489 50.225 76.8156 49.504C76.4466 50.2115 76.5211 51.0985 76.3281 51.894Z" fill="#E31119"/>
<path d="M138.121 73.3503C137.813 73.6449 137.451 73.7938 137.031 73.7904C136.587 73.7871 136.215 73.6347 135.917 73.3334C135.623 73.0355 135.47 72.6631 135.467 72.2264C135.467 71.766 135.633 71.3902 135.954 71.0889C136.262 70.8012 136.618 70.6658 137.034 70.659C137.461 70.659 137.833 70.808 138.131 71.1126C138.436 71.4241 138.588 71.7897 138.588 72.223C138.591 72.6699 138.436 73.049 138.121 73.3503ZM136.117 71.3327C135.866 71.5832 135.744 71.8811 135.744 72.2332C135.744 72.5886 135.873 72.8967 136.127 73.1506C136.377 73.3977 136.679 73.523 137.034 73.5196C137.386 73.5264 137.694 73.3944 137.945 73.1438C138.192 72.8933 138.317 72.5853 138.317 72.2366C138.317 71.8845 138.192 71.5832 137.941 71.3361C137.684 71.072 137.383 70.9468 137.034 70.9468C136.675 70.9468 136.371 71.072 136.117 71.3327ZM136.34 73.0964V71.3699C136.445 71.3631 136.608 71.3699 136.824 71.3699C137.038 71.3733 137.159 71.3699 137.176 71.3699C137.319 71.3801 137.43 71.4072 137.522 71.4647C137.677 71.546 137.752 71.6848 137.752 71.8743C137.752 72.0199 137.711 72.1249 137.633 72.1858C137.552 72.2535 137.457 72.2873 137.336 72.3009C137.444 72.3212 137.525 72.3618 137.583 72.4058C137.688 72.4905 137.742 72.6225 137.738 72.7985L137.742 72.9509C137.738 72.9678 137.745 72.9847 137.738 73.005C137.738 73.0186 137.745 73.0389 137.745 73.049L137.759 73.1066L137.332 73.0964C137.319 73.049 137.305 72.9678 137.302 72.8595C137.302 72.7579 137.288 72.6902 137.271 72.6496C137.247 72.5853 137.203 72.5446 137.143 72.5209C137.109 72.5108 137.058 72.4972 136.983 72.4939H136.889L136.79 72.4905V73.1066L136.34 73.0964ZM137.166 71.7017C137.102 71.6746 137.011 71.6644 136.895 71.6644H136.784V72.1689H136.963C137.071 72.1722 137.156 72.1519 137.214 72.1113C137.271 72.0605 137.305 71.9894 137.305 71.8946C137.308 71.8032 137.261 71.7355 137.166 71.7017Z" fill="#E31119"/>
</svg>
